<?xml version="1.0" encoding="UTF-8"?>
<svg version="1.1" xmlns="http://www.w3.org/2000/svg" width="144" height="97">
<path d="M0 0 C4.00202528 3.4472891 5.39950468 7.87937803 6.015625 12.984375 C5.578125 16.359375 5.578125 16.359375 4.015625 19.421875 C2.28244237 22.96359603 2.80769878 24.59284681 3.578125 28.359375 C2.588125 29.349375 2.588125 29.349375 1.578125 30.359375 C2.568125 32.009375 3.558125 33.659375 4.578125 35.359375 C8.208125 34.699375 11.838125 34.039375 15.578125 33.359375 C15.5575 32.26625 15.536875 31.173125 15.515625 30.046875 C15.578125 26.359375 15.578125 26.359375 16.578125 23.359375 C14.928125 23.029375 13.278125 22.699375 11.578125 22.359375 C11.34416564 19.5050708 11.17057448 17.15715422 11.578125 14.359375 C13.390625 12.296875 13.390625 12.296875 16.578125 11.359375 C20.30941113 11.33786903 23.92597948 11.57719247 27.578125 12.359375 C29.578125 14.359375 29.578125 14.359375 30.015625 17.296875 C29.578125 20.359375 29.578125 20.359375 27.390625 22.171875 C24.75151167 23.2861673 22.40682733 23.95527467 19.578125 24.359375 C20.568125 25.844375 20.568125 25.844375 21.578125 27.359375 C21.8875 28.32875 22.196875 29.298125 22.515625 30.296875 C23.37179871 33.31558791 23.37179871 33.31558791 25.078125 35.234375 C27.2712111 38.34124698 28.31109051 41.55985567 28.578125 45.359375 C27.62719203 47.05451637 26.62704738 48.72305608 25.578125 50.359375 C25.4829596 54.02912018 25.4829596 54.02912018 26.578125 57.359375 C27.13757813 57.62105469 27.69703125 57.88273437 28.2734375 58.15234375 C31.79420382 59.99627052 33.88688697 62.94948119 36.390625 65.984375 C37.45389306 67.25435354 38.51769283 68.52388712 39.58203125 69.79296875 C40.0939502 70.40640137 40.60586914 71.01983398 41.13330078 71.65185547 C43.49645934 74.44467923 45.97580922 77.1316502 48.46875 79.80859375 C49.578125 81.359375 49.578125 81.359375 49.578125 84.359375 C48.918125 84.359375 48.258125 84.359375 47.578125 84.359375 C46.09765625 82.85546875 46.09765625 82.85546875 44.390625 80.796875 C42.02650395 78.01093982 39.62817591 75.35136922 37.015625 72.796875 C34.0883152 69.92890256 31.43450039 66.91264465 28.83984375 63.7421875 C27.60598202 62.22359862 27.60598202 62.22359862 25.578125 61.359375 C25.248125 67.629375 24.918125 73.899375 24.578125 80.359375 C21.608125 80.359375 18.638125 80.359375 15.578125 80.359375 C15.908125 79.699375 16.238125 79.039375 16.578125 78.359375 C17.568125 78.359375 18.558125 78.359375 19.578125 78.359375 C18.918125 75.059375 18.258125 71.759375 17.578125 68.359375 C16.588125 72.319375 15.598125 76.279375 14.578125 80.359375 C13.216875 80.38 11.855625 80.400625 10.453125 80.421875 C9.30457031 80.43927734 9.30457031 80.43927734 8.1328125 80.45703125 C5.578125 80.359375 5.578125 80.359375 2.91772461 79.87084961 C-0.86605901 79.29134623 -4.59162376 79.1511774 -8.41015625 79.078125 C-9.93554703 79.04037102 -11.46093765 79.00261042 -12.98632812 78.96484375 C-15.37407841 78.91098658 -17.76185924 78.85878048 -20.1496582 78.80712891 C-22.46577033 78.75558093 -24.78169034 78.69831703 -27.09765625 78.640625 C-27.81738113 78.62704956 -28.53710602 78.61347412 -29.27864075 78.5994873 C-34.30893444 78.47231556 -34.30893444 78.47231556 -35.421875 77.359375 C-35.49446446 75.17298047 -35.50561283 72.98437111 -35.484375 70.796875 C-35.47535156 69.59933594 -35.46632812 68.40179688 -35.45703125 67.16796875 C-35.44542969 66.24113281 -35.43382812 65.31429687 -35.421875 64.359375 C-36.13472656 64.14023438 -36.84757812 63.92109375 -37.58203125 63.6953125 C-45.47878995 61.08077328 -51.97848382 57.67790165 -56.421875 50.359375 C-56.421875 49.699375 -56.421875 49.039375 -56.421875 48.359375 C-57.081875 48.359375 -57.741875 48.359375 -58.421875 48.359375 C-61.34923122 64.98164722 -61.34923122 64.98164722 -59.421875 81.359375 C-61.401875 81.359375 -63.381875 81.359375 -65.421875 81.359375 C-66.081875 79.049375 -66.741875 76.739375 -67.421875 74.359375 C-67.091875 76.669375 -66.761875 78.979375 -66.421875 81.359375 C-68.401875 81.359375 -70.381875 81.359375 -72.421875 81.359375 C-72.56625 80.06 -72.710625 78.760625 -72.859375 77.421875 C-72.95089844 76.60460937 -73.04242188 75.78734375 -73.13671875 74.9453125 C-73.32215939 73.26364529 -73.50214591 71.5813646 -73.67578125 69.8984375 C-73.75699219 69.12242188 -73.83820313 68.34640625 -73.921875 67.546875 C-73.9940625 66.83917969 -74.06625 66.13148437 -74.140625 65.40234375 C-74.37247652 63.36829745 -74.37247652 63.36829745 -74.953125 61.484375 C-75.57323171 58.67322457 -75.47685382 56.04795457 -75.421875 53.171875 C-75.3734696 47.79282501 -75.73420951 42.68878255 -76.421875 37.359375 C-76.421875 36.369375 -76.421875 35.379375 -76.421875 34.359375 C-78.37784684 32.96225226 -80.3877844 31.64009871 -82.421875 30.359375 C-84.79060592 28.81159497 -86.40320029 27.42728568 -88.421875 25.359375 C-88.484375 22.484375 -88.484375 22.484375 -87.421875 19.359375 C-87.050625 18.225 -86.679375 17.090625 -86.296875 15.921875 C-84.34727579 11.58835993 -81.09500243 8.31457298 -77.421875 5.359375 C-71.50791974 3.38805658 -64.13108324 3.32095986 -58.296875 5.671875 C-55.421875 7.359375 -55.421875 7.359375 -53.421875 10.359375 C-53.34282436 12.69136888 -53.33388731 15.02770122 -53.421875 17.359375 C-52.92558594 16.96105469 -52.42929687 16.56273438 -51.91796875 16.15234375 C-43.10040628 9.27564892 -36.53319436 7.90823873 -25.421875 8.359375 C-24.99648437 7.20501953 -24.99648437 7.20501953 -24.5625 6.02734375 C-22.66436425 1.58752623 -19.87363386 -0.94630554 -15.546875 -3.015625 C-9.81591782 -4.16181644 -4.90859101 -3.05128631 0 0 Z M-65.421875 29.359375 C-64.84734754 33.29013144 -64.84734754 33.29013144 -62.421875 36.359375 C-61.431875 36.359375 -60.441875 36.359375 -59.421875 36.359375 C-58.761875 32.729375 -58.101875 29.099375 -57.421875 25.359375 C-60.70345984 25.359375 -62.80068608 27.53593923 -65.421875 29.359375 Z M-3.421875 36.359375 C-3.69902344 37.19082031 -3.97617188 38.02226563 -4.26171875 38.87890625 C-5.6484375 43.0390625 -7.03515625 47.19921875 -8.421875 51.359375 C-4.791875 51.359375 -1.161875 51.359375 2.578125 51.359375 C2.908125 50.699375 3.238125 50.039375 3.578125 49.359375 C2.68146158 47.11627487 1.68665817 44.91183179 0.640625 42.734375 C-0.20822266 40.95160156 -0.20822266 40.95160156 -1.07421875 39.1328125 C-1.74130859 37.75996094 -1.74130859 37.75996094 -2.421875 36.359375 C-2.751875 36.359375 -3.081875 36.359375 -3.421875 36.359375 Z M6.578125 42.359375 C6.8328764 43.67509103 7.10746641 44.98697876 7.390625 46.296875 C7.54144531 47.02777344 7.69226563 47.75867187 7.84765625 48.51171875 C8.08871094 49.12144531 8.32976562 49.73117188 8.578125 50.359375 C9.568125 50.689375 10.558125 51.019375 11.578125 51.359375 C11.908125 48.389375 12.238125 45.419375 12.578125 42.359375 C10.598125 42.359375 8.618125 42.359375 6.578125 42.359375 Z M-3.421875 59.359375 C-3.421875 59.689375 -3.421875 60.019375 -3.421875 60.359375 C-0.121875 60.359375 3.178125 60.359375 6.578125 60.359375 C6.578125 60.029375 6.578125 59.699375 6.578125 59.359375 C3.278125 59.359375 -0.021875 59.359375 -3.421875 59.359375 Z M-31.421875 64.359375 C-31.421875 64.689375 -31.421875 65.019375 -31.421875 65.359375 C-18.551875 65.359375 -5.681875 65.359375 7.578125 65.359375 C7.578125 65.029375 7.578125 64.699375 7.578125 64.359375 C-5.291875 64.359375 -18.161875 64.359375 -31.421875 64.359375 Z " fill="#FDE8A3" transform="translate(94.421875,3.640625)"/>
<path d="M0 0 C3.02907239 1.65741697 5.28259679 3.05433213 7.375 5.8125 C8.65727049 10.30044672 8.41817382 13.91274806 6.75 18.25 C4.50714672 21.77448372 3.05347508 23.45919931 -1.046875 24.5390625 C-5.26676126 25.2612578 -7.43842949 25.2703858 -11.375 23.375 C-16.58327821 18.66274828 -17.42668731 14.76508979 -18 8 C-19.21105069 13.50477588 -18.8209971 16.14788499 -16 21 C-16 21.66 -16 22.32 -16 23 C-14.824375 23.4640625 -14.824375 23.4640625 -13.625 23.9375 C-11 25 -11 25 -9 26 C-9 26.66 -9 27.32 -9 28 C-10.65 28 -12.3 28 -14 28 C-14.33 29.32 -14.66 30.64 -15 32 C-16.43836751 31.88541307 -17.87570966 31.75790884 -19.3125 31.625 C-20.11300781 31.55539063 -20.91351563 31.48578125 -21.73828125 31.4140625 C-24 31 -24 31 -27 29 C-29.19690104 29.01196696 -29.19690104 29.01196696 -31.5 29.4375 C-34.65380677 29.93685274 -35.87980059 30.04006647 -39 29 C-39 28.01 -39 27.02 -39 26 C-39.86625 26.04125 -40.7325 26.0825 -41.625 26.125 C-45.12358468 25.99542279 -47.74551597 25.23980344 -51 24 C-51.33 24.66 -51.66 25.32 -52 26 C-53.64551962 26.71727778 -55.31422289 27.38325228 -57 28 C-57.66 28.33 -58.32 28.66 -59 29 C-58.7525 30.1446875 -58.7525 30.1446875 -58.5 31.3125 C-58 34 -58 34 -58 37 C-58.99 36.01 -59.98 35.02 -61 34 C-60.67 37.63 -60.34 41.26 -60 45 C-60.99 45 -61.98 45 -63 45 C-63.66 39.72 -64.32 34.44 -65 29 C-64.34 29 -63.68 29 -63 29 C-63 28.34 -63 27.68 -63 27 C-63.99 27.33 -64.98 27.66 -66 28 C-66.71706982 29.98248715 -67.38290413 31.98415349 -68 34 C-68.66 34.66 -69.32 35.32 -70 36 C-70.38800781 35.59136719 -70.77601562 35.18273438 -71.17578125 34.76171875 C-73.39735963 32.6162544 -75.76690297 30.73011583 -78.1875 28.8125 C-79.08855469 28.09707031 -79.98960938 27.38164062 -80.91796875 26.64453125 C-81.60503906 26.10183594 -82.29210937 25.55914063 -83 25 C-81.6401079 16.18542666 -78.9952826 10.62802282 -72 5 C-66.08604474 3.02868158 -58.70920824 2.96158486 -52.875 5.3125 C-50 7 -50 7 -48 10 C-47.92094936 12.33199388 -47.91201231 14.66832622 -48 17 C-47.50371094 16.60167969 -47.00742187 16.20335938 -46.49609375 15.79296875 C-37.67853128 8.91627392 -31.11131936 7.54886373 -20 8 C-19.71125 7.236875 -19.4225 6.47375 -19.125 5.6875 C-18 3 -18 3 -16 0 C-15.01 0.495 -15.01 0.495 -14 1 C-14 1.66 -14 2.32 -14 3 C-13.401875 2.525625 -12.80375 2.05125 -12.1875 1.5625 C-7.94431307 -1.46834781 -4.9529684 -1.09133202 0 0 Z " fill="#FDDF7B" transform="translate(89,4)"/>
<path d="M0 0 C3.125 0.52083333 6.25 1.04166667 9.375 1.5625 C10.674375 1.7790625 10.674375 1.7790625 12 2 C12 2.99 12 3.98 12 5 C15.17871061 5.07568359 17.79862942 5.05690908 20.875 4.1875 C25.00698119 3.93958113 26.86623901 5.44203859 30.16796875 7.7734375 C32.08935654 9.17701509 32.08935654 9.17701509 35 10 C34.67 10.99 34.34 11.98 34 13 C33.35933594 12.86980469 32.71867187 12.73960938 32.05859375 12.60546875 C26.85266573 11.64735383 26.85266573 11.64735383 21.953125 13.1171875 C20.7999527 14.06115598 19.65495536 15.0152253 18.51953125 15.98046875 C18.01808594 16.31691406 17.51664063 16.65335938 17 17 C14.375 16.375 14.375 16.375 12 15 C8.61665991 14.15416498 5.48207438 13.64286417 2 14 C1.34 14.495 0.68 14.99 0 15.5 C-2.49016793 17.36762594 -3.96060155 17.2532832 -7 17 C-7 17.66 -7 18.32 -7 19 C-5.35 19 -3.7 19 -2 19 C-1.90234375 25.15234375 -1.90234375 25.15234375 -2 27 C-2.33 27.33 -2.66 27.66 -3 28 C-4.26326371 36.90522934 -5.86939917 48.39180249 -3 57 C-4.98 57 -6.96 57 -9 57 C-9.99 53.535 -9.99 53.535 -11 50 C-10.67 52.31 -10.34 54.62 -10 57 C-11.98 57 -13.96 57 -16 57 C-16.144375 55.700625 -16.28875 54.40125 -16.4375 53.0625 C-16.52902344 52.24523437 -16.62054687 51.42796875 -16.71484375 50.5859375 C-16.90028439 48.90427029 -17.08027091 47.2219896 -17.25390625 45.5390625 C-17.37572266 44.37503906 -17.37572266 44.37503906 -17.5 43.1875 C-17.5721875 42.47980469 -17.644375 41.77210937 -17.71875 41.04296875 C-17.95060152 39.00892245 -17.95060152 39.00892245 -18.53125 37.125 C-19.15135671 34.31384957 -19.05497882 31.68857957 -19 28.8125 C-18.94991359 24.76005379 -19.06898226 20.94123849 -19.6875 16.9375 C-20 13 -20 13 -18.6875 10.8125 C-18.130625 10.214375 -17.57375 9.61625 -17 9 C-16.5359375 7.4221875 -16.5359375 7.4221875 -16.0625 5.8125 C-15.711875 4.884375 -15.36125 3.95625 -15 3 C-12.875 2.125 -12.875 2.125 -11 2 C-11.33 2.99 -11.66 3.98 -12 5 C-12.66 5 -13.32 5 -14 5 C-13.67 5.66 -13.34 6.32 -13 7 C-12.76970044 9.37123246 -12.58880058 11.74741943 -12.4375 14.125 C-12.35371094 15.40632813 -12.26992188 16.68765625 -12.18359375 18.0078125 C-12.12300781 18.99523437 -12.06242187 19.98265625 -12 21 C-11.01 21 -10.02 21 -9 21 C-9.15597656 20.39671875 -9.31195313 19.7934375 -9.47265625 19.171875 C-9.66730469 18.37265625 -9.86195312 17.5734375 -10.0625 16.75 C-10.25972656 15.96109375 -10.45695312 15.1721875 -10.66015625 14.359375 C-11.01497267 11.89605178 -10.76877544 10.34395868 -10 8 C-9.38125 8.99 -9.38125 8.99 -8.75 10 C-8.1725 10.66 -7.595 11.32 -7 12 C-5.68 12 -4.36 12 -3 12 C-2.95101562 11.38511719 -2.90203125 10.77023438 -2.8515625 10.13671875 C-2.77679688 9.32847656 -2.70203125 8.52023438 -2.625 7.6875 C-2.55539063 6.88699219 -2.48578125 6.08648437 -2.4140625 5.26171875 C-2 3 -2 3 0 0 Z " fill="#9393AB" transform="translate(38,28)"/>
<path d="M0 0 C4.0683033 2.5289453 5.8949647 5.9402005 7.3125 10.4375 C7.94820307 15.70475397 7.10608213 18.94781444 4.3125 23.4375 C2.125 25.8125 2.125 25.8125 0.3125 27.4375 C0.9725 29.7475 1.6325 32.0575 2.3125 34.4375 C1.3225 34.9325 1.3225 34.9325 0.3125 35.4375 C-0.6775 34.9425 -0.6775 34.9425 -1.6875 34.4375 C-1.914375 35.55125 -2.14125 36.665 -2.375 37.8125 C-3.6875 41.4375 -3.6875 41.4375 -5.9375 42.875 C-8.92926755 43.48695245 -11.64160582 43.5791695 -14.6875 43.4375 C-14.6875 44.0975 -14.6875 44.7575 -14.6875 45.4375 C-15.6775 45.9325 -15.6775 45.9325 -16.6875 46.4375 C-17.0175 47.4275 -17.3475 48.4175 -17.6875 49.4375 C-23.64672917 53.58124308 -30.61621626 54.58325628 -37.6875 53.4375 C-40.1875 51.75 -40.1875 51.75 -41.6875 49.4375 C-42.285625 48.591875 -42.88375 47.74625 -43.5 46.875 C-44.6875 44.4375 -44.6875 44.4375 -43.6875 41.4375 C-47.1525 41.9325 -47.1525 41.9325 -50.6875 42.4375 C-50.6875 41.7775 -50.6875 41.1175 -50.6875 40.4375 C-51.3475 40.4375 -52.0075 40.4375 -52.6875 40.4375 C-53.0175 43.7375 -53.3475 47.0375 -53.6875 50.4375 C-53.0275 50.4375 -52.3675 50.4375 -51.6875 50.4375 C-52.0175 51.4275 -52.3475 52.4175 -52.6875 53.4375 C-53.3475 52.1175 -54.0075 50.7975 -54.6875 49.4375 C-55.3475 49.4375 -56.0075 49.4375 -56.6875 49.4375 C-56.6875 47.7875 -56.6875 46.1375 -56.6875 44.4375 C-58.3375 44.4375 -59.9875 44.4375 -61.6875 44.4375 C-61.6875 43.7775 -61.6875 43.1175 -61.6875 42.4375 C-60.800625 42.14875 -59.91375 41.86 -59 41.5625 C-55.78655941 40.52983043 -55.78655941 40.52983043 -53.1875 39.3125 C-50.12627074 38.24106976 -47.91407147 38.1013988 -44.6875 38.4375 C-43.841875 38.97375 -42.99625 39.51 -42.125 40.0625 C-39.75776087 41.76400965 -39.75776087 41.76400965 -37.125 40.8125 C-34.68488167 39.54666131 -34.68488167 39.54666131 -32.86328125 37.83203125 C-30.0774737 36.04651366 -28.66877184 36.28231592 -25.4375 36.75 C-24.54546875 36.86988281 -23.6534375 36.98976562 -22.734375 37.11328125 C-22.05890625 37.22027344 -21.3834375 37.32726563 -20.6875 37.4375 C-20.1925 36.4475 -20.1925 36.4475 -19.6875 35.4375 C-20.8940625 35.251875 -20.8940625 35.251875 -22.125 35.0625 C-22.970625 34.85625 -23.81625 34.65 -24.6875 34.4375 C-25.0175 33.7775 -25.3475 33.1175 -25.6875 32.4375 C-23.3775 32.4375 -21.0675 32.4375 -18.6875 32.4375 C-18.3575 31.4475 -18.0275 30.4575 -17.6875 29.4375 C-16.0375 29.4375 -14.3875 29.4375 -12.6875 29.4375 C-12.6875 28.7775 -12.6875 28.1175 -12.6875 27.4375 C-13.43 27.19 -14.1725 26.9425 -14.9375 26.6875 C-18.81725194 24.92397639 -20.90435686 22.81732362 -23 19.125 C-23.90080165 15.60368447 -23.49928524 12.95523605 -22.6875 9.4375 C-22.0275 9.1075 -21.3675 8.7775 -20.6875 8.4375 C-20.60113281 9.25734375 -20.51476562 10.0771875 -20.42578125 10.921875 C-19.68960183 17.51074176 -19.68960183 17.51074176 -16.5 23.125 C-11.57367481 25.42395175 -8.20147709 25.86646018 -2.9375 24.375 C0.92176552 22.07428402 1.92615737 20.67807744 3.3125 16.4375 C3.70746244 10.81140326 3.70746244 10.81140326 2.3125 5.4375 C0.49648635 4.23746657 0.49648635 4.23746657 -1.6875 3.4375 C-2.265 3.045625 -2.8425 2.65375 -3.4375 2.25 C-6.93863701 0.98570052 -10.17761645 1.47598018 -13.6875 2.4375 C-15.91530837 3.59840436 -17.68893662 4.88861338 -19.6875 6.4375 C-19.125 3.625 -19.125 3.625 -17.6875 0.4375 C-11.50167776 -3.32250959 -6.3949213 -3.05429077 0 0 Z " fill="#FABCAA" transform="translate(92.6875,2.5625)"/>
<path d="M0 0 C2.875 1.6875 2.875 1.6875 4.875 4.6875 C6.24187245 10.44789103 6.04775221 13.93383431 3.12109375 19.12890625 C1.875 20.6875 1.875 20.6875 -0.6875 21.5625 C-1.491875 21.60375 -2.29625 21.645 -3.125 21.6875 C-4.115 22.3475 -5.105 23.0075 -6.125 23.6875 C-5.8775 24.8321875 -5.8775 24.8321875 -5.625 26 C-5.125 28.6875 -5.125 28.6875 -5.125 31.6875 C-6.115 30.6975 -7.105 29.7075 -8.125 28.6875 C-7.795 32.3175 -7.465 35.9475 -7.125 39.6875 C-8.115 39.6875 -9.105 39.6875 -10.125 39.6875 C-10.785 34.4075 -11.445 29.1275 -12.125 23.6875 C-11.465 23.6875 -10.805 23.6875 -10.125 23.6875 C-10.125 23.0275 -10.125 22.3675 -10.125 21.6875 C-11.115 22.0175 -12.105 22.3475 -13.125 22.6875 C-13.84206982 24.66998715 -14.50790413 26.67165349 -15.125 28.6875 C-15.785 29.3475 -16.445 30.0075 -17.125 30.6875 C-17.51300781 30.27886719 -17.90101562 29.87023437 -18.30078125 29.44921875 C-20.52235963 27.3037544 -22.89190297 25.41761583 -25.3125 23.5 C-26.21355469 22.78457031 -27.11460938 22.06914062 -28.04296875 21.33203125 C-28.73003906 20.78933594 -29.41710937 20.24664063 -30.125 19.6875 C-28.7651079 10.87292666 -26.1202826 5.31552282 -19.125 -0.3125 C-13.21104474 -2.28381842 -5.83420824 -2.35091514 0 0 Z " fill="#FEF1E2" transform="translate(36.125,9.3125)"/>
<path d="M0 0 C0.66 0 1.32 0 2 0 C2 0.66 2 1.32 2 2 C2.5775 1.649375 3.155 1.29875 3.75 0.9375 C6.35801776 -0.14917407 7.39417629 0.06934867 10 1 C9.7525 1.53625 9.505 2.0725 9.25 2.625 C8.86035276 6.32664876 10.79146991 8.16046131 13 11 C17.33367225 13.16683613 23.65226464 12.71344608 28.2109375 11.328125 C29.83124726 10.6034295 31.41918511 9.80722462 33 9 C33.66 9 34.32 9 35 9 C35.33 7.68 35.66 6.36 36 5 C36.66 5 37.32 5 38 5 C38 4.34 38 3.68 38 3 C38.69867188 2.86722656 39.39734375 2.73445313 40.1171875 2.59765625 C41.48230469 2.33275391 41.48230469 2.33275391 42.875 2.0625 C44.23238281 1.80146484 44.23238281 1.80146484 45.6171875 1.53515625 C47.99956317 1.10036299 47.99956317 1.10036299 50 0 C49.59506311 5.26417962 48.94094584 7.52269485 45 11 C44.46375 11.9075 43.9275 12.815 43.375 13.75 C42.92125 14.4925 42.4675 15.235 42 16 C41.34 16 40.68 16 40 16 C40 16.66 40 17.32 40 18 C39.1028125 18.4021875 39.1028125 18.4021875 38.1875 18.8125 C35.97474333 19.83719401 35.97474333 19.83719401 34.7421875 21.5234375 C30.43511213 25.17382873 22.60345103 24.1362485 17.23828125 23.85546875 C10.80164484 22.93594926 5.19707256 20.05879036 1 15 C0.7578125 12.26953125 0.7578125 12.26953125 1 10 C0.34 10 -0.32 10 -1 10 C-1.125 2.25 -1.125 2.25 0 0 Z " fill="#FDE17B" transform="translate(40,43)"/>
<path d="M0 0 C1.05445312 0.09667969 2.10890625 0.19335938 3.1953125 0.29296875 C5.875 0.8125 5.875 0.8125 7.875 2.8125 C8.3125 5.75 8.3125 5.75 7.875 8.8125 C4.78215445 11.37514345 1.81167948 12.25011722 -2.125 12.8125 C-1.135 14.2975 -1.135 14.2975 -0.125 15.8125 C0.3390625 17.2665625 0.3390625 17.2665625 0.8125 18.75 C1.66867371 21.76871291 1.66867371 21.76871291 3.375 23.6875 C5.48791035 26.68078967 6.98368397 30.1027537 6.875 33.8125 C5.30078125 36.078125 5.30078125 36.078125 2.875 37.8125 C-0.140625 37.984375 -0.140625 37.984375 -3.375 37.5625 C-4.45265625 37.43359375 -5.5303125 37.3046875 -6.640625 37.171875 C-7.46046875 37.05328125 -8.2803125 36.9346875 -9.125 36.8125 C-9.125 34.8325 -9.125 32.8525 -9.125 30.8125 C-11.105 30.8125 -13.085 30.8125 -15.125 30.8125 C-14.795 32.4625 -14.465 34.1125 -14.125 35.8125 C-14.785 35.4825 -15.445 35.1525 -16.125 34.8125 C-16.97556945 31.25557323 -17.29409807 29.31979422 -16.125 25.8125 C-17.115 25.4825 -18.105 25.1525 -19.125 24.8125 C-19.125 24.1525 -19.125 23.4925 -19.125 22.8125 C-19.785 23.1425 -20.445 23.4725 -21.125 23.8125 C-21.78055119 26.33983235 -21.78055119 26.33983235 -22.125 28.8125 C-23.445 28.1525 -24.765 27.4925 -26.125 26.8125 C-26.125 24.5025 -26.125 22.1925 -26.125 19.8125 C-25.795 20.4725 -25.465 21.1325 -25.125 21.8125 C-24.135 21.8125 -23.145 21.8125 -22.125 21.8125 C-22.785 19.1725 -23.445 16.5325 -24.125 13.8125 C-22.805 12.8225 -21.485 11.8325 -20.125 10.8125 C-19.465 12.7925 -18.805 14.7725 -18.125 16.8125 C-18.785 17.4725 -19.445 18.1325 -20.125 18.8125 C-19.135 20.4625 -18.145 22.1125 -17.125 23.8125 C-11.68 22.8225 -11.68 22.8225 -6.125 21.8125 C-6.145625 20.719375 -6.16625 19.62625 -6.1875 18.5 C-6.125 14.8125 -6.125 14.8125 -5.125 11.8125 C-7.6 11.3175 -7.6 11.3175 -10.125 10.8125 C-10.515625 4.85546875 -10.515625 4.85546875 -10.125 2.8125 C-6.99256606 -0.58971294 -4.43399619 -0.46300943 0 0 Z " fill="#FBEDE5" transform="translate(116.125,15.1875)"/>
<path d="M0 0 C3.02907239 1.65741697 5.28259679 3.05433213 7.375 5.8125 C8.65727049 10.30044672 8.41817382 13.91274806 6.75 18.25 C4.50714672 21.77448372 3.05347508 23.45919931 -1.046875 24.5390625 C-5.26676126 25.2612578 -7.43842949 25.2703858 -11.375 23.375 C-16.62804388 18.62224602 -17.35311563 14.79228584 -18 8 C-18.2475 7.2575 -18.495 6.515 -18.75 5.75 C-19 4 -19 4 -17.5625 1.75 C-17.046875 1.1725 -16.53125 0.595 -16 0 C-15.34 0.33 -14.68 0.66 -14 1 C-14 1.66 -14 2.32 -14 3 C-13.401875 2.525625 -12.80375 2.05125 -12.1875 1.5625 C-7.94431307 -1.46834781 -4.9529684 -1.09133202 0 0 Z " fill="#FAE6DF" transform="translate(89,4)"/>
<path d="M0 0 C3.63 0.33 7.26 0.66 11 1 C11.390625 3.27864583 11.78125 5.55729167 12.171875 7.8359375 C13.26164897 10.68374307 14.29899714 10.67027552 17 12 C19.0894091 14.07872939 20.9380037 16.35283848 22.8125 18.625 C23.87576806 19.89497854 24.93956783 21.16451212 26.00390625 22.43359375 C26.5158252 23.04702637 27.02774414 23.66045898 27.55517578 24.29248047 C29.91833434 27.08530423 32.39768422 29.7722752 34.890625 32.44921875 C36 34 36 34 36 37 C35.34 37 34.68 37 34 37 C32.51953125 35.49609375 32.51953125 35.49609375 30.8125 33.4375 C28.44837895 30.65156482 26.05005091 27.99199422 23.4375 25.4375 C20.5101902 22.56952756 17.85637539 19.55326965 15.26171875 16.3828125 C14.02785702 14.86422362 14.02785702 14.86422362 12 14 C11.67 20.27 11.34 26.54 11 33 C8.03 33 5.06 33 2 33 C2.33 32.34 2.66 31.68 3 31 C3.99 31 4.98 31 6 31 C5.34 27.7 4.68 24.4 4 21 C3.01 24.96 2.02 28.92 1 33 C-1.97 33 -4.94 33 -8 33 C-7.34 32.34 -6.68 31.68 -6 31 C-5.01 31 -4.02 31 -3 31 C-2.98018066 30.27409668 -2.96036133 29.54819336 -2.93994141 28.80029297 C-2.8443181 25.49151525 -2.73478993 22.1833367 -2.625 18.875 C-2.5940625 17.73289062 -2.563125 16.59078125 -2.53125 15.4140625 C-2.47324219 13.75117187 -2.47324219 13.75117187 -2.4140625 12.0546875 C-2.3826416 11.03874512 -2.3512207 10.02280273 -2.31884766 8.97607422 C-1.97408555 5.75811858 -1.12449188 3.0262641 0 0 Z " fill="#9397AE" transform="translate(108,51)"/>
<path d="M0 0 C4.0683033 2.5289453 5.8949647 5.9402005 7.3125 10.4375 C7.94820307 15.70475397 7.10608213 18.94781444 4.3125 23.4375 C2.125 25.8125 2.125 25.8125 0.3125 27.4375 C0.9725 29.7475 1.6325 32.0575 2.3125 34.4375 C1.3225 34.9325 1.3225 34.9325 0.3125 35.4375 C-0.3475 35.1075 -1.0075 34.7775 -1.6875 34.4375 C-2.0175 36.0875 -2.3475 37.7375 -2.6875 39.4375 C-6.1525 39.9325 -6.1525 39.9325 -9.6875 40.4375 C-9.6875 41.0975 -9.6875 41.7575 -9.6875 42.4375 C-10.6775 42.4375 -11.6675 42.4375 -12.6875 42.4375 C-17.27975513 34.175541 -17.27975513 34.175541 -16.6875 29.4375 C-15.3675 29.4375 -14.0475 29.4375 -12.6875 29.4375 C-12.6875 28.7775 -12.6875 28.1175 -12.6875 27.4375 C-13.43 27.19 -14.1725 26.9425 -14.9375 26.6875 C-18.81725194 24.92397639 -20.90435686 22.81732362 -23 19.125 C-23.90080165 15.60368447 -23.49928524 12.95523605 -22.6875 9.4375 C-22.0275 9.1075 -21.3675 8.7775 -20.6875 8.4375 C-20.60113281 9.25734375 -20.51476562 10.0771875 -20.42578125 10.921875 C-19.68960183 17.51074176 -19.68960183 17.51074176 -16.5 23.125 C-11.57367481 25.42395175 -8.20147709 25.86646018 -2.9375 24.375 C0.92176552 22.07428402 1.92615737 20.67807744 3.3125 16.4375 C3.70746244 10.81140326 3.70746244 10.81140326 2.3125 5.4375 C0.49648635 4.23746657 0.49648635 4.23746657 -1.6875 3.4375 C-2.265 3.045625 -2.8425 2.65375 -3.4375 2.25 C-6.93863701 0.98570052 -10.17761645 1.47598018 -13.6875 2.4375 C-15.91530837 3.59840436 -17.68893662 4.88861338 -19.6875 6.4375 C-19.125 3.625 -19.125 3.625 -17.6875 0.4375 C-11.50167776 -3.32250959 -6.3949213 -3.05429077 0 0 Z " fill="#EEC5BB" transform="translate(92.6875,2.5625)"/>
<path d="M0 0 C23.265 0.495 23.265 0.495 47 1 C47 1.99 47 2.98 47 4 C34.79 4.33 22.58 4.66 10 5 C28.315 5.495 28.315 5.495 47 6 C47 6.99 47 7.98 47 9 C33.14 9 19.28 9 5 9 C5 10.32 5 11.64 5 13 C8.23865635 14.07955212 10.79155838 14.20441741 14.19921875 14.31640625 C16.01196289 14.37924805 16.01196289 14.37924805 17.86132812 14.44335938 C19.12396484 14.48267578 20.38660156 14.52199219 21.6875 14.5625 C23.59885742 14.62727539 23.59885742 14.62727539 25.54882812 14.69335938 C28.69910852 14.7995486 31.84946839 14.90159533 35 15 C35 14.01 35 13.02 35 12 C39.29 12 43.58 12 48 12 C48 13.32 48 14.64 48 16 C45.69585497 17.15207251 44.48960002 17.09632197 41.93334961 17.03759766 C40.67711037 17.01229477 40.67711037 17.01229477 39.39549255 16.98648071 C38.49025345 16.9625827 37.58501434 16.93868469 36.65234375 16.9140625 C35.26179527 16.88220352 35.26179527 16.88220352 33.84315491 16.84970093 C31.88194668 16.80340576 29.92079919 16.75447484 27.9597168 16.703125 C24.94658132 16.62523475 21.93333985 16.55812985 18.91992188 16.4921875 C17.01821332 16.44595989 15.11651986 16.39910621 13.21484375 16.3515625 C12.30758041 16.33171295 11.40031708 16.3118634 10.46556091 16.29141235 C4.1150333 16.1150333 4.1150333 16.1150333 3 15 C3.00907865 11.66359794 3.13338291 8.33788721 3.2578125 5.00390625 C3.17273437 4.01261719 3.08765625 3.02132812 3 2 C2.01 1.34 1.02 0.68 0 0 Z M7 2 C7 2.33 7 2.66 7 3 C19.87 3 32.74 3 46 3 C46 2.67 46 2.34 46 2 C33.13 2 20.26 2 7 2 Z " fill="#FCECB8" transform="translate(56,66)"/>
<path d="M0 0 C0.33 0 0.66 0 1 0 C1 4.95 1 9.9 1 15 C2.98 15 4.96 15 7 15 C7 10.71 7 6.42 7 2 C7.99 2 8.98 2 10 2 C10.96070434 4.88211302 11.10581883 6.69850044 11.0625 9.6875 C11.05347656 10.49574219 11.04445313 11.30398437 11.03515625 12.13671875 C11.02355469 12.75160156 11.01195312 13.36648437 11 14 C11.66 14 12.32 14 13 14 C13 10.7 13 7.4 13 4 C13.66 4.33 14.32 4.66 15 5 C14.9278125 5.70382813 14.855625 6.40765625 14.78125 7.1328125 C13.12309084 20.71279053 13.12309084 20.71279053 15 34 C13.02 34 11.04 34 9 34 C8.34 31.69 7.68 29.38 7 27 C7.33 29.31 7.66 31.62 8 34 C6.02 34 4.04 34 2 34 C1.855625 32.700625 1.71125 31.40125 1.5625 30.0625 C1.42521484 28.83660156 1.42521484 28.83660156 1.28515625 27.5859375 C1.09971561 25.90427029 0.91972909 24.2219896 0.74609375 22.5390625 C0.66488281 21.76304688 0.58367188 20.98703125 0.5 20.1875 C0.4278125 19.47980469 0.355625 18.77210937 0.28125 18.04296875 C0.05393652 16.00693466 0.05393652 16.00693466 -0.55859375 14.12890625 C-1.15715502 11.24203996 -0.84887896 8.67742938 -0.5625 5.75 C-0.46066406 4.67234375 -0.35882812 3.5946875 -0.25390625 2.484375 C-0.17011719 1.66453125 -0.08632813 0.8446875 0 0 Z " fill="#EAC6BE" transform="translate(20,51)"/>
<path d="M0 0 C0.85464844 -0.00515625 1.70929687 -0.0103125 2.58984375 -0.015625 C5.18224567 0.26286367 6.82764234 0.94330828 9.0625 2.25 C9.0625 4.56 9.0625 6.87 9.0625 9.25 C7.4125 9.25 5.7625 9.25 4.0625 9.25 C4.0625 10.24 4.0625 11.23 4.0625 12.25 C1.39583333 11.58333333 -1.27083333 10.91666667 -3.9375 10.25 C-4.2675 11.9 -4.5975 13.55 -4.9375 15.25 C-9.45468381 16.61884358 -12.52524263 15.72075246 -16.9375 14.25 C-18.0625 9.5 -18.0625 9.5 -16.9375 7.25 C-13.9675 7.25 -10.9975 7.25 -7.9375 7.25 C-7.999375 6.46625 -8.06125 5.6825 -8.125 4.875 C-8.063125 4.00875 -8.00125 3.1425 -7.9375 2.25 C-4.71002945 0.09835297 -3.73244361 -0.02245079 0 0 Z " fill="#F2DCCF" transform="translate(23.9375,15.75)"/>
<path d="M0 0 C1.98 0 3.96 0 6 0 C6.10088172 4.43879572 5.99760653 8.00478695 4 12 C2.35448038 12.71727778 0.68577711 13.38325228 -1 14 C-1.99 14.495 -1.99 14.495 -3 15 C-2.7525 16.1446875 -2.7525 16.1446875 -2.5 17.3125 C-2 20 -2 20 -2 23 C-2.99 22.01 -3.98 21.02 -5 20 C-4.67 23.63 -4.34 27.26 -4 31 C-4.99 31 -5.98 31 -7 31 C-7.66 25.72 -8.32 20.44 -9 15 C-8.34 15 -7.68 15 -7 15 C-7 14.34 -7 13.68 -7 13 C-7.99 13.33 -8.98 13.66 -10 14 C-10.71706982 15.98248715 -11.38290413 17.98415349 -12 20 C-12.66 20.66 -13.32 21.32 -14 22 C-14.37125 21.608125 -14.7425 21.21625 -15.125 20.8125 C-17.63262955 18.3884581 -20.30593426 16.21512072 -23 14 C-19.92677456 13.08941469 -17.19902639 12.91113816 -14 13 C-13.67 11.35 -13.34 9.7 -13 8 C-10.23723823 8.52268466 -7.6739124 9.10869587 -5 10 C-5 9.01 -5 8.02 -5 7 C-3.35 7 -1.7 7 0 7 C0 4.69 0 2.38 0 0 Z " fill="#FCF2E4" transform="translate(33,18)"/>
<path d="M0 0 C3.5 1.8125 3.5 1.8125 6 4 C6 4.99 6 5.98 6 7 C6.66 7 7.32 7 8 7 C8 8.65 8 10.3 8 12 C8.74765625 11.855625 9.4953125 11.71125 10.265625 11.5625 C11.25046875 11.376875 12.2353125 11.19125 13.25 11 C14.22453125 10.814375 15.1990625 10.62875 16.203125 10.4375 C19 10 19 10 23 10 C22.505 7.525 22.505 7.525 22 5 C29.6775 1.8875 29.6775 1.8875 32.6875 2.9375 C33.450625 3.288125 34.21375 3.63875 35 4 C35 3.34 35 2.68 35 2 C38.465 1.505 38.465 1.505 42 1 C40 4 40 4 37.6171875 4.51171875 C36.71226563 4.56972656 35.80734375 4.62773438 34.875 4.6875 C33.50988281 4.78611328 33.50988281 4.78611328 32.1171875 4.88671875 C31.06917969 4.94279297 31.06917969 4.94279297 30 5 C30 5.66 30 6.32 30 7 C29.34 7.33 28.68 7.66 28 8 C27.67 8.99 27.34 9.98 27 11 C21.04077083 15.14374308 14.07128374 16.14575628 7 15 C4.5 13.3125 4.5 13.3125 3 11 C2.401875 10.154375 1.80375 9.30875 1.1875 8.4375 C0 6 0 6 1 3 C-1.31 3.33 -3.62 3.66 -6 4 C-6 3.34 -6 2.68 -6 2 C-6.66 2 -7.32 2 -8 2 C-8.33 5.3 -8.66 8.6 -9 12 C-8.34 12 -7.68 12 -7 12 C-7.33 12.99 -7.66 13.98 -8 15 C-8.66 13.68 -9.32 12.36 -10 11 C-10.66 11 -11.32 11 -12 11 C-12 9.35 -12 7.7 -12 6 C-13.65 6 -15.3 6 -17 6 C-17 5.34 -17 4.68 -17 4 C-15.6078125 3.566875 -15.6078125 3.566875 -14.1875 3.125 C-3.69632369 -0.57776811 -3.69632369 -0.57776811 0 0 Z " fill="#FCD98A" transform="translate(48,41)"/>
<path d="M0 0 C2 0 2 0 3.6015625 1.2265625 C5.33286113 3.42211998 5.32785243 4.6121522 5.375 7.375 C5.65874137 11.24018796 5.90979859 11.89219831 8.5625 15.0625 C9.366875 15.701875 10.17125 16.34125 11 17 C11.33 16.01 11.66 15.02 12 14 C12 15.65 12 17.3 12 19 C5.4 19 -1.2 19 -8 19 C-8 20.32 -8 21.64 -8 23 C-2.72 23 2.56 23 8 23 C7.67 23.99 7.34 24.98 7 26 C-1.58 26 -10.16 26 -19 26 C-19 25.34 -19 24.68 -19 24 C-17.68 23.67 -16.36 23.34 -15 23 C-15 22.34 -15 21.68 -15 21 C-14.34 21 -13.68 21 -13 21 C-12.7525 20.2575 -12.505 19.515 -12.25 18.75 C-10.90852699 15.79875938 -9.39094474 14.15185026 -7 12 C-7.33 13.32 -7.66 14.64 -8 16 C-4.7 16 -1.4 16 2 16 C1.505 15.01 1.01 14.02 0.5 13 C-1.29833837 8.84346319 -1.30990009 5.49355125 -1 1 C-0.67 0.67 -0.34 0.34 0 0 Z " fill="#FCECBB" transform="translate(95,38)"/>
<path d="M0 0 C1.05445312 0.09667969 2.10890625 0.19335938 3.1953125 0.29296875 C5.875 0.8125 5.875 0.8125 7.875 2.8125 C8.3125 5.75 8.3125 5.75 7.875 8.8125 C4.78215445 11.37514345 1.81167948 12.25011722 -2.125 12.8125 C-1.135 14.2975 -1.135 14.2975 -0.125 15.8125 C-0.5 19 -0.5 19 -1.125 21.8125 C-2.445 21.4825 -3.765 21.1525 -5.125 20.8125 C-6.25 15.1875 -6.25 15.1875 -5.125 11.8125 C-6.775 11.4825 -8.425 11.1525 -10.125 10.8125 C-10.515625 4.85546875 -10.515625 4.85546875 -10.125 2.8125 C-6.99256606 -0.58971294 -4.43399619 -0.46300943 0 0 Z " fill="#EFD9CA" transform="translate(116.125,15.1875)"/>
<path d="M0 0 C0.88277755 4.51815281 1.10589503 8.77512694 1.0625 13.375 C1.05347656 14.62023437 1.04445313 15.86546875 1.03515625 17.1484375 C1.02355469 18.08945313 1.01195313 19.03046875 1 20 C-1.97 20 -4.94 20 -8 20 C-7.67 19.34 -7.34 18.68 -7 18 C-6.01 18 -5.02 18 -4 18 C-4.66 14.7 -5.32 11.4 -6 8 C-6.99 11.96 -7.98 15.92 -9 20 C-11.97 20 -14.94 20 -18 20 C-17.34 19.34 -16.68 18.68 -16 18 C-15.01 18 -14.02 18 -13 18 C-13.01160156 17.35933594 -13.02320312 16.71867187 -13.03515625 16.05859375 C-13.08883119 10.91346778 -12.88169578 6.06975076 -12 1 C-11.67 1 -11.34 1 -11 1 C-10.67 3.97 -10.34 6.94 -10 10 C-9.79375 9.278125 -9.5875 8.55625 -9.375 7.8125 C-7.60162624 4.18514459 -4.38671046 0 0 0 Z " fill="#9EA1B4" transform="translate(118,64)"/>
<path d="M0 0 C2.0360882 1.27754554 4.04109119 2.60699818 6 4 C6.99 4.33 7.98 4.66 9 5 C8.67 5.99 8.34 6.98 8 8 C7.35933594 7.86980469 6.71867187 7.73960938 6.05859375 7.60546875 C0.85266573 6.64735383 0.85266573 6.64735383 -4.046875 8.1171875 C-5.19862821 9.05999433 -6.34233873 10.01273854 -7.4765625 10.9765625 C-7.97929688 11.31429687 -8.48203125 11.65203125 -9 12 C-11.6875 11.4375 -11.6875 11.4375 -14 10 C-14.763125 9.62875 -15.52625 9.2575 -16.3125 8.875 C-16.869375 8.58625 -17.42625 8.2975 -18 8 C-17.690625 7.4225 -17.38125 6.845 -17.0625 6.25 C-16.07416636 4.15705816 -15.4831387 2.25464725 -15 0 C-13.88625 0.020625 -12.7725 0.04125 -11.625 0.0625 C-0.51612903 -0.12903226 -0.51612903 -0.12903226 0 0 Z " fill="#D3A190" transform="translate(64,33)"/>
<path d="M0 0 C3.125 0.52083333 6.25 1.04166667 9.375 1.5625 C10.674375 1.7790625 10.674375 1.7790625 12 2 C11.59287177 7.19088499 10.91382777 10.41232454 7 14 C4.375 14.25 4.375 14.25 2 14 C1.01 14.495 1.01 14.495 0 15 C0.33 13.68 0.66 12.36 1 11 C-0.32 11.33 -1.64 11.66 -3 12 C-2.88541307 10.56163249 -2.75790884 9.12429034 -2.625 7.6875 C-2.55539063 6.88699219 -2.48578125 6.08648437 -2.4140625 5.26171875 C-2 3 -2 3 0 0 Z " fill="#BAB0BA" transform="translate(38,28)"/>
<path d="M0 0 C1.80230168 3.82989106 2.19622241 6.78121808 2 11 C-0.31 11.33 -2.62 11.66 -5 12 C-5 12.66 -5 13.32 -5 14 C-5.99 14 -6.98 14 -8 14 C-12.59225513 5.738041 -12.59225513 5.738041 -12 1 C-7.9472484 0.01751476 -4.16138263 -0.08159574 0 0 Z " fill="#A8A4B6" transform="translate(88,31)"/>
<path d="M0 0 C0.495 0.680625 0.99 1.36125 1.5 2.0625 C3.74267312 4.19795864 3.74267312 4.19795864 6.046875 4.04296875 C8.04389436 3.77740767 10.02452318 3.39509536 12 3 C10.125 7.875 10.125 7.875 9 9 C7.33382885 9.04063832 5.66611905 9.042721 4 9 C4 9.66 4 10.32 4 11 C5.65 11 7.3 11 9 11 C9 13.64 9 16.28 9 19 C8.01 19 7.02 19 6 19 C6 22.3 6 25.6 6 29 C5.34 29 4.68 29 4 29 C3.67 25.04 3.34 21.08 3 17 C2.01 17 1.02 17 0 17 C0 18.65 0 20.3 0 22 C-0.33 22 -0.66 22 -1 22 C-1 20.02 -1 18.04 -1 16 C-0.34 16 0.32 16 1 16 C1.11138159 10.54230189 0.91657981 5.38490641 0 0 Z " fill="#B9A7B1" transform="translate(27,36)"/>
<path d="M0 0 C0.33 0 0.66 0 1 0 C1.0825 1.11375 1.165 2.2275 1.25 3.375 C1.4975 4.57125 1.745 5.7675 2 7 C2.55558594 7.268125 3.11117187 7.53625 3.68359375 7.8125 C7.22556502 9.62828291 9.30619073 12.58698947 11.8125 15.625 C12.87576806 16.89497854 13.93956783 18.16451212 15.00390625 19.43359375 C15.5158252 20.04702637 16.02774414 20.66045898 16.55517578 21.29248047 C18.91833434 24.08530423 21.39768422 26.7722752 23.890625 29.44921875 C25 31 25 31 25 34 C24.34 34 23.68 34 23 34 C21.51953125 32.49609375 21.51953125 32.49609375 19.8125 30.4375 C17.44837895 27.65156482 15.05005091 24.99199422 12.4375 22.4375 C9.5101902 19.56952756 6.85637539 16.55326965 4.26171875 13.3828125 C3.02785702 11.86422362 3.02785702 11.86422362 1 11 C0.67 11.66 0.34 12.32 0 13 C0 8.71 0 4.42 0 0 Z " fill="#FCECDC" transform="translate(119,54)"/>
<path d="M0 0 C-2.49505962 2.49505962 -3.67328888 2.35948376 -7.125 2.625 C-8.03507812 2.69976562 -8.94515625 2.77453125 -9.8828125 2.8515625 C-10.58148438 2.90054688 -11.28015625 2.94953125 -12 3 C-12 3.66 -12 4.32 -12 5 C-12.99 5.495 -12.99 5.495 -14 6 C-14.33 6.99 -14.66 7.98 -15 9 C-21.88761022 11.51662681 -28.74452009 11.19908329 -36 11 C-36 9.35 -36 7.7 -36 6 C-36.66 6 -37.32 6 -38 6 C-38 5.01 -38 4.02 -38 3 C-37.34 3 -36.68 3 -36 3 C-36 3.66 -36 4.32 -36 5 C-35.34 5 -34.68 5 -34 5 C-34 6.65 -34 8.3 -34 10 C-33.25234375 9.855625 -32.5046875 9.71125 -31.734375 9.5625 C-30.74953125 9.376875 -29.7646875 9.19125 -28.75 9 C-27.77546875 8.814375 -26.8009375 8.62875 -25.796875 8.4375 C-23 8 -23 8 -19 8 C-19.33 6.35 -19.66 4.7 -20 3 C-12.3225 -0.1125 -12.3225 -0.1125 -9.3125 0.9375 C-8.549375 1.288125 -7.78625 1.63875 -7 2 C-7 1.34 -7 0.68 -7 0 C-2.25 -1.125 -2.25 -1.125 0 0 Z " fill="#FAC49A" transform="translate(90,43)"/>
<path d="M0 0 C2 0 2 0 3.5859375 1.2109375 C5.34138771 3.43192147 5.45167991 4.82451228 5.625 7.625 C5.60877773 10.61148183 5.60877773 10.61148183 7 13 C7.04063832 14.66617115 7.042721 16.33388095 7 18 C6.01 18 5.02 18 4 18 C0.19326015 12.12674423 -1.75551963 8.05151652 -1 1 C-0.67 0.67 -0.34 0.34 0 0 Z " fill="#F5BDB1" transform="translate(95,38)"/>
<path d="M0 0 C2.97 0 5.94 0 9 0 C8.67 1.32 8.34 2.64 8 4 C8.66 4 9.32 4 10 4 C10 3.01 10 2.02 10 1 C10.66 1 11.32 1 12 1 C11.67 2.98 11.34 4.96 11 7 C7.01803543 8.05404945 4.01804691 7.84098656 0 7 C0 4.69 0 2.38 0 0 Z " fill="#EDD2C3" transform="translate(8,24)"/>
<path d="M0 0 C0.33 0.99 0.66 1.98 1 3 C2.65 3 4.3 3 6 3 C5.54625 3.37125 5.0925 3.7425 4.625 4.125 C2.53405682 6.53762675 1.96337027 8.98143983 1 12 C0.34 12.66 -0.32 13.32 -1 14 C-1.37125 13.608125 -1.7425 13.21625 -2.125 12.8125 C-4.63262955 10.3884581 -7.30593426 8.21512072 -10 6 C-6.92677456 5.08941469 -4.19902639 4.91113816 -1 5 C-0.67 3.35 -0.34 1.7 0 0 Z " fill="#FAECDE" transform="translate(20,26)"/>
<path d="M0 0 C0.33 0 0.66 0 1 0 C1.33 3.96 1.66 7.92 2 12 C4.97 11.01 7.94 10.02 11 9 C9 13 9 13 7 15 C4.1796875 14.9765625 4.1796875 14.9765625 0.875 14.625 C-0.22070312 14.51414062 -1.31640625 14.40328125 -2.4453125 14.2890625 C-3.28835937 14.19367187 -4.13140625 14.09828125 -5 14 C-5 13.34 -5 12.68 -5 12 C-4.01 12 -3.02 12 -2 12 C-1.34 8.04 -0.68 4.08 0 0 Z " fill="#DBBAB9" transform="translate(112,38)"/>
<path d="M0 0 C0.78034905 2.67548244 1.12717712 5.14459409 1.4375 7.9375 C1.81922722 11.23143646 2.58230147 13.97557646 4 17 C3.01 16.67 2.02 16.34 1 16 C0.04501962 13.45338565 -0.52529928 10.89398398 -1.15625 8.25 C-1.4346875 7.5075 -1.713125 6.765 -2 6 C-7.81109182 4.06296939 -14.06636277 4.78284364 -20 6 C-15.38381153 2.33888501 -12.15952603 1.87960865 -6.3125 1.9375 C-4.54326172 1.95103516 -4.54326172 1.95103516 -2.73828125 1.96484375 C-1.83464844 1.97644531 -0.93101563 1.98804688 0 2 C0 1.34 0 0.68 0 0 Z " fill="#FDE19D" transform="translate(69,10)"/>
<path d="M0 0 C0.66 0.33 1.32 0.66 2 1 C3.15014372 4.45043117 4 7.35282355 4 11 C3.01 10.01 2.02 9.02 1 8 C1.33 11.63 1.66 15.26 2 19 C1.01 19 0.02 19 -1 19 C-1.66 13.72 -2.32 8.44 -3 3 C-2.34 3 -1.68 3 -1 3 C-0.67 2.01 -0.34 1.02 0 0 Z " fill="#DBBCB6" transform="translate(27,30)"/>
<path d="M0 0 C0.33 0 0.66 0 1 0 C1.04898438 0.62648438 1.09796875 1.25296875 1.1484375 1.8984375 C1.22320312 2.71570313 1.29796875 3.53296875 1.375 4.375 C1.44460937 5.18710938 1.51421875 5.99921875 1.5859375 6.8359375 C1.82892588 9.20334191 1.82892588 9.20334191 4 11 C3.96712417 13.72869407 3.43602229 16.2966618 3 19 C0.03 19 -2.94 19 -6 19 C-5.34 18.34 -4.68 17.68 -4 17 C-3.01 17 -2.02 17 -1 17 C-1.01160156 16.35933594 -1.02320312 15.71867187 -1.03515625 15.05859375 C-1.08883119 9.91346778 -0.88169578 5.06975076 0 0 Z " fill="#A09C9F" transform="translate(106,65)"/>
<path d="M0 0 C0.99 0 1.98 0 3 0 C3.96070434 2.88211302 4.10581883 4.69850044 4.0625 7.6875 C4.05347656 8.49574219 4.04445313 9.30398437 4.03515625 10.13671875 C4.02355469 10.75160156 4.01195312 11.36648437 4 12 C4.66 12.33 5.32 12.66 6 13 C5.67 14.98 5.34 16.96 5 19 C4.34 18.34 3.68 17.68 3 17 C3 15.68 3 14.36 3 13 C2.01 13 1.02 13 0 13 C0 8.71 0 4.42 0 0 Z " fill="#E3B4B4" transform="translate(27,53)"/>
<path d="M0 0 C1.0725 0.09796875 2.145 0.1959375 3.25 0.296875 C4.3225 0.38453125 5.395 0.4721875 6.5 0.5625 C9.25 1.046875 9.25 1.046875 11.25 3.046875 C11.375 6.171875 11.375 6.171875 11.25 9.046875 C10.59 8.056875 9.93 7.066875 9.25 6.046875 C8.486875 6.211875 7.72375 6.376875 6.9375 6.546875 C4.25 7.046875 4.25 7.046875 1.25 7.046875 C1.25 5.396875 1.25 3.746875 1.25 2.046875 C-0.73 2.046875 -2.71 2.046875 -4.75 2.046875 C-2.75 0.046875 -2.75 0.046875 0 0 Z " fill="#F6E1D3" transform="translate(112.75,14.953125)"/>
<path d="M0 0 C0.33 0 0.66 0 1 0 C1.08636719 0.81984375 1.17273438 1.6396875 1.26171875 2.484375 C1.95538845 9.15462142 1.95538845 9.15462142 5.4375 14.625 C6.283125 15.07875 7.12875 15.5325 8 16 C8.99 16.66 9.98 17.32 11 18 C10.67 18.99 10.34 19.98 10 21 C9.67 20.34 9.34 19.68 9 19 C7.8553125 18.566875 7.8553125 18.566875 6.6875 18.125 C2.78605408 16.49183659 0.76109102 14.34096989 -1.3125 10.6875 C-2.20716401 7.19017705 -1.74131224 4.50438515 -1 1 C-0.67 0.67 -0.34 0.34 0 0 Z " fill="#EBBFA1" transform="translate(71,11)"/>
<path d="M0 0 C0.7425 1.0209375 0.7425 1.0209375 1.5 2.0625 C3.74267312 4.19795864 3.74267312 4.19795864 6.046875 4.04296875 C8.04389436 3.77740767 10.02452318 3.39509536 12 3 C10.125 7.875 10.125 7.875 9 9 C7.00041636 9.04080783 4.99954746 9.04254356 3 9 C2.67 9.66 2.34 10.32 2 11 C0.80712589 7.12315913 0 4.08378077 0 0 Z " fill="#9295A9" transform="translate(27,36)"/>
<path d="M0 0 C0.763125 0.20625 1.52625 0.4125 2.3125 0.625 C1.9825 1.285 1.6525 1.945 1.3125 2.625 C-0.0075 2.295 -1.3275 1.965 -2.6875 1.625 C-3.0175 4.925 -3.3475 8.225 -3.6875 11.625 C-3.0275 11.625 -2.3675 11.625 -1.6875 11.625 C-2.0175 12.615 -2.3475 13.605 -2.6875 14.625 C-3.3475 13.305 -4.0075 11.985 -4.6875 10.625 C-5.3475 10.625 -6.0075 10.625 -6.6875 10.625 C-6.6875 8.975 -6.6875 7.325 -6.6875 5.625 C-8.3375 5.625 -9.9875 5.625 -11.6875 5.625 C-11.6875 4.965 -11.6875 4.305 -11.6875 3.625 C-10.2953125 3.191875 -10.2953125 3.191875 -8.875 2.75 C-0.77638889 -0.10833333 -0.77638889 -0.10833333 0 0 Z " fill="#F0DFB2" transform="translate(42.6875,41.375)"/>
<path d="M0 0 C0.33 0 0.66 0 1 0 C1.10094304 8.41192037 1.10102642 16.64399592 0 25 C-0.33 25 -0.66 25 -1 25 C-1.33 22.03 -1.66 19.06 -2 16 C-4.31 15.67 -6.62 15.34 -9 15 C-9 14.34 -9 13.68 -9 13 C-7.865625 12.855625 -6.73125 12.71125 -5.5625 12.5625 C-2.19222799 12.38828522 -2.19222799 12.38828522 -1 11 C-0.76636119 9.15108054 -0.58696365 7.29511969 -0.4375 5.4375 C-0.35371094 4.42558594 -0.26992187 3.41367187 -0.18359375 2.37109375 C-0.12300781 1.58863281 -0.06242187 0.80617187 0 0 Z " fill="#EEE4AE" transform="translate(105,57)"/>
<path d="M0 0 C3.9492568 0.55105909 7.34920174 1.38935371 11 3 C7.38742702 5.40838199 4.25399546 7.08842954 0 8 C0 5.36 0 2.72 0 0 Z " fill="#A5A2B4" transform="translate(38,28)"/>
<path d="M0 0 C0.66 0 1.32 0 2 0 C2.99 0 3.98 0 5 0 C5 0.99 5 1.98 5 3 C4.01 3 3.02 3 2 3 C2 3.99 2 4.98 2 6 C-1.41021743 5.21302675 -4.68885166 4.12880057 -8 3 C-5.52007727 -0.13253398 -3.90516241 -0.30039711 0 0 Z " fill="#EDD5C7" transform="translate(26,22)"/>
<path d="M0 0 C-2 2 -2 2 -5.3125 2.8125 C-9.4581811 4.14754985 -11.05552945 5.89194775 -14 9 C-14.99 9 -15.98 9 -17 9 C-16.45276317 5.62537285 -15.9451 3.91765 -14 1 C-13.34 1.33 -12.68 1.66 -12 2 C-12 2.66 -12 3.32 -12 4 C-11.401875 3.525625 -10.80375 3.05125 -10.1875 2.5625 C-6.76700592 0.11928994 -4.09052446 -0.11055472 0 0 Z " fill="#FCDCD4" transform="translate(87,3)"/>
<path d="M0 0 C-2.49505962 2.49505962 -3.67328888 2.35948376 -7.125 2.625 C-8.03507812 2.69976562 -8.94515625 2.77453125 -9.8828125 2.8515625 C-10.93082031 2.92503906 -10.93082031 2.92503906 -12 3 C-12 3.66 -12 4.32 -12 5 C-12.99 5.495 -12.99 5.495 -14 6 C-14.33 6.99 -14.66 7.98 -15 9 C-16.98 9.33 -18.96 9.66 -21 10 C-20.01 9.67 -19.02 9.34 -18 9 C-17.31867549 7.33927151 -16.65257873 5.672233 -16 4 C-12.5647952 1.70986347 -11.014669 1.82157027 -7 2 C-7 1.34 -7 0.68 -7 0 C-2.25 -1.125 -2.25 -1.125 0 0 Z " fill="#F1D395" transform="translate(90,43)"/>
<path d="M0 0 C4.29 0 8.58 0 13 0 C13 1.32 13 2.64 13 4 C9.78548731 5.60725635 6.56387464 5.05748185 3 5 C3 4.67 3 4.34 3 4 C4.98 3.67 6.96 3.34 9 3 C6.03 2.67 3.06 2.34 0 2 C0 1.34 0 0.68 0 0 Z " fill="#FEF6D0" transform="translate(91,78)"/>
<path d="M0 0 C0.66 0.33 1.32 0.66 2 1 C2 2.65 2 4.3 2 6 C1.34 6 0.68 6 0 6 C0 9.3 0 12.6 0 16 C-0.66 16 -1.32 16 -2 16 C-2.33 11.71 -2.66 7.42 -3 3 C-2.01 3 -1.02 3 0 3 C0 2.01 0 1.02 0 0 Z " fill="#9E95A4" transform="translate(33,49)"/>
<path d="M0 0 C1 4 1 4 0 7 C-0.99 7.33 -1.98 7.66 -3 8 C-3.33 7.01 -3.66 6.02 -4 5 C-4.66 5.66 -5.32 6.32 -6 7 C-6.99 7 -7.98 7 -9 7 C-9 5.68 -9 4.36 -9 3 C-6.03 2.01 -3.06 1.02 0 0 Z " fill="#FCE18D" transform="translate(89,43)"/>
<path d="M0 0 C0.99 0 1.98 0 3 0 C4.32 4.29 5.64 8.58 7 13 C6.01 13 5.02 13 4 13 C-0.59225513 4.738041 -0.59225513 4.738041 0 0 Z " fill="#C2B6C3" transform="translate(76,32)"/>
<path d="M0 0 C0.66 0.33 1.32 0.66 2 1 C2 3.97 2 6.94 2 10 C2.99 10 3.98 10 5 10 C5 10.66 5 11.32 5 12 C3.02 12 1.04 12 -1 12 C-1.02687279 10.18757948 -1.04633715 8.37504767 -1.0625 6.5625 C-1.07410156 5.55316406 -1.08570312 4.54382813 -1.09765625 3.50390625 C-1 1 -1 1 0 0 Z " fill="#E4BBAB" transform="translate(30,73)"/>
<path d="M0 0 C1.125 3.75 1.125 3.75 0 6 C-2.375 5.75 -2.375 5.75 -5 5 C-6.3125 2.9375 -6.3125 2.9375 -7 1 C-4.53721199 -0.231394 -2.7204945 -0.07159196 0 0 Z " fill="#FBEEE2" transform="translate(47,69)"/>
<path d="M0 0 C0.98120464 3.05263664 0.98120464 4.94736336 0 8 C-2.31 8 -4.62 8 -7 8 C-6.8125 6.125 -6.8125 6.125 -6 4 C-3.5 2.875 -3.5 2.875 -1 2 C-0.67 1.34 -0.34 0.68 0 0 Z " fill="#DEE3E7" transform="translate(108,37)"/>
<path d="M0 0 C1.65 0 3.3 0 5 0 C5.93423645 3.01031744 6.04449911 3.86650268 5 7 C3.68 6.67 2.36 6.34 1 6 C0.67 4.02 0.34 2.04 0 0 Z " fill="#D8B7A8" transform="translate(110,30)"/>
<path d="M0 0 C0.33 0 0.66 0 1 0 C1.33 2.31 1.66 4.62 2 7 C2.99 7.33 3.98 7.66 5 8 C5 9.65 5 11.3 5 13 C3.68 12.34 2.36 11.68 1 11 C0.67 11.66 0.34 12.32 0 13 C0 8.71 0 4.42 0 0 Z " fill="#F1E7DB" transform="translate(119,54)"/>
<path d="M0 0 C0.66 0.33 1.32 0.66 2 1 C1.57847656 1.54269531 1.15695313 2.08539062 0.72265625 2.64453125 C0.17480469 3.35996094 -0.37304688 4.07539063 -0.9375 4.8125 C-1.48277344 5.52019531 -2.02804688 6.22789063 -2.58984375 6.95703125 C-4.16856248 9.04125052 -4.16856248 9.04125052 -5 12 C-6.32 11.67 -7.64 11.34 -9 11 C-8.06558465 9.72689688 -7.12732889 8.456612 -6.1875 7.1875 C-5.66542969 6.47980469 -5.14335938 5.77210937 -4.60546875 5.04296875 C-3.16871123 3.21468607 -1.68184237 1.60103312 0 0 Z " fill="#F8E19E" transform="translate(47,16)"/>
<path d="M0 0 C1.65322266 0.01740234 1.65322266 0.01740234 3.33984375 0.03515625 C4.99693359 0.04869141 4.99693359 0.04869141 6.6875 0.0625 C7.54214844 0.07410156 8.39679688 0.08570312 9.27734375 0.09765625 C9.60734375 0.75765625 9.93734375 1.41765625 10.27734375 2.09765625 C9.24609375 2.03578125 8.21484375 1.97390625 7.15234375 1.91015625 C1.82045325 2.16815095 -1.35992406 4.18916812 -5.72265625 7.09765625 C-3.49748333 0.12544775 -3.49748333 0.12544775 0 0 Z " fill="#EABDB4" transform="translate(78.72265625,1.90234375)"/>
<path d="M0 0 C0.33 1.32 0.66 2.64 1 4 C3.97 3.01 6.94 2.02 10 1 C8 5 8 5 6 7 C4.02 6.34 2.04 5.68 0 5 C0 3.35 0 1.7 0 0 Z " fill="#F1CBC2" transform="translate(113,46)"/>
<path d="M0 0 C0.99 0.33 1.98 0.66 3 1 C2.67 1.66 2.34 2.32 2 3 C1.34 3 0.68 3 0 3 C0.33 4.98 0.66 6.96 1 9 C-0.65 9.33 -2.3 9.66 -4 10 C-3.52449439 8.51965236 -3.04448784 7.04074979 -2.5625 5.5625 C-2.29566406 4.73878906 -2.02882813 3.91507813 -1.75390625 3.06640625 C-1 1 -1 1 0 0 Z " fill="#A4908C" transform="translate(24,30)"/>
<path d="M0 0 C2.97 0 5.94 0 9 0 C8.67 0.99 8.34 1.98 8 3 C6.68 2.67 5.36 2.34 4 2 C4.33 2.99 4.66 3.98 5 5 C4.34 5 3.68 5 3 5 C3 4.01 3 3.02 3 2 C2.34 2 1.68 2 1 2 C1.33 3.32 1.66 4.64 2 6 C1.34 6 0.68 6 0 6 C0 4.02 0 2.04 0 0 Z " fill="#DFC4B7" transform="translate(8,24)"/>
<path d="M0 0 C0.66 0 1.32 0 2 0 C2.66 2.64 3.32 5.28 4 8 C2.68 8.33 1.36 8.66 0 9 C0 6.03 0 3.06 0 0 Z " fill="#FBF7F4" transform="translate(114,41)"/>
<path d="M0 0 C0.99 1.485 0.99 1.485 2 3 C5.40320934 3.67673447 5.40320934 3.67673447 9 4 C10.33917261 4.30903983 11.67653254 4.62942911 13 5 C11.35 5.33 9.7 5.66 8 6 C8 6.66 8 7.32 8 8 C7.01 8 6.02 8 5 8 C5 7.01 5 6.02 5 5 C3.35 4.67 1.7 4.34 0 4 C0 2.68 0 1.36 0 0 Z " fill="#FAE9DD" transform="translate(106,22)"/>
<path d="M0 0 C0.33 0.66 0.66 1.32 1 2 C2.32 2 3.64 2 5 2 C5.33 3.65 5.66 5.3 6 7 C5.34 7 4.68 7 4 7 C4 6.01 4 5.02 4 4 C3.05125 4.04125 2.1025 4.0825 1.125 4.125 C-2 4 -2 4 -4 2 C-2.68 1.34 -1.36 0.68 0 0 Z " fill="#F3DB92" transform="translate(46,26)"/>
<path d="M0 0 C0.66 1.32 1.32 2.64 2 4 C1.34 4 0.68 4 0 4 C-0.33 6.31 -0.66 8.62 -1 11 C-2.5 9.8125 -2.5 9.8125 -4 8 C-4.1875 5.3125 -4.1875 5.3125 -4 3 C-2.68 2.67 -1.36 2.34 0 2 C0 1.34 0 0.68 0 0 Z " fill="#FBC5BE" transform="translate(30,70)"/>
<path d="M0 0 C0.99 0 1.98 0 3 0 C3 1.98 3 3.96 3 6 C1.02 5.34 -0.96 4.68 -3 4 C-1.6875 2 -1.6875 2 0 0 Z " fill="#F9B3A5" transform="translate(27,66)"/>
<path d="M0 0 C0.66 0.33 1.32 0.66 2 1 C2.59355614 3.64860427 2.74209269 6.29197322 3 9 C2.01 8.67 1.02 8.34 0 8 C-0.38063221 5.6739143 -0.71269945 3.33944736 -1 1 C-0.67 0.67 -0.34 0.34 0 0 Z " fill="#DCE5EE" transform="translate(117,39)"/>
<path d="M0 0 C0.33 0.66 0.66 1.32 1 2 C2.65 2 4.3 2 6 2 C5.34 4.31 4.68 6.62 4 9 C2.68 8.34 1.36 7.68 0 7 C0 4.69 0 2.38 0 0 Z " fill="#F8D2CF" transform="translate(90,35)"/>
<path d="M0 0 C1.32 0 2.64 0 4 0 C4 1.32 4 2.64 4 4 C1.36 4 -1.28 4 -4 4 C-3.67 3.34 -3.34 2.68 -3 2 C-2.01 2 -1.02 2 0 2 C0 1.34 0 0.68 0 0 Z " fill="#A09690" transform="translate(114,80)"/>
<path d="M0 0 C0.66 0 1.32 0 2 0 C2 1.65 2 3.3 2 5 C2.66 5 3.32 5 4 5 C4.33 4.34 4.66 3.68 5 3 C5.625 4.875 5.625 4.875 6 7 C5.34 7.66 4.68 8.32 4 9 C3.67 8.01 3.34 7.02 3 6 C2.01 5.67 1.02 5.34 0 5 C0 3.35 0 1.7 0 0 Z " fill="#A5A5B8" transform="translate(19,45)"/>
<path d="M0 0 C0.5775 0.639375 1.155 1.27875 1.75 1.9375 C3.98062401 3.98223868 5.07436391 4.58205199 8 5 C6.68 5.33 5.36 5.66 4 6 C4 6.66 4 7.32 4 8 C3.01 7.67 2.02 7.34 1 7 C0.67 4.69 0.34 2.38 0 0 Z " fill="#A89FAB" transform="translate(27,36)"/>
<path d="M0 0 C2.76276177 0.52268466 5.3260876 1.10869587 8 2 C8 2.66 8 3.32 8 4 C8.66 4.33 9.32 4.66 10 5 C5.2482602 4.56802365 3.07999946 3.67230705 0 0 Z " fill="#FDE8A4" transform="translate(46,61)"/>
<path d="M0 0 C-0.33 0.66 -0.66 1.32 -1 2 C-1.99 2 -2.98 2 -4 2 C-4 3.32 -4 4.64 -4 6 C-4.99 6 -5.98 6 -7 6 C-6.75 3.625 -6.75 3.625 -6 1 C-2.69333333 -1.34666667 -2.69333333 -1.34666667 0 0 Z " fill="#9D98A1" transform="translate(25,39)"/>
<path d="M0 0 C0.66 0 1.32 0 2 0 C3.35439668 2.70879335 3.06501451 5.00933268 3 8 C2.01 8 1.02 8 0 8 C0 5.36 0 2.72 0 0 Z " fill="#EEE1E4" transform="translate(26,41)"/>
<path d="M0 0 C2.0625 0.4375 2.0625 0.4375 4 1 C3.67 1.66 3.34 2.32 3 3 C2.34 3 1.68 3 1 3 C0.67 4.32 0.34 5.64 0 7 C-0.66 6.34 -1.32 5.68 -2 5 C-1.46428571 1.46428571 -1.46428571 1.46428571 0 0 Z " fill="#FEF0E3" transform="translate(52,3)"/>
<path d="M0 0 C0.20140476 3.62528568 -0.14223235 5.86501708 -2 9 C-2.66 9 -3.32 9 -4 9 C-4.368 3.48 -4.368 3.48 -2.5625 1.125 C-1 0 -1 0 0 0 Z " fill="#B5B4C4" transform="translate(113,67)"/>
<path d="M0 0 C0.66 0 1.32 0 2 0 C1.67 1.98 1.34 3.96 1 6 C-0.65 6.33 -2.3 6.66 -4 7 C-3.67 6.01 -3.34 5.02 -3 4 C-2.01 3.67 -1.02 3.34 0 3 C0 2.01 0 1.02 0 0 Z " fill="#E2C7BA" transform="translate(18,25)"/>
<path d="M0 0 C1.32 0.99 2.64 1.98 4 3 C4.33 2.01 4.66 1.02 5 0 C5 1.65 5 3.3 5 5 C2.36 5 -0.28 5 -3 5 C-2.01 4.67 -1.02 4.34 0 4 C0 2.68 0 1.36 0 0 Z " fill="#FAE6C8" transform="translate(102,52)"/>
<path d="M0 0 C3 0 3 0 4.6875 1.5 C5.120625 1.995 5.55375 2.49 6 3 C5.01 3.33 4.02 3.66 3 4 C2.67 4.99 2.34 5.98 2 7 C0.5393715 4.35261084 0 3.10551666 0 0 Z " fill="#F8C6BA" transform="translate(94,44)"/>
<path d="M0 0 C4.03685532 4.03685532 4.52112644 4.7323908 5 10 C4.01 10.495 4.01 10.495 3 11 C2.01 7.37 1.02 3.74 0 0 Z " fill="#F0E9EB" transform="translate(117,37)"/>
<path d="M0 0 C0.66 0.33 1.32 0.66 2 1 C1.34 3.31 0.68 5.62 0 8 C-0.99 8 -1.98 8 -3 8 C-2.45276317 4.62537285 -1.9451 2.91765 0 0 Z " fill="#F2CFC4" transform="translate(73,4)"/>
<path d="M0 0 C3.9492568 0.55105909 7.34920174 1.38935371 11 3 C8.00468461 3.99843846 6.82744268 4.00732761 3.8125 3.5625 C2.554375 3.376875 1.29625 3.19125 0 3 C0 2.01 0 1.02 0 0 Z " fill="#B0A6AA" transform="translate(38,28)"/>
<path d="M0 0 C0.33 1.32 0.66 2.64 1 4 C-2.21451269 5.60725635 -5.43612536 5.05748185 -9 5 C-9 4.67 -9 4.34 -9 4 C-6.03 3.34 -3.06 2.68 0 2 C0 1.34 0 0.68 0 0 Z " fill="#F8E9C9" transform="translate(103,78)"/>
</svg>
