<?xml version="1.0" encoding="UTF-8"?>
<svg version="1.1" xmlns="http://www.w3.org/2000/svg" width="118" height="94">
<path d="M0 0 C38.94 0 77.88 0 118 0 C118 31.02 118 62.04 118 94 C79.06 94 40.12 94 0 94 C0 62.98 0 31.96 0 0 Z " fill="#FEEBED" transform="translate(0,0)"/>
<path d="M0 0 C2.31 0 4.62 0 7 0 C6.86980469 0.59167969 6.73960938 1.18335937 6.60546875 1.79296875 C6.17402404 4.2647034 5.88417345 6.49042468 6 9 C6.78375 9.7425 7.5675 10.485 8.375 11.25 C12.59610044 15.67210522 11.90503139 21.10331288 12 27 C13.27875 26.690625 14.5575 26.38125 15.875 26.0625 C16.59429687 25.88847656 17.31359375 25.71445312 18.0546875 25.53515625 C20.0585657 25.05153008 20.0585657 25.05153008 22 24 C23.01529541 21.67328135 24.01488198 19.3396553 25 17 C25.66 16.34 26.32 15.68 27 15 C27 12.9904534 26.99498275 10.97861778 26.875 8.97265625 C27 7 27 7 29 4 C31.5 3.625 31.5 3.625 34 4 C35.65304029 6.47956043 36.48325297 8.0690665 37.375 10.8125 C37.63023438 11.59238281 37.88546875 12.37226563 38.1484375 13.17578125 C38.79746335 15.32828441 39.39814361 17.49542739 39.9765625 19.66796875 C40.48316406 21.56482422 40.48316406 21.56482422 41 23.5 C41.309375 24.7065625 41.61875 25.913125 41.9375 27.15625 C42.288125 28.0946875 42.63875 29.033125 43 30 C44.485 30.495 44.485 30.495 46 31 C46 32.65 46 34.3 46 36 C46.66 36 47.32 36 48 36 C48.33 32.37 48.66 28.74 49 25 C51.64 25 54.28 25 57 25 C57 33.25 57 41.5 57 50 C58.32 50 59.64 50 61 50 C61 47.36 61 44.72 61 42 C61.99 42 62.98 42 64 42 C64 39.69 64 37.38 64 35 C64.66 35 65.32 35 66 35 C69.93652774 42.9220579 70.38419003 55.07843544 68.015625 63.5 C65.06708494 69.46645753 65.06708494 69.46645753 62 71 C59.85820693 71.09700243 57.71332404 71.12796937 55.56933594 71.12939453 C54.90878204 71.13114685 54.24822815 71.13289917 53.56765747 71.13470459 C51.37320356 71.13912101 49.17882981 71.13618184 46.984375 71.1328125 C45.45135482 71.13348656 43.91833475 71.13445744 42.38531494 71.13571167 C39.16051218 71.13718914 35.93573705 71.13503607 32.7109375 71.13037109 C28.61620703 71.12473125 24.52154295 71.12791551 20.42681503 71.13394356 C17.25225344 71.13759736 14.07770695 71.13638776 10.90314484 71.13381577 C9.39636477 71.13315672 7.88958324 71.1339384 6.38280487 71.13629532 C1.58661589 71.1421407 -3.20471678 71.09841316 -8 71 C-8.66566483 70.98646233 -9.33132965 70.97292465 -10.01716614 70.95897675 C-11.94806925 70.90868413 -13.8779777 70.82386049 -15.80761719 70.73779297 C-16.91433777 70.69186005 -18.02105835 70.64592712 -19.16131592 70.59860229 C-22.58621863 69.87638222 -23.63421049 68.83974804 -25.6875 66.0625 C-26.95703125 63.58203125 -26.95703125 63.58203125 -28 61 C-28.33386719 60.22011719 -28.66773438 59.44023438 -29.01171875 58.63671875 C-32.84803799 48.03042437 -31.1786185 36.79583276 -29 26 C-28.01 25.67 -27.02 25.34 -26 25 C-26 32.92 -26 40.84 -26 49 C-25.01 49 -24.02 49 -23 49 C-23 46.36 -23 43.72 -23 41 C-20.69 41 -18.38 41 -16 41 C-16 36.71 -16 32.42 -16 28 C-14.02 28 -12.04 28 -10 28 C-10 30.31 -10 32.62 -10 35 C-8.02 34.505 -8.02 34.505 -6 34 C-5.67 26.41 -5.34 18.82 -5 11 C-3.02 10.34 -1.04 9.68 1 9 C0.649375 8.443125 0.29875 7.88625 -0.0625 7.3125 C-1.21845993 4.46113217 -0.80967438 2.91482778 0 0 Z " fill="#FDB0BD" transform="translate(38,17)"/>
<path d="M0 0 C2.31 0 4.62 0 7 0 C6.86980469 0.59167969 6.73960938 1.18335937 6.60546875 1.79296875 C6.17402404 4.2647034 5.88417345 6.49042468 6 9 C7.175625 10.11375 7.175625 10.11375 8.375 11.25 C12.59610044 15.67210522 11.90503139 21.10331288 12 27 C13.918125 26.5359375 13.918125 26.5359375 15.875 26.0625 C16.95394531 25.80146484 16.95394531 25.80146484 18.0546875 25.53515625 C20.0585657 25.05153008 20.0585657 25.05153008 22 24 C23.01529541 21.67328135 24.01488198 19.3396553 25 17 C25.66 16.34 26.32 15.68 27 15 C27 12.9904534 26.99498275 10.97861778 26.875 8.97265625 C27 7 27 7 29 4 C31.5 3.625 31.5 3.625 34 4 C35.65304029 6.47956043 36.48325297 8.0690665 37.375 10.8125 C37.63023438 11.59238281 37.88546875 12.37226563 38.1484375 13.17578125 C38.79746335 15.32828441 39.39814361 17.49542739 39.9765625 19.66796875 C40.31429687 20.93253906 40.65203125 22.19710937 41 23.5 C41.309375 24.7065625 41.61875 25.913125 41.9375 27.15625 C42.288125 28.0946875 42.63875 29.033125 43 30 C43.99 30.33 44.98 30.66 46 31 C46 32.65 46 34.3 46 36 C46.66 36 47.32 36 48 36 C48.495 38.97 48.495 38.97 49 42 C45.38026598 43.31626692 42.90432869 44 39 44 C39.20496094 44.82242188 39.40992188 45.64484375 39.62109375 46.4921875 C43.2258636 61.42869796 43.2258636 61.42869796 43 67 C42.34 67.99 41.68 68.98 41 70 C40.01 69.67 39.02 69.34 38 69 C38.66 69 39.32 69 40 69 C39.5978125 67.7934375 39.5978125 67.7934375 39.1875 66.5625 C37.79166667 62.375 36.39583333 58.1875 35 54 C34.34 54 33.68 54 33 54 C33.01160156 54.73605469 33.02320313 55.47210938 33.03515625 56.23046875 C33.04417969 57.20628906 33.05320313 58.18210938 33.0625 59.1875 C33.07410156 60.15042969 33.08570313 61.11335938 33.09765625 62.10546875 C33.00486622 64.85576513 32.62111685 67.32479591 32 70 C30.02 70 28.04 70 26 70 C26.66 69.34 27.32 68.68 28 68 C28.00892159 65.42760721 27.90470191 62.99186393 27.6875 60.4375 C27.63408447 59.70660156 27.58066895 58.97570312 27.52563477 58.22265625 C27.25383714 54.6338101 26.91050593 51.0684124 26.4375 47.5 C25.58891889 40.72461024 25.92474674 33.81460111 26 27 C25.07960938 27.32742187 24.15921875 27.65484375 23.2109375 27.9921875 C19.94219983 29.01814166 17.39998747 29.16190417 14 29 C14 31.31 14 33.62 14 36 C15.32 36.33 16.64 36.66 18 37 C18 38.98 18 40.96 18 43 C15.03 43 12.06 43 9 43 C9 50.92 9 58.84 9 67 C7.68 66.67 6.36 66.34 5 66 C4.01 60.72 3.02 55.44 2 50 C1.01 55.28 0.02 60.56 -1 66 C-2.65 66 -4.3 66 -6 66 C-6.20638953 26.94157589 -6.20638953 26.94157589 -5 11 C-3.02 10.34 -1.04 9.68 1 9 C0.649375 8.443125 0.29875 7.88625 -0.0625 7.3125 C-1.21845993 4.46113217 -0.80967438 2.91482778 0 0 Z " fill="#F69EA4" transform="translate(38,17)"/>
<path d="M0 0 C2.64 0 5.28 0 8 0 C8 8.25 8 16.5 8 25 C9.32 25 10.64 25 12 25 C12 22.36 12 19.72 12 17 C12.99 17 13.98 17 15 17 C15 14.69 15 12.38 15 10 C15.66 10 16.32 10 17 10 C19.40331529 14.79669952 19.58080604 19.55184742 19.875 24.8125 C19.9471875 25.67681641 20.019375 26.54113281 20.09375 27.43164062 C20.44753652 33.59962921 19.40068588 37.81569602 16 43 C15 44 15 44 12.86694336 44.02172852 C11.95050049 43.97459717 11.03405762 43.92746582 10.08984375 43.87890625 C9.10048828 43.83056641 8.11113281 43.78222656 7.09179688 43.73242188 C6.05087891 43.67634766 5.00996094 43.62027344 3.9375 43.5625 C2.89271484 43.51029297 1.84792969 43.45808594 0.77148438 43.40429688 C-1.81928236 43.27416704 -4.40970666 43.13918842 -7 43 C-8.08446979 35.00861581 -9.15566865 27.02114786 -10 19 C-7.03 18.34 -4.06 17.68 -1 17 C-0.67 11.39 -0.34 5.78 0 0 Z " fill="#FEB2BE" transform="translate(87,42)"/>
<path d="M0 0 C0.66 0 1.32 0 2 0 C2 7.92 2 15.84 2 24 C2.99 24 3.98 24 5 24 C5 21.36 5 18.72 5 16 C7.31 16 9.62 16 12 16 C12 11.71 12 7.42 12 3 C13.98 3 15.96 3 18 3 C18 5.31 18 7.62 18 10 C19.65 10 21.3 10 23 10 C23.16494885 20.3734499 22.65043638 30.6510926 22 41 C23.65 41 25.3 41 27 41 C27.04898438 40.3709375 27.09796875 39.741875 27.1484375 39.09375 C27.63435199 33.53086686 28.50553626 28.38006948 30 23 C30.33 23 30.66 23 31 23 C31.99 28.94 32.98 34.88 34 41 C34.99 41.33 35.98 41.66 37 42 C37 36.39 37 30.78 37 25 C37.33 25 37.66 25 38 25 C38.04898438 26.27617188 38.09796875 27.55234375 38.1484375 28.8671875 C38.22346191 30.53648072 38.29900988 32.20575046 38.375 33.875 C38.4059375 34.71675781 38.436875 35.55851562 38.46875 36.42578125 C38.52675781 37.63427734 38.52675781 37.63427734 38.5859375 38.8671875 C38.6173584 39.61081543 38.6487793 40.35444336 38.68115234 41.12060547 C38.85419551 43.24010974 38.85419551 43.24010974 41 45 C38.69 45 36.38 45 34 45 C34 44.34 34 43.68 34 43 C32.02 43 30.04 43 28 43 C28 43.66 28 44.32 28 45 C24.7 44.67 21.4 44.34 18 44 C17.00749455 38.29309366 16.89522488 32.78591511 17 27 C16.01 27 15.02 27 14 27 C13.71125 26.195625 13.4225 25.39125 13.125 24.5625 C12.26737432 21.8673532 12.26737432 21.8673532 10 21 C10 24.3 10 27.6 10 31 C9.67 30.34 9.34 29.68 9 29 C8.34 29 7.68 29 7 29 C7.515625 30.175625 8.03125 31.35125 8.5625 32.5625 C10.1946436 36.84115682 10.01283481 39.58035721 9 44 C5.44992263 43.38947714 4.99764032 42.997295 2.4375 40.0625 C-4.94060997 28.83593143 -3.77607876 15.94758647 -1.53515625 3.265625 C-1 1 -1 1 0 0 Z " fill="#FEB3BF" transform="translate(10,42)"/>
<path d="M0 0 C3.3 0 6.6 0 10 0 C11.0952487 2.1904974 11.24911458 3.67699725 11.46484375 6.10546875 C11.54283203 6.92466797 11.62082031 7.74386719 11.70117188 8.58789062 C11.85693104 10.30124148 12.01062633 12.01478141 12.16210938 13.72851562 C12.6403609 18.70933026 13.53422666 23.19389856 15 28 C15.30496688 29.74126253 15.56206461 31.49225136 15.75 33.25 C15.89695312 34.49523437 15.89695312 34.49523437 16.046875 35.765625 C16 38 16 38 14 41 C13.01 40.67 12.02 40.34 11 40 C11.66 40 12.32 40 13 40 C12.731875 39.195625 12.46375 38.39125 12.1875 37.5625 C10.79166667 33.375 9.39583333 29.1875 8 25 C7.34 25 6.68 25 6 25 C6.01160156 25.73605469 6.02320312 26.47210938 6.03515625 27.23046875 C6.04417969 28.20628906 6.05320312 29.18210937 6.0625 30.1875 C6.07410156 31.15042969 6.08570312 32.11335938 6.09765625 33.10546875 C6.00486622 35.85576513 5.62111685 38.32479591 5 41 C3.02 41 1.04 41 -1 41 C-0.34 40.34 0.32 39.68 1 39 C1.00892148 36.42763941 0.90479749 33.99183052 0.6875 31.4375 C0.63408447 30.70950195 0.58066895 29.98150391 0.52563477 29.23144531 C0.24663077 25.55891693 -0.10312235 21.90475453 -0.5625 18.25 C-2.24037714 4.48075428 -2.24037714 4.48075428 0 0 Z " fill="#9398B8" transform="translate(65,46)"/>
<path d="M0 0 C2.31 0 4.62 0 7 0 C6.86980469 0.59167969 6.73960938 1.18335937 6.60546875 1.79296875 C6.46753906 2.58316406 6.32960938 3.37335937 6.1875 4.1875 C6.03667969 4.96480469 5.88585938 5.74210937 5.73046875 6.54296875 C5.76496351 9.26753964 5.76496351 9.26753964 8.40234375 11.328125 C11.70394959 14.72406244 11.88488596 16.90641659 12.375 21.5625 C12.52710937 22.86316406 12.67921875 24.16382813 12.8359375 25.50390625 C12.97125131 28.38737919 12.94191971 30.31757648 12 33 C10.02 33.495 10.02 33.495 8 34 C8 32.02 8 30.04 8 28 C7.34 28 6.68 28 6 28 C5.34 29.32 4.68 30.64 4 32 C3.34 30.68 2.68 29.36 2 28 C1.01 31.465 1.01 31.465 0 35 C-1.98 34.67 -3.96 34.34 -6 34 C-5.67 26.41 -5.34 18.82 -5 11 C-3.02 10.34 -1.04 9.68 1 9 C0.649375 8.443125 0.29875 7.88625 -0.0625 7.3125 C-1.21845993 4.46113217 -0.80967438 2.91482778 0 0 Z " fill="#969AB4" transform="translate(38,17)"/>
<path d="M0 0 C0.99 0.33 1.98 0.66 3 1 C3.33 2.65 3.66 4.3 4 6 C4.99 6 5.98 6 7 6 C7.33 11.61 7.66 17.22 8 23 C10.31 23 12.62 23 15 23 C15.99 23.33 16.98 23.66 18 24 C18 23.34 18 22.68 18 22 C19.98 22 21.96 22 24 22 C24 22.66 24 23.32 24 24 C25.65 23.67 27.3 23.34 29 23 C29 22.67 29 22.34 29 22 C33.95 22 38.9 22 44 22 C44 22.66 44 23.32 44 24 C45.98 24 47.96 24 50 24 C50.33 18.72 50.66 13.44 51 8 C51.66 8 52.32 8 53 8 C53.84584998 9.55575978 54.67618399 11.1199612 55.5 12.6875 C55.9640625 13.55761719 56.428125 14.42773438 56.90625 15.32421875 C58.04818792 18.11788829 58.21504208 20.01629113 58 23 C58.495 22.505 58.495 22.505 59 22 C66.69840424 21.6699297 74.38667619 21.75700836 82 23 C80 25 80 25 77.19622803 25.24723816 C75.99935364 25.24581314 74.80247925 25.24438812 73.56933594 25.24291992 C72.90878204 25.24481827 72.24822815 25.24671661 71.56765747 25.24867249 C69.37311085 25.25239006 67.17889253 25.24164915 64.984375 25.23046875 C63.45135537 25.22927569 61.91833501 25.22882406 60.38531494 25.2290802 C57.16047631 25.22751282 53.93574827 25.21921399 50.7109375 25.20581055 C46.616199 25.18899168 42.52158401 25.18499135 38.42681503 25.18575573 C35.25224671 25.18548075 32.07770439 25.17994499 28.90314484 25.17275429 C27.39636685 25.16961067 25.88958595 25.16761051 24.38280487 25.16686058 C14.87897022 25.15696933 5.47364301 24.81353792 -4 24 C-3.01 23.67 -2.02 23.34 -1 23 C-0.70485817 16.70861215 -0.70485817 16.70861215 -3 11 C-3 10.01 -3 9.02 -3 8 C-2.34 8 -1.68 8 -1 8 C-0.67 5.36 -0.34 2.72 0 0 Z " fill="#E1DBE8" transform="translate(20,63)"/>
<path d="M0 0 C0.66 1.32 1.32 2.64 2 4 C2.66 3.01 3.32 2.02 4 1 C4.66 1 5.32 1 6 1 C6 2.65 6 4.3 6 6 C5.01 6.33 4.02 6.66 3 7 C2.83177734 8.33224609 2.83177734 8.33224609 2.66015625 9.69140625 C1.83259115 15.48436192 0.60099665 21.20475321 -0.5625 26.9375 C-0.79646484 28.09830078 -1.03042969 29.25910156 -1.27148438 30.45507812 C-1.84590664 33.30374363 -2.42212846 36.15203257 -3 39 C-4.65 39 -6.3 39 -8 39 C-8.10947633 28.27132003 -7.96288008 17.6948466 -7 7 C-5.35 7 -3.7 7 -2 7 C-1.34 4.69 -0.68 2.38 0 0 Z " fill="#F5B58F" transform="translate(40,44)"/>
<path d="M0 0 C0.66 0.33 1.32 0.66 2 1 C2 11.89 2 22.78 2 34 C0.68 33.67 -0.64 33.34 -2 33 C-6.44155354 10.3725844 -6.44155354 10.3725844 -2 1 C-1.34 0.67 -0.68 0.34 0 0 Z " fill="#E8A788" transform="translate(45,50)"/>
<path d="M0 0 C0.99 0.33 1.98 0.66 3 1 C3.33 2.65 3.66 4.3 4 6 C4.99 6 5.98 6 7 6 C7.33 11.61 7.66 17.22 8 23 C5.03 23 2.06 23 -1 23 C-0.95875 21.7625 -0.9175 20.525 -0.875 19.25 C-0.86324485 15.91741583 -1.28096912 13.9008646 -3 11 C-3 10.01 -3 9.02 -3 8 C-2.34 8 -1.68 8 -1 8 C-0.67 5.36 -0.34 2.72 0 0 Z " fill="#C3CFB9" transform="translate(20,63)"/>
<path d="M0 0 C0.33 0 0.66 0 1 0 C1.99 5.94 2.98 11.88 4 18 C4.99 18.33 5.98 18.66 7 19 C7 13.39 7 7.78 7 2 C7.33 2 7.66 2 8 2 C8.04898438 3.27617188 8.09796875 4.55234375 8.1484375 5.8671875 C8.22346191 7.53648072 8.29900988 9.20575046 8.375 10.875 C8.4059375 11.71675781 8.436875 12.55851562 8.46875 13.42578125 C8.50742187 14.23144531 8.54609375 15.03710938 8.5859375 15.8671875 C8.63306885 16.98262939 8.63306885 16.98262939 8.68115234 18.12060547 C8.85419551 20.24010974 8.85419551 20.24010974 11 22 C8.69 22 6.38 22 4 22 C4 21.34 4 20.68 4 20 C2.02 20 0.04 20 -2 20 C-2 20.66 -2 21.32 -2 22 C-3.98 21.67 -5.96 21.34 -8 21 C-8 20.01 -8 19.02 -8 18 C-6.35 18 -4.7 18 -3 18 C-2.95101562 17.3709375 -2.90203125 16.741875 -2.8515625 16.09375 C-2.36564801 10.53086686 -1.49446374 5.38006948 0 0 Z " fill="#EFADB6" transform="translate(40,65)"/>
<path d="M0 0 C1.134375 0.020625 2.26875 0.04125 3.4375 0.0625 C3.35371094 0.87332031 3.26992188 1.68414063 3.18359375 2.51953125 C2.50800805 9.86545675 2.48455817 16.74683886 3.4375 24.0625 C-0.4375 23.1875 -0.4375 23.1875 -1.5625 22.0625 C-1.94080247 19.66559917 -2.27039338 17.28259749 -2.5625 14.875 C-3.03233978 11.11261115 -3.50666749 7.36853193 -4.1875 3.63671875 C-4.373125 2.36248047 -4.373125 2.36248047 -4.5625 1.0625 C-3.5625 0.0625 -3.5625 0.0625 0 0 Z " fill="#F7C8B1" transform="translate(41.5625,16.9375)"/>
<path d="M0 0 C1.65322266 0.01740234 1.65322266 0.01740234 3.33984375 0.03515625 C4.99693359 0.04869141 4.99693359 0.04869141 6.6875 0.0625 C7.54214844 0.07410156 8.39679687 0.08570313 9.27734375 0.09765625 C9.375 6.25 9.375 6.25 9.27734375 8.09765625 C8.27734375 9.09765625 8.27734375 9.09765625 6.2109375 9.1953125 C5.38722656 9.18371094 4.56351563 9.17210937 3.71484375 9.16015625 C2.88855469 9.15113281 2.06226563 9.14210938 1.2109375 9.1328125 C0.57285156 9.12121094 -0.06523438 9.10960937 -0.72265625 9.09765625 C-1.05265625 9.75765625 -1.38265625 10.41765625 -1.72265625 11.09765625 C-4.16034843 7.44111798 -3.96210064 5.40765524 -3.72265625 1.09765625 C-2.72265625 0.09765625 -2.72265625 0.09765625 0 0 Z " fill="#F7F0F4" transform="translate(51.72265625,8.90234375)"/>
<path d="M0 0 C0.33 0 0.66 0 1 0 C0.67 2.64 0.34 5.28 0 8 C-2.31 8 -4.62 8 -7 8 C-7 12.62 -7 17.24 -7 22 C-7.99 22 -8.98 22 -10 22 C-10 20.35 -10 18.7 -10 17 C-9.34 17 -8.68 17 -8 17 C-8.33 15.02 -8.66 13.04 -9 11 C-9.99 10.67 -10.98 10.34 -12 10 C-12 7.69 -12 5.38 -12 3 C-10.82630859 2.80083984 -10.82630859 2.80083984 -9.62890625 2.59765625 C-8.61699219 2.42105469 -7.60507812 2.24445312 -6.5625 2.0625 C-5.55316406 1.88847656 -4.54382812 1.71445312 -3.50390625 1.53515625 C-1.0712562 1.25248903 -1.0712562 1.25248903 0 0 Z " fill="#FDDBE0" transform="translate(64,43)"/>
<path d="M0 0 C0.33 0.99 0.66 1.98 1 3 C5.455 2.505 5.455 2.505 10 2 C10.33 3.98 10.66 5.96 11 8 C6.87831311 9.62950412 4.29299643 10.26264601 0 9 C0 6.03 0 3.06 0 0 Z " fill="#D6989D" transform="translate(76,51)"/>
<path d="M0 0 C0.66 0 1.32 0 2 0 C2.84584998 1.55575978 3.67618399 3.1199612 4.5 4.6875 C5.19609375 5.99267578 5.19609375 5.99267578 5.90625 7.32421875 C7.04818792 10.11788829 7.21504208 12.01629113 7 15 C4.36 14.67 1.72 14.34 -1 14 C-0.67 9.38 -0.34 4.76 0 0 Z " fill="#F3AEBD" transform="translate(71,71)"/>
<path d="M0 0 C6.15234375 -0.09765625 6.15234375 -0.09765625 8 0 C9 1 9 1 9.0625 4.0625 C9.041875 5.031875 9.02125 6.00125 9 7 C6.03 7 3.06 7 0 7 C0 4.69 0 2.38 0 0 Z " fill="#D7989B" transform="translate(47,53)"/>
<path d="M0 0 C1.32 0 2.64 0 4 0 C5.33583899 4.84241633 6.25328119 8.93437617 6 14 C2.125 13.125 2.125 13.125 1 12 C0.76572222 9.98405418 0.58663876 7.961526 0.4375 5.9375 C0.35371094 4.83277344 0.26992188 3.72804688 0.18359375 2.58984375 C0.09271484 1.30787109 0.09271484 1.30787109 0 0 Z " fill="#EADADD" transform="translate(39,27)"/>
<path d="M0 0 C2.5 -0.375 2.5 -0.375 5 0 C7.56616632 3.84924948 7.55097676 6.4349304 8 11 C6.68 10.34 5.36 9.68 4 9 C4.33 7.68 4.66 6.36 5 5 C3.68 4.34 2.36 3.68 1 3 C1 5.31 1 7.62 1 10 C0.34 10 -0.32 10 -1 10 C-2.25 3.375 -2.25 3.375 0 0 Z " fill="#A39FB0" transform="translate(67,21)"/>
<path d="M0 0 C2.97 0 5.94 0 9 0 C9 1.98 9 3.96 9 6 C6.03 6 3.06 6 0 6 C0 4.02 0 2.04 0 0 Z " fill="#ADB0D7" transform="translate(19,80)"/>
<path d="M0 0 C4 4.75 4 4.75 4 7 C4.66 7 5.32 7 6 7 C5.67 5.68 5.34 4.36 5 3 C6.32 3.33 7.64 3.66 9 4 C9 5.65 9 7.3 9 9 C6.69 9.33 4.38 9.66 2 10 C1.01 7.03 0.02 4.06 -1 1 C-0.67 0.67 -0.34 0.34 0 0 Z " fill="#F9BEC8" transform="translate(75,44)"/>
<path d="M0 0 C0.99 1.485 0.99 1.485 2 3 C2.99 2.67 3.98 2.34 5 2 C5 5.3 5 8.6 5 12 C3.68 12 2.36 12 1 12 C0.67 8.04 0.34 4.08 0 0 Z " fill="#CCE3C9" transform="translate(22,67)"/>
<path d="M0 0 C2.31 0.33 4.62 0.66 7 1 C7 1.33 7 1.66 7 2 C5.02 2 3.04 2 1 2 C1 4.31 1 6.62 1 9 C-0.65 9 -2.3 9 -4 9 C-4 8.01 -4 7.02 -4 6 C-3.01 6 -2.02 6 -1 6 C-0.67 4.02 -0.34 2.04 0 0 Z " fill="#F3B8B8" transform="translate(51,44)"/>
<path d="M0 0 C0.33 0 0.66 0 1 0 C1.04898438 1.27617188 1.09796875 2.55234375 1.1484375 3.8671875 C1.22346191 5.53648072 1.29900988 7.20575046 1.375 8.875 C1.4059375 9.71675781 1.436875 10.55851562 1.46875 11.42578125 C1.50742187 12.23144531 1.54609375 13.03710938 1.5859375 13.8671875 C1.6173584 14.61081543 1.6487793 15.35444336 1.68115234 16.12060547 C1.85419551 18.24010974 1.85419551 18.24010974 4 20 C1.69 20 -0.62 20 -3 20 C-3 19.01 -3 18.02 -3 17 C-2.01 17 -1.02 17 0 17 C0 11.39 0 5.78 0 0 Z " fill="#CCA4AB" transform="translate(47,67)"/>
<path d="M0 0 C0.66 1.32 1.32 2.64 2 4 C2.66 3.01 3.32 2.02 4 1 C4.66 1 5.32 1 6 1 C6.042721 2.66611905 6.04063832 4.33382885 6 6 C5 7 5 7 1.9375 7.0625 C0.4834375 7.0315625 0.4834375 7.0315625 -1 7 C-1.04254356 5.00045254 -1.04080783 2.99958364 -1 1 C-0.67 0.67 -0.34 0.34 0 0 Z " fill="#E5DADD" transform="translate(40,44)"/>
<path d="M0 0 C2.5 1.1875 2.5 1.1875 5 3 C5.3125 5.6875 5.3125 5.6875 5 8 C3.68 8 2.36 8 1 8 C-0.35439668 5.29120665 -0.06501451 2.99066732 0 0 Z " fill="#F4C8B4" transform="translate(67,23)"/>
<path d="M0 0 C1.134375 0.020625 2.26875 0.04125 3.4375 0.0625 C3.4375 1.0525 3.4375 2.0425 3.4375 3.0625 C2.65375 3.18625 1.87 3.31 1.0625 3.4375 C-1.70307822 3.85367993 -1.70307822 3.85367993 -3.5625 6.0625 C-3.94468767 4.40635343 -4.27645102 2.73792976 -4.5625 1.0625 C-3.5625 0.0625 -3.5625 0.0625 0 0 Z " fill="#9A99AB" transform="translate(41.5625,16.9375)"/>
<path d="M0 0 C0.66 0 1.32 0 2 0 C2.33 3.63 2.66 7.26 3 11 C2.01 11 1.02 11 0 11 C0 7.37 0 3.74 0 0 Z " fill="#DDB2B1" transform="translate(42,30)"/>
<path d="M0 0 C1.98 0.495 1.98 0.495 4 1 C4 2.65 4 4.3 4 6 C2.35 6.33 0.7 6.66 -1 7 C-0.67 4.69 -0.34 2.38 0 0 Z " fill="#FAB6BC" transform="translate(80,47)"/>
<path d="M0 0 C0.66 0 1.32 0 2 0 C4.04169485 2.90548882 5 4.40142046 5 8 C2 7 2 7 0.8125 5.125 C0 3 0 3 0 0 Z " fill="#D0E0CB" transform="translate(17,71)"/>
</svg>
