<?xml version="1.0" encoding="UTF-8"?>
<svg version="1.1" xmlns="http://www.w3.org/2000/svg" width="141" height="112">
<path d="M0 0 C46.53 0 93.06 0 141 0 C141 36.96 141 73.92 141 112 C94.47 112 47.94 112 0 112 C0 75.04 0 38.08 0 0 Z " fill="#FEFEFE" transform="translate(0,0)"/>
<path d="M0 0 C6.75 1.75 6.75 1.75 9 4 C11.82957829 3.63723355 14.29084291 2.90305236 17 2 C19.56205343 2.06221322 22.07319492 2.18313496 24.625 2.375 C25.66527344 2.44074219 25.66527344 2.44074219 26.7265625 2.5078125 C31.86941964 2.86941964 31.86941964 2.86941964 33 4 C33.375 7.25 33.375 7.25 33 11 C27.39718662 18.04353682 21.19264852 19.70503381 12.578125 20.77734375 C4.73655187 21.2653019 -1.59051173 19.48664179 -8 15 C-10.61420508 12.38579492 -11.86282281 10.98310321 -12.375 7.3125 C-12 5 -12 5 -10 3 C-7.6171875 2.8046875 -7.6171875 2.8046875 -4.875 2.875 C-3.50988281 2.90207031 -3.50988281 2.90207031 -2.1171875 2.9296875 C-1.41851562 2.95289063 -0.71984375 2.97609375 0 3 C0 2.01 0 1.02 0 0 Z " fill="#FDFDFD" transform="translate(61,61)"/>
<path d="M0 0 C3.83528699 4.06772863 4.50365851 7.47340672 4.38671875 12.93359375 C3.88554045 16.41768866 2.31305134 18.55113986 0.0625 21.1875 C-4.60729209 24.30069473 -9.47308808 23.91560766 -14.9375 23.1875 C-18.16775335 21.560275 -20.29838661 19.46572678 -21.9375 16.1875 C-22.53759108 11.60705796 -22.96312224 7.10845371 -20.73828125 2.94140625 C-15.21713312 -3.7479445 -7.45074537 -4.59726842 0 0 Z " fill="#8A97AA" transform="translate(80.9375,32.8125)"/>
<path d="M0 0 C2.875 2.5 2.875 2.5 5 5 C4.28972656 5.06058594 3.57945313 5.12117188 2.84765625 5.18359375 C1.92855469 5.26738281 1.00945313 5.35117188 0.0625 5.4375 C-0.85402344 5.51871094 -1.77054688 5.59992188 -2.71484375 5.68359375 C-4.96159732 5.76044976 -4.96159732 5.76044976 -6 7 C-6.44827874 10.22760692 -6.15970888 11.72716399 -4.5 14.5625 C1.65405531 20.56270392 8.54029115 22.10358827 17 22 C23.85533183 21.4002738 29.34875417 19.96789601 35 16 C37.64715023 12.63019987 37.64715023 12.63019987 37 6 C32.05 5.67 27.1 5.34 22 5 C22 3.35 22 1.7 22 0 C24.56428515 -0.13559675 27.12135216 -0.23433188 29.6875 -0.3125 C30.40873047 -0.35439453 31.12996094 -0.39628906 31.87304688 -0.43945312 C36.04452669 -0.53469239 37.55770714 -0.34111475 40.98828125 2.3046875 C43.62618623 5.83896795 43.6074341 7.67203202 43 12 C40.7390005 18.28055416 36.62503336 21.49998094 30.9375 24.75 C22.53337421 28.32622374 11.15321234 28.55897001 2.5625 25.4375 C-2.27462518 23.17262533 -6.45059723 19.99423654 -10 16 C-11.35115788 11.94652636 -11.67249836 8.23368285 -11 4 C-7.79382821 0.13373402 -4.93752469 -0.92578588 0 0 Z " fill="#8D9AAC" transform="translate(56,59)"/>
<path d="M0 0 C6.29624821 3.57253788 9.94279723 6.91432919 12.26171875 13.87109375 C12.30126109 16.204092 12.30573607 18.53817564 12.26171875 20.87109375 C10.94171875 20.87109375 9.62171875 20.87109375 8.26171875 20.87109375 C6.75142779 19.36080279 6.89591785 17.71040832 6.57421875 15.62109375 C5.48667806 10.44703655 3.63662465 8.72817515 -0.73828125 5.87109375 C-3.62748819 4.90802477 -5.66076006 4.67550015 -8.67578125 4.62109375 C-9.53042969 4.5953125 -10.38507813 4.56953125 -11.265625 4.54296875 C-14.21321366 4.93411796 -15.47387285 6.01261602 -17.73828125 7.87109375 C-18.39828125 7.87109375 -19.05828125 7.87109375 -19.73828125 7.87109375 C-20.04765625 8.65484375 -20.35703125 9.43859375 -20.67578125 10.24609375 C-21.73828125 12.87109375 -21.73828125 12.87109375 -22.73828125 14.87109375 C-23.30178851 19.49000571 -23.18056915 22.96950687 -21.11328125 27.18359375 C-18.4633879 30.18215728 -16.34206533 32.10453292 -12.73828125 33.87109375 C-9.0562421 33.55982662 -9.0562421 33.55982662 -5.73828125 32.87109375 C-3.73828125 34.87109375 -3.73828125 34.87109375 -3.48828125 37.37109375 C-3.73828125 39.87109375 -3.73828125 39.87109375 -5.73828125 41.87109375 C-12.16859667 41.27650979 -19.06354233 37.63343329 -23.52734375 33.0234375 C-28.1600637 26.6432881 -28.5834597 20.52627331 -27.73828125 12.87109375 C-25.48176678 6.67832758 -21.2289079 3.2264767 -15.73828125 -0.12890625 C-10.39737917 -1.90920694 -5.26949204 -2.17244394 0 0 Z " fill="#8B98AB" transform="translate(79.73828125,24.12890625)"/>
<path d="M0 0 C2.43671032 2.43671032 2.74787284 4.20067567 3.6875 7.5 C5.74907209 13.93179609 8.87707121 18.71168279 13 24 C13.8971875 25.3303125 13.8971875 25.3303125 14.8125 26.6875 C24.17096539 36.58073484 37.55801249 42.04225839 51 43 C65.31540677 43.28166888 77.95940121 39.15416554 89 30 C89.63421875 29.47792969 90.2684375 28.95585938 90.921875 28.41796875 C97.49780344 22.43852939 101.90096025 14.25402781 105 6 C105.33 6 105.66 6 106 6 C106.125 11.75 106.125 11.75 105 14 C104.34 14 103.68 14 103 14 C102.773125 14.825 102.54625 15.65 102.3125 16.5 C100.75058943 20.66509486 98.77149893 24.5000943 96 28 C95.34 28 94.68 28 94 28 C94 28.99 94 29.98 94 31 C90.09327036 34.80655709 85.88520019 37.30088142 81.05078125 39.7890625 C79.00754832 40.9955429 77.65500206 42.32194777 76 44 C65.29191663 48.38057956 48.55784708 49.66633159 37.51757812 46.2265625 C33.03209569 44.28142701 29.05461676 41.7088047 25 39 C23.515 38.505 23.515 38.505 22 38 C21.67 37.34 21.34 36.68 21 36 C19.515 35.505 19.515 35.505 18 35 C17.3125 32.9375 17.3125 32.9375 17 31 C16.34 31 15.68 31 15 31 C15 30.34 15 29.68 15 29 C14.278125 28.835 13.55625 28.67 12.8125 28.5 C5.60072838 24.6537218 3.50844714 15.49895863 0.91796875 8.26953125 C0.08507615 5.30301592 -0.20111665 3.05122684 0 0 Z " fill="#E8E8E8" transform="translate(18,65)"/>
<path d="M0 0 C3.64146056 0.80345393 5.15231038 2.45282347 7.1953125 5.484375 C8.08245201 9.65393068 7.37662354 11.17841262 5.1953125 14.859375 C1.67306426 17.94134221 1.67306426 17.94134221 -1.8046875 18.171875 C-5.033967 17.90276837 -5.99001006 17.35696574 -8.8046875 15.421875 C-11.32398985 11.72164967 -11.5113216 9.8812094 -10.8046875 5.484375 C-8.28479822 0.33503603 -5.38467311 -0.31988157 0 0 Z " fill="#FBFBFC" transform="translate(73.8046875,34.515625)"/>
<path d="M0 0 C3.35886204 2.34339212 5.46709492 4.41378032 7.6875 7.875 C8.08760038 10.68583181 7.93398601 13.01576228 7.6875 15.875 C7.0275 16.205 6.3675 16.535 5.6875 16.875 C5.60113281 16.28332031 5.51476562 15.69164063 5.42578125 15.08203125 C4.70962555 11.05447674 3.97021802 8.28622621 1.625 4.875 C-2.30917074 2.19641567 -5.60432883 1.72920964 -10.3125 1.875 C-13.59367167 2.60414926 -15.0564472 3.66046928 -17.625 5.8125 C-20.1663602 10.42459814 -20.07030287 14.72503354 -19.3125 19.875 C-17.91558883 23.08368551 -17.91558883 23.08368551 -15.3125 24.875 C-12.17386296 25.76093998 -12.17386296 25.76093998 -9.3125 25.875 C-9.6425 27.195 -9.9725 28.515 -10.3125 29.875 C-16.23034383 28.60689061 -18.89843084 25.5901965 -22.3125 20.875 C-24.05505416 17.38989167 -23.75601248 13.68545929 -23.3125 9.875 C-21.97274805 5.93995714 -19.7326451 3.26513474 -16.6875 0.4375 C-11.05241139 -2.17133732 -5.83613842 -1.98208475 0 0 Z " fill="#EDEFF2" transform="translate(79.3125,29.125)"/>
<path d="M0 0 C5.26188885 -0.31571333 8.55464669 0.10085653 13 3 C17.78227082 7.47038359 17.78227082 7.47038359 18.30859375 11.16796875 C18.3125 13.375 18.3125 13.375 18 17 C17.34 17.33 16.68 17.66 16 18 C15.91363281 17.40832031 15.82726562 16.81664063 15.73828125 16.20703125 C15.03133489 12.23126869 14.29738317 9.43678154 12 6.0625 C7.89438929 3.23989264 3.88036839 2.63492171 -1 2 C-0.67 1.34 -0.34 0.68 0 0 Z " fill="#F7F8F9" transform="translate(69,28)"/>
<path d="M0 0 C2.43019591 2.43019591 2.78513675 4.21607947 3.75 7.5 C5.45116403 12.88162918 7.73402336 17.2068136 10.92578125 21.84375 C12 24 12 24 11.66796875 26.28125 C11.44753906 26.8484375 11.22710937 27.415625 11 28 C10.566875 27.2575 10.13375 26.515 9.6875 25.75 C8.14607218 23.09397693 8.14607218 23.09397693 6.5625 21.26171875 C4.54836139 18.34625311 3.49808944 15.39852795 2.3125 12.0625 C1.65701172 10.25458984 1.65701172 10.25458984 0.98828125 8.41015625 C0.10660472 5.3678495 -0.21979066 3.13053177 0 0 Z " fill="#ECECEC" transform="translate(18,65)"/>
<path d="M0 0 C14.78132118 0.96355353 14.78132118 0.96355353 21 2 C20.67 2.66 20.34 3.32 20 4 C12.56621057 4.33452052 6.80122845 4.13902852 0 1 C0 0.67 0 0.34 0 0 Z " fill="#E0E0E0" transform="translate(55,107)"/>
<path d="M0 0 C2 3 2 3 3.375 6 C5.4064628 9.75039286 7.17590691 11.44263822 11.25 12.6875 C12.11625 12.8421875 12.11625 12.8421875 13 13 C12.67 13.99 12.34 14.98 12 16 C6.94048007 14.91581716 4.28828563 12.87428114 1.125 8.953125 C-0.60143047 5.95584988 -0.41081122 3.3549583 0 0 Z " fill="#F2F3F5" transform="translate(57,43)"/>
<path d="M0 0 C-1.1875 1.5 -1.1875 1.5 -3 3 C-4.66614608 3.04165365 -6.33385392 3.04165365 -8 3 C-8.99 3.66 -9.98 4.32 -11 5 C-13.6875 5.125 -13.6875 5.125 -16 5 C-13.5183956 1.2775934 -12.25355573 1.25203957 -8 0.25 C-6.39125 -0.14445312 -6.39125 -0.14445312 -4.75 -0.546875 C-2 -1 -2 -1 0 0 Z " fill="#E0E0E0" transform="translate(92,106)"/>
<path d="M0 0 C0.66 0.33 1.32 0.66 2 1 C1.01 1 0.02 1 -1 1 C-0.67 0.67 -0.34 0.34 0 0 Z M-2 2 C-1.67 2.66 -1.34 3.32 -1 4 C-4.00515368 7.46748502 -6.53009997 8.93111086 -11 10 C-11.66 9.67 -12.32 9.34 -13 9 C-9.37 6.69 -5.74 4.38 -2 2 Z " fill="#E2E2E2" transform="translate(107,95)"/>
<path d="M0 0 C3 1 3 1 4 3 C4.13415472 5.6723621 4.04318541 8.32250488 4 11 C3.01 11.495 3.01 11.495 2 12 C1.34 8.04 0.68 4.08 0 0 Z " fill="#EEF0F3" transform="translate(83,34)"/>
<path d="M0 0 C0.99 0.33 1.98 0.66 3 1 C2.51171875 7.0546875 2.51171875 7.0546875 2 9 C1.01 9.66 0.02 10.32 -1 11 C-1.0270043 9.54176788 -1.04639787 8.08339325 -1.0625 6.625 C-1.07410156 5.81289063 -1.08570313 5.00078125 -1.09765625 4.1640625 C-1 2 -1 2 0 0 Z " fill="#DEE2E7" transform="translate(57,37)"/>
</svg>
