<?xml version="1.0" encoding="UTF-8"?>
<svg version="1.1" xmlns="http://www.w3.org/2000/svg" width="500" height="500">
<path d="M0 0 C0.92167969 0.49886719 1.84335937 0.99773437 2.79296875 1.51171875 C26.08402101 15.1698395 43.06653368 39.62985795 50.109375 65.4296875 C57.7515605 96.06546622 52.50509061 126.30989264 37.35546875 153.65234375 C34.86205003 158.17469055 32.6718002 162.81662637 30.5 167.5 C27.69961885 173.51085489 24.77642939 179.41559693 21.625 185.25 C17.57496169 192.76148052 13.88273878 200.41887723 10.23144531 208.13085938 C6.5900764 215.80890238 2.81367378 223.41132062 -1.01074219 230.99951172 C-3.97358709 236.89656987 -6.83142591 242.83361487 -9.625 248.8125 C-12.38679907 254.71636349 -15.28063994 260.51357981 -18.375 266.25 C-22.50053455 273.89910661 -26.25588688 281.70246258 -29.98168945 289.55273438 C-33.54104905 297.05190027 -37.15977363 304.51235299 -40.93603516 311.90478516 C-41.71309195 313.43500577 -42.48256021 314.96908666 -43.24755859 316.50537109 C-44.56842188 319.15633448 -45.90753994 321.79741888 -47.25 324.4375 C-47.66258057 325.2737793 -48.07516113 326.11005859 -48.50024414 326.97167969 C-48.89719482 327.74286133 -49.29414551 328.51404297 -49.703125 329.30859375 C-50.05020508 329.99751709 -50.39728516 330.68644043 -50.75488281 331.39624023 C-52 333 -52 333 -53.89355469 333.79321289 C-56.28971851 334.0284413 -57.76961338 333.91939601 -60 333 C-61.19750977 331.50732422 -61.19750977 331.50732422 -62.19140625 329.5546875 C-62.57208252 328.82113037 -62.95275879 328.08757324 -63.3449707 327.33178711 C-63.74675537 326.52104736 -64.14854004 325.71030762 -64.5625 324.875 C-65.22028442 323.58638062 -65.22028442 323.58638062 -65.89135742 322.27172852 C-69.4215716 315.30223657 -72.7761134 308.24847613 -76.11279297 301.18481445 C-81.15158685 290.56815681 -86.4233355 280.06872173 -91.6875 269.5625 C-92.13703033 268.66530243 -92.58656067 267.76810486 -93.04971313 266.84371948 C-96.41780675 260.12343144 -99.78732538 253.40385117 -103.16217041 246.68695068 C-106.85835952 239.32977426 -110.55090945 231.97727556 -114 224.5 C-117.18891176 217.66108135 -120.50712106 210.89708132 -123.9050293 204.15991211 C-125.47804975 201.03965508 -127.04215789 197.91507626 -128.60099792 194.78770447 C-131.76196135 188.44745153 -134.94965808 182.12143755 -138.16110229 175.80659485 C-140.16530634 171.86199815 -142.16080225 167.91302491 -144.15551758 163.96362305 C-145.17865798 161.94261503 -146.20536647 159.92340949 -147.2355957 157.90600586 C-163.01047963 126.99403655 -170.93954982 95.7804954 -160.96875 61.44921875 C-156.35085835 47.42393297 -149.14051022 35.48423079 -140 24 C-139.45988281 23.23042969 -138.91976562 22.46085937 -138.36328125 21.66796875 C-137.68845703 20.84232422 -137.68845703 20.84232422 -137 20 C-136.34 20 -135.68 20 -135 20 C-134.67 19.01 -134.34 18.02 -134 17 C-133.34 17 -132.68 17 -132 17 C-132 16.34 -132 15.68 -132 15 C-131.34 15 -130.68 15 -130 15 C-130 14.34 -130 13.68 -130 13 C-128.12014932 11.34148657 -126.24713862 9.81890672 -124.25 8.3125 C-123.65944824 7.86551758 -123.06889648 7.41853516 -122.46044922 6.95800781 C-86.1277309 -20.08526049 -39.20243063 -21.54959959 0 0 Z " fill="#FD9936" transform="translate(318,91)"/>
<path d="M0 0 C1.72192628 0.68515085 3.45119109 1.35216269 5.1875 2 C9.11082962 3.54086605 12.51048384 5.41415867 16.0234375 7.73046875 C18.03090211 9.01984819 20.07911943 10.13447501 22.1875 11.25 C31.12799353 16.19645862 39.26567974 22.07387035 46.8125 28.9375 C47.33432861 29.41010254 47.85615723 29.88270508 48.39379883 30.36962891 C49.63951121 31.53477493 50.82604385 32.76258676 52 34 C52 34.66 52 35.32 52 36 C52.99 36.33 53.98 36.66 55 37 C55.33 37.66 55.66 38.32 56 39 C58.52733235 39.65555119 58.52733235 39.65555119 61 40 C71.73799556 70.69445902 73.13421687 102.03498381 58.99072266 132.14892578 C57.19571321 135.69697059 55.28233795 139.17467762 53.35546875 142.65234375 C50.86205003 147.17469055 48.6718002 151.81662637 46.5 156.5 C43.69961885 162.51085489 40.77642939 168.41559693 37.625 174.25 C33.57496169 181.76148052 29.88273878 189.41887723 26.23144531 197.13085938 C22.59445633 204.79966703 18.82766352 212.39563401 15.00024414 219.97094727 C12.75089833 224.43925874 10.55119585 228.92118858 8.44921875 233.4609375 C8.04590332 234.33073242 7.64258789 235.20052734 7.22705078 236.09667969 C6.47395598 237.73170059 5.72831081 239.37018245 4.99169922 241.01269531 C3.15678298 244.99904424 1.52831669 248.21564988 -2 251 C-2.66 251 -3.32 251 -4 251 C-4 250.34 -4 249.68 -4 249 C-4.66 249 -5.32 249 -6 249 C-5.67 249.66 -5.34 250.32 -5 251 C-4.960008 252.99960012 -4.95653201 255.00047242 -5 257 C-5.66 257 -6.32 257 -7 257 C-7 257.99 -7 258.98 -7 260 C-7.99 260 -8.98 260 -10 260 C-10 261.65 -10 263.3 -10 265 C-11.65 265 -13.3 265 -15 265 C-13.0784801 258.27468036 -10.26964791 252.29039562 -7.04492188 246.11328125 C-4.76490388 241.70318841 -2.85945806 237.2355971 -1.05151367 232.61303711 C0.76900201 228.08901126 2.83372051 223.6776688 4.875 219.25 C10.2152353 207.57465501 15.39858092 195.90008705 19.82421875 183.83984375 C21 181 21 181 22.5078125 178.4921875 C24.12415904 175.7926349 25.15078872 173.15463918 26.1875 170.1875 C26.53167969 169.21167969 26.87585938 168.23585938 27.23046875 167.23046875 C27.48441406 166.49441406 27.73835937 165.75835937 28 165 C27.67 164.67 27.34 164.34 27 164 C26.48808105 164.38381836 25.97616211 164.76763672 25.44873047 165.16308594 C19.33020684 169.52011383 13.25717106 171.99583721 6.125 174.25 C5.11308594 174.58773437 4.10117187 174.92546875 3.05859375 175.2734375 C-25.55006137 184.57766081 -56.6485414 183.58139414 -83.69921875 170.21875 C-92.36086605 165.6932163 -99.17635384 159.91100436 -106 153 C-106.81339844 152.1853125 -107.62679687 151.370625 -108.46484375 150.53125 C-114.4171539 144.26351829 -118.68767709 137.44412304 -123 130 C-123.54914063 129.17113281 -124.09828125 128.34226563 -124.6640625 127.48828125 C-126 125 -126 125 -127 119 C-68.59 119 -10.18 119 50 119 C50.66 115.37 51.32 111.74 52 108 C52.36351562 106.36289063 52.72703125 104.72578125 53.1015625 103.0390625 C54.2171502 97.48304124 54.38230915 92.03000138 54.375 86.375 C54.37693359 84.81036011 54.37693359 84.81036011 54.37890625 83.21411133 C54.2726868 75.37499536 53.12821674 68.43647022 50.875 60.94921875 C50 58 50 58 50 55 C48.75927011 54.99365209 48.75927011 54.99365209 47.49347496 54.98717594 C27.3181821 54.88363487 7.14292248 54.7749633 -13.03231239 54.66066074 C-22.78910812 54.605506 -32.54590751 54.55205431 -42.30273438 54.50268555 C-50.81197399 54.45962507 -59.32118862 54.41329411 -67.83038938 54.36312145 C-72.33119923 54.33669534 -76.8320047 54.31184885 -81.33284378 54.29092598 C-85.57961137 54.27113234 -89.82633217 54.24692611 -94.07305717 54.21950912 C-95.62167307 54.21025742 -97.17029913 54.20254131 -98.7189312 54.19658089 C-108.18924614 54.1590472 -117.56219774 53.80480762 -127 53 C-123.81918514 35.43436119 -108.1634521 19.0633416 -94.14453125 8.9375 C-67.15624069 -8.72479453 -29.57396555 -15.36123454 0 0 Z " fill="#FE9934" transform="translate(302,102)"/>
<path d="M0 0 C58.74 0 117.48 0 178 0 C184.66146945 21.64977571 185.1908467 42.42745991 178 64 C119.26 64 60.52 64 0 64 C-5.60875061 41.56499757 -7.3557597 22.0672791 0 0 Z " fill="#FDFDFE" transform="translate(174,157)"/>
<path d="M0 0 C58.08 0 116.16 0 176 0 C171.85079155 20.74604226 153.05010205 37.13409762 136.5078125 48.75 C117.23828511 61.20706821 92.67614506 64.82983407 70.3125 60.875 C51.07602244 56.42785734 34.87692223 48.05457842 21 34 C20.18660156 33.1853125 19.37320313 32.370625 18.53515625 31.53125 C12.5828461 25.26351829 8.31232291 18.44412304 4 11 C3.45085937 10.17113281 2.90171875 9.34226563 2.3359375 8.48828125 C1 6 1 6 0 0 Z " fill="#138708" transform="translate(175,221)"/>
<path d="M0 0 C1.72192628 0.68515085 3.45119109 1.35216269 5.1875 2 C9.11082962 3.54086605 12.51048384 5.41415867 16.0234375 7.73046875 C18.03090211 9.01984819 20.07911943 10.13447501 22.1875 11.25 C31.12799353 16.19645862 39.26567974 22.07387035 46.8125 28.9375 C47.33432861 29.41010254 47.85615723 29.88270508 48.39379883 30.36962891 C49.63951121 31.53477493 50.82604385 32.76258676 52 34 C52 34.66 52 35.32 52 36 C52.99 36.33 53.98 36.66 55 37 C55.33 37.66 55.66 38.32 56 39 C58.52733235 39.65555119 58.52733235 39.65555119 61 40 C71.73799556 70.69445902 73.13421687 102.03498381 58.99072266 132.14892578 C57.19571321 135.69697059 55.28233795 139.17467762 53.35546875 142.65234375 C50.86205003 147.17469055 48.6718002 151.81662637 46.5 156.5 C43.69961885 162.51085489 40.77642939 168.41559693 37.625 174.25 C33.57496169 181.76148052 29.88273878 189.41887723 26.23144531 197.13085938 C22.59445633 204.79966703 18.82766352 212.39563401 15.00024414 219.97094727 C12.75089833 224.43925874 10.55119585 228.92118858 8.44921875 233.4609375 C8.04590332 234.33073242 7.64258789 235.20052734 7.22705078 236.09667969 C6.47395598 237.73170059 5.72831081 239.37018245 4.99169922 241.01269531 C3.15678298 244.99904424 1.52831669 248.21564988 -2 251 C-2.66 251 -3.32 251 -4 251 C-4 250.34 -4 249.68 -4 249 C-4.66 249 -5.32 249 -6 249 C-5.67 249.66 -5.34 250.32 -5 251 C-4.960008 252.99960012 -4.95653201 255.00047242 -5 257 C-5.66 257 -6.32 257 -7 257 C-7 257.99 -7 258.98 -7 260 C-7.99 260 -8.98 260 -10 260 C-10 261.65 -10 263.3 -10 265 C-11.65 265 -13.3 265 -15 265 C-13.0784801 258.27468036 -10.26964791 252.29039562 -7.04492188 246.11328125 C-4.76490388 241.70318841 -2.85945806 237.2355971 -1.05151367 232.61303711 C0.76900201 228.08901126 2.83372051 223.6776688 4.875 219.25 C10.2152353 207.57465501 15.39858092 195.90008705 19.82421875 183.83984375 C21 181 21 181 22.5078125 178.4921875 C24.12415904 175.7926349 25.15078872 173.15463918 26.1875 170.1875 C26.53167969 169.21167969 26.87585938 168.23585938 27.23046875 167.23046875 C27.48441406 166.49441406 27.73835937 165.75835937 28 165 C27.67 164.67 27.34 164.34 27 164 C26.48808105 164.38381836 25.97616211 164.76763672 25.44873047 165.16308594 C19.33020684 169.52011383 13.25717106 171.99583721 6.125 174.25 C5.11308594 174.58773437 4.10117187 174.92546875 3.05859375 175.2734375 C-6.20963265 178.28768783 -15.22394648 180.36890768 -25 180 C-25 179.67 -25 179.34 -25 179 C-24.22398437 178.84144531 -23.44796875 178.68289063 -22.6484375 178.51953125 C3.46179653 172.87996996 24.09263882 159.95109836 39.15234375 137.83984375 C52.12786613 117.56710022 58.03700687 92.9427537 53.09375 69.01953125 C52.44469643 66.28839465 51.68516261 63.64132158 50.875 60.94921875 C50 58 50 58 50 55 C45.71 55 41.42 55 37 55 C36.0925 53.30875 35.185 51.6175 34.25 49.875 C28.4507489 39.29910356 21.66997387 28.84557738 11.43359375 22.12109375 C10.96050781 21.75113281 10.48742187 21.38117188 10 21 C10 20.34 10 19.68 10 19 C9.05125 18.690625 8.1025 18.38125 7.125 18.0625 C4 17 4 17 2 16 C2 15.34 2 14.68 2 14 C1.27425781 13.88398437 0.54851562 13.76796875 -0.19921875 13.6484375 C-3.06856953 12.98412477 -5.20653735 11.9792798 -7.8125 10.625 C-27.98355084 1.3955404 -52.4670152 2.97667713 -73 10 C-74.41925781 10.46599609 -74.41925781 10.46599609 -75.8671875 10.94140625 C-81.02917229 12.82849249 -85.88196948 15.4027059 -90.75 17.9375 C-91.37680664 18.26145752 -92.00361328 18.58541504 -92.64941406 18.91918945 C-95.82181763 20.61893256 -98.59518203 22.40274713 -101.328125 24.75390625 C-104 27 -104 27 -106 27 C-106 27.66 -106 28.32 -106 29 C-107.57421875 30.55078125 -107.57421875 30.55078125 -109.6875 32.3125 C-116.77474447 38.09381852 -116.77474447 38.09381852 -121 46 C-121.66 46 -122.32 46 -123 46 C-123.28875 46.969375 -123.5775 47.93875 -123.875 48.9375 C-125 52 -125 52 -127 53 C-124.54422351 36.50688382 -109.45600489 21.08112458 -97 11 C-69.98748791 -8.51108944 -30.47711897 -15.8303482 0 0 Z " fill="#E57A25" transform="translate(302,102)"/>
<path d="M0 0 C2.65069433 2.47398137 4.71615844 4.57642251 6 8 C6 9.32 6 10.64 6 12 C6.61875 12.0825 7.2375 12.165 7.875 12.25 C10 13 10 13 11.25 15.0625 C11.4975 15.701875 11.745 16.34125 12 17 C12.66 17 13.32 17 14 17 C15.68732277 18.98260426 17.35366057 20.9832342 19 23 C19.66 23.33 20.32 23.66 21 24 C21 24.66 21 25.32 21 26 C21.639375 26.226875 22.27875 26.45375 22.9375 26.6875 C27.13320261 28.48565826 31.03900556 30.73904021 35 33 C35 33.66 35 34.32 35 35 C35.825 35.2475 36.65 35.495 37.5 35.75 C41 37 41 37 44.5625 38.8125 C65.24695716 49.33135108 89.23060382 53.1861368 111.64770508 46.04296875 C114.63621842 45.00603525 117.40296802 43.79067233 120.2109375 42.33203125 C123 41 123 41 127 41 C127 40.34 127 39.68 127 39 C127.63808594 38.66226563 128.27617187 38.32453125 128.93359375 37.9765625 C129.75988281 37.53054688 130.58617187 37.08453125 131.4375 36.625 C132.26121094 36.18414062 133.08492187 35.74328125 133.93359375 35.2890625 C136.13466578 34.16581441 136.13466578 34.16581441 137 32 C137.680625 31.62875 138.36125 31.2575 139.0625 30.875 C142.66575646 28.57504907 145.30931604 25.74441606 148.23046875 22.64453125 C150 21 150 21 152 21 C152.25652344 20.28972656 152.51304687 19.57945312 152.77734375 18.84765625 C154.52327244 14.78126005 156.99171922 11.29307784 159.44140625 7.62109375 C161.2279525 4.9024231 161.2279525 4.9024231 162 1 C166.29 1 170.58 1 175 1 C170.8448509 20.29176369 154.78783862 36.29674269 139 47 C138.20207031 47.55300781 137.40414062 48.10601562 136.58203125 48.67578125 C117.28527294 61.18473513 92.73243794 64.83978902 70.3125 60.875 C51.07602244 56.42785734 34.87692223 48.05457842 21 34 C20.18660156 33.1853125 19.37320313 32.370625 18.53515625 31.53125 C12.5828461 25.26351829 8.31232291 18.44412304 4 11 C3.16662109 9.67355469 3.16662109 9.67355469 2.31640625 8.3203125 C0.75108132 5.56125313 0.36395588 3.13002053 0 0 Z " fill="#0D6C04" transform="translate(175,221)"/>
<path d="M0 0 C4.70972938 4.4126407 8.63772838 8.75862239 9.37109375 15.3203125 C9.51371914 23.49190812 9.19036899 30.28896601 4 37 C-1.58487441 42.59678246 -8.08220447 45.55766825 -15.875 46.4375 C-23.45998021 46.10901661 -30.87400221 42.48362554 -36 37 C-41.381565 29.50577818 -42.12343711 22.03070604 -41 13 C-39.22041115 5.83481332 -33.76635872 1.25103694 -28 -3 C-19.07719181 -7.75883104 -7.92330509 -5.7064218 0 0 Z " fill="#D9DAEF" transform="translate(278,169)"/>
<path d="M0 0 C58.74 0 117.48 0 178 0 C184.66146945 21.64977571 185.1908467 42.42745991 178 64 C119.26 64 60.52 64 0 64 C-0.33 61.69 -0.66 59.38 -1 57 C1 59 1 59 1 63 C82.18 62.505 82.18 62.505 165 62 C169.35360127 47.32297836 169.35360127 47.32297836 170.5 32.75 C170.48445068 31.92991455 170.46890137 31.1098291 170.45288086 30.26489258 C170.24118728 23.76558372 169.2454915 17.58114032 167.75390625 11.26171875 C166.97242146 7.88068353 166.49075692 4.43529843 166 1 C111.22 1 56.44 1 0 1 C0 0.67 0 0.34 0 0 Z " fill="#E8E3D2" transform="translate(174,157)"/>
<path d="M0 0 C4.70972938 4.4126407 8.63772838 8.75862239 9.37109375 15.3203125 C9.51371914 23.49190812 9.19036899 30.28896601 4 37 C-1.58487441 42.59678246 -8.08220447 45.55766825 -15.875 46.4375 C-23.45998021 46.10901661 -30.87400221 42.48362554 -36 37 C-41.381565 29.50577818 -42.12343711 22.03070604 -41 13 C-39.22041115 5.83481332 -33.76635872 1.25103694 -28 -3 C-19.07719181 -7.75883104 -7.92330509 -5.7064218 0 0 Z M-26 2 C-24.35 4.97 -22.7 7.94 -21 11 C-20.67 11 -20.34 11 -20 11 C-20 9.02 -20 7.04 -20 5 C-19.34 6.98 -18.68 8.96 -18 11 C-17.67 10.34 -17.34 9.68 -17 9 C-16.01 9.33 -15.02 9.66 -14 10 C-13.67 10 -13.34 10 -13 10 C-12.67 10.99 -12.34 11.98 -12 13 C-11.67 12.67 -11.34 12.34 -11 12 C-10.67 12.66 -10.34 13.32 -10 14 C-9.01 13.34 -8.02 12.68 -7 12 C-7.99 13.485 -7.99 13.485 -9 15 C-8.01 15 -7.02 15 -6 15 C-6.66 15.66 -7.32 16.32 -8 17 C-6.68 17.99 -5.36 18.98 -4 20 C-6.97 20.495 -6.97 20.495 -10 21 C-10 21.33 -10 21.66 -10 22 C-7.69 22.66 -5.38 23.32 -3 24 C-5.31 24.33 -7.62 24.66 -10 25 C-9.67 25.99 -9.34 26.98 -9 28 C-9.33 28.66 -9.66 29.32 -10 30 C-10.33 29.67 -10.66 29.34 -11 29 C-11.66 28.67 -12.32 28.34 -13 28 C-13 29.32 -13 30.64 -13 32 C-13.66 31.01 -14.32 30.02 -15 29 C-15 31.97 -15 34.94 -15 38 C-15.66 38 -16.32 38 -17 38 C-17 35.03 -17 32.06 -17 29 C-17.99 30.485 -17.99 30.485 -19 32 C-19 31.67 -19 31.34 -19 31 C-19.33 30.01 -19.66 29.02 -20 28 C-23.51716303 28 -24.37121748 28.82445585 -27 31 C-25.35 29.02 -23.7 27.04 -22 25 C-23.65 25.66 -25.3 26.32 -27 27 C-26.67 26.67 -26.34 26.34 -26 26 C-25.67 25.34 -25.34 24.68 -25 24 C-26.98 24 -28.96 24 -31 24 C-28.03 23.34 -25.06 22.68 -22 22 C-22 21.67 -22 21.34 -22 21 C-25.3 20.67 -28.6 20.34 -32 20 C-30.02 19.67 -28.04 19.34 -26 19 C-26.99 18.34 -27.98 17.68 -29 17 C-28.34 17 -27.68 17 -27 17 C-26.01 16.67 -25.02 16.34 -24 16 C-25.32 15.01 -26.64 14.02 -28 13 C-26.68 13.33 -25.36 13.66 -24 14 C-24.33 13.01 -24.66 12.02 -25 11 C-24.01 11.33 -23.02 11.66 -22 12 C-23.33488128 8.40608886 -24.96022723 5.24509304 -27 2 C-29.50965614 2.70339566 -29.50965614 2.70339566 -32 4 C-32.65213292 6.02463255 -32.65213292 6.02463255 -33 8 C-33.99 8.33 -34.98 8.66 -36 9 C-39.05069779 14.73408748 -39.11218549 22.1555669 -37.32421875 28.3359375 C-36.45983514 30.42459445 -36.45983514 30.42459445 -35 33 C-34.34 33 -33.68 33 -33 33 C-32.34 34.32 -31.68 35.64 -31 37 C-30.34 37 -29.68 37 -29 37 C-29 37.66 -29 38.32 -29 39 C-27.35 39.33 -25.7 39.66 -24 40 C-24 40.66 -24 41.32 -24 42 C-19.05 42 -14.1 42 -9 42 C-9 41.34 -9 40.68 -9 40 C-6.525 39.505 -6.525 39.505 -4 39 C-4 38.34 -4 37.68 -4 37 C-3.0409375 36.8453125 -3.0409375 36.8453125 -2.0625 36.6875 C-1.381875 36.460625 -0.70125 36.23375 0 36 C0.33 35.01 0.66 34.02 1 33 C1.66 33 2.32 33 3 33 C5.96218684 25.54163672 7.73541404 18.59464657 4.5 10.9375 C4.005 9.968125 3.51 8.99875 3 8 C2.34 8 1.68 8 1 8 C0.8453125 7.0409375 0.8453125 7.0409375 0.6875 6.0625 C0.460625 5.381875 0.23375 4.70125 0 4 C-0.99 3.67 -1.98 3.34 -3 3 C-3.66 2.01 -4.32 1.02 -5 0 C-12.39725299 -2.81728372 -20.04917119 -3.77050067 -26 2 Z " fill="#18167E" transform="translate(278,169)"/>
<path d="M0 0 C0.495 0.99 0.495 0.99 1 2 C1.99 2 2.98 2 4 2 C4.474375 2.495 4.94875 2.99 5.4375 3.5 C7.11993064 5.46168789 7.11993064 5.46168789 11 5 C10.39779675 9.37818037 8.7771894 12.53619687 6.625 16.375 C3.06757778 22.85628604 -0.2016632 29.44781702 -3.375 36.125 C-3.84067383 37.10404297 -4.30634766 38.08308594 -4.78613281 39.09179688 C-7.07025086 43.9056032 -9.34146551 48.72541644 -11.609375 53.546875 C-15.58376352 61.97781355 -19.61342614 70.36671319 -23.9375 78.625 C-24.30311035 79.32995605 -24.6687207 80.03491211 -25.04541016 80.76123047 C-28.36084915 86.99995975 -28.36084915 86.99995975 -31 89 C-31.66 89 -32.32 89 -33 89 C-33 88.34 -33 87.68 -33 87 C-33.66 87 -34.32 87 -35 87 C-34.67 87.66 -34.34 88.32 -34 89 C-33.960008 90.99960012 -33.95653201 93.00047242 -34 95 C-34.66 95 -35.32 95 -36 95 C-36 95.99 -36 96.98 -36 98 C-36.99 98 -37.98 98 -39 98 C-39 99.65 -39 101.3 -39 103 C-40.65 103 -42.3 103 -44 103 C-42.0784801 96.27468036 -39.26964791 90.29039562 -36.04492188 84.11328125 C-33.76490388 79.70318841 -31.85945806 75.2355971 -30.05151367 70.61303711 C-28.23099799 66.08901126 -26.16627949 61.6776688 -24.125 57.25 C-18.7847647 45.57465501 -13.60141908 33.90008705 -9.17578125 21.83984375 C-8 19 -8 19 -6.5234375 16.5859375 C-4.6489905 13.40418388 -3.51845908 10.17500328 -2.3125 6.6875 C-2.08755859 6.04232422 -1.86261719 5.39714844 -1.63085938 4.73242188 C-1.08226467 3.15667113 -0.54043041 1.57856946 0 0 Z " fill="#E7782A" transform="translate(331,264)"/>
<path d="M0 0 C0.99 0.33 1.98 0.66 3 1 C3 1.99 3 2.98 3 4 C3.94726954 5.69719127 4.94228261 7.36935236 6 9 C6 6.69 6 4.38 6 2 C7.54571278 4.31856917 8.79618552 6.50638429 10 9 C13.0745356 8.2236068 13.0745356 8.2236068 15 6 C15 7.65 15 9.3 15 11 C15.99 10.01 16.98 9.02 18 8 C17.67 9.65 17.34 11.3 17 13 C18.32 12.01 19.64 11.02 21 10 C20.67 11.32 20.34 12.64 20 14 C20.99 14 21.98 14 23 14 C22.34 14.66 21.68 15.32 21 16 C22.89353366 17.89353366 24.84526801 19.4198632 27 21 C25.35 21.33 23.7 21.66 22 22 C23.98 22.66 25.96 23.32 28 24 C24.696686 24.88935377 21.37705625 25.46274105 18 26 C18.66 26.99 19.32 27.98 20 29 C19.34 29.33 18.68 29.66 18 30 C18.33 31.32 18.66 32.64 19 34 C18.525625 33.505 18.05125 33.01 17.5625 32.5 C16.24076302 30.88457803 16.24076302 30.88457803 15 31 C14.67 32.32 14.34 33.64 14 35 C13.67 34.01 13.34 33.02 13 32 C12.67 33.98 12.34 35.96 12 38 C11.34 38 10.68 38 10 38 C9.67 36.02 9.34 34.04 9 32 C8.34 33.98 7.68 35.96 7 38 C5.89155081 34.67465243 6.15545644 32.37817425 7 29 C3.87501834 28.6626154 3.87501834 28.6626154 1.8125 31 C1.214375 31.66 0.61625 32.32 0 33 C-0.66 32.67 -1.32 32.34 -2 32 C-0.02 30.02 1.96 28.04 4 26 C2.576875 26.7734375 2.576875 26.7734375 1.125 27.5625 C0.09375 28.036875 -0.9375 28.51125 -2 29 C-2.66 28.67 -3.32 28.34 -4 28 C-2.35 27.01 -0.7 26.02 1 25 C-1.64 25 -4.28 25 -7 25 C-4.38058783 23.25372522 -2.96175123 22.61277612 0 22 C-1.98 21.67 -3.96 21.34 -6 21 C-5 19 -5 19 -2 18 C-4.475 17.01 -4.475 17.01 -7 16 C-3.71023192 14.90341064 -2.28696233 15.20046862 1 16 C-0.32 14.68 -1.64 13.36 -3 12 C-1.35 12.33 0.3 12.66 2 13 C1.34 11.68 0.68 10.36 0 9 C1.65 9.99 3.3 10.98 5 12 C3.02 8.37 1.04 4.74 -1 1 C-0.67 0.67 -0.34 0.34 0 0 Z " fill="#7F80C7" transform="translate(251,169)"/>
<path d="M0 0 C4.42679007 1.47559669 4.91432696 3.90057368 7 8 C7 8.66 7 9.32 7 10 C5.68 9.67 4.36 9.34 3 9 C3.99 10.485 3.99 10.485 5 12 C4.01 12 3.02 12 2 12 C2.99 12.99 3.98 13.98 5 15 C2.36 14.67 -0.28 14.34 -3 14 C-1.02 14.66 0.96 15.32 3 16 C3 16.33 3 16.66 3 17 C1.02 17.33 -0.96 17.66 -3 18 C0.3 18.33 3.6 18.66 7 19 C7 19.33 7 19.66 7 20 C4.69 20.66 2.38 21.32 0 22 C1.32 22.33 2.64 22.66 4 23 C2.68 23.99 1.36 24.98 0 26 C0.78375 25.484375 1.5675 24.96875 2.375 24.4375 C3.24125 23.963125 4.1075 23.48875 5 23 C5.66 23.33 6.32 23.66 7 24 C5.02 25.98 3.04 27.96 1 30 C4.465 27.525 4.465 27.525 8 25 C8.66 25.33 9.32 25.66 10 26 C9.67 28.31 9.34 30.62 9 33 C9.66 31.02 10.32 29.04 11 27 C11.33 27 11.66 27 12 27 C12 29.97 12 32.94 12 36 C12.66 36 13.32 36 14 36 C14 33.03 14 30.06 14 27 C15.90318884 29.85478326 16.4619099 31.41941308 17.125 34.6875 C17.29257812 35.49574219 17.46015625 36.30398437 17.6328125 37.13671875 C17.75398438 37.75160156 17.87515625 38.36648437 18 39 C16.58366664 39.16947579 15.16691467 39.33545507 13.75 39.5 C12.96109375 39.5928125 12.1721875 39.685625 11.359375 39.78125 C9 40 9 40 5 40 C5 39.34 5 38.68 5 38 C3.35 37.67 1.7 37.34 0 37 C0 36.34 0 35.68 0 35 C-1.32 34.34 -2.64 33.68 -4 33 C-4 32.34 -4 31.68 -4 31 C-4.66 31 -5.32 31 -6 31 C-9.08942009 23.38678622 -10.73358304 16.18949234 -7.5 8.375 C-7.005 7.59125 -6.51 6.8075 -6 6 C-5.34 6 -4.68 6 -4 6 C-3.8453125 5.071875 -3.8453125 5.071875 -3.6875 4.125 C-3 2 -3 2 0 0 Z " fill="#E2E2F5" transform="translate(249,171)"/>
<path d="M0 0 C-0.33 1.093125 -0.66 2.18625 -1 3.3125 C-2.13086649 6.84578884 -2.13086649 6.84578884 -2 10 C-3.62760417 10.91145833 -5.25520833 11.82291667 -6.8828125 12.734375 C-9.12011261 14.02185932 -9.12011261 14.02185932 -11.51171875 15.8828125 C-16.12209079 18.97562779 -21.44896221 20.42514135 -26.6875 22.125 C-27.71294922 22.47175781 -28.73839844 22.81851562 -29.79492188 23.17578125 C-39.12255156 26.25160102 -48.14653634 28.37182882 -58 28 C-58 27.67 -58 27.34 -58 27 C-57.22398437 26.84144531 -56.44796875 26.68289063 -55.6484375 26.51953125 C-37.69368451 22.64147601 -22.8876309 16.10576474 -9.40014648 3.50537109 C-6.2248934 0.6315307 -4.32842395 -0.63653293 0 0 Z " fill="#E77424" transform="translate(335,254)"/>
<path d="M0 0 C54.78 0 109.56 0 166 0 C166 0.33 166 0.66 166 1 C111.55 1 57.1 1 1 1 C1 2.65 1 4.3 1 6 C0.67 6.33 0.34 6.66 0 7 C-0.20604085 8.32781878 -0.3662959 9.66295895 -0.5 11 C-0.88888889 14.88888889 -0.88888889 14.88888889 -2 16 C-2.09996094 18.04882197 -2.13080946 20.10108569 -2.1328125 22.15234375 C-2.13410156 23.40337891 -2.13539063 24.65441406 -2.13671875 25.94335938 C-2.13285156 27.26142578 -2.12898437 28.57949219 -2.125 29.9375 C-2.12886719 31.25169922 -2.13273438 32.56589844 -2.13671875 33.91992188 C-2.13542969 35.17224609 -2.13414062 36.42457031 -2.1328125 37.71484375 C-2.13168457 38.87105225 -2.13055664 40.02726074 -2.12939453 41.21850586 C-2.19022637 43.95718631 -2.19022637 43.95718631 -1 46 C-0.93003986 47.70702735 -0.91559846 49.41668003 -0.9375 51.125 C-0.94652344 52.03507812 -0.95554688 52.94515625 -0.96484375 53.8828125 C-0.97644531 54.58148438 -0.98804688 55.28015625 -1 56 C-8.92178809 41.68752573 -5.62328991 20.20784525 -2 5 C-1.34 3.35 -0.68 1.7 0 0 Z " fill="#FFFBE9" transform="translate(174,158)"/>
<path d="M0 0 C0.33 1.32 0.66 2.64 1 4 C1.99 3.34 2.98 2.68 4 2 C3.67 3.65 3.34 5.3 3 7 C4.32 6.01 5.64 5.02 7 4 C6.67 5.32 6.34 6.64 6 8 C6.99 8 7.98 8 9 8 C8.34 8.66 7.68 9.32 7 10 C8.89353366 11.89353366 10.84526801 13.4198632 13 15 C11.35 15.33 9.7 15.66 8 16 C9.98 16.66 11.96 17.32 14 18 C10.696686 18.88935377 7.37705625 19.46274105 4 20 C4.66 20.99 5.32 21.98 6 23 C5.34 23.33 4.68 23.66 4 24 C4.33 25.32 4.66 26.64 5 28 C4.525625 27.505 4.05125 27.01 3.5625 26.5 C2.24076302 24.88457803 2.24076302 24.88457803 1 25 C0.67 26.32 0.34 27.64 0 29 C-1.125 21.25 -1.125 21.25 0 19 C-0.969375 18.855625 -1.93875 18.71125 -2.9375 18.5625 C-6 18 -6 18 -7 17 C-7.375 14.625 -7.375 14.625 -7 12 C-4.5 10.3125 -4.5 10.3125 -2 9 C-2 8.34 -2 7.68 -2 7 C-3.32 7 -4.64 7 -6 7 C-5.67 5.68 -5.34 4.36 -5 3 C-4.360625 2.87625 -3.72125 2.7525 -3.0625 2.625 C-2.0415625 2.315625 -2.0415625 2.315625 -1 2 C-0.67 1.34 -0.34 0.68 0 0 Z " fill="#5A5A9E" transform="translate(265,175)"/>
<path d="M0 0 C2.65069433 2.47398137 4.71615844 4.57642251 6 8 C6 9.32 6 10.64 6 12 C6.61875 12.0825 7.2375 12.165 7.875 12.25 C10 13 10 13 11.25 15.0625 C11.4975 15.701875 11.745 16.34125 12 17 C12.66 17 13.32 17 14 17 C15.28430862 18.47695491 16.56580708 19.95806138 17.78125 21.4921875 C19.06784671 23.13813095 19.06784671 23.13813095 21 25 C20.01 25.33 19.02 25.66 18 26 C18.66 27.32 19.32 28.64 20 30 C21.98 30 23.96 30 26 30 C25.67 31.65 25.34 33.3 25 35 C27.31 35.99 29.62 36.98 32 38 C31.67 38.99 31.34 39.98 31 41 C31.66 41 32.32 41 33 41 C32.67 41.99 32.34 42.98 32 44 C20.5588558 34.1411417 11.49868923 24.05776369 4 11 C3.16855469 9.67548828 3.16855469 9.67548828 2.3203125 8.32421875 C0.75184852 5.56316529 0.36432693 3.13321158 0 0 Z " fill="#1C6803" transform="translate(175,221)"/>
<path d="M0 0 C0.66 0.33 1.32 0.66 2 1 C2.8589328 3.98206952 3.12451408 6.90338888 3 10 C1.4375 12.5625 1.4375 12.5625 -1 14 C-4.25 14.25 -4.25 14.25 -7 14 C-7 13.34 -7 12.68 -7 12 C-7.66 12 -8.32 12 -9 12 C-10.10647808 9.78704384 -10.19588368 8.45327301 -10.25 6 C-10.27578125 5.29875 -10.3015625 4.5975 -10.328125 3.875 C-10.21984375 3.25625 -10.1115625 2.6375 -10 2 C-6.33134759 -0.44576827 -4.32799657 -0.23607254 0 0 Z " fill="#FDA245" transform="translate(213,282)"/>
<path d="M0 0 C6.08415542 2.8761462 8.55463147 5.61758534 11.4375 11.625 C11.78748047 12.305625 12.13746094 12.98625 12.49804688 13.6875 C15 18.64244435 15 18.64244435 15 21 C10.72588349 20.51530637 9.04944886 19.458902 6.375 16.125 C4.00071295 13.17298899 4.00071295 13.17298899 1.30078125 10.53515625 C-0.48988766 8.42184429 -0.30595301 7.03691921 -0.1875 4.3125 C-0.16042969 3.50425781 -0.13335937 2.69601563 -0.10546875 1.86328125 C-0.07066406 1.24839844 -0.03585937 0.63351563 0 0 Z " fill="#FA9737" transform="translate(347,121)"/>
<path d="M0 0 C0.66 0 1.32 0 2 0 C2 0.66 2 1.32 2 2 C3.32 1.34 4.64 0.68 6 0 C3.79500988 5.65311758 1.17234692 11.08760601 -1.4375 16.5625 C-1.92798828 17.60341797 -2.41847656 18.64433594 -2.92382812 19.71679688 C-3.40142578 20.71904297 -3.87902344 21.72128906 -4.37109375 22.75390625 C-4.80349365 23.66470947 -5.23589355 24.5755127 -5.68139648 25.51391602 C-7 28 -7 28 -10 32 C-9.67 28.7 -9.34 25.4 -9 22 C-10.98 22.99 -10.98 22.99 -13 24 C-12.09539273 20.29933391 -11.56131642 18.43502022 -8.5 16.0625 C-7.675 15.711875 -6.85 15.36125 -6 15 C-5.34 15.33 -4.68 15.66 -4 16 C-4 14.35 -4 12.7 -4 11 C-3.01 11 -2.02 11 -1 11 C-1 10.01 -1 9.02 -1 8 C-0.34 8 0.32 8 1 8 C0.67 5.36 0.34 2.72 0 0 Z " fill="#E57628" transform="translate(296,351)"/>
<path d="M0 0 C0.33 0 0.66 0 1 0 C1.69377583 8.10946854 0.8747124 14.30898851 -4 21 C-9.23392025 26.09674089 -14.46053678 29.07919338 -21.8125 29.125 C-23.20859103 29.09311538 -24.60461746 29.05472088 -26 29 C-26.33 28.34 -26.66 27.68 -27 27 C-26.04287109 26.92652344 -26.04287109 26.92652344 -25.06640625 26.8515625 C-24.24011719 26.77679688 -23.41382813 26.70203125 -22.5625 26.625 C-21.73878906 26.55539063 -20.91507812 26.48578125 -20.06640625 26.4140625 C-19.38449219 26.27742188 -18.70257813 26.14078125 -18 26 C-17.67 25.34 -17.34 24.68 -17 24 C-15.66666667 23.66666667 -14.33333333 23.33333333 -13 23 C-12.67 22.34 -12.34 21.68 -12 21 C-10.66666667 20.33333333 -9.33333333 19.66666667 -8 19 C-7.67 18.34 -7.34 17.68 -7 17 C-6.34 17 -5.68 17 -5 17 C-3.04911777 11.38145918 -1.36827653 5.78886224 0 0 Z " fill="#17167D" transform="translate(286,185)"/>
<path d="M0 0 C0.33 0 0.66 0 1 0 C1 2.97 1 5.94 1 9 C1.66 9 2.32 9 3 9 C3 6.03 3 3.06 3 0 C4.90318884 2.85478326 5.4619099 4.41941308 6.125 7.6875 C6.29257812 8.49574219 6.46015625 9.30398437 6.6328125 10.13671875 C6.75398438 10.75160156 6.87515625 11.36648437 7 12 C5.58366664 12.16947579 4.16691467 12.33545507 2.75 12.5 C1.96109375 12.5928125 1.1721875 12.685625 0.359375 12.78125 C-2 13 -2 13 -6 13 C-6 12.34 -6 11.68 -6 11 C-7.65 10.67 -9.3 10.34 -11 10 C-10.6875 7.625 -10.6875 7.625 -10 5 C-9.01 4.34 -8.02 3.68 -7 3 C-6.67 3.66 -6.34 4.32 -6 5 C-5.01 4.67 -4.02 4.34 -3 4 C-2.67 4.66 -2.34 5.32 -2 6 C-1.34 4.02 -0.68 2.04 0 0 Z " fill="#E8E9F6" transform="translate(260,198)"/>
<path d="M0 0 C0 0.33 0 0.66 0 1 C-1.64198364 1.03758423 -1.64198364 1.03758423 -3.31713867 1.07592773 C-7.38935483 1.17030008 -11.46141226 1.27044731 -15.53344727 1.37231445 C-17.29382608 1.41555069 -19.05424378 1.4572335 -20.81469727 1.49731445 C-23.34924013 1.55529185 -25.88358934 1.61890627 -28.41796875 1.68359375 C-29.59325386 1.70866249 -29.59325386 1.70866249 -30.7922821 1.73423767 C-34.6432369 1.83797776 -38.24449544 2.14834186 -42 3 C-43.93651019 3.06533435 -45.87502861 3.08584303 -47.8125 3.0625 C-49.27623047 3.04896484 -49.27623047 3.04896484 -50.76953125 3.03515625 C-51.87361328 3.01775391 -51.87361328 3.01775391 -53 3 C-39.32324527 -6.11783649 -15.25437727 -2.45472738 0 0 Z " fill="#F3BA7A" transform="translate(285,78)"/>
<path d="M0 0 C0.20140476 3.62528568 -0.14223235 5.86501708 -2 9 C-3.32 9 -4.64 9 -6 9 C-5.67 9.66 -5.34 10.32 -5 11 C-4.960008 12.99960012 -4.95653201 15.00047242 -5 17 C-5.66 17 -6.32 17 -7 17 C-7 17.99 -7 18.98 -7 20 C-7.99 20 -8.98 20 -10 20 C-10 21.65 -10 23.3 -10 25 C-11.65 25 -13.3 25 -15 25 C-13.32260587 19.27712591 -11.16217618 13.92774502 -8.5625 8.5625 C-8.27431396 7.94745605 -7.98612793 7.33241211 -7.68920898 6.69873047 C-6.36343876 4.02938948 -5.36377282 2.23747195 -2.83984375 0.58984375 C-1 0 -1 0 0 0 Z " fill="#E87423" transform="translate(302,342)"/>
<path d="M0 0 C2.64 0 5.28 0 8 0 C8.33 1.32 8.66 2.64 9 4 C9.66 4 10.32 4 11 4 C11 5.32 11 6.64 11 8 C11.66 8 12.32 8 13 8 C15.32590854 11.63423209 15.16265833 14.77088331 15 19 C12.95557672 15.45633299 12.73299562 13.39797371 12 9 C7.71 9 3.42 9 -1 9 C-1.66 7.35 -2.32 5.7 -3 4 C-2.34 4 -1.68 4 -1 4 C-0.67 2.68 -0.34 1.36 0 0 Z " fill="#E3893A" transform="translate(340,148)"/>
<path d="M0 0 C1.31471568 0.28151087 2.62675767 0.57553339 3.9375 0.875 C4.66839844 1.03742188 5.39929688 1.19984375 6.15234375 1.3671875 C8 2 8 2 9 4 C8.01 4.495 8.01 4.495 7 5 C7.3403125 5.804375 7.3403125 5.804375 7.6875 6.625 C8.13958145 10.06081901 6.67178015 12.05766694 5 15 C3.68 15 2.36 15 1 15 C1 15.66 1 16.32 1 17 C0.01 16.67 -0.98 16.34 -2 16 C-2.33 11.71 -2.66 7.42 -3 3 C-2.01 3.99 -1.02 4.98 0 6 C0 5.01 0 4.02 0 3 C0.33 2.67 0.66 2.34 1 2 C0.67 1.34 0.34 0.68 0 0 Z " fill="#D8D9EF" transform="translate(268,194)"/>
<path d="M0 0 C0 0.66 0 1.32 0 2 C0.66 2 1.32 2 2 2 C1.25 9.75 1.25 9.75 -1 12 C-1.66 11.67 -2.32 11.34 -3 11 C-3.33 11.66 -3.66 12.32 -4 13 C-4.66 11.35 -5.32 9.7 -6 8 C-6 9.65 -6 11.3 -6 13 C-8.74277578 9.80009492 -10.6302836 6.99500618 -12 3 C-7.89542386 0.01485372 -5.02254631 -0.2954439 0 0 Z " fill="#D5D7EA" transform="translate(264,167)"/>
<path d="M0 0 C0.66 0.66 1.32 1.32 2 2 C2.66 1.34 3.32 0.68 4 0 C4.33 1.32 4.66 2.64 5 4 C5.66 4 6.32 4 7 4 C7.33 2.68 7.66 1.36 8 0 C8.66 0 9.32 0 10 0 C8.65150163 4.35970831 6.95092154 8.31341438 4.875 12.375 C4.33617187 13.43460937 3.79734375 14.49421875 3.2421875 15.5859375 C2.83226562 16.38257813 2.42234375 17.17921875 2 18 C1.67 18 1.34 18 1 18 C1 16.02 1 14.04 1 12 C0.01 12.33 -0.98 12.66 -2 13 C-2.99 12.34 -3.98 11.68 -5 11 C-3.35 7.37 -1.7 3.74 0 0 Z " fill="#E97F35" transform="translate(312,310)"/>
<path d="M0 0 C3.3 0 6.6 0 10 0 C10 0.33 10 0.66 10 1 C7.03 1 4.06 1 1 1 C1.020625 1.804375 1.04125 2.60875 1.0625 3.4375 C1 6 1 6 0 7 C-0.20604085 8.32781878 -0.3662959 9.66295895 -0.5 11 C-0.88888889 14.88888889 -0.88888889 14.88888889 -2 16 C-2.09996094 18.04882197 -2.13080946 20.10108569 -2.1328125 22.15234375 C-2.13410156 23.40337891 -2.13539063 24.65441406 -2.13671875 25.94335938 C-2.13285156 27.26142578 -2.12898437 28.57949219 -2.125 29.9375 C-2.12886719 31.25169922 -2.13273438 32.56589844 -2.13671875 33.91992188 C-2.13542969 35.17224609 -2.13414062 36.42457031 -2.1328125 37.71484375 C-2.13168457 38.87105225 -2.13055664 40.02726074 -2.12939453 41.21850586 C-2.19022637 43.95718631 -2.19022637 43.95718631 -1 46 C-0.93003986 47.70702735 -0.91559846 49.41668003 -0.9375 51.125 C-0.94652344 52.03507812 -0.95554688 52.94515625 -0.96484375 53.8828125 C-0.97644531 54.58148438 -0.98804688 55.28015625 -1 56 C-8.92178809 41.68752573 -5.62328991 20.20784525 -2 5 C-1.37770175 3.31626394 -0.72962949 1.64008019 0 0 Z " fill="#FEF1D6" transform="translate(174,158)"/>
<path d="M0 0 C1.32 0 2.64 0 4 0 C4 0.66 4 1.32 4 2 C4.66 2 5.32 2 6 2 C8.125 3.875 8.125 3.875 10 6 C10 6.66 10 7.32 10 8 C11.65 8.33 13.3 8.66 15 9 C15 9.66 15 10.32 15 11 C15.67546875 10.90460938 16.3509375 10.80921875 17.046875 10.7109375 C17.93890625 10.60007813 18.8309375 10.48921875 19.75 10.375 C20.63171875 10.25898438 21.5134375 10.14296875 22.421875 10.0234375 C25.22859878 9.99792183 26.63384866 10.55156156 29 12 C26.36 12.33 23.72 12.66 21 13 C23.97 13.495 23.97 13.495 27 14 C27 14.33 27 14.66 27 15 C18.97854721 15.59418169 12.00906026 13.56789608 5.5625 8.625 C2.91078141 5.90860535 1.45919115 3.48584552 0 0 Z " fill="#1E1B7F" transform="translate(239,200)"/>
<path d="M0 0 C0.33 0.66 0.66 1.32 1 2 C-0.07983398 4.61376953 -0.07983398 4.61376953 -1.74609375 7.8828125 C-2.33583984 9.04941406 -2.92558594 10.21601563 -3.53320312 11.41796875 C-4.16779826 12.6537334 -4.80256615 13.88940935 -5.4375 15.125 C-6.06908768 16.36811982 -6.69995654 17.61160514 -7.33007812 18.85546875 C-8.87966419 21.90732527 -10.4365736 24.95521682 -12 28 C-12.33 28 -12.66 28 -13 28 C-12.99399603 25.39127531 -12.94673291 22.79454299 -12.875 20.1875 C-12.87757813 19.44951172 -12.88015625 18.71152344 -12.8828125 17.95117188 C-12.8046875 15.79296875 -12.8046875 15.79296875 -12 12 C-9.05078125 10.2109375 -9.05078125 10.2109375 -6 9 C-4.28432339 5.49705129 -4.28432339 5.49705129 -3 2 C-2.01 1.34 -1.02 0.68 0 0 Z " fill="#E69053" transform="translate(280,393)"/>
<path d="M0 0 C0.66 0.33 1.32 0.66 2 1 C1.3503125 1.59748047 1.3503125 1.59748047 0.6875 2.20703125 C0.130625 2.73683594 -0.42625 3.26664063 -1 3.8125 C-1.556875 4.33457031 -2.11375 4.85664063 -2.6875 5.39453125 C-4.316465 7.04148967 -4.316465 7.04148967 -4 10 C-4.33 10.66 -4.66 11.32 -5 12 C-6.32 11.34 -7.64 10.68 -9 10 C-9 9.34 -9 8.68 -9 8 C-9.66 8 -10.32 8 -11 8 C-11.33 6.35 -11.66 4.7 -12 3 C-11.01 3.495 -11.01 3.495 -10 4 C-7.7986886 3.49464432 -7.7986886 3.49464432 -5.4375 2.625 C-4.63183594 2.34914062 -3.82617188 2.07328125 -2.99609375 1.7890625 C-1.03375778 1.16630563 -1.03375778 1.16630563 0 0 Z M2 2 C2.99 2.33 3.98 2.66 5 3 C4.67 4.98 4.34 6.96 4 9 C3.01 9 2.02 9 1 9 C0.34 9.66 -0.32 10.32 -1 11 C-1.75 8.75 -1.75 8.75 -2 6 C-0.0625 3.6875 -0.0625 3.6875 2 2 Z " fill="#DBDCF4" transform="translate(254,194)"/>
<path d="M0 0 C3.06203656 4.59305485 1.8814862 8.71108277 1 14 C0.05098977 17.78436478 -1.15008539 21.44367595 -2.4375 25.125 C-2.75009766 26.06859375 -3.06269531 27.0121875 -3.38476562 27.984375 C-5.72943579 34.8647179 -5.72943579 34.8647179 -8 36 C-8 34.35 -8 32.7 -8 31 C-7.34 31 -6.68 31 -6 31 C-6.2784375 30.2265625 -6.2784375 30.2265625 -6.5625 29.4375 C-7.15419517 26.14091261 -6.567267 23.27754265 -6 20 C-5.01 20.33 -4.02 20.66 -3 21 C-2.95101563 19.81921875 -2.90203125 18.6384375 -2.8515625 17.421875 C-2.77651121 15.86456063 -2.70096439 14.30727009 -2.625 12.75 C-2.57859375 11.58404297 -2.57859375 11.58404297 -2.53125 10.39453125 C-2.16618114 3.27568856 -2.16618114 3.27568856 0 0 Z " fill="#E9A576" transform="translate(368,197)"/>
<path d="M0 0 C2.46943529 3.70415293 2.46913089 5.62144505 2 10 C0.1875 11.5 0.1875 11.5 -2 13 C-2.474375 14.175625 -2.94875 15.35125 -3.4375 16.5625 C-5 20 -5 20 -7.6875 21.4375 C-8.450625 21.623125 -9.21375 21.80875 -10 22 C-4.85714286 4.85714286 -4.85714286 4.85714286 0 0 Z " fill="#E67626" transform="translate(279,383)"/>
<path d="M0 0 C4.42679007 1.47559669 4.91432696 3.90057368 7 8 C7 8.66 7 9.32 7 10 C5.68 9.67 4.36 9.34 3 9 C3.99 10.485 3.99 10.485 5 12 C-1.625 11.25 -1.625 11.25 -5 9 C-5.66 9.66 -6.32 10.32 -7 11 C-6.67 9.35 -6.34 7.7 -6 6 C-5.34 6 -4.68 6 -4 6 C-3.896875 5.38125 -3.79375 4.7625 -3.6875 4.125 C-3 2 -3 2 0 0 Z " fill="#C0C1DF" transform="translate(249,171)"/>
<path d="M0 0 C4.57860469 4.57860469 3.44374414 11.98160373 3.6875 18.0625 C3.74744141 19.27228516 3.80738281 20.48207031 3.86914062 21.72851562 C3.91619141 22.88158203 3.96324219 24.03464844 4.01171875 25.22265625 C4.05772217 26.28234619 4.10372559 27.34203613 4.15112305 28.43383789 C4 31 4 31 2 33 C1.28072705 35.31765729 0.6090107 37.65095874 0 40 C-0.87539503 37.47108102 -0.99463262 35.9689192 -0.53344727 33.29833984 C0.03949934 29.75577296 0.11298724 26.43901463 0.09765625 22.8515625 C0.0962413 22.19417084 0.09482635 21.53677917 0.09336853 20.85946655 C0.08781762 18.78126269 0.07527465 16.70317073 0.0625 14.625 C0.05747864 13.20703282 0.05291685 11.78906393 0.04882812 10.37109375 C0.03786437 6.91402678 0.02063421 3.45702433 0 0 Z " fill="#DB7D41" transform="translate(356,170)"/>
<path d="M0 0 C3.63 0.33 7.26 0.66 11 1 C11 1.66 11 2.32 11 3 C19.22379035 3.85001765 27.42638754 4.27955342 35.6875 4.5625 C37.47317383 4.62727539 37.47317383 4.62727539 39.29492188 4.69335938 C42.19653034 4.79823679 45.09820635 4.90040196 48 5 C48 5.33 48 5.66 48 6 C32.369626 9.89190035 14.76550384 6.43992247 0 1 C0 0.67 0 0.34 0 0 Z " fill="#426905" transform="translate(229,276)"/>
<path d="M0 0 C-0.5076854 2.0307416 -1.00650907 4.01893549 -1.6875 6 C-2.09614244 8.61531161 -1.19506154 9.68017466 0 12 C0.125 14.75 0.125 14.75 0 17 C-3.17951413 15.41024294 -4.1148931 12.20046162 -5.625 9.125 C-5.94984375 8.48691406 -6.2746875 7.84882813 -6.609375 7.19140625 C-8.05782082 4.2762569 -9 2.29753733 -9 -1 C-5.38055101 -2.34053666 -3.42632833 -1.61798838 0 0 Z " fill="#F9A44F" transform="translate(203,294)"/>
<path d="M0 0 C4.29 0 8.58 0 13 0 C12.01 2.97 11.02 5.94 10 9 C9.34 9 8.68 9 8 9 C7.34 10.32 6.68 11.64 6 13 C5.34 13 4.68 13 4 13 C3.375 9.625 3.375 9.625 3 6 C3.66 5.34 4.32 4.68 5 4 C4.175 3.525625 3.35 3.05125 2.5 2.5625 C1.675 2.046875 0.85 1.53125 0 1 C0 0.67 0 0.34 0 0 Z " fill="#E1E1F3" transform="translate(271,193)"/>
<path d="M0 0 C1.46067882 3.89836797 0.49779809 6.84267923 -0.4375 10.8125 C-1.95302459 17.94742353 -2.30846979 24.90261113 -2.3125 32.1875 C-2.31757568 33.17919189 -2.32265137 34.17088379 -2.32788086 35.19262695 C-2.339751 40.5021131 -2.339751 40.5021131 -0.95776367 45.5715332 C0.37138004 48.94165621 -0.31530888 51.50807529 -1 55 C-8.69071349 42.18214418 -4.77473874 18.67416079 -1.75390625 4.78125 C-1 2 -1 2 0 0 Z " fill="#FBDAAE" transform="translate(157,154)"/>
<path d="M0 0 C2.8125 2 2.8125 2 5 4 C4.01 7.96 3.02 11.92 2 16 C1.04095144 12.16380575 1.08107884 10.67568464 2 7 C-1.12498166 6.6626154 -1.12498166 6.6626154 -3.1875 9 C-3.785625 9.66 -4.38375 10.32 -5 11 C-5.66 10.67 -6.32 10.34 -7 10 C-5.02 8.02 -3.04 6.04 -1 4 C-2.423125 4.7734375 -2.423125 4.7734375 -3.875 5.5625 C-4.90625 6.036875 -5.9375 6.51125 -7 7 C-7.66 6.67 -8.32 6.34 -9 6 C-7.35 5.01 -5.7 4.02 -4 3 C-6.64 3 -9.28 3 -12 3 C-8.07245984 0.38163989 -4.73456385 -0.57738583 0 0 Z " fill="#62629B" transform="translate(256,191)"/>
<path d="M0 0 C0.99 0.33 1.98 0.66 3 1 C3 1.99 3 2.98 3 4 C3.94726954 5.69719127 4.94228261 7.36935236 6 9 C6 6.69 6 4.38 6 2 C8.67927341 6.01891012 8.15601248 8.24161923 8 13 C8.66 13 9.32 13 10 13 C9 15 9 15 6.3125 16.375 C3 17 3 17 -0.375 15.125 C-1.24125 14.42375 -2.1075 13.7225 -3 13 C-1 12 -1 12 1 12 C1 11.01 1 10.02 1 9 C2.32 9.99 3.64 10.98 5 12 C3.02 8.37 1.04 4.74 -1 1 C-0.67 0.67 -0.34 0.34 0 0 Z " fill="#7F80B7" transform="translate(251,169)"/>
<path d="M0 0 C0 0.66 0 1.32 0 2 C-0.928125 2.433125 -1.85625 2.86625 -2.8125 3.3125 C-5.90278999 4.6904811 -5.90278999 4.6904811 -7.25 6.5 C-9.93914228 8.8049791 -12.74329358 9.03458625 -16.1875 9.6875 C-16.85789307 9.81487549 -17.52828613 9.94225098 -18.21899414 10.07348633 C-22.90410028 10.91969993 -27.25922418 11.29025158 -32 11 C-32 10.67 -32 10.34 -32 10 C-31.22398437 9.84144531 -30.44796875 9.68289063 -29.6484375 9.51953125 C-20.89622898 7.62913776 -8.1034414 0 0 0 Z " fill="#B28225" transform="translate(309,271)"/>
<path d="M0 0 C0.66 0.33 1.32 0.66 2 1 C1.71848084 3.12636813 1.42446737 5.25108528 1.125 7.375 C0.96257812 8.55835938 0.80015625 9.74171875 0.6328125 10.9609375 C0 14 0 14 -2 16 C-4.625 16.125 -4.625 16.125 -7 16 C-4.87594923 10.5443163 -2.72823857 5.18365329 0 0 Z " fill="#EB741F" transform="translate(267,407)"/>
<path d="M0 0 C3.47781454 1.97974703 6.94658044 3.96852611 10.39453125 6 C17.09875884 9.92293089 23.63874888 13.42186597 31 16 C31 16.33 31 16.66 31 17 C25.72684667 16.5547115 20.98229776 15.91626837 16 14 C16 13.01 16 12.02 16 11 C13.69 10.34 11.38 9.68 9 9 C9 8.34 9 7.68 9 7 C7.824375 6.5359375 7.824375 6.5359375 6.625 6.0625 C4 5 4 5 2 4 C2 3.34 2 2.68 2 2 C1.34 2 0.68 2 0 2 C0 1.34 0 0.68 0 0 Z " fill="#DC9F3D" transform="translate(203,262)"/>
<path d="M0 0 C-0.8125 2.9375 -0.8125 2.9375 -3 6 C-5.88308404 6.53730202 -8.57313157 6.62491529 -11.50390625 6.6015625 C-12.32761719 6.73304687 -13.15132812 6.86453125 -14 7 C-15.40346327 8.92938308 -15.40346327 8.92938308 -16 11 C-17.32 10.67 -18.64 10.34 -20 10 C-4.12140575 -1.37380192 -4.12140575 -1.37380192 0 0 Z " fill="#F6C589" transform="translate(216,88)"/>
<path d="M0 0 C0.99 0.33 1.98 0.66 3 1 C3 2.32 3 3.64 3 5 C3.66 5 4.32 5 5 5 C5 6.32 5 7.64 5 9 C5.66 9 6.32 9 7 9 C7 10.32 7 11.64 7 13 C7.66 13 8.32 13 9 13 C9 14.32 9 15.64 9 17 C9.66 17 10.32 17 11 17 C11 18.32 11 19.64 11 21 C11.99 21.33 12.98 21.66 14 22 C14 23.32 14 24.64 14 26 C14.66 26.33 15.32 26.66 16 27 C15.34 27.99 14.68 28.98 14 30 C12.00108867 26.05154255 10.00740115 22.10050563 8.01855469 18.14697266 C7.34095653 16.80184612 6.66192541 15.45744044 5.98144531 14.11376953 C5.00470162 12.18448716 4.03310723 10.25268782 3.0625 8.3203125 C2.47597656 7.15773926 1.88945312 5.99516602 1.28515625 4.79736328 C0 2 0 2 0 0 Z " fill="#F8CF9D" transform="translate(169,243)"/>
<path d="M0 0 C0 1.98 0 3.96 0 6 C-1.32 6.33 -2.64 6.66 -4 7 C-4.33 8.32 -4.66 9.64 -5 11 C-5.99 10.67 -6.98 10.34 -8 10 C-7.71890887 8.35232753 -7.42481474 6.70686855 -7.125 5.0625 C-6.96257812 4.14597656 -6.80015625 3.22945313 -6.6328125 2.28515625 C-6.42398437 1.53105469 -6.21515625 0.77695312 -6 0 C-3.50907189 -1.24546405 -2.58919267 -0.7767578 0 0 Z " fill="#E77324" transform="translate(313,322)"/>
<path d="M0 0 C0.33 0.66 0.66 1.32 1 2 C-0.25 4.625 -0.25 4.625 -2 7 C-2.99 7 -3.98 7 -5 7 C-5 7.66 -5 8.32 -5 9 C-5.61875 9.268125 -6.2375 9.53625 -6.875 9.8125 C-9.2995233 10.95556848 -9.2995233 10.95556848 -11 14 C-16.18566461 17.1564915 -16.18566461 17.1564915 -19.1953125 16.578125 C-20.08863281 16.29195313 -20.08863281 16.29195313 -21 16 C-20.32195312 15.59910156 -19.64390625 15.19820313 -18.9453125 14.78515625 C-11.9315084 10.50110139 -5.9340003 5.67655994 0 0 Z " fill="#B27D25" transform="translate(330,254)"/>
<path d="M0 0 C2.97 0.495 2.97 0.495 6 1 C5.814375 1.70125 5.62875 2.4025 5.4375 3.125 C4.94843024 6.33888698 5.33768442 8.83560336 6 12 C6.99 12 7.98 12 9 12 C10.31626692 15.61973402 11 18.09567131 11 22 C11.66 22.33 12.32 22.66 13 23 C12.01 23 11.02 23 10 23 C8.32705993 19.54466686 6.66272237 16.08526007 5 12.625 C4.52304688 11.64015625 4.04609375 10.6553125 3.5546875 9.640625 C2.87792969 8.22910156 2.87792969 8.22910156 2.1875 6.7890625 C1.76855469 5.91975098 1.34960938 5.05043945 0.91796875 4.15478516 C0 2 0 2 0 0 Z " fill="#F7BF87" transform="translate(239,384)"/>
<path d="M0 0 C4.55555556 0.55555556 4.55555556 0.55555556 6 2 C6.125 4.5 6.125 4.5 6 7 C5 8 5 8 2 8.125 C-1 8 -1 8 -2 7 C-2.1875 4.5625 -2.1875 4.5625 -2 2 C-1.34 1.34 -0.68 0.68 0 0 Z " fill="#07067F" transform="translate(260,185)"/>
<path d="M0 0 C3.37713186 3.03941868 5.26798794 6.0508641 7.25 10.125 C8.03117187 11.70667969 8.03117187 11.70667969 8.828125 13.3203125 C10 16 10 16 10 18 C7.625 17.75 7.625 17.75 5 17 C1.60230592 12.35052389 0.81669472 5.58074725 0 0 Z " fill="#F6AC5F" transform="translate(352,124)"/>
<path d="M0 0 C10.89 0 21.78 0 33 0 C33 0.33 33 0.66 33 1 C27.3564732 2.60154139 22.35360063 3.31397378 16.5 3.25 C15.79230469 3.25773437 15.08460938 3.26546875 14.35546875 3.2734375 C9.27956304 3.25487843 4.88229624 2.3855165 0 1 C0 0.67 0 0.34 0 0 Z " fill="#E0A23B" transform="translate(248,282)"/>
<path d="M0 0 C0.33 1.32 0.66 2.64 1 4 C1.99 3.34 2.98 2.68 4 2 C3.67 3.65 3.34 5.3 3 7 C4.32 6.01 5.64 5.02 7 4 C5.86500606 7.29148243 5.00716624 7.9959869 1.875 9.75 C0.92625 10.1625 -0.0225 10.575 -1 11 C-1.33 9.68 -1.66 8.36 -2 7 C-3.32 7 -4.64 7 -6 7 C-5.67 5.68 -5.34 4.36 -5 3 C-4.360625 2.87625 -3.72125 2.7525 -3.0625 2.625 C-2.0415625 2.315625 -2.0415625 2.315625 -1 2 C-0.67 1.34 -0.34 0.68 0 0 Z " fill="#57579F" transform="translate(265,175)"/>
<path d="M0 0 C-0.06000106 1.6260287 -0.1487885 3.25101549 -0.25 4.875 C-0.29640625 5.77992188 -0.3428125 6.68484375 -0.390625 7.6171875 C-1 10 -1 10 -3.046875 11.3203125 C-3.69140625 11.54460937 -4.3359375 11.76890625 -5 12 C-5 11.01 -5 10.02 -5 9 C-5.66 9 -6.32 9 -7 9 C-4.4 0 -4.4 0 0 0 Z " fill="#E77526" transform="translate(287,373)"/>
<path d="M0 0 C-0.66 0.66 -1.32 1.32 -2 2 C-0.10646634 3.89353366 1.84526801 5.4198632 4 7 C2.20906809 7.08086147 0.41710372 7.13912702 -1.375 7.1875 C-2.87160156 7.23970703 -2.87160156 7.23970703 -4.3984375 7.29296875 C-5.25695312 7.19628906 -6.11546875 7.09960938 -7 7 C-7.66 6.01 -8.32 5.02 -9 4 C-8.67 3.01 -8.34 2.02 -8 1 C-2.59770115 -1.29885057 -2.59770115 -1.29885057 0 0 Z " fill="#5D5CAB" transform="translate(274,183)"/>
<path d="M0 0 C0.99 0 1.98 0 3 0 C1.443154 4.01303508 -0.31138857 7.9092928 -2.125 11.8125 C-2.93324219 13.55466797 -2.93324219 13.55466797 -3.7578125 15.33203125 C-4.16773438 16.21246094 -4.57765625 17.09289062 -5 18 C-5.33 18 -5.66 18 -6 18 C-6 15.36 -6 12.72 -6 10 C-5.34 10 -4.68 10 -4 10 C-4 8.68 -4 7.36 -4 6 C-3.01 6 -2.02 6 -1 6 C-0.67 4.02 -0.34 2.04 0 0 Z " fill="#E8A877" transform="translate(329,290)"/>
<path d="M0 0 C1.2109375 1.546875 1.2109375 1.546875 2 4 C0.99212459 6.60515164 -0.03627093 8.82847536 -1.375 11.25 C-1.71789062 11.8996875 -2.06078125 12.549375 -2.4140625 13.21875 C-3.26183672 14.82010131 -4.12908679 16.41111444 -5 18 C-6.28939122 15.42121756 -5.96551673 13.85485837 -5.6875 11 C-5.60886719 10.113125 -5.53023438 9.22625 -5.44921875 8.3125 C-5 6 -5 6 -3 4 C-2.01 4 -1.02 4 0 4 C0 2.68 0 1.36 0 0 Z " fill="#E9A06C" transform="translate(353,241)"/>
<path d="M0 0 C0.66 0.33 1.32 0.66 2 1 C0.57369692 4.33049122 -1.15014396 6.31738937 -3.875 8.6875 C-4.55304688 9.28949219 -5.23109375 9.89148438 -5.9296875 10.51171875 C-8.01065834 12.00766194 -9.49630826 12.5789756 -12 13 C-12 13.66 -12 14.32 -12 15 C-12.66 14.67 -13.32 14.34 -14 14 C-13.67 13.34 -13.34 12.68 -13 12 C-12.34 12 -11.68 12 -11 12 C-10.67 11.01 -10.34 10.02 -10 9 C-9.34 9 -8.68 9 -8 9 C-8 8.34 -8 7.68 -8 7 C-7.34 7 -6.68 7 -6 7 C-6 6.34 -6 5.68 -6 5 C-4.04072937 3.2856382 -2.04119788 1.61594832 0 0 Z " fill="#F5C28A" transform="translate(194,99)"/>
<path d="M0 0 C2.33515692 3.50273538 2.13947892 4.44852627 1.6875 8.5 C1.58824219 9.4590625 1.48898437 10.418125 1.38671875 11.40625 C1 14 1 14 0 17 C-0.66 17 -1.32 17 -2 17 C-2.05418326 14.91695462 -2.09287551 12.83350232 -2.125 10.75 C-2.14820313 9.58984375 -2.17140625 8.4296875 -2.1953125 7.234375 C-2.0103949 4.17213954 -1.60823023 2.55797249 0 0 Z " fill="#E49760" transform="translate(368,197)"/>
<path d="M0 0 C0.99 0.33 1.98 0.66 3 1 C2.67 2.98 2.34 4.96 2 7 C1.01 7 0.02 7 -1 7 C-1.66 7.66 -2.32 8.32 -3 9 C-3.75 6.75 -3.75 6.75 -4 4 C-2.0625 1.6875 -2.0625 1.6875 0 0 Z M-8 6 C-7.01 6.33 -6.02 6.66 -5 7 C-5.99 8.485 -5.99 8.485 -7 10 C-7.99 9.67 -8.98 9.34 -10 9 C-9.34 8.01 -8.68 7.02 -8 6 Z " fill="#D8DAF0" transform="translate(256,196)"/>
<path d="M0 0 C3.19199167 2.41556126 5.74716687 4.68003538 8 8 C7.67 8.66 7.34 9.32 7 10 C6.01 9.67 5.02 9.34 4 9 C3.34 10.32 2.68 11.64 2 13 C-0.24828052 8.50343896 -0.16682272 4.92127034 0 0 Z " fill="#FBB367" transform="translate(344,114)"/>
<path d="M0 0 C2.6477341 1.32386705 2.9407438 2.63257209 4.125 5.3125 C4.47820312 6.09238281 4.83140625 6.87226563 5.1953125 7.67578125 C6 10 6 10 6 14 C6.66 14 7.32 14 8 14 C8 15.65 8 17.3 8 19 C5.46884809 15.83606011 3.59098899 12.54351484 1.75 8.9375 C1.20859375 7.89464844 0.6671875 6.85179687 0.109375 5.77734375 C-1 3 -1 3 0 0 Z " fill="#F6BE7F" transform="translate(231,365)"/>
<path d="M0 0 C1.76337678 2.64506516 2.6560851 4.59213967 3.625 7.5625 C3.88539063 8.34753906 4.14578125 9.13257813 4.4140625 9.94140625 C5 12 5 12 5 14 C5.66 14 6.32 14 7 14 C7 15.32 7 16.64 7 18 C7.66 18.33 8.32 18.66 9 19 C8.34 20.32 7.68 21.64 7 23 C6.01170583 20.48241883 5.0342774 17.96145276 4.0625 15.4375 C3.78470703 14.73302734 3.50691406 14.02855469 3.22070312 13.30273438 C1.5134125 8.83909502 0.49374434 4.75619544 0 0 Z " fill="#F8CC9B" transform="translate(156,210)"/>
<path d="M0 0 C1.60568666 0.28317926 3.20952047 0.57687791 4.8125 0.875 C6.15248047 1.11863281 6.15248047 1.11863281 7.51953125 1.3671875 C10 2 10 2 13 4 C13 4.66 13 5.32 13 6 C9.04 6 5.08 6 1 6 C2 4 2 4 5 3 C2.525 2.01 2.525 2.01 0 1 C0 0.67 0 0.34 0 0 Z " fill="#6A69A8" transform="translate(244,184)"/>
<path d="M0 0 C2.34639435 2.34639435 2.94836475 3.96829449 3.11352539 7.26831055 C3.10567017 8.56442261 3.10567017 8.56442261 3.09765625 9.88671875 C3.09282227 11.2934082 3.09282227 11.2934082 3.08789062 12.72851562 C3.07951172 13.70498047 3.07113281 14.68144531 3.0625 15.6875 C3.05798828 16.67556641 3.05347656 17.66363281 3.04882812 18.68164062 C3.03704303 21.12115474 3.02059011 23.56054689 3 26 C2.67 26 2.34 26 2 26 C1.661671 22.79217315 1.33023854 19.58366902 1 16.375 C0.90460938 15.47136719 0.80921875 14.56773437 0.7109375 13.63671875 C0.24420109 9.06936961 -0.12222799 4.59882812 0 0 Z " fill="#DC7737" transform="translate(356,170)"/>
<path d="M0 0 C4.42323682 0.58265272 7.5155864 2.26766211 11.3125 4.5625 C12.38113281 5.20316406 13.44976562 5.84382813 14.55078125 6.50390625 C15.35902344 6.99761719 16.16726563 7.49132812 17 8 C14.09905209 9.45047396 12.44027404 8.45356803 9.375 7.5625 C8.37210937 7.27503906 7.36921875 6.98757812 6.3359375 6.69140625 C5.17964844 6.34916016 5.17964844 6.34916016 4 6 C4 5.01 4 4.02 4 3 C2.05990478 1.29467677 2.05990478 1.29467677 0 0 Z " fill="#F8C485" transform="translate(306,86)"/>
<path d="M0 0 C6.84840775 0.62258252 16.03619501 2.03619501 21 7 C16.01788617 7.35586527 13.36475323 6.31075171 9 4 C6.02611801 2.91592479 3.02025125 1.94634539 0 1 C0 0.67 0 0.34 0 0 Z " fill="#F5C58F" transform="translate(285,79)"/>
<path d="M0 0 C0.66 0 1.32 0 2 0 C2 0.99 2 1.98 2 3 C2.66 3 3.32 3 4 3 C4.33 5.97 4.66 8.94 5 12 C3.68 11.67 2.36 11.34 1 11 C-0.28317892 7.15046324 -0.06643637 4.05261865 0 0 Z " fill="#121076" transform="translate(237,188)"/>
<path d="M0 0 C0.66796875 1.74609375 0.66796875 1.74609375 1 4 C-0.07421875 6.03515625 -0.07421875 6.03515625 -1.6875 8.0625 C-2.20699219 8.73410156 -2.72648438 9.40570313 -3.26171875 10.09765625 C-5.02809095 12.03074223 -6.85839649 13.50227728 -9 15 C-7.58399311 8.86397012 -3.9336625 4.73301638 0 0 Z " fill="#F6C28A" transform="translate(175,119)"/>
<path d="M0 0 C0.33 0.66 0.66 1.32 1 2 C-0.21484375 4.8203125 -0.21484375 4.8203125 -1.9375 8.125 C-2.50339844 9.22070312 -3.06929688 10.31640625 -3.65234375 11.4453125 C-4.09707031 12.28835938 -4.54179687 13.13140625 -5 14 C-5.33 14 -5.66 14 -6 14 C-5.56476716 8.86425246 -5.19875176 5.22235233 -2 1 C-1.34 0.67 -0.68 0.34 0 0 Z " fill="#E8AD7F" transform="translate(280,393)"/>
<path d="M0 0 C2.62386487 3.06117568 3 3.73173127 3 8 C2.34 8 1.68 8 1 8 C1 8.66 1 9.32 1 10 C-0.32 9.34 -1.64 8.68 -3 8 C-2.690625 7.236875 -2.38125 6.47375 -2.0625 5.6875 C-1.32106407 3.81210323 -0.63771783 1.91315348 0 0 Z " fill="#FDA145" transform="translate(203,294)"/>
<path d="M0 0 C0.66 0.33 1.32 0.66 2 1 C1.67 2.32 1.34 3.64 1 5 C0.67 4.34 0.34 3.68 0 3 C-1.65 3.66 -3.3 4.32 -5 5 C-5 5.66 -5 6.32 -5 7 C-3.35 7 -1.7 7 0 7 C-2 9 -2 9 -3.9453125 9.1953125 C-5.96354167 9.13020833 -7.98177083 9.06510417 -10 9 C-7.12505529 5.01930733 -4.17882671 2.56428003 0 0 Z " fill="#B0AFD2" transform="translate(280,177)"/>
<path d="M0 0 C0.66 0 1.32 0 2 0 C2 0.66 2 1.32 2 2 C3.32 1.34 4.64 0.68 6 0 C4.31326082 4.49797113 2.18326108 8.72886302 0 13 C-0.33 13 -0.66 13 -1 13 C-1 11.35 -1 9.7 -1 8 C-0.34 8 0.32 8 1 8 C0.67 5.36 0.34 2.72 0 0 Z " fill="#EAA679" transform="translate(296,351)"/>
<path d="M0 0 C2.03954727 2.41037405 3.03422118 4.11635203 3.9375 7.1875 C4.288125 8.115625 4.63875 9.04375 5 10 C7.03243548 10.96877057 7.03243548 10.96877057 9 11 C9 13.31 9 15.62 9 18 C5.82048587 16.41024294 4.8851069 13.20046162 3.375 10.125 C3.05015625 9.48691406 2.7253125 8.84882813 2.390625 8.19140625 C0.94217918 5.2762569 0 3.29753733 0 0 Z " fill="#FCD6A7" transform="translate(194,293)"/>
<path d="M0 0 C-3.15394652 2.10263102 -5.82463704 3.01776618 -9.4375 4.125 C-10.57058594 4.47820312 -11.70367187 4.83140625 -12.87109375 5.1953125 C-16 6 -16 6 -20 6 C-20 5.34 -20 4.68 -20 4 C-18.989375 3.896875 -17.97875 3.79375 -16.9375 3.6875 C-12.97139204 3.15606151 -12.97139204 3.15606151 -9.4375 1.4375 C-5.95678691 -0.01807093 -3.72044395 -0.27222761 0 0 Z " fill="#2C6702" transform="translate(299,275)"/>
<path d="M0 0 C1.31471568 0.28151087 2.62675767 0.57553339 3.9375 0.875 C4.66839844 1.03742188 5.39929688 1.19984375 6.15234375 1.3671875 C8 2 8 2 9 4 C8.01 4.495 8.01 4.495 7 5 C7.33 6.32 7.66 7.64 8 9 C3.7938588 7.49780671 2.22833454 4.74041869 0 1 C0 0.67 0 0.34 0 0 Z " fill="#A6A8CB" transform="translate(268,194)"/>
<path d="M0 0 C0.33 0.66 0.66 1.32 1 2 C0.00390625 4.3828125 0.00390625 4.3828125 -1.4375 7.125 C-1.91058594 8.03507812 -2.38367188 8.94515625 -2.87109375 9.8828125 C-3.24363281 10.58148438 -3.61617188 11.28015625 -4 12 C-4.33 12 -4.66 12 -5 12 C-5.30192308 4.15 -5.30192308 4.15 -3 1 C-2.01 0.67 -1.02 0.34 0 0 Z " fill="#EAA371" transform="translate(312,328)"/>
<path d="M0 0 C0.66 0.66 1.32 1.32 2 2 C1.6171896 6.0577902 0.84527244 10.01514422 0 14 C-0.66 14 -1.32 14 -2 14 C-1.98259766 13.07767578 -1.98259766 13.07767578 -1.96484375 12.13671875 C-1.95582031 11.32847656 -1.94679688 10.52023438 -1.9375 9.6875 C-1.92589844 8.88699219 -1.91429687 8.08648437 -1.90234375 7.26171875 C-1.90342145 4.83138666 -1.90342145 4.83138666 -3 2 C-2.34 2 -1.68 2 -1 2 C-0.67 1.34 -0.34 0.68 0 0 Z " fill="#2E2A86" transform="translate(285,179)"/>
<path d="M0 0 C3.16115776 1.36983503 3.9927092 1.9890638 6 5 C6.125 7.6875 6.125 7.6875 6 10 C5.01 9.67 4.02 9.34 3 9 C2.67 8.01 2.34 7.02 2 6 C1.34 5.67 0.68 5.34 0 5 C0 3.35 0 1.7 0 0 Z " fill="#141378" transform="translate(279,172)"/>
<path d="M0 0 C0.99 0 1.98 0 3 0 C3 0.99 3 1.98 3 3 C4.32 2.34 5.64 1.68 7 1 C5.84414715 4.91211733 4.64465038 7.8745041 2 11 C2 8.69 2 6.38 2 4 C1.34 3.67 0.68 3.34 0 3 C0 2.01 0 1.02 0 0 Z " fill="#EA9C67" transform="translate(279,382)"/>
<path d="M0 0 C2.65069433 2.47398137 4.71615844 4.57642251 6 8 C6 9.32 6 10.64 6 12 C6.66 12 7.32 12 8 12 C7.67 12.99 7.34 13.98 7 15 C3.20050938 10.11494063 0.72705314 6.25265702 0 0 Z " fill="#386C05" transform="translate(175,221)"/>
<path d="M0 0 C0.33 0 0.66 0 1 0 C0.125 7.625 0.125 7.625 -1 11 C-5.29 11 -9.58 11 -14 11 C-14 10.67 -14 10.34 -14 10 C-10.04 10 -6.08 10 -2 10 C-2.04125 8.906875 -2.0825 7.81375 -2.125 6.6875 C-2 3 -2 3 0 0 Z " fill="#E3DEC0" transform="translate(353,210)"/>
<path d="M0 0 C2.61724095 2.36797991 4.32861729 4.89600354 6 8 C6 8.66 6 9.32 6 10 C2.63820226 8.55922954 0.40843732 6.75249979 -2 4 C-2 3.34 -2 2.68 -2 2 C-1.34 2 -0.68 2 0 2 C0 1.34 0 0.68 0 0 Z " fill="#EFF1FD" transform="translate(250,171)"/>
<path d="M0 0 C0 0.33 0 0.66 0 1 C-0.84304687 1.13277344 -1.68609375 1.26554687 -2.5546875 1.40234375 C-3.65039062 1.57894531 -4.74609375 1.75554687 -5.875 1.9375 C-6.96554688 2.11152344 -8.05609375 2.28554687 -9.1796875 2.46484375 C-11.93821546 2.85551159 -11.93821546 2.85551159 -14 4 C-16.6723621 4.13415472 -19.32250488 4.04318541 -22 4 C-15.68598198 -0.20934535 -7.41145544 -0.27967756 0 0 Z " fill="#F7CC9C" transform="translate(254,77)"/>
<path d="M0 0 C0.33 0.66 0.66 1.32 1 2 C-0.07518118 4.44332726 -1.19808566 6.76754523 -2.4375 9.125 C-2.77587891 9.78371094 -3.11425781 10.44242187 -3.46289062 11.12109375 C-4.30149926 12.75106547 -5.14984811 14.37601909 -6 16 C-6.33 16 -6.66 16 -7 16 C-7 14.02 -7 12.04 -7 10 C-6.34 9.67 -5.68 9.34 -5 9 C-4.87625 8.236875 -4.7525 7.47375 -4.625 6.6875 C-3.86156285 3.40472026 -2.50142651 2.1786618 0 0 Z " fill="#F0C3A1" transform="translate(293,367)"/>
<path d="M0 0 C-4.95 2.475 -4.95 2.475 -10 5 C-10.33 3.68 -10.66 2.36 -11 1 C-4.5 -1.125 -4.5 -1.125 0 0 Z " fill="#EDEFFB" transform="translate(253,194)"/>
<path d="M0 0 C3.63 1.98 7.26 3.96 11 6 C7.52128379 7.15957207 6.65780355 6.77456651 3.3125 5.5625 C2.50425781 5.27503906 1.69601563 4.98757812 0.86328125 4.69140625 C0.24839844 4.46324219 -0.36648437 4.23507813 -1 4 C-0.67 2.68 -0.34 1.36 0 0 Z " fill="#EEEFFD" transform="translate(243,179)"/>
<path d="M0 0 C0.99 0.33 1.98 0.66 3 1 C2.01 2.98 1.02 4.96 0 7 C-1.98 7 -3.96 7 -6 7 C-6 6.34 -6 5.68 -6 5 C-5.01 5 -4.02 5 -3 5 C-2.87625 4.360625 -2.7525 3.72125 -2.625 3.0625 C-2.41875 2.381875 -2.2125 1.70125 -2 1 C-1.34 0.67 -0.68 0.34 0 0 Z " fill="#F6AE63" transform="translate(213,87)"/>
<path d="M0 0 C3.21043882 1.38188453 5.04936365 2.92421903 7.25 5.625 C8.03117188 6.57246094 8.03117188 6.57246094 8.828125 7.5390625 C9.40820312 8.26222656 9.40820312 8.26222656 10 9 C7.69 8.67 5.38 8.34 3 8 C3 6.35 3 4.7 3 3 C2.01 2.67 1.02 2.34 0 2 C0 1.34 0 0.68 0 0 Z " fill="#DB9B37" transform="translate(193,253)"/>
<path d="M0 0 C6.0546875 -0.1953125 6.0546875 -0.1953125 8 0 C8.66 0.66 9.32 1.32 10 2 C7.36 2.33 4.72 2.66 2 3 C4.97 3.495 4.97 3.495 8 4 C8 4.33 8 4.66 8 5 C-0.57142857 5.28571429 -0.57142857 5.28571429 -4 3 C-2.68 3 -1.36 3 0 3 C0 2.01 0 1.02 0 0 Z " fill="#5152A0" transform="translate(258,210)"/>
<path d="M0 0 C1.42258812 3.82320557 2.24042276 6.91281305 2 11 C-0.74277578 7.80009492 -2.6302836 4.99500618 -4 1 C-2 0 -2 0 0 0 Z " fill="#F1F2FC" transform="translate(256,169)"/>
<path d="M0 0 C1.21236328 0.01353516 1.21236328 0.01353516 2.44921875 0.02734375 C3.37154297 0.04474609 3.37154297 0.04474609 4.3125 0.0625 C3.6525 0.7225 2.9925 1.3825 2.3125 2.0625 C1.3225 2.0625 0.3325 2.0625 -0.6875 2.0625 C-0.6875 2.7225 -0.6875 3.3825 -0.6875 4.0625 C-3.3275 3.7325 -5.9675 3.4025 -8.6875 3.0625 C-6.88341097 -0.54567807 -3.60175697 -0.05219938 0 0 Z " fill="#0E0D77" transform="translate(260.6875,163.9375)"/>
<path d="M0 0 C0.66 0 1.32 0 2 0 C0.68938409 4.23429756 -0.94356259 8.07407404 -3 12 C-3.33 12 -3.66 12 -4 12 C-4 9.69 -4 7.38 -4 5 C-3.01 4.67 -2.02 4.34 -1 4 C-0.26676204 1.98491642 -0.26676204 1.98491642 0 0 Z " fill="#E8AA7E" transform="translate(320,310)"/>
<path d="M0 0 C1.90318884 2.85478326 2.4619099 4.41941308 3.125 7.6875 C3.29257812 8.49574219 3.46015625 9.30398437 3.6328125 10.13671875 C3.75398438 10.75160156 3.87515625 11.36648437 4 12 C2.68 12 1.36 12 0 12 C0 8.04 0 4.08 0 0 Z " fill="#EFEFFB" transform="translate(263,198)"/>
<path d="M0 0 C2.31 1.98 4.62 3.96 7 6 C5.02 6.99 5.02 6.99 3 8 C1.02 6.68 -0.96 5.36 -3 4 C-1 3 -1 3 1 3 C0.67 2.01 0.34 1.02 0 0 Z " fill="#595998" transform="translate(251,178)"/>
<path d="M0 0 C1.32 0 2.64 0 4 0 C6.27678571 8.03571429 6.27678571 8.03571429 5 12 C4.16180842 10.37750059 3.3295884 8.75191503 2.5 7.125 C2.0359375 6.22007812 1.571875 5.31515625 1.09375 4.3828125 C0 2 0 2 0 0 Z " fill="#F8C386" transform="translate(211,328)"/>
<path d="M0 0 C0.66 0 1.32 0 2 0 C1.4359146 3.94859783 0.2568294 6.70879046 -2 10 C-2.33 10 -2.66 10 -3 10 C-3 7.36 -3 4.72 -3 2 C-2.01 2 -1.02 2 0 2 C0 1.34 0 0.68 0 0 Z " fill="#E8A273" transform="translate(335,279)"/>
<path d="M0 0 C0.99 0.33 1.98 0.66 3 1 C2.4359146 4.94859783 1.2568294 7.70879046 -1 11 C-1.33 11 -1.66 11 -2 11 C-2 9.02 -2 7.04 -2 5 C-1.34 5 -0.68 5 0 5 C0 3.35 0 1.7 0 0 Z " fill="#E8A578" transform="translate(339,268)"/>
<path d="M0 0 C0.66 0 1.32 0 2 0 C2 1.32 2 2.64 2 4 C2.99 4.33 3.98 4.66 5 5 C5 6.32 5 7.64 5 9 C5.66 9.33 6.32 9.66 7 10 C6.01 11.485 6.01 11.485 5 13 C4.15930585 11.39967863 3.32768495 9.79458829 2.5 8.1875 C1.80390625 6.84751953 1.80390625 6.84751953 1.09375 5.48046875 C0 3 0 3 0 0 Z " fill="#F5C385" transform="translate(178,260)"/>
<path d="M0 0 C0.66 0 1.32 0 2 0 C2.95261487 4.76307437 3.08333357 9.1666528 3 14 C-0.26566506 9.10150241 -0.09311493 5.68001091 0 0 Z " fill="#F29E4A" transform="translate(156,202)"/>
<path d="M0 0 C1.32 0.99 2.64 1.98 4 3 C2.37660195 4.70884005 0.70680947 6.37446717 -1 8 C-1.66 8 -2.32 8 -3 8 C-2.45276317 4.62537285 -1.9451 2.91765 0 0 Z " fill="#F3F4FD" transform="translate(273,171)"/>
<path d="M0 0 C0.625 1.875 0.625 1.875 1 4 C-1 6 -1 6 -3.625 6.125 C-4.40875 6.08375 -5.1925 6.0425 -6 6 C-5.34 4.35 -4.68 2.7 -4 1 C-3.01 1.33 -2.02 1.66 -1 2 C-0.67 1.34 -0.34 0.68 0 0 Z " fill="#DC7932" transform="translate(266,417)"/>
<path d="M0 0 C2.59436983 0.99370273 3.7671861 1.55706526 5.08203125 4.05859375 C5.32308594 4.84363281 5.56414062 5.62867188 5.8125 6.4375 C6.06644531 7.21996094 6.32039062 8.00242187 6.58203125 8.80859375 C7 11 7 11 6 14 C4.99515796 12.04414675 3.99626195 10.08523763 3 8.125 C2.1646875 6.48917969 2.1646875 6.48917969 1.3125 4.8203125 C0 2 0 2 0 0 Z " fill="#F7CE9E" transform="translate(203,312)"/>
<path d="M0 0 C0.33 0.66 0.66 1.32 1 2 C0.0625 4.625 0.0625 4.625 -1 7 C-1.99 7 -2.98 7 -4 7 C-4.66 8.32 -5.32 9.64 -6 11 C-6.66 10.67 -7.32 10.34 -8 10 C-5.36 6.7 -2.72 3.4 0 0 Z " fill="#AD7D24" transform="translate(339,243)"/>
<path d="M0 0 C2.95749791 3.46741134 5.07848152 6.86873527 7 11 C6.01 11 5.02 11 4 11 C2 8 2 8 2 5 C1.01 4.67 0.02 4.34 -1 4 C-0.67 2.68 -0.34 1.36 0 0 Z " fill="#D89B37" transform="translate(179,232)"/>
<path d="M0 0 C0.33 0 0.66 0 1 0 C0.979375 0.94875 0.95875 1.8975 0.9375 2.875 C0.77448174 5.90666283 0.77448174 5.90666283 2 8 C0.35 7.67 -1.3 7.34 -3 7 C-2.25 2.25 -2.25 2.25 0 0 Z " fill="#E1DFF2" transform="translate(252,201)"/>
<path d="M0 0 C3.48331435 3.01887244 4.79157144 5.56909529 6 10 C3 9 3 9 1.3125 6.6875 C0 4 0 4 0 0 Z " fill="#F3C58B" transform="translate(352,124)"/>
<path d="M0 0 C1.32 1.32 2.64 2.64 4 4 C3.34 4 2.68 4 2 4 C2 4.99 2 5.98 2 7 C2.66 7 3.32 7 4 7 C3.67 7.99 3.34 8.98 3 10 C-1.06153846 4.58461538 -1.06153846 4.58461538 -0.75 1.625 C-0.5025 1.08875 -0.255 0.5525 0 0 Z " fill="#256702" transform="translate(183,233)"/>
<path d="M0 0 C0.33 0 0.66 0 1 0 C1.99 4.62 2.98 9.24 4 14 C3.01 14 2.02 14 1 14 C0.67 9.38 0.34 4.76 0 0 Z " fill="#EAA457" transform="translate(170,205)"/>
<path d="M0 0 C-2 2 -2 2 -4.1640625 2.1953125 C-5.38222656 2.16050781 -5.38222656 2.16050781 -6.625 2.125 C-7.44226563 2.10695312 -8.25953125 2.08890625 -9.1015625 2.0703125 C-9.72804688 2.04710937 -10.35453125 2.02390625 -11 2 C-11.33 1.34 -11.66 0.68 -12 0 C-10.56359829 -0.19573608 -9.12580496 -0.38127816 -7.6875 -0.5625 C-6.88699219 -0.66691406 -6.08648437 -0.77132812 -5.26171875 -0.87890625 C-3 -1 -3 -1 0 0 Z " fill="#0B0974" transform="translate(271,212)"/>
<path d="M0 0 C4.875 2.75 4.875 2.75 6 5 C5.34 5.66 4.68 6.32 4 7 C2.68 6.34 1.36 5.68 0 5 C0 3.35 0 1.7 0 0 Z " fill="#211E80" transform="translate(274,167)"/>
<path d="M0 0 C0.33 0.99 0.66 1.98 1 3 C-0.52994792 4.23697917 -2.05989583 5.47395833 -3.58984375 6.7109375 C-5.13266437 7.9666391 -5.13266437 7.9666391 -6 10 C-6.66 10 -7.32 10 -8 10 C-7.44449305 6.40094092 -6.25112752 5.00090201 -3.4375 2.75 C-2.79683594 2.22921875 -2.15617188 1.7084375 -1.49609375 1.171875 C-1.00238281 0.78515625 -0.50867188 0.3984375 0 0 Z " fill="#F8AB5E" transform="translate(172,128)"/>
<path d="M0 0 C0.99 0 1.98 0 3 0 C2.5206753 4.31392226 1.2542015 6.16569547 -2 9 C-2 7.68 -2 6.36 -2 5 C-1.34 5 -0.68 5 0 5 C0 3.35 0 1.7 0 0 Z " fill="#E08243" transform="translate(292,362)"/>
<path d="M0 0 C1.98 0 3.96 0 6 0 C6 0.66 6 1.32 6 2 C7.32 2 8.64 2 10 2 C10 2.99 10 3.98 10 5 C6.08788267 3.84414715 3.1254959 2.64465038 0 0 Z " fill="#366905" transform="translate(218,271)"/>
<path d="M0 0 C3.82946843 1.45255699 5.12050295 3.42895561 7 7 C1.33846154 5.52307692 1.33846154 5.52307692 -0.375 2.875 C-0.58125 2.25625 -0.7875 1.6375 -1 1 C-0.67 0.67 -0.34 0.34 0 0 Z " fill="#F3F3FD" transform="translate(247,176)"/>
<path d="M0 0 C0.66 0 1.32 0 2 0 C1.25 7.75 1.25 7.75 -1 10 C-1.02689216 8.52093108 -1.04634621 7.04172517 -1.0625 5.5625 C-1.07410156 4.73878906 -1.08570313 3.91507813 -1.09765625 3.06640625 C-1 1 -1 1 0 0 Z " fill="#F4F4FD" transform="translate(264,169)"/>
<path d="M0 0 C1 2 1 2 1 4 C1.99 3.34 2.98 2.68 4 2 C2.95125002 4.62187494 2.35068687 5.79371361 -0.125 7.25 C-0.74375 7.4975 -1.3625 7.745 -2 8 C-2.33 7.01 -2.66 6.02 -3 5 C-1.5625 2.3125 -1.5625 2.3125 0 0 Z " fill="#4B4B8C" transform="translate(268,177)"/>
<path d="M0 0 C0.33 0.99 0.66 1.98 1 3 C1.66 3.33 2.32 3.66 3 4 C0.29120665 5.35439668 -2.00933268 5.06501451 -5 5 C-5 4.34 -5 3.68 -5 3 C-2.5 1.375 -2.5 1.375 0 0 Z " fill="#F7F8FE" transform="translate(280,179)"/>
<path d="M0 0 C0.99 0 1.98 0 3 0 C3 0.66 3 1.32 3 2 C4.32 2 5.64 2 7 2 C7 2.66 7 3.32 7 4 C4.125 4.1875 4.125 4.1875 1 4 C0.34 3.01 -0.32 2.02 -1 1 C-0.67 0.67 -0.34 0.34 0 0 Z " fill="#0D0A74" transform="translate(251,209)"/>
<path d="M0 0 C1.51953125 1.20703125 1.51953125 1.20703125 3 3 C3.07421875 5.26171875 3.07421875 5.26171875 2.6875 7.6875 C2.50767578 8.89986328 2.50767578 8.89986328 2.32421875 10.13671875 C2.21722656 10.75160156 2.11023438 11.36648437 2 12 C-0.40201504 7.80120206 -0.15864149 4.75924459 0 0 Z " fill="#F6C794" transform="translate(154,197)"/>
<path d="M0 0 C1.32 0.33 2.64 0.66 4 1 C4 3.31 4 5.62 4 8 C1.84622436 5.37801226 0.59927826 3.35595828 0 0 Z " fill="#F6C286" transform="translate(220,346)"/>
<path d="M0 0 C-2.39223697 2.39223697 -3.67759676 2.6758631 -7 3 C-7.99 2.34 -8.98 1.68 -10 1 C-6.1496895 -1.56687367 -4.41430237 -0.83288724 0 0 Z " fill="#232182" transform="translate(257,167)"/>
<path d="M0 0 C0.66 0.33 1.32 0.66 2 1 C2.59355614 3.64860427 2.74209269 6.29197322 3 9 C0.86928411 6.40608501 -0.53582673 4.36525621 -1 1 C-0.67 0.67 -0.34 0.34 0 0 Z " fill="#F5BC7E" transform="translate(191,284)"/>
<path d="M0 0 C1 3 1 3 0.22265625 4.82421875 C-0.8515625 6.54947917 -1.92578125 8.27473958 -3 10 C-4.43088528 7.13822943 -3.59991697 5.06624227 -3 2 C-2.01 2 -1.02 2 0 2 C0 1.34 0 0.68 0 0 Z " fill="#EEBA93" transform="translate(346,259)"/>
<path d="M0 0 C2.31 0 4.62 0 7 0 C7 0.66 7 1.32 7 2 C5.35 2.66 3.7 3.32 2 4 C1.34 2.68 0.68 1.36 0 0 Z " fill="#171579" transform="translate(269,209)"/>
<path d="M0 0 C-1.98 0.99 -1.98 0.99 -4 2 C-4 2.66 -4 3.32 -4 4 C-5.65 3.67 -7.3 3.34 -9 3 C-8 1 -8 1 -5.0625 -0.1875 C-2 -1 -2 -1 0 0 Z " fill="#6667AF" transform="translate(274,183)"/>
<path d="M0 0 C0.99 0.33 1.98 0.66 3 1 C3.33 1.99 3.66 2.98 4 4 C2.02 4.99 2.02 4.99 0 6 C-0.38218767 4.34385343 -0.71395102 2.67542976 -1 1 C-0.67 0.67 -0.34 0.34 0 0 Z " fill="#F8F7FE" transform="translate(268,204)"/>
<path d="M0 0 C0.33 0.99 0.66 1.98 1 3 C0.01 4.485 0.01 4.485 -1 6 C-1.99 6 -2.98 6 -4 6 C-2.25 1.125 -2.25 1.125 0 0 Z " fill="#9799C1" transform="translate(258,197)"/>
<path d="M0 0 C0.99 0.33 1.98 0.66 3 1 C1.71034824 2.37562854 0.37310707 3.70766393 -1 5 C-1.66 5 -2.32 5 -3 5 C-2.625 3.0625 -2.625 3.0625 -2 1 C-1.34 0.67 -0.68 0.34 0 0 Z " fill="#DB822A" transform="translate(342,151)"/>
</svg>
