<?xml version="1.0" encoding="UTF-8"?>
<svg version="1.1" xmlns="http://www.w3.org/2000/svg" width="300" height="300">
<path d="M0 0 C1.21816406 -0.0299707 1.21816406 -0.0299707 2.4609375 -0.06054688 C9.44149906 -0.05495348 14.59707672 1.78411079 19.8671875 6.40234375 C26.625 14.5666866 26.625 14.5666866 26.625 20.4375 C27.3778125 20.57285156 28.130625 20.70820312 28.90625 20.84765625 C57.57908577 26.65877709 83.18271097 45.69968651 99.34375 69.83984375 C107.18729382 82.01395435 113.53144146 94.95888986 115.625 109.4375 C116.35847656 109.55222656 117.09195313 109.66695313 117.84765625 109.78515625 C124.29938851 111.30054203 129.38685172 115.4717786 133.1875 120.8125 C137.12500187 128.05136138 137.00980154 137.13314321 134.95703125 144.99609375 C134.03480478 147.06204213 133.02589699 148.6635831 131.625 150.4375 C131.12742187 151.07171875 130.62984375 151.7059375 130.1171875 152.359375 C126.9064709 155.97329787 124.6309046 157.61131908 119.875 158.5625 C117.52631683 159.11149016 117.52631683 159.11149016 115.625 160.4375 C114.44842911 163.42935169 114.00454749 166.34275862 113.46875 169.51171875 C109.91478774 188.41628701 96.69243197 205.04439994 83.625 218.4375 C83.04492188 219.07945312 82.46484375 219.72140625 81.8671875 220.3828125 C67.88214748 235.49227785 48.00179488 243.84070148 28.625 249.4375 C27.965 249.4375 27.305 249.4375 26.625 249.4375 C26.58375 250.2625 26.5425 251.0875 26.5 251.9375 C24.87360951 258.44306197 20.77073568 262.98419244 15.4375 266.9375 C10.39998932 269.73611704 5.6446112 270.03784977 0 270.125 C-1.19919067 270.15400391 -1.19919067 270.15400391 -2.42260742 270.18359375 C-9.68220357 270.03979488 -14.28358545 267.18422722 -19.6171875 262.4453125 C-23.28724976 258.21332684 -25.33731205 254.97183574 -26.375 249.4375 C-27.09042969 249.27894531 -27.80585937 249.12039063 -28.54296875 248.95703125 C-58.70501172 241.8945089 -83.42990974 223.29281516 -100.01953125 197.296875 C-106.55325731 186.75639485 -114.375 173.14904474 -114.375 160.4375 C-115.2 160.39625 -116.025 160.355 -116.875 160.3125 C-124.00117101 158.53095725 -129.16174875 153.26170025 -133.375 147.4375 C-136.65840022 140.84757701 -136.55993308 131.99984711 -134.72265625 124.92578125 C-132.464277 119.99224032 -128.76002524 115.60739776 -124.375 112.4375 C-122.86751727 111.90271535 -121.3596665 111.36896764 -119.8515625 110.8359375 C-117.12652275 109.66571939 -115.71316425 108.98947263 -114.15209961 106.44140625 C-113.25752547 103.91997731 -112.57400498 101.41099836 -111.9375 98.8125 C-107.65691654 83.98283073 -100.68431696 70.98963975 -90.375 59.4375 C-89.70210937 58.63441406 -89.02921875 57.83132812 -88.3359375 57.00390625 C-74.29848968 40.64389889 -54.72442236 26.6985068 -33.46484375 21.76171875 C-30.92442375 21.16590802 -28.69840984 20.62731068 -26.375 19.4375 C-25.24048405 17.53186774 -24.75651062 15.77502665 -24.19921875 13.6328125 C-22.23158223 8.39199864 -17.29691648 4.66079283 -12.69921875 1.734375 C-8.35869315 0.04100896 -4.61668998 -0.03992421 0 0 Z " fill="#00CEDB" transform="translate(150.375,15.5625)"/>
<path d="M0 0 C1.21816406 -0.0299707 1.21816406 -0.0299707 2.4609375 -0.06054688 C9.44149906 -0.05495348 14.59707672 1.78411079 19.8671875 6.40234375 C26.625 14.5666866 26.625 14.5666866 26.625 20.4375 C27.3778125 20.57285156 28.130625 20.70820312 28.90625 20.84765625 C57.57908577 26.65877709 83.18271097 45.69968651 99.34375 69.83984375 C107.18729382 82.01395435 113.53144146 94.95888986 115.625 109.4375 C116.35847656 109.55222656 117.09195313 109.66695313 117.84765625 109.78515625 C124.29938851 111.30054203 129.38685172 115.4717786 133.1875 120.8125 C137.12500187 128.05136138 137.00980154 137.13314321 134.95703125 144.99609375 C134.03480478 147.06204213 133.02589699 148.6635831 131.625 150.4375 C131.12742187 151.07171875 130.62984375 151.7059375 130.1171875 152.359375 C126.9064709 155.97329787 124.6309046 157.61131908 119.875 158.5625 C117.52631683 159.11149016 117.52631683 159.11149016 115.625 160.4375 C114.44842911 163.42935169 114.00454749 166.34275862 113.46875 169.51171875 C109.91478774 188.41628701 96.69243197 205.04439994 83.625 218.4375 C83.04492188 219.07945312 82.46484375 219.72140625 81.8671875 220.3828125 C67.88214748 235.49227785 48.00179488 243.84070148 28.625 249.4375 C27.965 249.4375 27.305 249.4375 26.625 249.4375 C26.58375 250.2625 26.5425 251.0875 26.5 251.9375 C24.87360951 258.44306197 20.77073568 262.98419244 15.4375 266.9375 C10.39998932 269.73611704 5.6446112 270.03784977 0 270.125 C-1.19919067 270.15400391 -1.19919067 270.15400391 -2.42260742 270.18359375 C-9.68220357 270.03979488 -14.28358545 267.18422722 -19.6171875 262.4453125 C-23.28724976 258.21332684 -25.33731205 254.97183574 -26.375 249.4375 C-27.20644531 249.24414062 -28.03789063 249.05078125 -28.89453125 248.8515625 C-29.98121094 248.59117187 -31.06789063 248.33078125 -32.1875 248.0625 C-33.26644531 247.80726563 -34.34539062 247.55203125 -35.45703125 247.2890625 C-38.375 246.4375 -38.375 246.4375 -41.375 244.4375 C-35.72479382 245.03858576 -30.71335539 246.51278683 -25.375 248.4375 C-25.43300781 247.67566406 -25.49101563 246.91382813 -25.55078125 246.12890625 C-25.88072116 238.57799578 -25.11716503 233.43948832 -20.375 227.4375 C-16.96548755 223.82605743 -13.30313762 220.60469049 -8.375 219.4375 C-7.68277344 219.57929688 -6.99054688 219.72109375 -6.27734375 219.8671875 C-2.38386558 220.63225858 1.48029978 220.79766202 5.4375 221 C6.61989258 221.06477539 6.61989258 221.06477539 7.82617188 221.13085938 C9.75894215 221.23628321 11.69195026 221.33733094 13.625 221.4375 C13.625 222.0975 13.625 222.7575 13.625 223.4375 C14.51832031 223.83388672 14.51832031 223.83388672 15.4296875 224.23828125 C20.14253738 226.81273839 23.03684747 230.96711867 25 235.875 C25.69924769 239.86071185 25.76669347 243.39923621 25.625 247.4375 C43.0480043 243.63780225 59.04925244 236.08445283 72.625 224.4375 C73.44613281 223.73753906 74.26726562 223.03757813 75.11328125 222.31640625 C92.80755368 206.82384905 107.53504801 184.98998216 111.625 161.4375 C110.86316406 161.36273438 110.10132813 161.28796875 109.31640625 161.2109375 C101.9089121 160.26766109 96.13659926 158.65289047 90.625 153.4375 C90.34118469 152.88059479 90.05736938 152.32368958 89.76495361 151.74990845 C88.58856309 149.53891709 87.5300373 148.07871545 85.625 146.4375 C81.54028713 145.3789338 77.52476286 145.48332932 73.32421875 145.53515625 C72.13270706 145.52286484 70.94119537 145.51057343 69.71357727 145.49790955 C65.91259385 145.4661481 62.11354459 145.48246817 58.3125 145.5 C55.7337059 145.48689325 53.15492568 145.47065456 50.57617188 145.45117188 C44.25882567 145.41028903 37.94239294 145.40886433 31.625 145.4375 C31.48473389 146.05246338 31.34446777 146.66742676 31.19995117 147.30102539 C29.39911074 153.9928108 24.16198838 159.56160813 18.625 163.4375 C9.69731765 168.54150444 0.81686866 169.74077056 -9.375 168.4375 C-19.23712173 165.50127739 -25.48715583 159.42611082 -30.97265625 150.9765625 C-35.20897086 143.11754988 -35.56810089 135.09821078 -34.375 126.4375 C-31.5083908 117.33731879 -25.97973756 109.81384793 -17.78125 104.875 C-9.36766592 100.51973295 -1.07034962 98.7588665 8.3515625 101.12109375 C16.6808873 104.22847344 24.90483994 109.72590092 29.625 117.4375 C30.615 120.9025 30.615 120.9025 31.625 124.4375 C49.445 124.4375 67.265 124.4375 85.625 124.4375 C86.285 122.7875 86.945 121.1375 87.625 119.4375 C91.93847471 114.47599154 97.12766448 110.7442267 103.625 109.4375 C106.64622151 109.23011506 109.60380117 109.24867507 112.625 109.4375 C107.16927409 86.90490843 95.711366 67.91621639 79.625 51.4375 C78.86703125 50.65375 78.1090625 49.87 77.328125 49.0625 C65.66727946 37.80375258 49.80932404 28.74907577 34.125 24.6875 C32.89136719 24.35685547 32.89136719 24.35685547 31.6328125 24.01953125 C29.6322493 23.48449691 27.62890337 22.95988507 25.625 22.4375 C25.64240234 23.03425537 25.65980469 23.63101074 25.67773438 24.24584961 C25.77803895 30.13098152 24.98278115 34.03425153 22.625 39.4375 C21.965 39.4375 21.305 39.4375 20.625 39.4375 C20.398125 40.015 20.17125 40.5925 19.9375 41.1875 C17.88741721 44.70192764 15.19166723 46.92939171 11.3125 48.1875 C10.755625 48.27 10.19875 48.3525 9.625 48.4375 C9.625 50.7475 9.625 53.0575 9.625 55.4375 C3.2471448 56.61043889 -2.87821562 57.73280838 -9.375 57.4375 C-9.41625 56.179375 -9.4575 54.92125 -9.5 53.625 C-9.70947496 51.41162728 -9.70947496 51.41162728 -10.375 49.4375 C-13.10749119 47.77876843 -13.10749119 47.77876843 -16.375 46.4375 C-20.69565983 42.50112963 -23.69047395 38.05258683 -25.375 32.4375 C-25.45069094 30.52739708 -25.47083607 28.61455662 -25.4453125 26.703125 C-25.43008545 25.22247559 -25.43008545 25.22247559 -25.41455078 23.71191406 C-25.40149902 22.96135742 -25.38844727 22.21080078 -25.375 21.4375 C-29.08569465 22.70150872 -32.79309825 23.97491512 -36.5 25.25 C-38.07007813 25.78463867 -38.07007813 25.78463867 -39.671875 26.33007812 C-45.9694099 28.47034966 -45.9694099 28.47034966 -51.9921875 31.26171875 C-53.17167969 31.84373047 -53.17167969 31.84373047 -54.375 32.4375 C-55.035 32.1075 -55.695 31.7775 -56.375 31.4375 C-48.8921127 27.38037204 -41.91300636 24.1770073 -33.6875 22 C-28.76173712 20.78182884 -28.76173712 20.78182884 -24.98046875 17.6328125 C-24.3384373 15.63368648 -24.3384373 15.63368648 -23.98828125 13.5625 C-22.47719245 8.32662544 -17.122001 4.54945976 -12.69921875 1.734375 C-8.35869315 0.04100896 -4.61668998 -0.03992421 0 0 Z " fill="#76EEF4" transform="translate(150.375,15.5625)"/>
<path d="M0 0 C4.62 0 9.24 0 14 0 C14.5878125 1.8253125 14.5878125 1.8253125 15.1875 3.6875 C22.78597113 26.23552132 32.40356255 43.14960366 54.1875 54.375 C61.02529153 57.60172254 67.52895239 59.83996554 75 61 C76.38694789 73.19144321 76.38694789 73.19144321 73.13671875 77.4296875 C71.54094029 78.73033836 69.91630628 79.99633777 68.265625 81.2265625 C63.82733555 84.70067183 62.32966105 88.69237264 61.546875 94.171875 C61.28412643 97.11742481 61.09850561 100.04483161 61 103 C60.23816406 102.80664062 59.47632812 102.61328125 58.69140625 102.4140625 C57.65886719 102.15367187 56.62632813 101.89328125 55.5625 101.625 C53.90927734 101.20541016 53.90927734 101.20541016 52.22265625 100.77734375 C49.64891142 100.1565253 47.10338346 99.65256113 44.5 99.1875 C22.39017327 94.23458183 1.16308004 74.37708924 -11 56 C-12.16544063 53.83975958 -13.12413154 51.7282329 -14 49.4375 C-15.07227968 46.82381829 -16.37820936 44.37975759 -17.71386719 41.89282227 C-21.02853407 35.66161424 -23.11565812 30.17080348 -23 23 C-23.66 23 -24.32 23 -25 23 C-25.66 20.36 -26.32 17.72 -27 15 C-25.83984375 14.85304687 -25.83984375 14.85304687 -24.65625 14.703125 C-14.9066894 13.30343561 -8.39323256 11.40354363 -2.12890625 3.5859375 C-0.92897897 1.98658252 -0.92897897 1.98658252 0 0 Z " fill="#3B97A3" transform="translate(64,161)"/>
<path d="M0 0 C0.01417969 0.67804687 0.02835937 1.35609375 0.04296875 2.0546875 C0.44396237 9.879482 2.09086621 16.83217353 7.59375 22.69921875 C9.5988879 24.41439799 11.63910882 25.81955441 14 27 C14 31.95 14 36.9 14 42 C11.2775 42.495 11.2775 42.495 8.5 43 C-9.33272413 47.15708384 -24.70490483 57.84018952 -35 73 C-40.70279545 82.47931333 -44.44901872 92.25902617 -47 103 C-51.71316203 103.34025501 -56.29684769 103.53047183 -61 103 C-63.5 100.3125 -63.5 100.3125 -65 97 C-72.29144292 90.18408597 -78.27255907 88.5019498 -88 88 C-87.54901762 86.06077578 -87.08894441 84.12366406 -86.625 82.1875 C-86.24214844 80.56908203 -86.24214844 80.56908203 -85.8515625 78.91796875 C-85 76 -85 76 -83 73 C-82.7525 71.845 -82.505 70.69 -82.25 69.5 C-81.15069529 64.72462035 -78.85624331 60.82464275 -76.4375 56.59765625 C-74.86770789 53.89129654 -74.86770789 53.89129654 -73.5625 50.375 C-71.37801103 45.65650382 -68.3330826 41.96454552 -65 38 C-64.34 37.20464844 -63.68 36.40929687 -63 35.58984375 C-48.71551501 19.02089149 -32.57934477 10.05140047 -12 3.25 C-11.06027344 2.93417969 -10.12054688 2.61835937 -9.15234375 2.29296875 C-8.25644531 1.99519531 -7.36054687 1.69742188 -6.4375 1.390625 C-5.63183594 1.12282227 -4.82617188 0.85501953 -3.99609375 0.57910156 C-2 0 -2 0 0 0 Z " fill="#479AA7" transform="translate(125,37)"/>
<path d="M0 0 C5.12638286 -0.53441057 9.88776787 -0.78486551 15 0 C17.42357435 2.01105106 18.69635276 3.99935332 20.34375 6.66796875 C23.76266144 11.48186056 29.19673465 13.4913584 34.86328125 14.51953125 C37.24983045 14.77270125 39.6015041 14.94386499 42 15 C37.26298446 43.13623883 19.01439236 68.31285381 -3.80859375 84.83984375 C-15.93328964 93.04664525 -30.03497661 101.47491146 -45 102 C-45.10957031 101.28714844 -45.21914062 100.57429688 -45.33203125 99.83984375 C-46.78696924 91.05107199 -48.25748376 84.79092842 -55.57421875 79.26171875 C-56.27998047 78.63716797 -56.27998047 78.63716797 -57 78 C-57 77.34 -57 76.68 -57 76 C-57.66 76 -58.32 76 -59 76 C-59.9560073 71.21996348 -60.32351874 66.8527811 -60 62 C-57 60 -57 60 -53.3125 59.375 C-35.3468614 55.62361054 -19.89459043 42.94349918 -10.02734375 28.015625 C-4.63593047 19.17874378 -0.78350955 10.38150149 0 0 Z " fill="#30929F" transform="translate(221,161)"/>
<path d="M0 0 C26.4385399 2.44801295 48.6725967 20.90836523 65.69140625 40.1328125 C76.38199629 53.41012737 84.33947859 70.14196889 87 87 C85.74896484 87.11214844 85.74896484 87.11214844 84.47265625 87.2265625 C75.0690227 88.32526883 68.90858693 90.70055438 62.5 97.75 C60.99483189 99.90697395 60.99483189 99.90697395 60 102 C55.38 102 50.76 102 46 102 C45.71125 100.618125 45.4225 99.23625 45.125 97.8125 C44.53427001 95.12045905 43.90179814 92.75449536 42.875 90.1875 C42 88 42 88 42 84 C41.34 84 40.68 84 40 84 C39.8040625 83.47792969 39.608125 82.95585938 39.40625 82.41796875 C32.96874743 66.57394304 20.39419803 54.24541297 5 47 C-1.4763588 44.41772769 -8.12779549 42.22578221 -15 41 C-15.08097324 38.72975032 -15.13917704 36.45867925 -15.1875 34.1875 C-15.22230469 32.92292969 -15.25710937 31.65835938 -15.29296875 30.35546875 C-15 27 -15 27 -13.68359375 25.2109375 C-13.12800781 24.81132813 -12.57242188 24.41171875 -12 24 C-11.48179687 23.56558594 -10.96359375 23.13117187 -10.4296875 22.68359375 C-9.91664063 22.27238281 -9.40359375 21.86117187 -8.875 21.4375 C-5.99667845 19.32087701 -5.99667845 19.32087701 -5 17 C-4.34 17 -3.68 17 -3 17 C-2.7834375 15.576875 -2.7834375 15.576875 -2.5625 14.125 C-2 11 -2 11 -1 9 C-0.77532169 7.46331135 -0.59203195 5.92031946 -0.4375 4.375 C-0.35371094 3.55773438 -0.26992187 2.74046875 -0.18359375 1.8984375 C-0.12300781 1.27195313 -0.06242188 0.64546875 0 0 Z " fill="#4399A5" transform="translate(176,38)"/>
<path d="M0 0 C0.495 0.99 0.495 0.99 1 2 C-0.02619752 4.10238173 -1.14752941 6.15872357 -2.3125 8.1875 C-4.93707957 12.7605504 -6.6786183 16.8983176 -8 22 C-8.67401574 24.1085247 -9.36088717 26.21299695 -10.0625 28.3125 C-10.40410156 29.33988281 -10.74570312 30.36726563 -11.09765625 31.42578125 C-12 34 -12 34 -13 36 C-12.31035156 35.94199219 -11.62070312 35.88398437 -10.91015625 35.82421875 C-3.64512621 35.47541758 1.23267903 36.46621485 7 41 C9.57813581 43.4923568 11.96759684 46.03961855 14 49 C14 49.66 14 50.32 14 51 C18.62 51 23.24 51 28 51 C28 57.93 28 64.86 28 72 C23.38 72 18.76 72 14 72 C13.34 73.65 12.68 75.3 12 77 C5.33829763 84.66252151 -2.19166488 87.12425579 -12 88 C-11.67 90.31 -11.34 92.62 -11 95 C-10.34 95 -9.68 95 -9 95 C-8.86464844 95.70382813 -8.72929688 96.40765625 -8.58984375 97.1328125 C-7.04972179 104.19708447 -4.69694644 110.15157339 -1.24975586 116.45361328 C-0.44770189 117.94214046 0.28288264 119.46874351 1 121 C0.67 121.66 0.34 122.32 0 123 C-6.7040825 112.89632957 -14 99.31072043 -14 87 C-14.825 86.95875 -15.65 86.9175 -16.5 86.875 C-23.62617101 85.09345725 -28.78674875 79.82420025 -33 74 C-36.28340022 67.41007701 -36.18493308 58.56234711 -34.34765625 51.48828125 C-32.089277 46.55474032 -28.38502524 42.16989776 -24 39 C-22.49485329 38.47117873 -20.98963783 37.94255315 -19.484375 37.4140625 C-16.71260127 36.22555309 -15.32593499 35.53508875 -13.74487305 32.93945312 C-12.81677884 30.35665951 -12.10005784 27.78816736 -11.4375 25.125 C-8.75947096 15.79423395 -5.27368095 8.1502342 0 0 Z " fill="#69ECF3" transform="translate(50,89)"/>
<path d="M0 0 C0.33 0.33 0.66 0.66 1 1 C3.85877909 1.23701239 6.69883297 1.42219182 9.5625 1.5625 C10.36880859 1.60568359 11.17511719 1.64886719 12.00585938 1.69335938 C14.00368805 1.79975262 16.0018207 1.90040888 18 2 C18 2.66 18 3.32 18 4 C18.59554687 4.26425781 19.19109375 4.52851563 19.8046875 4.80078125 C24.48517061 7.35755761 27.40772162 11.47699844 29.3125 16.375 C30.10855891 20.57240151 30.63338711 24.74536096 31 29 C30.01 29 29.02 29 28 29 C28.05414063 29.7425 28.10828125 30.485 28.1640625 31.25 C27.85614874 36.41122113 23.95201946 40.09479156 20.37109375 43.58984375 C15.46018403 47.83611907 11.50848241 48.18178971 5.25 48.1875 C4.5590625 48.19974609 3.868125 48.21199219 3.15625 48.22460938 C-2.47140265 48.24047682 -7.58855276 47.68720386 -12.328125 44.37109375 C-18.85732524 37.80208131 -21.03238518 32.21201198 -21.5 23 C-21.29636183 16.04088699 -19.06227569 11.17847812 -14.25 6.18359375 C-9.84765731 2.24615362 -6.1131117 -0.49565771 0 0 Z " fill="#5CE8EE" transform="translate(146,235)"/>
<path d="M0 0 C5.12638286 -0.53441057 9.88776787 -0.78486551 15 0 C17.42357435 2.01105106 18.69635276 3.99935332 20.34375 6.66796875 C23.76266144 11.48186056 29.19673465 13.4913584 34.86328125 14.51953125 C37.23426903 14.77105046 39.61789535 14.8979098 42 15 C41.01 18.63 40.02 22.26 39 26 C34.60335097 26.06764075 30.54134573 26.07987068 26.1875 25.4375 C23.19384265 25.02660585 21.80004269 25.15998719 19 26 C17.7315625 25.938125 17.7315625 25.938125 16.4375 25.875 C13.92822803 25.74901963 13.92822803 25.74901963 12.3125 27.5 C11.879375 27.995 11.44625 28.49 11 29 C10.34 29 9.68 29 9 29 C7.22928196 30.90526061 7.22928196 30.90526061 5.375 33.375 C4.65570313 34.29023438 3.93640625 35.20546875 3.1953125 36.1484375 C1.820837 37.93378824 0.45925324 39.72922281 -0.8828125 41.5390625 C-5.91616384 48.17297744 -13.20315347 57.09011182 -21.359375 59.77734375 C-21.90078125 59.85082031 -22.4421875 59.92429688 -23 60 C-22.67 59.01 -22.34 58.02 -22 57 C-21.34 57 -20.68 57 -20 57 C-20.33 56.34 -20.66 55.68 -21 55 C-24.29544601 57.06923354 -26.92029402 58.92029402 -29.6875 61.6875 C-32 64 -32 64 -35 65 C-36.32 65 -37.64 65 -39 65 C-41.00698975 66.3227887 -43.00591923 67.65783025 -45 69 C-49.20017548 70.89791819 -53.43677461 72.28699603 -58 73 C-59.32700717 69.01897848 -59.03374068 65.15010389 -59 61 C-57.99582031 60.72027344 -56.99164063 60.44054687 -55.95703125 60.15234375 C-35.35880254 54.20562778 -19.00128065 43.89504045 -8.21484375 24.84765625 C-6.71781263 21.9308364 -5.32466295 18.99859395 -4 16 C-3.67128906 15.2575 -3.34257812 14.515 -3.00390625 13.75 C-1.13030682 9.16012963 -0.43674813 4.89157907 0 0 Z " fill="#00808A" transform="translate(221,161)"/>
<path d="M0 0 C1.65 0 3.3 0 5 0 C5.5878125 1.8253125 5.5878125 1.8253125 6.1875 3.6875 C13.78597113 26.23552132 23.40356255 43.14960366 45.1875 54.375 C51.93998435 57.56146647 58.56279031 60.04651158 66 61 C66 64.3 66 67.6 66 71 C58.91923749 71.40850553 52.80074041 69.90420731 46 68 C46 67.34 46 66.68 46 66 C45.43152344 65.89042969 44.86304688 65.78085938 44.27734375 65.66796875 C36.95735261 64.16486539 31.2587152 62.57742521 26 57 C24.70064263 56.00345897 23.38659594 55.02592802 22.0625 54.0625 C17.00267838 50.31936058 13.03103167 46.58347939 10 41 C9.01 41.495 9.01 41.495 8 42 C7.68546875 41.11699219 7.3709375 40.23398438 7.046875 39.32421875 C4.65259553 32.61013986 2.24580242 25.9014353 -0.203125 19.20703125 C-2.70895158 12.26687431 -2.24859994 6.8863373 0 0 Z " fill="#00838E" transform="translate(73,161)"/>
<path d="M0 0 C0.495 1.98 0.495 1.98 1 4 C0.2471875 4.12375 -0.505625 4.2475 -1.28125 4.375 C-20.45301554 8.09767292 -36.97168578 18.74986972 -48 35 C-52.90947114 43.18460234 -56.61851025 51.44737161 -58.52734375 60.83984375 C-59 63 -59 63 -60 64 C-62.33297433 64.04092937 -64.66705225 64.04241723 -67 64 C-66.01 63.505 -66.01 63.505 -65 63 C-64.71939739 61.04455951 -64.71939739 61.04455951 -64.6875 58.6875 C-64.1411631 52.15923707 -61.77157059 46.87800961 -59 41 C-58.44699219 39.80246094 -57.89398438 38.60492188 -57.32421875 37.37109375 C-52.33915349 26.81620894 -46.83066712 19.46857897 -37 13 C-36.34 13 -35.68 13 -35 13 C-35 12.34 -35 11.68 -35 11 C-25.08266206 3.19492624 -12.47605132 -0.71670933 0 0 Z " fill="#218F9A" transform="translate(138,75)"/>
<path d="M0 0 C1.98 0.99 1.98 0.99 4 2 C4 2.66 4 3.32 4 4 C4.90685547 4.07154297 4.90685547 4.07154297 5.83203125 4.14453125 C8 5 8 5 9.44921875 7.51171875 C9.85785156 8.55972656 10.26648438 9.60773438 10.6875 10.6875 C11.10386719 11.72261719 11.52023438 12.75773437 11.94921875 13.82421875 C12.96407528 16.89142456 13.56395969 19.80396831 14 23 C21.83492537 25.2385501 26.2327066 22.73467416 33.03393555 19.05249023 C38.30679718 16.22896591 43.06152428 14.78615259 49 14 C49.99 13.67 50.98 13.34 52 13 C52.495 14.98 52.495 14.98 53 17 C52.16597656 17.07476562 51.33195312 17.14953125 50.47265625 17.2265625 C41.0690227 18.32526883 34.90858693 20.70055438 28.5 27.75 C26.99483189 29.90697395 26.99483189 29.90697395 26 32 C21.38 32 16.76 32 12 32 C11.71125 30.618125 11.4225 29.23625 11.125 27.8125 C10.53427001 25.12045905 9.90179814 22.75449536 8.875 20.1875 C8 18 8 18 8 14 C7.34 14 6.68 14 6 14 C1.77676538 4.58997722 1.77676538 4.58997722 0 0 Z " fill="#0E8D98" transform="translate(210,108)"/>
<path d="M0 0 C25.63495934 4.11990418 49.75699671 22.79929325 65.0637207 43.1418457 C74.71772956 56.54043981 82.61182237 71.48386632 85 88 C84.01 88 83.02 88 82 88 C81.84144531 87.34515625 81.68289063 86.6903125 81.51953125 86.015625 C75.96167434 64.27549964 64.55551037 45.93491306 49 30 C48.24203125 29.21625 47.4840625 28.4325 46.703125 27.625 C34.89214632 16.22129645 19.07620304 7.66513284 3.44140625 2.9296875 C1 2 1 2 0 0 Z " fill="#B6D9DE" transform="translate(181,37)"/>
<path d="M0 0 C1.8871875 0.0309375 1.8871875 0.0309375 3.8125 0.0625 C3.8125 0.7225 3.8125 1.3825 3.8125 2.0625 C4.86050781 2.05089844 5.90851563 2.03929687 6.98828125 2.02734375 C8.36718572 2.01796345 9.74609211 2.0088635 11.125 2 C11.81529297 1.99162109 12.50558594 1.98324219 13.21679688 1.97460938 C16.3608025 1.95942094 18.80670019 2.06056673 21.8125 3.0625 C21.8125 3.7225 21.8125 4.3825 21.8125 5.0625 C17.45960821 5.15133453 13.31828207 5.13712358 9 4.5 C6.00634265 4.08910585 4.61254269 4.22248719 1.8125 5.0625 C0.966875 5.02125 0.12125 4.98 -0.75 4.9375 C-3.25927197 4.81151963 -3.25927197 4.81151963 -4.875 6.5625 C-5.308125 7.0575 -5.74125 7.5525 -6.1875 8.0625 C-6.8475 8.0625 -7.5075 8.0625 -8.1875 8.0625 C-9.95821804 9.96776061 -9.95821804 9.96776061 -11.8125 12.4375 C-12.53179687 13.35273438 -13.25109375 14.26796875 -13.9921875 15.2109375 C-15.366663 16.99628824 -16.72824676 18.79172281 -18.0703125 20.6015625 C-23.10366384 27.23547744 -30.39065347 36.15261182 -38.546875 38.83984375 C-39.08828125 38.91332031 -39.6296875 38.98679688 -40.1875 39.0625 C-39.8575 38.0725 -39.5275 37.0825 -39.1875 36.0625 C-38.5275 36.0625 -37.8675 36.0625 -37.1875 36.0625 C-36.960625 35.505625 -36.73375 34.94875 -36.5 34.375 C-34.51444861 30.87664754 -31.63035159 28.39610173 -28.69140625 25.6796875 C-24.0088973 21.21053027 -20.09508741 16.26482679 -16.18310547 11.12524414 C-7.56301931 -0.12398392 -7.56301931 -0.12398392 0 0 Z " fill="#148C97" transform="translate(238.1875,181.9375)"/>
<path d="M0 0 C0.99 0.33 1.98 0.66 3 1 C-9.31089385 9.79096874 -27.15210116 22 -43 22 C-43.04125 22.825 -43.0825 23.65 -43.125 24.5 C-44.75139049 31.00556197 -48.85426432 35.54669244 -54.1875 39.5 C-59.22501068 42.29861704 -63.9803888 42.60034977 -69.625 42.6875 C-70.42446045 42.70683594 -71.2239209 42.72617187 -72.04760742 42.74609375 C-79.30720357 42.60229488 -83.90858545 39.74672722 -89.2421875 35.0078125 C-92.91224976 30.77582684 -94.96231205 27.53433574 -96 22 C-96.83144531 21.80664062 -97.66289063 21.61328125 -98.51953125 21.4140625 C-99.60621094 21.15367187 -100.69289063 20.89328125 -101.8125 20.625 C-103.43091797 20.24214844 -103.43091797 20.24214844 -105.08203125 19.8515625 C-108 19 -108 19 -111 17 C-108.6361564 17.25693952 -106.3400859 17.59069169 -104 18 C-103.14664063 18.13792969 -102.29328125 18.27585937 -101.4140625 18.41796875 C-98.67290052 19.01684431 -96.45304454 19.62878817 -94 21 C-92.81090727 23.19389803 -92.31968164 25.21921437 -91.75390625 27.64453125 C-90.43689802 31.75932899 -87.54696049 34.62879123 -84 37 C-78.96875382 38.82511953 -74.24781946 39.33776318 -68.9375 39.3125 C-68.25623047 39.32861328 -67.57496094 39.34472656 -66.87304688 39.36132812 C-61.292129 39.36668924 -57.26472701 38.12923053 -53.171875 34.28125 C-52.70265625 33.6934375 -52.2334375 33.105625 -51.75 32.5 C-51.27046875 31.9121875 -50.7909375 31.324375 -50.296875 30.71875 C-47.82211964 27.43895374 -46.65366339 25.03092421 -46 21 C-45.12859375 20.76925781 -44.2571875 20.53851563 -43.359375 20.30078125 C-28.71129809 16.28999829 -15.19071492 10.57592315 -2.7734375 1.69140625 C-1.85820312 1.13324219 -0.94296875 0.57507813 0 0 Z " fill="#D0F9FA" transform="translate(220,243)"/>
<path d="M0 0 C1.65 0 3.3 0 5 0 C5 0.66 5 1.32 5 2 C6.37285156 2.09087891 6.37285156 2.09087891 7.7734375 2.18359375 C8.96195313 2.26738281 10.15046875 2.35117188 11.375 2.4375 C12.55835938 2.51871094 13.74171875 2.59992188 14.9609375 2.68359375 C18 3 18 3 20 4 C16.13452471 26.79019804 3.94343683 45.73915938 -12 62 C-12.70769531 62.73476562 -13.41539062 63.46953125 -14.14453125 64.2265625 C-16.69009057 66.83107161 -18.95357056 68.96904704 -22 71 C-22.99 70.67 -23.98 70.34 -25 70 C-24.17757812 69.27296875 -23.35515625 68.5459375 -22.5078125 67.796875 C-9.97594513 56.57779807 -0.66786736 44.97759932 7 30 C7.59039062 28.84886719 8.18078125 27.69773438 8.7890625 26.51171875 C12.19278203 19.51145814 14.43454003 12.62131829 16 5 C14.77023437 4.83564453 14.77023437 4.83564453 13.515625 4.66796875 C11.89914062 4.43013672 11.89914062 4.43013672 10.25 4.1875 C9.18265625 4.03667969 8.1153125 3.88585937 7.015625 3.73046875 C3.94548906 2.98679593 2.33919522 2.07234528 0 0 Z " fill="#A9D2D7" transform="translate(246,172)"/>
<path d="M0 0 C6.6 0.33 13.2 0.66 20 1 C20.33 4.96 20.66 8.92 21 13 C18.77090129 13.02714735 16.54170633 13.04646254 14.3125 13.0625 C13.07113281 13.07410156 11.82976562 13.08570313 10.55078125 13.09765625 C7.52907794 13.0145511 4.93033973 12.67054621 2 12 C1.34 12 0.68 12 0 12 C0 8.04 0 4.08 0 0 Z " fill="#2AD7DC" transform="translate(140,224)"/>
<path d="M0 0 C1.21816406 -0.0299707 1.21816406 -0.0299707 2.4609375 -0.06054688 C9.44149906 -0.05495348 14.59707672 1.78411079 19.8671875 6.40234375 C26.625 14.5666866 26.625 14.5666866 26.625 20.4375 C27.285 20.7675 27.945 21.0975 28.625 21.4375 C26.3125 21.4375 26.3125 21.4375 23.625 20.4375 C22.89792998 18.52067904 22.1826019 16.59713595 21.5703125 14.640625 C19.45569893 9.71235206 14.98814123 6.34626082 10.625 3.4375 C7.70195629 3.01444273 4.76295856 3.1132076 1.8125 3.125 C0.62043945 3.10083008 0.62043945 3.10083008 -0.59570312 3.07617188 C-6.73005268 3.07109797 -10.76717291 4.29551943 -15.60546875 8.26953125 C-18.64194356 11.34237103 -21.0816839 13.83958642 -23 17.75 C-25.62753373 22.88563411 -31.79530593 24.00264939 -37.0078125 25.6875 C-39.375 26.4375 -39.375 26.4375 -41.7421875 27.1875 C-45.28136329 28.33147601 -48.48413045 29.49305732 -51.8125 31.1875 C-52.658125 31.6 -53.50375 32.0125 -54.375 32.4375 C-55.035 32.1075 -55.695 31.7775 -56.375 31.4375 C-48.8921127 27.38037204 -41.91300636 24.1770073 -33.6875 22 C-28.76173712 20.78182884 -28.76173712 20.78182884 -24.98046875 17.6328125 C-24.3384373 15.63368648 -24.3384373 15.63368648 -23.98828125 13.5625 C-22.47719245 8.32662544 -17.122001 4.54945976 -12.69921875 1.734375 C-8.35869315 0.04100896 -4.61668998 -0.03992421 0 0 Z " fill="#BEF5F7" transform="translate(150.375,15.5625)"/>
<path d="M0 0 C1.65 0 3.3 0 5 0 C4.505 0.99 4.01 1.98 3.5 3 C-0.09083567 11.70087105 2.84298661 19.69482946 6.15673828 28.07177734 C13.94489808 45.88037205 26.07776868 54.96669356 43 63 C42.67 63.66 42.34 64.32 42 65 C35.19591386 63.5343212 30.66655801 62.42329714 26 57 C24.68674921 55.97376897 23.35146255 54.9753598 22 54 C16.95509437 50.28520131 13.0165955 46.55688644 10 41 C9.01 41.495 9.01 41.495 8 42 C7.68546875 41.11699219 7.3709375 40.23398438 7.046875 39.32421875 C4.65259553 32.61013986 2.24580242 25.9014353 -0.203125 19.20703125 C-2.70895158 12.26687431 -2.24859994 6.8863373 0 0 Z " fill="#128D97" transform="translate(73,161)"/>
<path d="M0 0 C1.19228325 2.3845665 1.100624 3.80860671 1.0625 6.46484375 C1.05476563 7.34720703 1.04703125 8.22957031 1.0390625 9.13867188 C1.01307534 11.0006518 0.9870339 12.86263097 0.9609375 14.72460938 C0.95320313 15.60826172 0.94546875 16.49191406 0.9375 17.40234375 C0.92009766 18.61651978 0.92009766 18.61651978 0.90234375 19.85522461 C0.91081601 22.18703068 0.91081601 22.18703068 2 25 C2.66 25 3.32 25 4 25 C4.185625 25.886875 4.37125 26.77375 4.5625 27.6875 C6.44165374 32.01772384 8.90966424 33.7890077 13 36 C14.093125 36.33 15.18625 36.66 16.3125 37 C19 38 19 38 20.375 40.375 C21 43 21 43 21 47 C21.66 47 22.32 47 23 47 C23.13535156 47.70382813 23.27070312 48.40765625 23.41015625 49.1328125 C24.95027821 56.19708447 27.30305356 62.15157339 30.75024414 68.45361328 C31.55229811 69.94214046 32.28288264 71.46874351 33 73 C32.67 73.66 32.34 74.32 32 75 C25.2959175 64.89632957 18 51.31072043 18 39 C17.175 38.95875 16.35 38.9175 15.5 38.875 C8.37382899 37.09345725 3.21325125 31.82420025 -1 26 C-3.09953909 21.81565542 -3.2984423 18.21559745 -3.3125 13.5625 C-3.32925781 12.28503906 -3.34601562 11.00757813 -3.36328125 9.69140625 C-2.97967893 5.79351169 -1.96516708 3.35478391 0 0 Z " fill="#DCF6F7" transform="translate(18,137)"/>
<path d="M0 0 C0.99 0.495 0.99 0.495 2 1 C2 3.64 2 6.28 2 9 C3.17755859 8.7834375 3.17755859 8.7834375 4.37890625 8.5625 C9.99610964 7.57001253 15.29497537 6.7406807 21 7 C21 4.69 21 2.38 21 0 C21.66 0.33 22.32 0.66 23 1 C22.67 5.29 22.34 9.58 22 14 C14.74 14 7.48 14 0 14 C0 9.38 0 4.76 0 0 Z " fill="#3ED8DD" transform="translate(139,64)"/>
<path d="M0 0 C0.99 0 1.98 0 3 0 C4.25512695 1.43017578 4.25512695 1.43017578 5.48828125 3.4453125 C6.17277344 4.55579956 6.17277344 4.55579956 6.87109375 5.6887207 C7.34675781 6.49269287 7.82242188 7.29666504 8.3125 8.125 C8.80234375 8.94379639 9.2921875 9.76259277 9.796875 10.60620117 C16.24099932 21.57681003 20.62131139 32.43885486 23 45 C22.01 45 21.02 45 20 45 C19.84144531 44.34515625 19.68289063 43.6903125 19.51953125 43.015625 C15.61379804 27.73795036 8.40960132 14.25149299 0 1 C0 0.67 0 0.34 0 0 Z " fill="#B2D6DC" transform="translate(243,80)"/>
<path d="M0 0 C0.66 0.33 1.32 0.66 2 1 C1.18015625 1.58007812 0.3603125 2.16015625 -0.484375 2.7578125 C-1.57330072 3.54634492 -2.66182094 4.33543752 -3.75 5.125 C-4.81734375 5.89070313 -5.8846875 6.65640625 -6.984375 7.4453125 C-10.08531892 10.07227795 -11.85277006 12.57799355 -14 16 C-15.2664923 17.43770796 -16.5773163 18.83809003 -17.9375 20.1875 C-18.58589844 20.84105469 -19.23429687 21.49460937 -19.90234375 22.16796875 C-22 24 -22 24 -24.484375 25.3828125 C-27.60383461 27.38817939 -29.20487489 29.65109094 -31.3125 32.6875 C-32.00988281 33.68136719 -32.70726562 34.67523438 -33.42578125 35.69921875 C-33.94527344 36.45847656 -34.46476562 37.21773437 -35 38 C-35.33 37.34 -35.66 36.68 -36 36 C-26.72590162 22.50073933 -14.9083836 7.60788648 0 0 Z " fill="#AAD3D8" transform="translate(87,51)"/>
<path d="M0 0 C0.66 0 1.32 0 2 0 C2.495 1.98 2.495 1.98 3 4 C2.16597656 4.07476562 1.33195312 4.14953125 0.47265625 4.2265625 C-6.53205357 5.0449822 -11.46933632 6.24133307 -17.09765625 10.5625 C-19.86492935 12.65358111 -21.82168224 14.01170514 -25.359375 13.9765625 C-26.14828125 13.86054688 -26.9371875 13.74453125 -27.75 13.625 C-28.54921875 13.51414063 -29.3484375 13.40328125 -30.171875 13.2890625 C-31.07679688 13.14597656 -31.07679688 13.14597656 -32 13 C-31.67 12.34 -31.34 11.68 -31 11 C-29.98873047 10.814375 -29.98873047 10.814375 -28.95703125 10.625 C-24.11264271 9.60108697 -19.89053738 7.12612814 -15.50195312 4.8828125 C-10.55979932 2.45384364 -6.481615 1.48671387 -1 1 C-0.67 0.67 -0.34 0.34 0 0 Z " fill="#24919C" transform="translate(260,121)"/>
<path d="M0 0 C0.99 0.33 1.98 0.66 3 1 C-10.31305118 10.50658971 -24.78258447 18.65315855 -41 22 C-41.99 21.67 -42.98 21.34 -44 21 C-42.865625 20.649375 -41.73125 20.29875 -40.5625 19.9375 C-25.92336003 14.99650299 -12.85312287 8.56874858 0 0 Z " fill="#BEDEE2" transform="translate(220,243)"/>
<path d="M0 0 C0.33 0.66 0.66 1.32 1 2 C-0.02619752 4.10238173 -1.14752941 6.15872357 -2.3125 8.1875 C-4.93674341 12.75996469 -6.68265584 16.89744859 -8 22 C-8.65186698 24.08801141 -9.3178828 26.17167415 -10 28.25 C-10.33 29.26578125 -10.66 30.2815625 -11 31.328125 C-12.18121213 34.48417615 -13.12621419 36.51917819 -16.13671875 38.17578125 C-16.97847656 38.55089844 -17.82023437 38.92601562 -18.6875 39.3125 C-23.54488642 41.62486973 -27.07988545 44.3355451 -31 48 C-29.67301166 45.00294829 -28.29773293 43.07013695 -25.8125 40.9375 C-25.26207031 40.45152344 -24.71164063 39.96554688 -24.14453125 39.46484375 C-22 38 -22 38 -18.4765625 36.9296875 C-14.06007976 34.47829146 -13.663599 32.65611625 -12.30102539 27.97729492 C-12.05731201 27.0566626 -11.81359863 26.13603027 -11.5625 25.1875 C-8.81348672 15.87704926 -5.27349652 8.14994916 0 0 Z " fill="#D6EEF0" transform="translate(50,89)"/>
<path d="M0 0 C7.59 0 15.18 0 23 0 C23 4.95 23 9.9 23 15 C22.34 14.67 21.68 14.34 21 14 C21 10.37 21 6.74 21 3 C14.73 3 8.46 3 2 3 C1.67 6.96 1.34 10.92 1 15 C0.34 14.67 -0.32 14.34 -1 14 C-0.67 9.38 -0.34 4.76 0 0 Z " fill="#17BEC6" transform="translate(139,222)"/>
<path d="M0 0 C7.6822245 0.32009269 12.25094216 4.03391128 17.375 9.5625 C19.71060517 13.06590775 21 15.76533664 21 20 C21.66 20.33 22.32 20.66 23 21 C20.6875 21 20.6875 21 18 20 C17.2712857 18.07884411 16.55340861 16.15182685 15.92578125 14.1953125 C13.02116134 7.30756403 6.52022702 3.8597487 0 1 C0 0.67 0 0.34 0 0 Z " fill="#D0FDFE" transform="translate(156,16)"/>
<path d="M0 0 C4.29 0 8.58 0 13 0 C13 6.93 13 13.86 13 21 C8.38 21 3.76 21 -1 21 C-0.67 20.34 -0.34 19.68 0 19 C3.96 19 7.92 19 12 19 C11.67 17.35 11.34 15.7 11 14 C11.08197771 11.89237945 11.22990919 9.78647374 11.4375 7.6875 C11.59025391 6.08455078 11.59025391 6.08455078 11.74609375 4.44921875 C11.82988281 3.64097656 11.91367188 2.83273438 12 2 C11.07767578 2.12568359 11.07767578 2.12568359 10.13671875 2.25390625 C9.32847656 2.35574219 8.52023438 2.45757812 7.6875 2.5625 C6.88699219 2.66691406 6.08648437 2.77132812 5.26171875 2.87890625 C3 3 3 3 0 2 C0 1.34 0 0.68 0 0 Z " fill="#35DCE2" transform="translate(65,140)"/>
<path d="M0 0 C0.75480791 2.23959452 1.11490025 3.59024543 0.46875 5.89453125 C-2.80763723 12.38124952 -7.03419409 17.86217102 -13.75 21 C-17 22 -17 22 -20 21 C-19.34773438 20.6596875 -18.69546875 20.319375 -18.0234375 19.96875 C-9.57333509 15.28255751 -4.74519926 10.3794308 -2 1 C-1.34 0.67 -0.68 0.34 0 0 Z " fill="#CCFCFE" transform="translate(285,154)"/>
<path d="M0 0 C6.55114379 0.27877208 11.13451769 2.6016745 16 7 C19.48935489 11.54045154 22 15.19281823 22 21 C21.01 21 20.02 21 19 21 C18.70609375 20.03900391 18.70609375 20.03900391 18.40625 19.05859375 C15.78558444 11.47899637 12.08906845 6.68350125 4.92578125 2.90625 C3.31317894 2.1997143 1.65958053 1.58776811 0 1 C0 0.67 0 0.34 0 0 Z " fill="#C5FBFC" transform="translate(264,125)"/>
<path d="M0 0 C1.19228325 2.3845665 1.100624 3.80860671 1.0625 6.46484375 C1.05476563 7.34720703 1.04703125 8.22957031 1.0390625 9.13867188 C1.01307534 11.0006518 0.9870339 12.86263097 0.9609375 14.72460938 C0.95320313 15.60826172 0.94546875 16.49191406 0.9375 17.40234375 C0.92009766 18.61651978 0.92009766 18.61651978 0.90234375 19.85522461 C0.91081601 22.18703068 0.91081601 22.18703068 2 25 C2.66 25 3.32 25 4 25 C3.67 26.32 3.34 27.64 3 29 C0 25.25 0 25.25 0 23 C-0.66 23 -1.32 23 -2 23 C-3.51617889 19.96764223 -3.21034412 17.12074987 -3.25 13.75 C-3.27578125 12.44546875 -3.3015625 11.1409375 -3.328125 9.796875 C-2.9843657 5.81908881 -2.01249023 3.41064134 0 0 Z " fill="#90F8FC" transform="translate(18,137)"/>
<path d="M0 0 C1.65 0 3.3 0 5 0 C5 0.66 5 1.32 5 2 C5.91523438 2.06058594 6.83046875 2.12117187 7.7734375 2.18359375 C8.96195313 2.26738281 10.15046875 2.35117188 11.375 2.4375 C12.55835938 2.51871094 13.74171875 2.59992188 14.9609375 2.68359375 C18 3 18 3 20 4 C19.69078116 5.45903258 19.37751201 6.91720722 19.0625 8.375 C18.80146484 9.59316406 18.80146484 9.59316406 18.53515625 10.8359375 C18 13 18 13 17 15 C16.34 15 15.68 15 15 15 C14.67 16.65 14.34 18.3 14 20 C12.76077777 16.28233332 13.42981058 14.56110463 14.4375 10.8125 C14.72496094 9.72582031 15.01242187 8.63914063 15.30859375 7.51953125 C15.53675781 6.68808594 15.76492188 5.85664063 16 5 C15.18015625 4.89042969 14.3603125 4.78085938 13.515625 4.66796875 C12.43796875 4.50941406 11.3603125 4.35085937 10.25 4.1875 C9.18265625 4.03667969 8.1153125 3.88585937 7.015625 3.73046875 C3.94548906 2.98679593 2.33919522 2.07234528 0 0 Z " fill="#6CC2C9" transform="translate(246,172)"/>
<path d="M0 0 C6.12851558 0.98494 11.47071935 2.89504087 17.125 5.375 C17.79337891 5.66705322 18.46175781 5.95910645 19.15039062 6.26000977 C23.60106421 8.25459119 27.79890856 10.52299284 32 13 C30.4375 13.73046875 30.4375 13.73046875 28 14 C25.54876441 12.85982191 23.31790591 11.67898708 21 10.3125 C15.214424 7.03831569 9.61863535 4.62185062 3.1953125 2.7890625 C1 2 1 2 0 0 Z " fill="#CCE5E8" transform="translate(181,37)"/>
<path d="M0 0 C1.546875 0.433125 1.546875 0.433125 3.125 0.875 C9.32301766 2.44128605 15.6706661 3.16438569 22 4 C22.33 4.99 22.66 5.98 23 7 C15.91923749 7.40850553 9.80074041 5.90420731 3 4 C3 3.34 3 2.68 3 2 C2.01 1.67 1.02 1.34 0 1 C0 0.67 0 0.34 0 0 Z " fill="#118D97" transform="translate(116,225)"/>
<path d="M0 0 C2.33722838 3.50584257 3.41233172 7.07550049 4.625 11.0625 C4.85445313 11.79533203 5.08390625 12.52816406 5.3203125 13.28320312 C7 18.72719029 7 18.72719029 7 21 C6.01 21 5.02 21 4 21 C3.69255859 19.82630859 3.69255859 19.82630859 3.37890625 18.62890625 C3.10949219 17.61699219 2.84007812 16.60507813 2.5625 15.5625 C2.16224609 14.04849609 2.16224609 14.04849609 1.75390625 12.50390625 C1.24021923 10.08247999 1.24021923 10.08247999 0 9 C-0.07179964 7.48071962 -0.08392007 5.95832518 -0.0625 4.4375 C-0.05347656 3.61121094 -0.04445313 2.78492187 -0.03515625 1.93359375 C-0.02355469 1.29550781 -0.01195312 0.65742187 0 0 Z " fill="#A5D0D5" transform="translate(259,104)"/>
<path d="M0 0 C0.66 0 1.32 0 2 0 C2.13535156 0.70382813 2.27070312 1.40765625 2.41015625 2.1328125 C3.95027821 9.19708447 6.30305356 15.15157339 9.75024414 21.45361328 C10.55229811 22.94214046 11.28288264 24.46874351 12 26 C11.67 26.66 11.34 27.32 11 28 C-0.50915675 10.12323419 -0.50915675 10.12323419 0 0 Z " fill="#D8EBED" transform="translate(39,184)"/>
<path d="M0 0 C9.32933479 0.94874591 9.32933479 0.94874591 13 3 C14.1328125 5.07421875 14.1328125 5.07421875 15 7 C10 6 5 5 0 4 C0 2.68 0 1.36 0 0 Z " fill="#1F929E" transform="translate(161,75)"/>
<path d="M0 0 C0.99 0.33 1.98 0.66 3 1 C1.06555623 2.96143601 -0.87236821 4.91920394 -2.8125 6.875 C-3.35970703 7.43058594 -3.90691406 7.98617187 -4.47070312 8.55859375 C-5.00244141 9.09355469 -5.53417969 9.62851563 -6.08203125 10.1796875 C-6.56905518 10.67194824 -7.0560791 11.16420898 -7.55786133 11.67138672 C-9 13 -9 13 -12 15 C-12.99 14.67 -13.98 14.34 -15 14 C-14.08476562 13.15695313 -13.16953125 12.31390625 -12.2265625 11.4453125 C-11.02602139 10.33856366 -9.82550167 9.23179162 -8.625 8.125 C-8.02171875 7.56941406 -7.4184375 7.01382813 -6.796875 6.44140625 C-6.21679688 5.90644531 -5.63671875 5.37148437 -5.0390625 4.8203125 C-4.50490723 4.32805176 -3.97075195 3.83579102 -3.42041016 3.32861328 C-2.25855182 2.24184238 -1.12494128 1.12494128 0 0 Z " fill="#B2D8DD" transform="translate(236,228)"/>
<path d="M0 0 C0.66 0.33 1.32 0.66 2 1 C1.5875 1.37769531 1.175 1.75539063 0.75 2.14453125 C-4.59534938 7.23931738 -8.78925384 12.95183733 -13 19 C-13.66 18.67 -14.32 18.34 -15 18 C-11.88290498 9.98461282 -6.45013701 5.42701183 0 0 Z " fill="#188B95" transform="translate(101,94)"/>
<path d="M0 0 C1.32 0 2.64 0 4 0 C4 0.99 4 1.98 4 3 C4.66 3 5.32 3 6 3 C6.33 5.97 6.66 8.94 7 12 C6.01 12.495 6.01 12.495 5 13 C3.50178941 9.62902617 3 7.79557881 3 4 C2.34 4 1.68 4 1 4 C0.67 2.68 0.34 1.36 0 0 Z " fill="#05929D" transform="translate(215,118)"/>
<path d="M0 0 C4.7221901 0.48185613 7.70054372 2.69663433 11.3125 5.5625 C11.86228516 5.98724609 12.41207031 6.41199219 12.97851562 6.84960938 C14.3251827 7.89181259 15.66346201 8.94483843 17 10 C15.2109375 10.66796875 15.2109375 10.66796875 13 11 C11.2890625 9.92578125 11.2890625 9.92578125 9.625 8.3125 C7.36067586 6.20956397 5.1688429 4.35112313 2.5625 2.6875 C1.716875 2.130625 0.87125 1.57375 0 1 C0 0.67 0 0.34 0 0 Z " fill="#BDDEE3" transform="translate(211,51)"/>
<path d="M0 0 C2.48046875 0.6796875 2.48046875 0.6796875 5.1875 1.875 C6.08855469 2.26429687 6.98960937 2.65359375 7.91796875 3.0546875 C8.94857422 3.52261719 8.94857422 3.52261719 10 4 C10 4.66 10 5.32 10 6 C10.99 6.33 11.98 6.66 13 7 C12.67 7.66 12.34 8.32 12 9 C8.45756548 7.63408831 5.07372071 6.09068516 1.6875 4.375 C0.80449219 3.92898437 -0.07851562 3.48296875 -0.98828125 3.0234375 C-1.65214844 2.68570313 -2.31601563 2.34796875 -3 2 C-2.01 1.34 -1.02 0.68 0 0 Z " fill="#0E8F9A" transform="translate(181,82)"/>
<path d="M0 0 C0.66 0.33 1.32 0.66 2 1 C-2.62 5.62 -7.24 10.24 -12 15 C-12 10.09687565 -8.29800369 7.38658643 -5 4 C-3.37458956 2.61667196 -1.72614587 1.25537882 0 0 Z " fill="#01DEE9" transform="translate(106,92)"/>
<path d="M0 0 C5.61 0.33 11.22 0.66 17 1 C16.67 1.66 16.34 2.32 16 3 C13.70839681 3.02692484 11.41670454 3.04636124 9.125 3.0625 C7.84882813 3.07410156 6.57265625 3.08570313 5.2578125 3.09765625 C2 3 2 3 0 2 C0 1.34 0 0.68 0 0 Z " fill="#8BF8FB" transform="translate(139,282)"/>
<path d="M0 0 C0.66 0.33 1.32 0.66 2 1 C-1.83775737 4.83775737 -7.73206741 6.17688553 -13 7 C-12.67 5.68 -12.34 4.36 -12 3 C-11.38511719 2.86722656 -10.77023438 2.73445312 -10.13671875 2.59765625 C-9.32847656 2.42105469 -8.52023438 2.24445313 -7.6875 2.0625 C-6.88699219 1.88847656 -6.08648437 1.71445313 -5.26171875 1.53515625 C-2.854599 1.00113841 -2.854599 1.00113841 0 0 Z " fill="#138C97" transform="translate(176,227)"/>
<path d="M0 0 C0.8971875 0.309375 0.8971875 0.309375 1.8125 0.625 C0.966875 1.140625 0.12125 1.65625 -0.75 2.1875 C-4.72979113 4.81853136 -7.91601673 8.17929572 -11.1875 11.625 C-11.5175 10.635 -11.8475 9.645 -12.1875 8.625 C-11.08652432 7.49687697 -9.98158444 6.37262189 -8.875 5.25 C-8.26011719 4.62351562 -7.64523438 3.99703125 -7.01171875 3.3515625 C-2.93837566 -0.50372154 -2.93837566 -0.50372154 0 0 Z " fill="#97F3F8" transform="translate(135.1875,120.375)"/>
<path d="M0 0 C1.37351794 3.12163168 0.89111525 4.33811581 -0.1875 7.6875 C-2 11 -2 11 -4.1875 11.9375 C-4.785625 11.958125 -5.38375 11.97875 -6 12 C-5.71125 11.29875 -5.4225 10.5975 -5.125 9.875 C-3.94480522 6.96403037 -3.94480522 6.96403037 -3 3.75 C-2 1 -2 1 0 0 Z " fill="#BDFBFC" transform="translate(285,154)"/>
<path d="M0 0 C0.33 0.66 0.66 1.32 1 2 C0.690625 2.9075 0.38125 3.815 0.0625 4.75 C-1.80139294 10.6168845 -1.15177855 16.92042583 -1 23 C-3.91829575 20.08170425 -3.30055517 17.81124085 -3.3125 13.75 C-3.32925781 12.44546875 -3.34601562 11.1409375 -3.36328125 9.796875 C-2.98454168 5.83843565 -2.00110838 3.40030025 0 0 Z " fill="#E8FEFE" transform="translate(18,137)"/>
<path d="M0 0 C4.29 0 8.58 0 13 0 C13 0.66 13 1.32 13 2 C11.39679026 2.19551338 9.79237014 2.38111983 8.1875 2.5625 C7.29417969 2.66691406 6.40085937 2.77132812 5.48046875 2.87890625 C3 3 3 3 0 2 C0 1.34 0 0.68 0 0 Z " fill="#41E1E6" transform="translate(65,140)"/>
<path d="M0 0 C0.66 0.33 1.32 0.66 2 1 C1.44570313 1.59167969 0.89140625 2.18335938 0.3203125 2.79296875 C-0.40414063 3.58316406 -1.12859375 4.37335938 -1.875 5.1875 C-2.95394531 6.35345703 -2.95394531 6.35345703 -4.0546875 7.54296875 C-5.9817092 9.97689776 -7.01300111 12.07536646 -8 15 C-8.33 15 -8.66 15 -9 15 C-9 10.96286738 -8.76144624 8.92564818 -6.15234375 5.75390625 C-4.14993218 3.77268422 -2.11764085 1.85715655 0 0 Z " fill="#8BF6FA" transform="translate(27,129)"/>
<path d="M0 0 C0.99 0 1.98 0 3 0 C3 2.64 3 5.28 3 8 C2.01 8.33 1.02 8.66 0 9 C0 6.03 0 3.06 0 0 Z " fill="#89F3F7" transform="translate(283,146)"/>
<path d="M0 0 C0.99 0.33 1.98 0.66 3 1 C2.67 2.98 2.34 4.96 2 7 C1.01 7 0.02 7 -1 7 C-1.33 7.99 -1.66 8.98 -2 10 C-2.33 9.34 -2.66 8.68 -3 8 C-2.34 7.01 -1.68 6.02 -1 5 C-0.61500109 3.34450469 -0.27206865 1.6777567 0 0 Z " fill="#ADF8FA" transform="translate(174,264)"/>
<path d="M0 0 C0.33 1.32 0.66 2.64 1 4 C-2.63 4 -6.26 4 -10 4 C-6.86268382 1.90845588 -3.85464592 0 0 0 Z " fill="#148A95" transform="translate(262,121)"/>
<path d="M0 0 C0.33 0 0.66 0 1 0 C1 2.64 1 5.28 1 8 C-3.455 7.01 -3.455 7.01 -8 6 C-4 4 -4 4 -1 4 C-0.67 2.68 -0.34 1.36 0 0 Z " fill="#4CA6B1" transform="translate(124,256)"/>
<path d="M0 0 C5.75980392 2.45098039 5.75980392 2.45098039 6.875 5 C6.97899629 6.6639407 7 8.33281258 7 10 C5.82739389 8.71372289 4.6620717 7.42080217 3.5 6.125 C2.8503125 5.40570313 2.200625 4.68640625 1.53125 3.9453125 C0 2 0 2 0 0 Z " fill="#B1D7DC" transform="translate(55,218)"/>
<path d="M0 0 C0.99 0.495 0.99 0.495 2 1 C2 1.66 2 2.32 2 3 C2.66 3 3.32 3 4 3 C4.12375 3.804375 4.2475 4.60875 4.375 5.4375 C4.684375 6.7059375 4.684375 6.7059375 5 8 C5.66 8.33 6.32 8.66 7 9 C5.35 8.67 3.7 8.34 2 8 C1.34 5.36 0.68 2.72 0 0 Z " fill="#B7F7FA" transform="translate(172,28)"/>
<path d="M0 0 C0.66 0.33 1.32 0.66 2 1 C-0.31 3.31 -2.62 5.62 -5 8 C-5.66 7.34 -6.32 6.68 -7 6 C-4.69 4.02 -2.38 2.04 0 0 Z " fill="#45DDE3" transform="translate(137,237)"/>
<path d="M0 0 C0.33 0 0.66 0 1 0 C1.3125 2.8125 1.3125 2.8125 1 6 C-1.5 7.875 -1.5 7.875 -4 9 C-2.80100302 5.9168649 -1.52299523 2.93720508 0 0 Z " fill="#95C7CE" transform="translate(251,206)"/>
<path d="M0 0 C0.66 0.33 1.32 0.66 2 1 C0.68 4.3 -0.64 7.6 -2 11 C-2.33 11 -2.66 11 -3 11 C-2.53199289 6.94393835 -2.12046792 3.53411321 0 0 Z " fill="#01DCE7" transform="translate(85,117)"/>
<path d="M0 0 C2.31 0.33 4.62 0.66 7 1 C7 1.99 7 2.98 7 4 C7.99 4.33 8.98 4.66 10 5 C9.01 5.495 9.01 5.495 8 6 C6.0546875 5.0390625 6.0546875 5.0390625 3.875 3.625 C3.15054688 3.16351563 2.42609375 2.70203125 1.6796875 2.2265625 C1.12539062 1.82179687 0.57109375 1.41703125 0 1 C0 0.67 0 0.34 0 0 Z " fill="#ADD6DB" transform="translate(86,248)"/>
<path d="M0 0 C0.66 0 1.32 0 2 0 C2.33 2.64 2.66 5.28 3 8 C2.34 8 1.68 8 1 8 C-0.35439668 5.29120665 -0.06501451 2.99066732 0 0 Z " fill="#95C7CE" transform="translate(39,184)"/>
<path d="M0 0 C-1 3 -1 3 -4.0625 4.6875 C-5.031875 5.120625 -6.00125 5.55375 -7 6 C-5.52522876 2.59668175 -4.14385429 0 0 0 Z " fill="#0E8A95" transform="translate(193,220)"/>
<path d="M0 0 C-2.85306797 2.32472205 -5.54074837 3.7508258 -9 5 C-7.35234966 0.05704899 -4.76872479 -0.25776891 0 0 Z " fill="#D1E9EB" transform="translate(208,253)"/>
<path d="M0 0 C4.8 3.32307692 4.8 3.32307692 5.8125 6.75 C5.874375 7.4925 5.93625 8.235 6 9 C2.91910327 6.22719294 1.31224548 3.93673644 0 0 Z " fill="#61EDF3" transform="translate(275,132)"/>
</svg>
