<?xml version="1.0" encoding="UTF-8"?>
<svg version="1.1" xmlns="http://www.w3.org/2000/svg" width="657" height="380">
<path d="M0 0 C4.40301623 3.33416809 7.3332577 6.75665451 8.75 12.1875 C8.8325 12.88875 8.915 13.59 9 14.3125 C9.94875 14.415625 10.8975 14.51875 11.875 14.625 C37.3807543 18.43562066 61.23531898 36.1600084 76.625 56.125 C85.38733876 68.19416922 96 84.86608603 96 100.3125 C97.155 100.23 98.31 100.1475 99.5 100.0625 C105.61218378 100.11630443 109.7668238 102.2331999 114.2109375 106.37109375 C120.19226817 112.77349283 122.551253 117.93759219 122.30078125 126.73046875 C121.36657593 134.75007543 117.34904079 139.68922792 111.234375 144.71484375 C106.25847128 148.27278889 102.00222943 148.55258918 96 148.3125 C95.896875 149.26125 95.79375 150.21 95.6875 151.1875 C91.73412848 177.3525773 72.96444838 200.21731743 52.71484375 216.10546875 C41.21742222 224.57430119 23.73368823 234.3125 9 234.3125 C8.6596875 235.859375 8.6596875 235.859375 8.3125 237.4375 C6.70962062 242.94739788 3.43922278 246.24747514 -1.125 249.625 C-7.37210832 252.87785161 -15.40306366 253.2304301 -22.09375 251.16015625 C-29.01448731 248.08269724 -33.79766492 243.14825373 -37 236.3125 C-37 235.6525 -37 234.9925 -37 234.3125 C-37.54785156 234.23773438 -38.09570312 234.16296875 -38.66015625 234.0859375 C-65.82733631 229.58016129 -90.06456265 211.26497504 -105.90625 189.37109375 C-113.7072496 177.97523053 -123 162.51632419 -123 148.3125 C-124.155 148.395 -125.31 148.4775 -126.5 148.5625 C-132.61218378 148.50869557 -136.7668238 146.3918001 -141.2109375 142.25390625 C-147.19226817 135.85150717 -149.551253 130.68740781 -149.30078125 121.89453125 C-148.36169655 113.83303788 -144.32021038 109.1098985 -138.31640625 103.94140625 C-134.55302716 101.29498284 -131.29538328 100.03130057 -126.6875 100.1875 C-125.470625 100.22875 -124.25375 100.27 -123 100.3125 C-122.896875 99.36375 -122.79375 98.415 -122.6875 97.4375 C-118.95852313 72.75756098 -101.44121893 49.26964632 -82 34.3125 C-77.46337216 31.09678627 -72.76832848 28.1701934 -68 25.3125 C-66.82050781 24.60287109 -66.82050781 24.60287109 -65.6171875 23.87890625 C-61.49465706 21.6255518 -57.34759253 20.08279162 -52.85546875 18.73828125 C-51.44793335 18.30733154 -51.44793335 18.30733154 -50.01196289 17.86767578 C-48.11995631 17.2990338 -46.21922452 16.7584913 -44.31030273 16.24951172 C-39.3033619 14.83706783 -39.3033619 14.83706783 -35.59155273 11.41577148 C-34.6246328 9.40985589 -33.81400793 7.38365569 -33 5.3125 C-25.02935295 -4.55869063 -10.68359135 -6.67724459 0 0 Z " fill="#2CD8E3" transform="translate(342,65.6875)"/>
<path d="M0 0 C0.69351563 0.350625 1.38703125 0.70125 2.1015625 1.0625 C9.51051225 5.18176164 15.96599981 12.0357495 19 20 C19 20.99 19 21.98 19 23 C37.15 23 55.3 23 74 23 C74.66 21.68 75.32 20.36 76 19 C79.29486347 15.2475166 82.36034978 12.87560328 87 11 C88.32 11 89.64 11 91 11 C91 9.35 91 7.7 91 6 C91.33 7.32 91.66 8.64 92 10 C93.155 9.9175 94.31 9.835 95.5 9.75 C101.61218378 9.80380443 105.7668238 11.9206999 110.2109375 16.05859375 C116.19226817 22.46099283 118.551253 27.62509219 118.30078125 36.41796875 C117.36657593 44.43757543 113.34904079 49.37672792 107.234375 54.40234375 C102.35619089 57.89041596 97.90181561 58.58050645 92 58 C83.85970681 55.83315937 78.75215272 53.12822908 74 46 C71.58097767 45.52285258 71.58097767 45.52285258 68.72412109 45.56762695 C67.6231308 45.54783279 66.5221405 45.52803864 65.38778687 45.50764465 C64.19505157 45.50125473 63.00231628 45.49486481 61.7734375 45.48828125 C60.55548492 45.47033005 59.33753235 45.45237885 58.08267212 45.43388367 C54.18015032 45.37956082 50.27775233 45.34581384 46.375 45.3125 C43.73435768 45.27934642 41.09373176 45.24485862 38.453125 45.20898438 C31.96886102 45.12382172 25.48458145 45.05556523 19 45 C18.70432129 45.93263672 18.40864258 46.86527344 18.10400391 47.82617188 C14.77316454 57.4017826 7.43170497 64.64203947 -1.38671875 69.24609375 C-10.60144357 73.22674468 -22.00494285 73.85700863 -31.5 70.375 C-41.69069173 65.50193432 -49.62078238 57.86423734 -54.08203125 47.42578125 C-56.6253214 37.93443885 -56.69330639 25.97223687 -52.25390625 17.0625 C-51.84011719 16.381875 -51.42632812 15.70125 -51 15 C-50.57589844 14.29875 -50.15179688 13.5975 -49.71484375 12.875 C-38.59592313 -3.47817573 -17.61169572 -9.6641796 0 0 Z " fill="#A7EFF5" transform="translate(346,156)"/>
<path d="M0 0 C4.08279501 -0.17421117 8.16463681 -0.28082588 12.25 -0.375 C13.40886719 -0.42527344 14.56773437 -0.47554687 15.76171875 -0.52734375 C18.94522337 -0.58254903 21.86647683 -0.57153941 25 0 C27.484375 2.84765625 27.484375 2.84765625 29 6 C31.38065244 7.70378532 31.38065244 7.70378532 34 8.8125 C34.845625 9.21082031 35.69125 9.60914063 36.5625 10.01953125 C38.70702219 10.88215156 40.74451787 11.51444482 43 12 C40.60366522 37.88041558 23.45594569 60.7996671 4.19140625 77.23828125 C-8.71604289 87.61485801 -26.81305363 98.72435406 -44 98 C-44.00257813 97.16597656 -44.00515625 96.33195312 -44.0078125 95.47265625 C-44.28301043 87.46439635 -45.47976244 81.97271605 -51 76 C-51.72058594 75.61457031 -52.44117188 75.22914063 -53.18359375 74.83203125 C-55.40105103 72.59549907 -55.29357761 71.84129202 -55.390625 68.76953125 C-55.36407407 67.11673599 -55.31642461 65.46417337 -55.25 63.8125 C-55.23195313 62.96751953 -55.21390625 62.12253906 -55.1953125 61.25195312 C-55.14820586 59.16748427 -55.07646233 57.08359856 -55 55 C-53.92685547 54.79697266 -53.92685547 54.79697266 -52.83203125 54.58984375 C-41.28746095 52.09573865 -31.70777329 46.88318524 -22.70703125 39.28515625 C-21 38 -21 38 -19 38 C-18.73960937 37.42765625 -18.47921875 36.8553125 -18.2109375 36.265625 C-16.90681797 33.82565942 -15.3827704 31.88388721 -13.625 29.75 C-10.40210601 25.69278689 -8.14055296 21.70921651 -6 17 C-5.34 17 -4.68 17 -4 17 C-3.81824219 16.03900391 -3.81824219 16.03900391 -3.6328125 15.05859375 C-3.46523438 14.19363281 -3.29765625 13.32867187 -3.125 12.4375 C-2.96257812 11.59058594 -2.80015625 10.74367187 -2.6328125 9.87109375 C-1.89742417 6.53460964 -0.96404622 3.27694701 0 0 Z " fill="#0299A6" transform="translate(395,201)"/>
<path d="M0 0 C18.4023683 -1.20015445 37.99260719 12.4190214 51.375 23.69140625 C67.00111159 37.43401332 82.08447707 56.93718699 86 78 C86.12205329 80.67540816 86.04467313 83.31961238 86 86 C85.00419922 86.34611328 85.00419922 86.34611328 83.98828125 86.69921875 C77.1566344 89.22244014 73.10929728 91.83605409 69 98 C66.47802734 98.34057617 66.47802734 98.34057617 63.3359375 98.29296875 C62.21445312 98.28330078 61.09296875 98.27363281 59.9375 98.26367188 C58.1740625 98.2259668 58.1740625 98.2259668 56.375 98.1875 C54.59996094 98.16719727 54.59996094 98.16719727 52.7890625 98.14648438 C49.85892461 98.11103916 46.92968541 98.06162769 44 98 C43.70867187 96.97261719 43.41734375 95.94523437 43.1171875 94.88671875 C40.61427443 86.32439403 37.78109978 78.6062951 33 71 C32.60039062 70.34644531 32.20078125 69.69289063 31.7890625 69.01953125 C28.60088555 64.17307435 24.52446299 60.58452173 20 57 C19.2471875 56.39929688 18.494375 55.79859375 17.71875 55.1796875 C9.04285653 48.6727674 -0.56350252 45.50158996 -11 43 C-11.13510253 40.08178537 -11.2341305 37.16982348 -11.3125 34.25 C-11.35439453 33.425 -11.39628906 32.6 -11.43945312 31.75 C-11.48678056 29.40255925 -11.46412465 27.30294497 -11 25 C-8.62109375 22.64453125 -8.62109375 22.64453125 -6 21 C-2.43365694 16.12250141 -0.92791339 11.26751979 -0.4375 5.3125 C-0.35371094 4.31863281 -0.26992188 3.32476562 -0.18359375 2.30078125 C-0.12300781 1.54152344 -0.06242187 0.78226562 0 0 Z " fill="#0499A6" transform="translate(351,81)"/>
<path d="M0 0 C1.16080078 0.03609375 2.32160156 0.0721875 3.51757812 0.109375 C6.36932388 0.20325963 9.21416795 0.33441781 12.0625 0.5 C12.42601562 1.68335938 12.78953125 2.86671875 13.1640625 4.0859375 C15.92838084 12.86578422 18.65896302 20.94327697 24.0625 28.5 C24.79339844 29.61181641 24.79339844 29.61181641 25.5390625 30.74609375 C35.69742946 45.18298473 50.52471657 51.45168843 67.0625 55.5 C68.14163364 71.84116648 68.14163364 71.84116648 65.64453125 75.6796875 C63.8125 77 63.8125 77 61.8828125 78.1640625 C57.74356048 81.20188265 56.52374091 87.07653081 55.6015625 91.921875 C55.35854823 93.7740378 55.20049506 95.63706673 55.0625 97.5 C45.77629745 98.67989397 38.27037577 95.33750422 30.0625 91.5 C28.95390625 90.98179687 27.8453125 90.46359375 26.703125 89.9296875 C-0.00011748 76.44780654 -19.00896109 52.37982909 -28.9375 24.5 C-30.26889941 20.35440517 -31.2019263 16.86303388 -30.9375 12.5 C-30.22464844 12.3040625 -29.51179687 12.108125 -28.77734375 11.90625 C-27.81957031 11.6071875 -26.86179688 11.308125 -25.875 11 C-24.93527344 10.7215625 -23.99554688 10.443125 -23.02734375 10.15625 C-19.79258487 8.42232109 -18.95837491 7.26969999 -16.875 4.375 C-12.21731356 -1.255466 -6.82754888 -0.40367543 0 0 Z " fill="#0399A6" transform="translate(249.9375,200.5)"/>
<path d="M0 0 C0.061875 1.27875 0.12375 2.5575 0.1875 3.875 C0.82591778 9.49662321 2.76488575 14.35864844 6 19 C7.04027344 19.73089844 8.08054687 20.46179688 9.15234375 21.21484375 C12.18127387 24.17729529 12.41514569 24.49306428 12.5859375 28.42578125 C12.54634376 30.05572351 12.47518366 31.68515779 12.375 33.3125 C12.33439453 34.56643555 12.33439453 34.56643555 12.29296875 35.84570312 C12.22259563 37.89825247 12.11498322 39.94946591 12 42 C11.32195312 42.17015625 10.64390625 42.3403125 9.9453125 42.515625 C-1.09506488 45.39040471 -9.8994183 49.02543654 -19 56 C-19.84304688 56.64453125 -20.68609375 57.2890625 -21.5546875 57.953125 C-28.10765215 63.43835419 -32.47871896 70.39698504 -36.3125 77.9375 C-36.63774658 78.56881836 -36.96299316 79.20013672 -37.2980957 79.85058594 C-40.08842341 85.56891007 -41.25349256 90.5961394 -43 97 C-51.25 97 -59.5 97 -68 97 C-68.66 95.68 -69.32 94.36 -70 93 C-72.47678797 91.0734595 -72.47678797 91.0734595 -75.375 89.375 C-76.33148438 88.78460938 -77.28796875 88.19421875 -78.2734375 87.5859375 C-80.48590841 86.29902748 -82.69276661 85.1044103 -85 84 C-86.1047938 67.05982842 -73.79197458 47.90973395 -63.14453125 35.65234375 C-51.10832741 22.18344214 -37.66054926 11.29737423 -21 4 C-20.10667969 3.608125 -19.21335937 3.21625 -18.29296875 2.8125 C-12.02923878 0.28948709 -6.73107774 -0.52563731 0 0 Z " fill="#0399A6" transform="translate(305,82)"/>
<path d="M0 0 C0.04125 0.61875 0.0825 1.2375 0.125 1.875 C0.41375 2.57625 0.7025 3.2775 1 4 C1.804375 4.268125 2.60875 4.53625 3.4375 4.8125 C8.55855465 6.51951822 12.97189181 9.40428761 17 13 C17.495 14.98 17.495 14.98 18 17 C26.25 17 34.5 17 43 17 C43 24.26 43 31.52 43 39 C34.75 39 26.5 39 18 39 C17.34 40.32 16.68 41.64 16 43 C11.05789544 48.5992265 5.22385817 51.20163677 -2.0703125 52.31640625 C-7.52641587 52.64805175 -11.66393 51.13904681 -16 48 C-22.39502962 42.04561729 -25.91345144 37.01122249 -26.375 28.1875 C-26.18687576 21.583349 -24.41291683 16.61549381 -19.90625 11.73046875 C-14.98868507 7.18172119 -10.66377552 3.63851608 -3.6875 3.875 C-2.470625 3.91625 -1.25375 3.9575 0 4 C0 2.68 0 1.36 0 0 Z " fill="#9DF2F9" transform="translate(219,162)"/>
<path d="M0 0 C6.93 0 13.86 0 21 0 C21 5.61 21 11.22 21 17 C23.475 17.99 23.475 17.99 26 19 C27.765625 20.875 27.765625 20.875 29.25 23 C29.75015625 23.70125 30.2503125 24.4025 30.765625 25.125 C33.1806668 28.79341792 33.10558761 31.23006376 33.0625 35.625 C33.05347656 36.81351562 33.04445313 38.00203125 33.03515625 39.2265625 C33.02355469 40.14179688 33.01195312 41.05703125 33 42 C34.32 42.33 35.64 42.66 37 43 C35.68 43 34.36 43 33 43 C32.773125 44.03125 32.54625 45.0625 32.3125 46.125 C30.70962062 51.63489788 27.43922278 54.93497514 22.875 58.3125 C16.62789168 61.56535161 8.59693634 61.9179301 1.90625 59.84765625 C-5.01448731 56.77019724 -9.79766492 51.83575373 -13 45 C-13 44.34 -13 43.68 -13 43 C-14.98 42.67 -16.96 42.34 -19 42 C-19 41.67 -19 41.34 -19 41 C-17.02 41 -15.04 41 -13 41 C-13.12375 39.329375 -13.12375 39.329375 -13.25 37.625 C-13.22556354 30.73391818 -10.67360047 24.38274713 -5.9375 19.375 C-3 17 -3 17 0 17 C0 11.39 0 5.78 0 0 Z " fill="#9CF2F9" transform="translate(318,257)"/>
<path d="M0 0 C4.40301623 3.33416809 7.3332577 6.75665451 8.75 12.1875 C8.8325 12.88875 8.915 13.59 9 14.3125 C10.32 14.6425 11.64 14.9725 13 15.3125 C11.68 15.3125 10.36 15.3125 9 15.3125 C9.05220703 16.38177734 9.05220703 16.38177734 9.10546875 17.47265625 C9.32177483 25.12577144 8.30479825 30.49616618 3.5625 36.6875 C1 39.3125 1 39.3125 -3 40.3125 C-3 45.9225 -3 51.5325 -3 57.3125 C-9.93 57.3125 -16.86 57.3125 -24 57.3125 C-24 51.7025 -24 46.0925 -24 40.3125 C-25.32 39.9825 -26.64 39.6525 -28 39.3125 C-32.36722643 35.5325534 -35.29566399 30.80424936 -37 25.3125 C-37.21747017 22.29208097 -37.18496204 19.33354667 -37 16.3125 C-38.98 16.3125 -40.96 16.3125 -43 16.3125 C-40 14.3125 -40 14.3125 -37 13.3125 C-36.01445485 11.64491557 -36.01445485 11.64491557 -35.25 9.625 C-32.35921492 3.5379884 -28.04898256 -0.1168494 -21.8125 -2.625 C-14.26349041 -4.75981361 -6.69291326 -4.18307078 0 0 Z " fill="#9DF2F9" transform="translate(342,65.6875)"/>
<path d="M0 0 C8.25 0 16.5 0 25 0 C25 7.26 25 14.52 25 22 C16.75 22 8.5 22 0 22 C-0.33 22.66 -0.66 23.32 -1 24 C-1 23.01 -1 22.02 -1 21 C-0.44538086 20.98018066 0.10923828 20.96036133 0.68066406 20.93994141 C3.20423693 20.84442349 5.72701224 20.73485433 8.25 20.625 C9.12269531 20.5940625 9.99539062 20.563125 10.89453125 20.53125 C12.16103516 20.47324219 12.16103516 20.47324219 13.453125 20.4140625 C14.22817383 20.3826416 15.00322266 20.3512207 15.80175781 20.31884766 C18.40651322 20.05857011 18.40651322 20.05857011 22 18 C22 13.05 22 8.1 22 3 C19.65061112 1.82530556 18.04926795 1.79965111 15.4296875 1.68359375 C14.53378906 1.64169922 13.63789063 1.59980469 12.71484375 1.55664062 C11.77769531 1.51732422 10.84054688 1.47800781 9.875 1.4375 C8.93011719 1.39431641 7.98523438 1.35113281 7.01171875 1.30664062 C4.67462908 1.20040928 2.3374317 1.09836824 0 1 C0 0.67 0 0.34 0 0 Z " fill="#83EFF9" transform="translate(237,179)"/>
<path d="M0 0 C0.66 0.33 1.32 0.66 2 1 C0.46757679 4.44795223 -1.44531701 7.2199038 -4 10 C-5.32 10.33 -6.64 10.66 -8 11 C-8 16.61 -8 22.22 -8 28 C-14.27 28 -20.54 28 -27 28 C-27 27.34 -27 26.68 -27 26 C-18.585 25.505 -18.585 25.505 -10 25 C-9.67 20.05 -9.34 15.1 -9 10 C-8.01 9.67 -7.02 9.34 -6 9 C-5.67 8.01 -5.34 7.02 -5 6 C-3.66666667 5 -2.33333333 4 -1 3 C-0.67 2.01 -0.34 1.02 0 0 Z " fill="#83F0F9" transform="translate(347,95)"/>
<path d="M0 0 C0.33 1.32 0.66 2.64 1 4 C0.01 4.33 -0.98 4.66 -2 5 C-2.36566471 6.32483139 -2.69467783 7.6599749 -3 9 C-4.3046875 10.81640625 -4.3046875 10.81640625 -5.875 12.5625 C-6.38804687 13.14128906 -6.90109375 13.72007813 -7.4296875 14.31640625 C-8.4721796 15.43410301 -9.54705686 16.52248457 -10.65234375 17.578125 C-12.28849119 19.30437911 -12.60110732 20.68642243 -13 23 C-14.32 22.34 -15.64 21.68 -17 21 C-11.96351703 13.31185878 -6.294753 6.66205247 0 0 Z " fill="#41ABB3" transform="translate(250,109)"/>
<path d="M0 0 C2 1 2 1 3.125 3.4375 C4.93393316 10.80244214 4.6839223 17.10741695 1.28125 23.94921875 C-0.76172342 27.21922193 -3.05726653 29.50507379 -6 32 C-6.66 32 -7.32 32 -8 32 C-7.25 29.625 -7.25 29.625 -6 27 C-5.33871094 26.70996094 -4.67742187 26.41992188 -3.99609375 26.12109375 C-1.8030572 25.17215004 -1.8030572 25.17215004 -1.20703125 22.87109375 C-1.07683594 22.06800781 -0.94664062 21.26492187 -0.8125 20.4375 C-0.06370656 16.06370656 -0.06370656 16.06370656 1 15 C1.17765417 9.84802914 0.84634488 5.07806929 0 0 Z " fill="#C8F2F4" transform="translate(460,178)"/>
<path d="M0 0 C0.99 0.33 1.98 0.66 3 1 C-6.82427821 9.63566184 -16.1027394 12.91999989 -29.16015625 12.40625 C-34.27197325 11.86542704 -38.49169731 10.4275476 -43 8 C-43 7.67 -43 7.34 -43 7 C-36.46207416 7.75437606 -36.46207416 7.75437606 -34.08203125 9.01953125 C-27.38318662 12.17414664 -18.99926498 9.75558319 -12.3125 7.65625 C-10 7 -10 7 -7 7 C-7 6.34 -7 5.68 -7 5 C-6.34 5 -5.68 5 -5 5 C-5 4.34 -5 3.68 -5 3 C-3.68 3 -2.36 3 -1 3 C-0.67 2.01 -0.34 1.02 0 0 Z " fill="#92F3FA" transform="translate(353,216)"/>
<path d="M0 0 C9.9 0 19.8 0 30 0 C29.67 0.66 29.34 1.32 29 2 C19.76 2.33 10.52 2.66 1 3 C0.34 4.98 -0.32 6.96 -1 9 C-1.99 9 -2.98 9 -4 9 C-2.79310745 5.89656201 -1.49403054 2.98806107 0 0 Z " fill="#44D6DD" transform="translate(365,201)"/>
<path d="M0 0 C2.74999027 3.22824944 3.10429689 4.52148447 4 9 C21.82 9 39.64 9 58 9 C58 9.33 58 9.66 58 10 C39.85 10 21.7 10 3 10 C3 9.34 3 8.68 3 8 C2.34 8 1.68 8 1 8 C-0.35439668 5.29120665 -0.06501451 2.99066732 0 0 Z " fill="#86EFF7" transform="translate(361,170)"/>
<path d="M0 0 C0.33 0 0.66 0 1 0 C1 5.61 1 11.22 1 17 C7.93 17 14.86 17 22 17 C22 11.39 22 5.78 22 0 C22.33 0 22.66 0 23 0 C23 5.94 23 11.88 23 18 C23.66 18.33 24.32 18.66 25 19 C19.25 20.125 19.25 20.125 17 19 C14.11426648 18.92800066 11.25934885 18.9072932 8.375 18.9375 C4.229375 18.9684375 4.229375 18.9684375 0 19 C0 12.73 0 6.46 0 0 Z " fill="#46CED7" transform="translate(317,106)"/>
<path d="M0 0 C6.93 0 13.86 0 21 0 C21 5.28 21 10.56 21 16 C20.67 16 20.34 16 20 16 C20 11.71 20 7.42 20 3 C13.73 2.67 7.46 2.34 1 2 C1 3.65 1 5.3 1 7 C0.67 7 0.34 7 0 7 C0 4.69 0 2.38 0 0 Z " fill="#84F2FB" transform="translate(318,257)"/>
<path d="M0 0 C1.546875 1.5703125 1.546875 1.5703125 1.546875 4.5703125 C0.96679688 4.14878906 0.38671875 3.72726563 -0.2109375 3.29296875 C-0.99210937 2.74511719 -1.77328125 2.19726562 -2.578125 1.6328125 C-3.34382813 1.08753906 -4.10953125 0.54226562 -4.8984375 -0.01953125 C-9.79305181 -2.72129848 -14.8479575 -2.54810758 -20.328125 -2.4921875 C-21.48054688 -2.48316406 -22.63296875 -2.47414063 -23.8203125 -2.46484375 C-24.68914062 -2.45324219 -25.55796875 -2.44164063 -26.453125 -2.4296875 C-19.5863542 -9.2964583 -6.76846803 -4.77633027 0 0 Z " fill="#C4F4F7" transform="translate(344.453125,67.4296875)"/>
<path d="M0 0 C2.97 0.99 5.94 1.98 9 3 C9 3.66 9 4.32 9 5 C15.27 5 21.54 5 28 5 C24.55032804 8.44967196 19.69893884 7.93632874 15 8 C8.88289153 7.42850544 4.66530505 4.79056036 0 1 C0 0.67 0 0.34 0 0 Z " fill="#BEF5F7" transform="translate(311,310)"/>
<path d="M0 0 C0 0.33 0 0.66 0 1 C-1.03640625 1.03738281 -2.0728125 1.07476562 -3.140625 1.11328125 C-4.51045184 1.17895788 -5.88024191 1.24540464 -7.25 1.3125 C-8.27287109 1.34633789 -8.27287109 1.34633789 -9.31640625 1.38085938 C-13.52449318 1.60556305 -15.86536296 2.19038293 -19 5 C-20.99117408 5.69258229 -22.9921136 6.35747635 -25 7 C-26.0725 7.556875 -27.145 8.11375 -28.25 8.6875 C-29.1575 9.120625 -30.065 9.55375 -31 10 C-31.66 9.67 -32.32 9.34 -33 9 C-21.58895928 0.83793615 -13.77383789 -0.45132721 0 0 Z " fill="#8AEEF6" transform="translate(336,152)"/>
<path d="M0 0 C1.2517245 2.503449 0.89162596 3.6247177 0.5 6.375 C-0.18902384 12.34072544 0.33570877 18.05203849 1 24 C-1 23 -1 23 -2.125 20.5625 C-3.97469144 13.03161344 -3.58538355 6.87198514 0 0 Z " fill="#C7F5F6" transform="translate(196,178)"/>
<path d="M0 0 C0.66 0.33 1.32 0.66 2 1 C-2.61657368 5.78755789 -6.49546212 9.18478013 -13 11 C-13 11.66 -13 12.32 -13 13 C-14.32 12.67 -15.64 12.34 -17 12 C-14.54301039 10.18565366 -12.08448741 8.37345469 -9.625 6.5625 C-8.92632812 6.04623047 -8.22765625 5.52996094 -7.5078125 4.99804688 C-6.50234375 4.25844727 -6.50234375 4.25844727 -5.4765625 3.50390625 C-4.85861816 3.04830322 -4.24067383 2.5927002 -3.60400391 2.12329102 C-2 1 -2 1 0 0 Z " fill="#55B6BA" transform="translate(272,92)"/>
<path d="M0 0 C1.3921875 0.3403125 1.3921875 0.3403125 2.8125 0.6875 C-0.04026137 3.61950474 -2.83829784 6.33065404 -6.1875 8.6875 C-6.8475 8.3575 -7.5075 8.0275 -8.1875 7.6875 C-5.30379098 -0.51997951 -5.30379098 -0.51997951 0 0 Z " fill="#38A9B5" transform="translate(396.1875,276.3125)"/>
<path d="M0 0 C0.93423645 3.01031744 1.04449911 3.86650268 0 7 C-0.66 7 -1.32 7 -2 7 C-2.12117188 7.91523438 -2.24234375 8.83046875 -2.3671875 9.7734375 C-2.53476562 10.96195313 -2.70234375 12.15046875 -2.875 13.375 C-3.03742188 14.55835938 -3.19984375 15.74171875 -3.3671875 16.9609375 C-4 20 -4 20 -6 22 C-6.54474747 13.55641417 -4.71113339 7.06670009 0 0 Z " fill="#90F1FB" transform="translate(297,168)"/>
<path d="M0 0 C7.420805 1.93586217 14.96299033 4.12875772 21 9 C18.35963647 9.97791242 17.12733368 10.03638105 14.375 9.25 C12 8 12 8 10 5 C7.6758266 4.31767386 5.38851242 3.99247551 2.99609375 3.625 C2.33738281 3.41875 1.67867188 3.2125 1 3 C0.67 2.01 0.34 1.02 0 0 Z " fill="#4EAFB9" transform="translate(362,83)"/>
<path d="M0 0 C1.32 0.33 2.64 0.66 4 1 C4 1.66 4 2.32 4 3 C5.32 3.33 6.64 3.66 8 4 C8.33 3.34 8.66 2.68 9 2 C9.33 2.99 9.66 3.98 10 5 C13.00847418 6.22520264 13.00847418 6.22520264 16 7 C16 7.66 16 8.32 16 9 C10.05901461 8.62868841 5.5959899 6.87856709 1 3 C0.67 2.01 0.34 1.02 0 0 Z " fill="#8DEBF1" transform="translate(422,204)"/>
<path d="M0 0 C0.99 0 1.98 0 3 0 C2.42656355 6.19311362 1.35902388 12.20966865 -1 18 C-1.66 18.33 -2.32 18.66 -3 19 C-2.505 14.545 -2.505 14.545 -2 10 C-1.34 10 -0.68 10 0 10 C0 6.7 0 3.4 0 0 Z " fill="#50B2B5" transform="translate(435,213)"/>
<path d="M0 0 C1.71948485 2.96948578 2.22039127 4.91452225 1.9765625 8.328125 C1.925 9.12734375 1.8734375 9.9265625 1.8203125 10.75 C1.75585938 11.575 1.69140625 12.4 1.625 13.25 C1.56828125 14.09046875 1.5115625 14.9309375 1.453125 15.796875 C1.31209668 17.86529042 1.15738212 19.9327646 1 22 C0.67 22 0.34 22 0 22 C-1.03970216 17.7339205 -1.13358472 13.69499722 -1.125 9.3125 C-1.12886719 8.63638672 -1.13273437 7.96027344 -1.13671875 7.26367188 C-1.12674825 2.2534965 -1.12674825 2.2534965 0 0 Z " fill="#42D6DE" transform="translate(262,179)"/>
<path d="M0 0 C0.33 1.32 0.66 2.64 1 4 C0.01 4.33 -0.98 4.66 -2 5 C-2.144375 5.598125 -2.28875 6.19625 -2.4375 6.8125 C-3.18951488 9.7370023 -4.79712511 11.01030655 -7 13 C-7.4375 10.4375 -7.4375 10.4375 -7 7 C-4.91317274 4.3796981 -2.53313752 2.1841849 0 0 Z " fill="#35A6B0" transform="translate(250,109)"/>
<path d="M0 0 C0.33 0.99 0.66 1.98 1 3 C-1.14419403 7.0707443 -3.7910725 10.36925522 -7.875 12.5 C-8.57625 12.665 -9.2775 12.83 -10 13 C-8.625 10.5 -8.625 10.5 -7 8 C-6.34 8 -5.68 8 -5 8 C-4.731875 7.4225 -4.46375 6.845 -4.1875 6.25 C-2.98280141 3.9674132 -1.59201885 2.0262058 0 0 Z " fill="#C7F4F5" transform="translate(349,302)"/>
<path d="M0 0 C6.57831325 0.75903614 6.57831325 0.75903614 8.75 2 C11.99095704 3.44042535 15.25785789 3.46656633 18.75 3.625 C19.44738281 3.66367188 20.14476562 3.70234375 20.86328125 3.7421875 C22.57510818 3.83598624 24.28751682 3.91906174 26 4 C26 4.33 26 4.66 26 5 C16.52395508 5.42324766 8.60159081 5.63162582 0 1 C0 0.67 0 0.34 0 0 Z " fill="#84EDF6" transform="translate(310,223)"/>
<path d="M0 0 C0.66 0 1.32 0 2 0 C3.125 5.75 3.125 5.75 2 8 C4.97 8 7.94 8 11 8 C6.78370866 10.10814567 4.60209225 10.17700355 0 10 C0 6.7 0 3.4 0 0 Z " fill="#3BAAB4" transform="translate(351,289)"/>
<path d="M0 0 C-0.0625 1.8125 -0.0625 1.8125 -1 4 C-4.375 5.625 -4.375 5.625 -8 7 C-8.99 7.66 -9.98 8.32 -11 9 C-8.823805 3.65843044 -5.92169235 0 0 0 Z " fill="#95EBF5" transform="translate(431,170)"/>
<path d="M0 0 C0.87840996 3.09720845 0.99435406 4.90645403 0 8 C-0.66 8 -1.32 8 -2 8 C-1.67 9.65 -1.34 11.3 -1 13 C-2.32 13 -3.64 13 -5 13 C-4.39254603 8.14036821 -2.27241033 4.2594482 0 0 Z " fill="#47ACB4" transform="translate(230,135)"/>
<path d="M0 0 C0.66 0 1.32 0 2 0 C2 1.65 2 3.3 2 5 C2.66 5.33 3.32 5.66 4 6 C3.67 6.33 3.34 6.66 3 7 C2.95936168 8.66617115 2.957279 10.33388095 3 12 C0.59927045 9.11912454 -1.47291037 6.43595166 -3 3 C-2.34 3 -1.68 3 -1 3 C-0.67 3.33 -0.34 3.66 0 4 C0 2.68 0 1.36 0 0 Z " fill="#3AAAB5" transform="translate(236,246)"/>
<path d="M0 0 C2.34290892 2.48434437 2.97982934 3.77731593 3.29296875 7.234375 C3.25816406 8.39453125 3.22335937 9.5546875 3.1875 10.75 C3.16042969 11.92046875 3.13335937 13.0909375 3.10546875 14.296875 C3.07066406 15.18890625 3.03585937 16.0809375 3 17 C4.32 17.33 5.64 17.66 7 18 C5.35 18 3.7 18 2 18 C1.93941406 17.28714844 1.87882812 16.57429688 1.81640625 15.83984375 C1.35191899 10.53039712 0.81924749 5.266591 0 0 Z " fill="#83E9F0" transform="translate(348,282)"/>
<path d="M0 0 C0.99 0.99 1.98 1.98 3 3 C2.67 3.99 2.34 4.98 2 6 C1.0925 5.814375 0.185 5.62875 -0.75 5.4375 C-3.68314324 5.04265379 -5.2644657 5.05308428 -8 6 C-6.8125 4 -6.8125 4 -5 2 C-2.3125 1.75 -2.3125 1.75 0 2 C0 1.34 0 0.68 0 0 Z " fill="#259FAD" transform="translate(259,103)"/>
<path d="M0 0 C2.65816546 3.14146827 4.03819286 5.99247025 5 10 C4.625 13.375 4.625 13.375 4 16 C1.86907616 12.44846026 1.5002025 9.07307746 1 5 C0.68033861 3.33065717 0.35268934 1.6626783 0 0 Z " fill="#4BB1B8" transform="translate(431,145)"/>
<path d="M0 0 C7.83098592 1.95774648 7.83098592 1.95774648 11 5 C11 5.66 11 6.32 11 7 C6.89188572 5.55007731 3.53144334 3.54592427 0 1 C0 0.67 0 0.34 0 0 Z " fill="#62BAC2" transform="translate(263,281)"/>
<path d="M0 0 C0.33 0.66 0.66 1.32 1 2 C-0.99165738 4.98748606 -1.81244309 5.70138632 -4.875 7.25 C-5.55304688 7.60578125 -6.23109375 7.9615625 -6.9296875 8.328125 C-9.36680914 9.11903995 -10.61519919 8.83414558 -13 8 C-12.22076172 7.63648438 -12.22076172 7.63648438 -11.42578125 7.265625 C-7.18728392 5.22863922 -3.56767054 3.12171172 0 0 Z " fill="#48D5DF" transform="translate(355,217)"/>
<path d="M0 0 C2.9719385 1.12451727 5.33440687 2.22293791 8 4 C8 4.99 8 5.98 8 7 C8.66 7.33 9.32 7.66 10 8 C7 8 7 8 5.17578125 6.50390625 C4.56089844 5.86324219 3.94601563 5.22257812 3.3125 4.5625 C2.68988281 3.92441406 2.06726563 3.28632813 1.42578125 2.62890625 C0 1 0 1 0 0 Z " fill="#4EB0B8" transform="translate(246,266)"/>
<path d="M0 0 C-2.475 3.465 -2.475 3.465 -5 7 C-7 3.25 -7 3.25 -7 1 C-4.53721199 -0.231394 -2.7204945 -0.07159196 0 0 Z " fill="#35A8B2" transform="translate(417,259)"/>
<path d="M0 0 C0.33 0.66 0.66 1.32 1 2 C1.66 2 2.32 2 3 2 C3.66 5.96 4.32 9.92 5 14 C3 13 3 13 2.1484375 10.8203125 C1.89320313 9.93085938 1.63796875 9.04140625 1.375 8.125 C1.11460937 7.24070313 0.85421875 6.35640625 0.5859375 5.4453125 C0 3 0 3 0 0 Z " fill="#58B6BA" transform="translate(220,218)"/>
<path d="M0 0 C-1.466708 3.86677565 -3.47201672 5.00985559 -7 7 C-7.33 7.66 -7.66 8.32 -8 9 C-8.66 8.67 -9.32 8.34 -10 8 C-3.56521739 0 -3.56521739 0 0 0 Z " fill="#BFF3F7" transform="translate(318,65)"/>
<path d="M0 0 C2.64 0 5.28 0 8 0 C8.66 1.32 9.32 2.64 10 4 C6.44219804 3.39009109 3.3171411 2.4216319 0 1 C0 0.67 0 0.34 0 0 Z " fill="#45AAB1" transform="translate(278,290)"/>
<path d="M0 0 C4.3177458 0.50797009 8.03302114 1.19682779 12 3 C12 3.33 12 3.66 12 4 C7.12335991 4.34833144 4.22949995 3.41685712 0 1 C0 0.67 0 0.34 0 0 Z " fill="#C1F6F8" transform="translate(205,210)"/>
<path d="M0 0 C-1.53781946 3.07563891 -3.91244223 3.70322574 -7 5 C-7.99 4.67 -8.98 4.34 -10 4 C-8.68 3.67 -7.36 3.34 -6 3 C-6 2.01 -6 1.02 -6 0 C-3 -1 -3 -1 0 0 Z " fill="#50B0B9" transform="translate(388,285)"/>
<path d="M0 0 C1.65 0 3.3 0 5 0 C4.04578192 1.14926266 3.08647955 2.29430541 2.125 3.4375 C1.59132813 4.07558594 1.05765625 4.71367187 0.5078125 5.37109375 C-1 7 -1 7 -3 8 C-2.67 6.68 -2.34 5.36 -2 4 C-1.34 4 -0.68 4 0 4 C0 2.68 0 1.36 0 0 Z " fill="#58B7C0" transform="translate(404,268)"/>
<path d="M0 0 C2.97 0.495 2.97 0.495 6 1 C6.33 2.65 6.66 4.3 7 6 C6.01 6 5.02 6 4 6 C1.8125 3 1.8125 3 0 0 Z " fill="#41AAB0" transform="translate(239,258)"/>
<path d="M0 0 C4.21878192 -0.19622241 7.17010894 0.19769832 11 2 C11 2.33 11 2.66 11 3 C3.57142857 3.28571429 3.57142857 3.28571429 0 1 C0 0.67 0 0.34 0 0 Z " fill="#C7F2F3" transform="translate(440,166)"/>
<path d="M0 0 C0.66 0 1.32 0 2 0 C0.14285714 7.57142857 0.14285714 7.57142857 -3 10 C-2.67 7.69 -2.34 5.38 -2 3 C-1.34 3 -0.68 3 0 3 C0 2.01 0 1.02 0 0 Z " fill="#56B4B8" transform="translate(430,233)"/>
<path d="M0 0 C0.99 1.32 1.98 2.64 3 4 C2.38125 4.12375 1.7625 4.2475 1.125 4.375 C-1.19120832 4.87197356 -1.19120832 4.87197356 -3 7 C-3.33 5.68 -3.66 4.36 -4 3 C-2.68 2.01 -1.36 1.02 0 0 Z " fill="#23A8B2" transform="translate(229,230)"/>
<path d="M0 0 C2.79872437 2.52788007 4.45773019 4.20411134 5 8 C4.34 8 3.68 8 3 8 C3 7.34 3 6.68 3 6 C2.01 6 1.02 6 0 6 C0 4.02 0 2.04 0 0 Z " fill="#4CB0B8" transform="translate(421,127)"/>
<path d="M0 0 C2.1875 0.3125 2.1875 0.3125 4 1 C2.35 2.32 0.7 3.64 -1 5 C-1.66 4.34 -2.32 3.68 -3 3 C-1.75 1.4375 -1.75 1.4375 0 0 Z " fill="#2FA4A9" transform="translate(276,90)"/>
<path d="M0 0 C-3.50538557 1.96301592 -7.13351728 2.95902388 -11 4 C-11 3.34 -11 2.68 -11 2 C-7.17010894 0.19769832 -4.21878192 -0.19622241 0 0 Z " fill="#5BB7BF" transform="translate(373,293)"/>
<path d="M0 0 C0.99 0.33 1.98 0.66 3 1 C1.02 3.97 1.02 3.97 -1 7 C-1.66 5.68 -2.32 4.36 -3 3 C-2.01 3 -1.02 3 0 3 C0 2.01 0 1.02 0 0 Z " fill="#4CB1B6" transform="translate(421,249)"/>
<path d="M0 0 C3.26460973 1.80412643 4.88929795 2.83394693 7 6 C5.35 5.67 3.7 5.34 2 5 C2 4.34 2 3.68 2 3 C1.34 3 0.68 3 0 3 C0 2.01 0 1.02 0 0 Z " fill="#C3F1F4" transform="translate(451,169)"/>
<path d="M0 0 C1.65 1.65 3.3 3.3 5 5 C4.67 5.66 4.34 6.32 4 7 C3.01 7 2.02 7 1 7 C0.67 4.69 0.34 2.38 0 0 Z " fill="#5DB5BD" transform="translate(416,120)"/>
<path d="M0 0 C3.93673644 1.31224548 6.22719294 2.91910327 9 6 C2.35384615 4.52307692 2.35384615 4.52307692 0.5625 1.875 C0.376875 1.25625 0.19125 0.6375 0 0 Z " fill="#75C1CB" transform="translate(385,93)"/>
<path d="M0 0 C3.125 -0.1875 3.125 -0.1875 6 0 C6.33 0.66 6.66 1.32 7 2 C2.545 2.495 2.545 2.495 -2 3 C-1.34 2.01 -0.68 1.02 0 0 Z " fill="#0E94A1" transform="translate(356,83)"/>
</svg>
