<?xml version="1.0" encoding="UTF-8"?>
<svg version="1.1" xmlns="http://www.w3.org/2000/svg" width="348" height="347">
<path d="M0 0 C114.84 0 229.68 0 348 0 C348 114.51 348 229.02 348 347 C233.16 347 118.32 347 0 347 C0 232.49 0 117.98 0 0 Z " fill="#F6F6F7" transform="translate(0,0)"/>
<path d="M0 0 C3.80241571 1.52096628 7.36474615 3.14010268 11 5 C11 5.66 11 6.32 11 7 C11.86625 7.2475 12.7325 7.495 13.625 7.75 C17.21060064 9.07800024 19.96327987 10.68630848 23 13 C23 13.66 23 14.32 23 15 C24.08667969 15.40798828 24.08667969 15.40798828 25.1953125 15.82421875 C31.19176258 18.33805089 36.69758191 21.98546853 41.9375 25.8125 C44.83381086 28.10798465 44.83381086 28.10798465 48 29 C48 29.66 48 30.32 48 31 C48.78375 31.103125 49.5675 31.20625 50.375 31.3125 C53 32 53 32 55 35 C57.05003955 36.19232613 57.05003955 36.19232613 59 37 C58.38746476 42.2269674 57.2354117 46.99622078 55.625 52 C55.41617188 52.67289063 55.20734375 53.34578125 54.9921875 54.0390625 C53.58368366 58.48787339 51.86947165 62.71989386 50 67 C47.16673318 74.36649373 44.72254399 81.78972925 42.5625 89.375 C40.75715517 95.71443336 38.61782911 101.83339491 36.23291016 107.97558594 C34.11887762 113.49623867 32.44087581 119.09253989 30.82641602 124.77636719 C29.18405803 130.51175312 27.22550641 136.09579054 25.17578125 141.69921875 C23.70288341 145.83409807 22.43966221 150.01621578 21.17578125 154.21875 C19.33909545 160.12543389 17.35315342 165.9819386 15.37353516 171.84204102 C14.93533447 173.14419556 14.93533447 173.14419556 14.48828125 174.47265625 C14.22571533 175.24875244 13.96314941 176.02484863 13.69262695 176.82446289 C13.04163129 178.86923636 12.49478116 180.91253994 12 183 C11.34 183 10.68 183 10 183 C10.061875 183.70125 10.12375 184.4025 10.1875 185.125 C9.95743899 188.65260212 8.70799432 190.93984351 7 194 C11.16592864 191.86073935 12.65634086 189.96619239 15 186 C16.64827222 184.23522687 18.37301445 182.56862049 20.109375 180.890625 C22.01683667 178.98316333 23.75657566 176.99505485 25.5 174.9375 C28.26908843 171.71210581 31.20049845 168.97488796 34.51953125 166.32421875 C36.26426365 164.87482394 36.26426365 164.87482394 38 162 C38.66 162 39.32 162 40 162 C40.165 161.319375 40.33 160.63875 40.5 159.9375 C42.34120538 156.33180613 44.64254202 154.51829824 47.71875 151.94921875 C52.97987832 147.45383684 57.75453152 142.46265461 62.26953125 137.2265625 C66.03584787 132.89411052 70.04223382 128.84509987 74.125 124.8125 C74.81464844 124.12736328 75.50429687 123.44222656 76.21484375 122.73632812 C79.07309547 119.89720429 81.93607582 117.06303387 84.8046875 114.234375 C86.64489254 112.3614261 88.34102889 110.46879701 90 108.4375 C91.79159496 106.30683081 93.34627516 104.72973646 95.5625 103 C98.23273433 100.8090385 99.89264827 98.5409427 101.7890625 95.68359375 C103.0649133 93.90974958 104.35129268 92.434986 106 91 C106.66 91 107.32 91 108 91 C108.99 89.02 108.99 89.02 110 87 C110.66 87 111.32 87 112 87 C112 86.34 112 85.68 112 85 C112.66 85 113.32 85 114 85 C114 84.34 114 83.68 114 83 C114.66 83 115.32 83 116 83 C116 82.34 116 81.68 116 81 C117.61974559 79.28769752 119.2958946 77.62836738 121 76 C122.66808934 74.33475723 124.33453367 72.66786614 126 71 C127.01376651 69.99683324 128.02810862 68.99424788 129.04296875 67.9921875 C130.09116859 66.95314796 131.13934545 65.91408523 132.1875 64.875 C132.98704102 64.08802734 132.98704102 64.08802734 133.80273438 63.28515625 C136.1528034 60.94986754 138.15549885 58.76675172 140 56 C140.66 56 141.32 56 142 56 C142.26192139 55.41138184 142.52384277 54.82276367 142.79370117 54.21630859 C144.06463851 51.88124096 145.39906807 50.38614227 147.30078125 48.5390625 C147.94853516 47.90226562 148.59628906 47.26546875 149.26367188 46.609375 C150.2778418 45.62710938 150.2778418 45.62710938 151.3125 44.625 C156.81744657 39.29020282 156.81744657 39.29020282 161.85546875 33.5234375 C162.56316406 32.69070312 163.27085937 31.85796875 164 31 C164.66 31 165.32 31 166 31 C166.3403125 30.1646875 166.3403125 30.1646875 166.6875 29.3125 C168.91585631 25.38634841 172.13407376 22.66454805 175.6875 19.9375 C178.06464213 18.230698 178.06464213 18.230698 178.875 16.0625 C180.16633031 13.6950611 181.36999587 12.89226937 183.5703125 11.37109375 C184.20984863 10.92564209 184.84938477 10.48019043 185.50830078 10.02124023 C186.00056152 9.68423096 186.49282227 9.34722168 187 9 C187.23176678 21.15204229 187.40941485 33.30355848 187.51812172 45.45736122 C187.57029883 51.10111201 187.64105498 56.74335031 187.75439453 62.38623047 C187.86310656 67.83284713 187.92285227 73.27801005 187.94877243 78.7256279 C187.96724107 80.80305247 188.00330938 82.88039794 188.05730057 84.95720291 C188.46420038 101.25820245 188.46420038 101.25820245 184.8494873 105.55822754 C182.24558666 107.14740709 179.90371623 108.09955414 177 109 C175.6343102 109.72451334 174.28118911 110.47425029 172.953125 111.265625 C171.72016808 111.92972288 170.48582083 112.59124689 169.25 113.25 C168.62996094 113.58773437 168.00992188 113.92546875 167.37109375 114.2734375 C163.66647769 116.25443219 160.02229548 117.79084369 156 119 C156 119.66 156 120.32 156 121 C155.01 121.391875 154.02 121.78375 153 122.1875 C150.30180546 123.34080383 147.8911785 124.64424496 145.4375 126.25 C141.76346573 128.62773758 137.92649156 130.58049694 134 132.5 C130.22729671 134.3466052 126.51869921 136.19464534 123 138.5 C119.35118588 140.88208607 115.51354291 142.85644508 111.625 144.8125 C111.00496094 145.12703125 110.38492188 145.4415625 109.74609375 145.765625 C105.24755208 148 105.24755208 148 103 148 C103 148.66 103 149.32 103 150 C100.3871149 151.42521005 97.7740721 152.85011816 95.16015625 154.2734375 C93.10225313 155.39778012 91.04739126 156.52771303 88.99609375 157.6640625 C88.04863281 158.18742188 87.10117188 158.71078125 86.125 159.25 C85.26132813 159.72953125 84.39765625 160.2090625 83.5078125 160.703125 C81 162 81 162 78.46484375 163 C75.91853751 164.03304976 73.76104115 165.28746649 71.4375 166.75 C56.92573267 175.60500645 56.92573267 175.60500645 50 177 C50 177.66 50 178.32 50 179 C49.0821875 179.44730469 48.164375 179.89460937 47.21875 180.35546875 C38.2568382 184.7528287 38.2568382 184.7528287 29.74609375 189.95703125 C28 191 28 191 25.84765625 191.82421875 C21.70398582 193.53511697 17.89382246 195.78760087 14 198 C12.41829104 198.89869827 10.83499908 199.79461718 9.25 200.6875 C8.55390625 201.08324219 7.8578125 201.47898437 7.140625 201.88671875 C4.83694552 203.08480023 2.4108838 204.03564648 0 205 C0 137.35 0 69.7 0 0 Z " fill="#13214C" transform="translate(87,122)"/>
<path d="M0 0 C7.79432102 3.11772841 15.08845881 7.10002895 22.47631836 11.05908203 C26.94746667 13.45129596 31.44562181 15.76928415 36 18 C36 18.66 36 19.32 36 20 C36.82242188 20.2475 37.64484375 20.495 38.4921875 20.75 C42.55717886 22.19854926 46.28975613 24.03612744 50.125 26 C50.82753906 26.35578125 51.53007812 26.7115625 52.25390625 27.078125 C53.59230093 27.7561775 54.92991828 28.43576742 56.26660156 29.1171875 C58.1728372 30.08802525 60.08464534 31.04728473 62 32 C62 32.66 62 33.32 62 34 C62.81984375 34.24234375 63.6396875 34.4846875 64.484375 34.734375 C68.6330084 36.22788303 72.37593526 38.16090356 76.25 40.25 C77.00434326 40.65259033 77.75868652 41.05518066 78.53588867 41.4699707 C83.32159936 44.04198817 87.98960937 46.75833169 92.6171875 49.60546875 C96.32013721 51.77260489 100.1709837 53.62305663 104.01953125 55.515625 C111.01394903 58.9990834 117.797431 62.88575086 124.62597656 66.68066406 C127.74278407 68.41279362 130.86017071 70.14388005 133.97753906 71.875 C135.61964511 72.78842645 137.25940003 73.70607872 138.8984375 74.625 C143.14743268 76.98406357 147.43752428 79.22720596 151.796875 81.375 C152.67166504 81.80683594 153.54645508 82.23867187 154.44775391 82.68359375 C156.18142423 83.53604226 157.91791991 84.38277838 159.65771484 85.22265625 C164.72915757 87.7118552 169.42723887 90.47259004 174.0793457 93.68017578 C176.32705803 95.22474586 178.64193237 96.63079944 181 98 C180.67 98.66 180.34 99.32 180 100 C179.34 100 178.68 100 178 100 C178 100.66 178 101.32 178 102 C176.68 102.33 175.36 102.66 174 103 C174 103.66 174 104.32 174 105 C173.01 105.53625 172.02 106.0725 171 106.625 C167.30568972 108.71668688 164.02040802 111.19205336 160.69921875 113.828125 C159 115 159 115 157 115 C157 115.66 157 116.32 157 117 C152.61538462 120 152.61538462 120 150 120 C150 120.66 150 121.32 150 122 C144.58823529 126 144.58823529 126 142 126 C142 126.66 142 127.32 142 128 C135.375 131.875 135.375 131.875 132 133 C132 133.66 132 134.32 132 135 C130.27734375 136.54296875 130.27734375 136.54296875 127.9375 138.1875 C127.18339844 138.73792969 126.42929688 139.28835937 125.65234375 139.85546875 C121.96121936 141.44825144 119.88405886 140.96587707 116 140 C113.2404228 138.87213666 110.62778229 137.52950432 108 136.125 C103.06429187 133.54368138 98.14346012 131.1543879 93 129 C77.71255895 122.32030487 62.83497108 114.94883788 48.109375 107.11621094 C45.1076941 105.52782146 42.09118886 103.97389799 39.0625 102.4375 C38.16660156 101.98246094 37.27070312 101.52742188 36.34765625 101.05859375 C34.22500367 100.10145756 32.27408743 99.46959114 30 99 C30 98.34 30 97.68 30 97 C29.31164062 97.07605469 28.62328125 97.15210937 27.9140625 97.23046875 C24.11460219 96.92997524 21.53481229 95.28119737 18.375 93.3125 C12.31527762 89.63090666 6.60468477 87.00212944 0 84 C0 56.28 0 28.56 0 0 Z " fill="#13214D" transform="translate(86,24)"/>
<path d="M0 0 C5.94 0 11.88 0 18 0 C18 114.51 18 229.02 18 347 C-96.84 347 -211.68 347 -330 347 C-330 341.39 -330 335.78 -330 330 C-325.05 330 -320.1 330 -315 330 C-315 334.95 -315 339.9 -315 345 C-310.05 345 -305.1 345 -300 345 C-300 340.05 -300 335.1 -300 330 C-295.05 330 -290.1 330 -285 330 C-285 334.95 -285 339.9 -285 345 C-280.05 345 -275.1 345 -270 345 C-270 340.05 -270 335.1 -270 330 C-265.05 330 -260.1 330 -255 330 C-255 334.95 -255 339.9 -255 345 C-250.05 345 -245.1 345 -240 345 C-240 340.05 -240 335.1 -240 330 C-235.05 330 -230.1 330 -225 330 C-225 334.95 -225 339.9 -225 345 C-220.05 345 -215.1 345 -210 345 C-210 340.05 -210 335.1 -210 330 C-205.05 330 -200.1 330 -195 330 C-195 334.95 -195 339.9 -195 345 C-190.05 345 -185.1 345 -180 345 C-180 340.05 -180 335.1 -180 330 C-175.05 330 -170.1 330 -165 330 C-165 334.95 -165 339.9 -165 345 C-160.05 345 -155.1 345 -150 345 C-150 340.05 -150 335.1 -150 330 C-145.05 330 -140.1 330 -135 330 C-135 334.95 -135 339.9 -135 345 C-130.05 345 -125.1 345 -120 345 C-120 340.05 -120 335.1 -120 330 C-115.05 330 -110.1 330 -105 330 C-105 334.95 -105 339.9 -105 345 C-100.05 345 -95.1 345 -90 345 C-90 340.05 -90 335.1 -90 330 C-85.05 330 -80.1 330 -75 330 C-75 334.95 -75 339.9 -75 345 C-70.05 345 -65.1 345 -60 345 C-60 340.05 -60 335.1 -60 330 C-55.05 330 -50.1 330 -45 330 C-45 334.95 -45 339.9 -45 345 C-40.05 345 -35.1 345 -30 345 C-30 340.05 -30 335.1 -30 330 C-25.05 330 -20.1 330 -15 330 C-15 334.95 -15 339.9 -15 345 C-10.05 345 -5.1 345 0 345 C0 340.05 0 335.1 0 330 C4.95 330 9.9 330 15 330 C15 325.05 15 320.1 15 315 C10.05 315 5.1 315 0 315 C0 310.05 0 305.1 0 300 C4.95 300 9.9 300 15 300 C15 295.05 15 290.1 15 285 C10.05 285 5.1 285 0 285 C0 280.05 0 275.1 0 270 C4.95 270 9.9 270 15 270 C15 265.05 15 260.1 15 255 C10.05 255 5.1 255 0 255 C0 250.05 0 245.1 0 240 C4.95 240 9.9 240 15 240 C15 235.05 15 230.1 15 225 C10.05 225 5.1 225 0 225 C0 220.05 0 215.1 0 210 C4.95 210 9.9 210 15 210 C15 205.05 15 200.1 15 195 C10.05 195 5.1 195 0 195 C0 190.05 0 185.1 0 180 C4.95 180 9.9 180 15 180 C15 175.05 15 170.1 15 165 C10.05 165 5.1 165 0 165 C0 160.05 0 155.1 0 150 C4.95 150 9.9 150 15 150 C15 145.05 15 140.1 15 135 C10.05 135 5.1 135 0 135 C0 130.05 0 125.1 0 120 C4.95 120 9.9 120 15 120 C15 115.05 15 110.1 15 105 C10.05 105 5.1 105 0 105 C0 100.05 0 95.1 0 90 C4.95 90 9.9 90 15 90 C15 85.05 15 80.1 15 75 C10.05 75 5.1 75 0 75 C0 70.05 0 65.1 0 60 C4.95 60 9.9 60 15 60 C15 55.05 15 50.1 15 45 C10.05 45 5.1 45 0 45 C0 40.05 0 35.1 0 30 C4.95 30 9.9 30 15 30 C15 25.05 15 20.1 15 15 C10.05 15 5.1 15 0 15 C0 10.05 0 5.1 0 0 Z " fill="#FDFDFD" transform="translate(330,0)"/>
<path d="M0 0 C2.12574882 4.25149763 2.23663392 7.17202122 2.125 11.75 C2.08375 14.1425 2.0425 16.535 2 19 C9.92 19 17.84 19 26 19 C26 33.85 26 48.7 26 64 C21.05 64 16.1 64 11 64 C11 59.05 11 54.1 11 49 C7.7 49 4.4 49 1 49 C1 63.85 1 78.7 1 94 C4.3 94 7.6 94 11 94 C11 98.95 11 103.9 11 109 C6.05 109 1.1 109 -4 109 C-3.96744792 106.20052083 -3.93489583 103.40104167 -3.90234375 100.6015625 C-3.81993398 98.01567547 -3.81993398 98.01567547 -5 96 C-3.02 95.01 -3.02 95.01 -1 94 C-0.67 62.98 -0.34 31.96 0 0 Z " fill="#FFFFFF" transform="translate(274,131)"/>
<path d="M0 0 C4.95 0 9.9 0 15 0 C13.42134156 3.15731688 12.5886285 4.66599489 10.25 7.015625 C9.7240625 7.54414063 9.198125 8.07265625 8.65625 8.6171875 C8.1096875 9.15601563 7.563125 9.69484375 7 10.25 C6.4534375 10.80429688 5.906875 11.35859375 5.34375 11.9296875 C1.2533867 16 1.2533867 16 -1 16 C-1.28875 16.598125 -1.5775 17.19625 -1.875 17.8125 C-3 20 -3 20 -5 23 C-5.66 23 -6.32 23 -7 23 C-7 23.66 -7 24.32 -7 25 C-7.66 25 -8.32 25 -9 25 C-9 25.66 -9 26.32 -9 27 C-9.66 27 -10.32 27 -11 27 C-11 27.66 -11 28.32 -11 29 C-12.875 31.125 -12.875 31.125 -15 33 C-15.66 33 -16.32 33 -17 33 C-17.33 33.99 -17.66 34.98 -18 36 C-18.66 36 -19.32 36 -20 36 C-20.268125 36.58265625 -20.53625 37.1653125 -20.8125 37.765625 C-22.01480991 40.02786601 -23.33825913 41.80576318 -25 43.75 C-25.515625 44.36359375 -26.03125 44.9771875 -26.5625 45.609375 C-28 47 -28 47 -30 47 C-30.26425781 47.60328125 -30.52851563 48.2065625 -30.80078125 48.828125 C-32.05755074 51.1042287 -33.15440162 52.16818433 -35.1875 53.75 C-37.8161977 55.8937923 -40.05338336 58.11122015 -42.23828125 60.703125 C-46.58034595 65.73703496 -51.29613532 70.3479335 -56.0390625 75 C-60.00049191 78.91554413 -63.75216355 82.93319816 -67.38818359 87.15234375 C-69.60921017 89.69834938 -71.93247471 92.10146751 -74.3125 94.5 C-75.15425781 95.3559375 -75.99601563 96.211875 -76.86328125 97.09375 C-79 99 -79 99 -81 99 C-81.3403125 100.175625 -81.3403125 100.175625 -81.6875 101.375 C-83 104 -83 104 -85.5 105.375 C-88 106 -88 106 -90 105 C-90 100.05 -90 95.1 -90 90 C-85.05 90 -80.1 90 -75 90 C-75 85.05 -75 80.1 -75 75 C-70.05 75 -65.1 75 -60 75 C-60 70.05 -60 65.1 -60 60 C-55.05 60 -50.1 60 -45 60 C-45 55.05 -45 50.1 -45 45 C-40.05 45 -35.1 45 -30 45 C-30 40.05 -30 35.1 -30 30 C-25.05 30 -20.1 30 -15 30 C-15 25.05 -15 20.1 -15 15 C-10.05 15 -5.1 15 0 15 C0 10.05 0 5.1 0 0 Z " fill="#FAFAFA" transform="translate(210,180)"/>
<path d="M0 0 C5.31716553 1.29869388 9.47760008 3.20766862 14.125 6.0625 C17.99621058 8.43477113 21.41041165 10.43712596 26 11 C26 11.66 26 12.32 26 13 C26.79664062 13.07089844 27.59328125 13.14179687 28.4140625 13.21484375 C33.1673443 14.25559499 37.07963621 16.32575952 41.375 18.5625 C42.20644531 18.98724609 43.03789062 19.41199219 43.89453125 19.84960938 C45.93352599 20.89254346 47.9683849 21.94278292 50 23 C49.34 23.66 48.68 24.32 48 25 C47.01 25 46.02 25 45 25 C45 29.95 45 34.9 45 40 C44.01 40.33 43.02 40.66 42 41 C40.2734375 39.9609375 40.2734375 39.9609375 38.375 38.375 C34.16345695 35.03213618 29.73473159 32.52038944 25 30 C21.9375 28.3125 21.9375 28.3125 20 27 C20 26.34 20 25.68 20 25 C19.319375 24.7525 18.63875 24.505 17.9375 24.25 C14.43134917 22.75802092 11.28379632 20.93164489 8 19 C8 18.34 8 17.68 8 17 C7.113125 16.731875 6.22625 16.46375 5.3125 16.1875 C2 15 2 15 -3 12 C-3 79.65 -3 147.3 -3 217 C-3.33 217 -3.66 217 -4 217 C-4 149.02 -4 81.04 -4 11 C-3.01 10.67 -2.02 10.34 -1 10 C-0.67 6.7 -0.34 3.4 0 0 Z " fill="#DDDEE2" transform="translate(90,110)"/>
<path d="M0 0 C2.80163026 4.2024454 2.14489712 7.00104935 2 12 C6.95 12 11.9 12 17 12 C17 16.95 17 21.9 17 27 C12.05 27 7.1 27 2 27 C2 31.95 2 36.9 2 42 C3.32 42.66 4.64 43.32 6 44 C5.14277344 44.7734375 4.28554687 45.546875 3.40234375 46.34375 C-2.22885602 51.46055341 -7.76240154 56.51170133 -12.6328125 62.37890625 C-14 64 -14 64 -15.59375 65.5546875 C-17.17908608 67.05123444 -17.17908608 67.05123444 -18.375 69.5625 C-20.29492093 72.44238139 -21.73894457 73.03049703 -25 74 C-24.525625 72.948125 -24.05125 71.89625 -23.5625 70.8125 C-22.30676259 67.89824149 -21.47765619 65.15253086 -21 62 C-20.34 62 -19.68 62 -19 62 C-18.91492188 61.10023438 -18.82984375 60.20046875 -18.7421875 59.2734375 C-17.92037158 53.53802747 -15.92989905 48.11085803 -14.125 42.625 C-13.77308594 41.53960937 -13.42117187 40.45421875 -13.05859375 39.3359375 C-11.06962099 33.21374626 -9.04273561 27.10442336 -7 21 C-6.39172634 19.17584818 -5.783664 17.35162588 -5.17578125 15.52734375 C-3.45052083 10.3515625 -1.72526042 5.17578125 0 0 Z " fill="#F1F1F1" transform="translate(118,243)"/>
<path d="M0 0 C4.42271222 1.73490468 8.45393038 3.98413645 12.59375 6.29882812 C16.41919061 8.3972878 20.20494998 10.05691678 24.30957031 11.52905273 C27.83904709 12.8868382 31.16582525 14.63927269 34.5234375 16.37109375 C38.73871996 18.53226867 42.89250819 20.64338626 47.3359375 22.30859375 C44.3359375 24.30859375 44.3359375 24.30859375 40.3359375 24.30859375 C40.3359375 29.25859375 40.3359375 34.20859375 40.3359375 39.30859375 C35.3859375 39.30859375 30.4359375 39.30859375 25.3359375 39.30859375 C25.3359375 34.35859375 25.3359375 29.40859375 25.3359375 24.30859375 C20.3859375 24.30859375 15.4359375 24.30859375 10.3359375 24.30859375 C10.3359375 19.35859375 10.3359375 14.40859375 10.3359375 9.30859375 C5.3859375 9.30859375 0.4359375 9.30859375 -4.6640625 9.30859375 C-4.6640625 6.33859375 -4.6640625 3.36859375 -4.6640625 0.30859375 C-2.6640625 -0.69140625 -2.6640625 -0.69140625 0 0 Z " fill="#EFEFEF" transform="translate(154.6640625,140.69140625)"/>
<path d="M0 0 C2.80163026 4.2024454 2.14489712 7.00104935 2 12 C6.95 12 11.9 12 17 12 C17 16.95 17 21.9 17 27 C12.05 27 7.1 27 2 27 C2 31.95 2 36.9 2 42 C-10.75 42.125 -10.75 42.125 -13 41 C-12.33578667 37.24113688 -11.30878449 33.77352024 -10.0390625 30.17578125 C-9.64976563 29.06396484 -9.26046875 27.95214844 -8.859375 26.80664062 C-8.45203125 25.65357422 -8.0446875 24.50050781 -7.625 23.3125 C-4.90248165 15.58845198 -2.26040694 7.87341546 0 0 Z " fill="#F2F2F2" transform="translate(133,198)"/>
<path d="M0 0 C0.66 0.33 1.32 0.66 2 1 C1.67 1.66 1.34 2.32 1 3 C0.92907158 5.2072923 0.91584975 7.41667452 0.9375 9.625 C0.958125 11.72875 0.97875 13.8325 1 16 C-3.95 16 -8.9 16 -14 16 C-14 20.95 -14 25.9 -14 31 C-18.95 31 -23.9 31 -29 31 C-29.28092977 18.07723069 -29.28092977 18.07723069 -27 15 C-24.671875 13.578125 -24.671875 13.578125 -21.75 12.25 C-16.81322462 9.91026767 -12.04466634 7.40941273 -7.3125 4.6875 C-6.70051758 4.3378418 -6.08853516 3.98818359 -5.45800781 3.62792969 C-2.55788664 2.04945601 -2.55788664 2.04945601 0 0 Z " fill="#ECECEC" transform="translate(164,284)"/>
<path d="M0 0 C4.95 0 9.9 0 15 0 C15 4.95 15 9.9 15 15 C19.95 15 24.9 15 30 15 C30.125 26.75 30.125 26.75 29 29 C25.599337 27.72699258 22.62798462 26.25167138 19.5625 24.3125 C13.2536152 20.4469957 6.64555577 17.23659632 0 14 C0 9.38 0 4.76 0 0 Z " fill="#EBEBEB" transform="translate(150,45)"/>
<path d="M0 0 C1.65 0 3.3 0 5 0 C5.495 6.93 5.495 6.93 6 14 C2.30786078 14.9230348 -0.48149954 15.10346196 -4.25 15.0625 C-5.32765625 15.05347656 -6.4053125 15.04445312 -7.515625 15.03515625 C-8.33546875 15.02355469 -9.1553125 15.01195312 -10 15 C-9.97679687 15.91523438 -9.95359375 16.83046875 -9.9296875 17.7734375 C-9.90261719 19.55621094 -9.90261719 19.55621094 -9.875 21.375 C-9.85179687 22.55835938 -9.82859375 23.74171875 -9.8046875 24.9609375 C-10 28 -10 28 -12 30 C-15.0390625 30.1953125 -15.0390625 30.1953125 -18.625 30.125 C-19.81351563 30.10695312 -21.00203125 30.08890625 -22.2265625 30.0703125 C-23.14179688 30.04710937 -24.05703125 30.02390625 -25 30 C-24.979375 29.05125 -24.95875 28.1025 -24.9375 27.125 C-24.77448174 24.09333717 -24.77448174 24.09333717 -26 22 C-24.68 21.67 -23.36 21.34 -22 21 C-22 20.34 -22 19.68 -22 19 C-19.76360773 17.19788734 -17.53217136 15.52435503 -15.1875 13.875 C-14.22360352 13.17310547 -14.22360352 13.17310547 -13.24023438 12.45703125 C-8.37720937 9 -8.37720937 9 -5 9 C-5 8.34 -5 7.68 -5 7 C-3.68 6.67 -2.36 6.34 -1 6 C-1 5.34 -1 4.68 -1 4 C-0.34 3.34 0.32 2.68 1 2 C0.67 1.34 0.34 0.68 0 0 Z " fill="#EAEAEB" transform="translate(265,120)"/>
<path d="M0 0 C4.95 0 9.9 0 15 0 C15 4.95 15 9.9 15 15 C19.95 15 24.9 15 30 15 C30 18.3 30 21.6 30 25 C23.34572596 23.82571635 18.15744005 21.09999282 12.27734375 17.8203125 C7.92184324 15.4011668 3.47331484 13.19121743 -1 11 C-0.67 10.34 -0.34 9.68 0 9 C0.06950541 7.45976004 0.08452357 5.91665012 0.0625 4.375 C0.041875 2.93125 0.02125 1.4875 0 0 Z " fill="#EAEAEB" transform="translate(90,15)"/>
<path d="M0 0 C0.33 0 0.66 0 1 0 C1 31.02 1 62.04 1 94 C4.3 94 7.6 94 11 94 C11 98.95 11 103.9 11 109 C6.05 109 1.1 109 -4 109 C-3.96744792 106.20052083 -3.93489583 103.40104167 -3.90234375 100.6015625 C-3.81993398 98.01567547 -3.81993398 98.01567547 -5 96 C-3.02 95.01 -3.02 95.01 -1 94 C-0.67 62.98 -0.34 31.96 0 0 Z " fill="#DEDFE2" transform="translate(274,131)"/>
<path d="M0 0 C0.66 0.33 1.32 0.66 2 1 C1.67 1.66 1.34 2.32 1 3 C0.93049459 4.54023996 0.91547643 6.08334988 0.9375 7.625 C0.958125 9.06875 0.97875 10.5125 1 12 C-3.95 12 -8.9 12 -14 12 C-14 16.95 -14 21.9 -14 27 C-18.95 27 -23.9 27 -29 27 C-29.36842105 19.50877193 -29.36842105 19.50877193 -27.6875 17.1875 C-27.130625 16.795625 -26.57375 16.40375 -26 16 C-25.55906006 15.52949219 -25.11812012 15.05898438 -24.66381836 14.57421875 C-22.79224709 12.80343496 -20.98555227 11.79251929 -18.69140625 10.625 C-17.44713867 9.98304688 -17.44713867 9.98304688 -16.17773438 9.328125 C-15.31470703 8.88984375 -14.45167969 8.4515625 -13.5625 8 C-11.85376686 7.12832818 -10.14667429 6.25343133 -8.44140625 5.375 C-7.30747437 4.79878906 -7.30747437 4.79878906 -6.15063477 4.2109375 C-3.94379756 2.96835462 -1.99051568 1.56194115 0 0 Z " fill="#EBEBEC" transform="translate(239,243)"/>
<path d="M0 0 C4.95 0 9.9 0 15 0 C15 4.95 15 9.9 15 15 C19.95 15 24.9 15 30 15 C30 17.64 30 20.28 30 23 C23.53166454 22.14556865 18.52417701 19.59338465 12.75 16.6875 C11.74453125 16.20087891 10.7390625 15.71425781 9.703125 15.21289062 C8.7440625 14.73400391 7.785 14.25511719 6.796875 13.76171875 C5.92385742 13.32819092 5.05083984 12.89466309 4.15136719 12.44799805 C1.6348636 10.75424149 0.89309898 9.88887004 0 7 C0 4.69 0 2.38 0 0 Z " fill="#ECECEC" transform="translate(225,90)"/>
<path d="M0 0 C0.66 0.33 1.32 0.66 2 1 C1.67 1.33 1.34 1.66 1 2 C5.29 2.33 9.58 2.66 14 3 C14.495 10.92 14.495 10.92 15 19 C9.72 18.67 4.44 18.34 -1 18 C-1.20625 15.40125 -1.4125 12.8025 -1.625 10.125 C-1.69541504 9.30789551 -1.76583008 8.49079102 -1.83837891 7.64892578 C-1.97128855 5.76987463 -1.98805259 3.8837079 -2 2 C-1.34 1.34 -0.68 0.68 0 0 Z " fill="#EDEDED" transform="translate(211,162)"/>
<path d="M0 0 C0.33 0.66 0.66 1.32 1 2 C5.29 2 9.58 2 14 2 C14 6.95 14 11.9 14 17 C9.05 17 4.1 17 -1 17 C-2.25 3.375 -2.25 3.375 0 0 Z " fill="#FEFEFE" transform="translate(121,238)"/>
<path d="M0 0 C4.95 0 9.9 0 15 0 C15 4.95 15 9.9 15 15 C10.38 15.33 5.76 15.66 1 16 C-1.8558224 10.2883552 -0.68535982 6.3053103 0 0 Z " fill="#FDFDFD" transform="translate(180,60)"/>
<path d="M0 0 C0 4.95 0 9.9 0 15 C-4.95 15 -9.9 15 -15 15 C-15 10.05 -15 5.1 -15 0 C-9.67743736 -1.33064066 -5.45112444 -0.58404905 0 0 Z " fill="#FCFCFC" transform="translate(210,165)"/>
<path d="M0 0 C2.77456387 1.5147619 5.39650009 3.20926783 8 5 C7.01 5.495 7.01 5.495 6 6 C6 8.97 6 11.94 6 15 C-0.435 15.495 -0.435 15.495 -7 16 C-6.34 16.66 -5.68 17.32 -5 18 C-6.32 18 -7.64 18 -9 18 C-9 17.34 -9 16.68 -9 16 C-9.66 16 -10.32 16 -11 16 C-10.67 15.34 -10.34 14.68 -10 14 C-9.76970044 11.62876754 -9.58880058 9.25258057 -9.4375 6.875 C-9.35371094 5.59367188 -9.26992187 4.31234375 -9.18359375 2.9921875 C-9.09271484 1.51105469 -9.09271484 1.51105469 -9 0 C-5.32312584 -1.22562472 -3.74848715 -0.99016642 0 0 Z " fill="#FCFCFC" transform="translate(144,135)"/>
<path d="M0 0 C4.69848693 0.03380206 9.31624605 0.57420419 14 1 C14 5.95 14 10.9 14 16 C9.05 16 4.1 16 -1 16 C-1.9765625 5.2578125 -1.9765625 5.2578125 -2 2 C-1.34 1.34 -0.68 0.68 0 0 Z " fill="#FEFEFE" transform="translate(166,284)"/>
<path d="M0 0 C3.58072917 0.06510417 7.16145833 0.13020833 10.7421875 0.1953125 C10.7421875 5.1453125 10.7421875 10.0953125 10.7421875 15.1953125 C5.7921875 15.1953125 0.8421875 15.1953125 -4.2578125 15.1953125 C-5.234375 5.234375 -5.234375 5.234375 -5.2578125 2.1953125 C-3.2578125 0.1953125 -3.2578125 0.1953125 0 0 Z " fill="#FEFEFE" transform="translate(139.2578125,194.8046875)"/>
<path d="M0 0 C4.95 0 9.9 0 15 0 C15 4.95 15 9.9 15 15 C10.05 15 5.1 15 0 15 C0 10.05 0 5.1 0 0 Z " fill="#EEEEEE" transform="translate(315,330)"/>
<path d="M0 0 C4.95 0 9.9 0 15 0 C15 4.95 15 9.9 15 15 C10.05 15 5.1 15 0 15 C0 10.05 0 5.1 0 0 Z " fill="#EEEEEE" transform="translate(285,330)"/>
<path d="M0 0 C4.95 0 9.9 0 15 0 C15 4.95 15 9.9 15 15 C10.05 15 5.1 15 0 15 C0 10.05 0 5.1 0 0 Z " fill="#EEEEEE" transform="translate(255,330)"/>
<path d="M0 0 C4.95 0 9.9 0 15 0 C15 4.95 15 9.9 15 15 C10.05 15 5.1 15 0 15 C0 10.05 0 5.1 0 0 Z " fill="#EEEEEE" transform="translate(225,330)"/>
<path d="M0 0 C4.95 0 9.9 0 15 0 C15 4.95 15 9.9 15 15 C10.05 15 5.1 15 0 15 C0 10.05 0 5.1 0 0 Z " fill="#EEEEEE" transform="translate(195,330)"/>
<path d="M0 0 C4.95 0 9.9 0 15 0 C15 4.95 15 9.9 15 15 C10.05 15 5.1 15 0 15 C0 10.05 0 5.1 0 0 Z " fill="#EEEEEE" transform="translate(165,330)"/>
<path d="M0 0 C4.95 0 9.9 0 15 0 C15 4.95 15 9.9 15 15 C10.05 15 5.1 15 0 15 C0 10.05 0 5.1 0 0 Z " fill="#EEEEEE" transform="translate(135,330)"/>
<path d="M0 0 C4.95 0 9.9 0 15 0 C15 4.95 15 9.9 15 15 C10.05 15 5.1 15 0 15 C0 10.05 0 5.1 0 0 Z " fill="#EEEEEE" transform="translate(105,330)"/>
<path d="M0 0 C4.95 0 9.9 0 15 0 C15 4.95 15 9.9 15 15 C10.05 15 5.1 15 0 15 C0 10.05 0 5.1 0 0 Z " fill="#EEEEEE" transform="translate(75,330)"/>
<path d="M0 0 C4.95 0 9.9 0 15 0 C15 4.95 15 9.9 15 15 C10.05 15 5.1 15 0 15 C0 10.05 0 5.1 0 0 Z " fill="#FFFFFF" transform="translate(60,330)"/>
<path d="M0 0 C4.95 0 9.9 0 15 0 C15 4.95 15 9.9 15 15 C10.05 15 5.1 15 0 15 C0 10.05 0 5.1 0 0 Z " fill="#EEEEEE" transform="translate(45,330)"/>
<path d="M0 0 C4.95 0 9.9 0 15 0 C15 4.95 15 9.9 15 15 C10.05 15 5.1 15 0 15 C0 10.05 0 5.1 0 0 Z " fill="#FFFFFF" transform="translate(30,330)"/>
<path d="M0 0 C4.95 0 9.9 0 15 0 C15 4.95 15 9.9 15 15 C10.05 15 5.1 15 0 15 C0 10.05 0 5.1 0 0 Z " fill="#EEEEEE" transform="translate(15,330)"/>
<path d="M0 0 C4.95 0 9.9 0 15 0 C15 4.95 15 9.9 15 15 C10.05 15 5.1 15 0 15 C0 10.05 0 5.1 0 0 Z " fill="#EEEEEE" transform="translate(330,315)"/>
<path d="M0 0 C4.95 0 9.9 0 15 0 C15 4.95 15 9.9 15 15 C10.05 15 5.1 15 0 15 C0 10.05 0 5.1 0 0 Z " fill="#FFFFFF" transform="translate(315,315)"/>
<path d="M0 0 C4.95 0 9.9 0 15 0 C15 4.95 15 9.9 15 15 C10.05 15 5.1 15 0 15 C0 10.05 0 5.1 0 0 Z " fill="#EEEEEE" transform="translate(300,315)"/>
<path d="M0 0 C4.95 0 9.9 0 15 0 C15 4.95 15 9.9 15 15 C10.05 15 5.1 15 0 15 C0 10.05 0 5.1 0 0 Z " fill="#FFFFFF" transform="translate(285,315)"/>
<path d="M0 0 C4.95 0 9.9 0 15 0 C15 4.95 15 9.9 15 15 C10.05 15 5.1 15 0 15 C0 10.05 0 5.1 0 0 Z " fill="#EEEEEE" transform="translate(270,315)"/>
<path d="M0 0 C4.95 0 9.9 0 15 0 C15 4.95 15 9.9 15 15 C10.05 15 5.1 15 0 15 C0 10.05 0 5.1 0 0 Z " fill="#FFFFFF" transform="translate(255,315)"/>
<path d="M0 0 C4.95 0 9.9 0 15 0 C15 4.95 15 9.9 15 15 C10.05 15 5.1 15 0 15 C0 10.05 0 5.1 0 0 Z " fill="#EEEEEE" transform="translate(240,315)"/>
<path d="M0 0 C4.95 0 9.9 0 15 0 C15 4.95 15 9.9 15 15 C10.05 15 5.1 15 0 15 C0 10.05 0 5.1 0 0 Z " fill="#FFFFFF" transform="translate(225,315)"/>
<path d="M0 0 C4.95 0 9.9 0 15 0 C15 4.95 15 9.9 15 15 C10.05 15 5.1 15 0 15 C0 10.05 0 5.1 0 0 Z " fill="#EEEEEE" transform="translate(210,315)"/>
<path d="M0 0 C4.95 0 9.9 0 15 0 C15 4.95 15 9.9 15 15 C10.05 15 5.1 15 0 15 C0 10.05 0 5.1 0 0 Z " fill="#FFFFFF" transform="translate(195,315)"/>
<path d="M0 0 C4.95 0 9.9 0 15 0 C15 4.95 15 9.9 15 15 C10.05 15 5.1 15 0 15 C0 10.05 0 5.1 0 0 Z " fill="#EEEEEE" transform="translate(180,315)"/>
<path d="M0 0 C4.95 0 9.9 0 15 0 C15 4.95 15 9.9 15 15 C10.05 15 5.1 15 0 15 C0 10.05 0 5.1 0 0 Z " fill="#FFFFFF" transform="translate(165,315)"/>
<path d="M0 0 C4.95 0 9.9 0 15 0 C15 4.95 15 9.9 15 15 C10.05 15 5.1 15 0 15 C0 10.05 0 5.1 0 0 Z " fill="#EEEEEE" transform="translate(150,315)"/>
<path d="M0 0 C4.95 0 9.9 0 15 0 C15 4.95 15 9.9 15 15 C10.05 15 5.1 15 0 15 C0 10.05 0 5.1 0 0 Z " fill="#FFFFFF" transform="translate(135,315)"/>
<path d="M0 0 C4.95 0 9.9 0 15 0 C15 4.95 15 9.9 15 15 C10.05 15 5.1 15 0 15 C0 10.05 0 5.1 0 0 Z " fill="#EEEEEE" transform="translate(120,315)"/>
<path d="M0 0 C4.95 0 9.9 0 15 0 C15 4.95 15 9.9 15 15 C10.05 15 5.1 15 0 15 C0 10.05 0 5.1 0 0 Z " fill="#EEEEEE" transform="translate(60,315)"/>
<path d="M0 0 C4.95 0 9.9 0 15 0 C15 4.95 15 9.9 15 15 C10.05 15 5.1 15 0 15 C0 10.05 0 5.1 0 0 Z " fill="#FFFFFF" transform="translate(45,315)"/>
<path d="M0 0 C4.95 0 9.9 0 15 0 C15 4.95 15 9.9 15 15 C10.05 15 5.1 15 0 15 C0 10.05 0 5.1 0 0 Z " fill="#EEEEEE" transform="translate(30,315)"/>
<path d="M0 0 C4.95 0 9.9 0 15 0 C15 4.95 15 9.9 15 15 C10.05 15 5.1 15 0 15 C0 10.05 0 5.1 0 0 Z " fill="#FFFFFF" transform="translate(15,315)"/>
<path d="M0 0 C4.95 0 9.9 0 15 0 C15 4.95 15 9.9 15 15 C10.05 15 5.1 15 0 15 C0 10.05 0 5.1 0 0 Z " fill="#EEEEEE" transform="translate(0,315)"/>
<path d="M0 0 C4.95 0 9.9 0 15 0 C15 4.95 15 9.9 15 15 C10.05 15 5.1 15 0 15 C0 10.05 0 5.1 0 0 Z " fill="#EEEEEE" transform="translate(315,300)"/>
<path d="M0 0 C4.95 0 9.9 0 15 0 C15 4.95 15 9.9 15 15 C10.05 15 5.1 15 0 15 C0 10.05 0 5.1 0 0 Z " fill="#FFFFFF" transform="translate(300,300)"/>
<path d="M0 0 C4.95 0 9.9 0 15 0 C15 4.95 15 9.9 15 15 C10.05 15 5.1 15 0 15 C0 10.05 0 5.1 0 0 Z " fill="#EEEEEE" transform="translate(285,300)"/>
<path d="M0 0 C4.95 0 9.9 0 15 0 C15 4.95 15 9.9 15 15 C10.05 15 5.1 15 0 15 C0 10.05 0 5.1 0 0 Z " fill="#FFFFFF" transform="translate(270,300)"/>
<path d="M0 0 C4.95 0 9.9 0 15 0 C15 4.95 15 9.9 15 15 C10.05 15 5.1 15 0 15 C0 10.05 0 5.1 0 0 Z " fill="#EEEEEE" transform="translate(255,300)"/>
<path d="M0 0 C4.95 0 9.9 0 15 0 C15 4.95 15 9.9 15 15 C10.05 15 5.1 15 0 15 C0 10.05 0 5.1 0 0 Z " fill="#FFFFFF" transform="translate(240,300)"/>
<path d="M0 0 C4.95 0 9.9 0 15 0 C15 4.95 15 9.9 15 15 C10.05 15 5.1 15 0 15 C0 10.05 0 5.1 0 0 Z " fill="#EEEEEE" transform="translate(225,300)"/>
<path d="M0 0 C4.95 0 9.9 0 15 0 C15 4.95 15 9.9 15 15 C10.05 15 5.1 15 0 15 C0 10.05 0 5.1 0 0 Z " fill="#FFFFFF" transform="translate(210,300)"/>
<path d="M0 0 C4.95 0 9.9 0 15 0 C15 4.95 15 9.9 15 15 C10.05 15 5.1 15 0 15 C0 10.05 0 5.1 0 0 Z " fill="#EEEEEE" transform="translate(195,300)"/>
<path d="M0 0 C4.95 0 9.9 0 15 0 C15 4.95 15 9.9 15 15 C10.05 15 5.1 15 0 15 C0 10.05 0 5.1 0 0 Z " fill="#FFFFFF" transform="translate(180,300)"/>
<path d="M0 0 C4.95 0 9.9 0 15 0 C15 4.95 15 9.9 15 15 C10.05 15 5.1 15 0 15 C0 10.05 0 5.1 0 0 Z " fill="#FFFFFF" transform="translate(150,300)"/>
<path d="M0 0 C4.95 0 9.9 0 15 0 C15 4.95 15 9.9 15 15 C10.05 15 5.1 15 0 15 C0 10.05 0 5.1 0 0 Z " fill="#FFFFFF" transform="translate(60,300)"/>
<path d="M0 0 C4.95 0 9.9 0 15 0 C15 4.95 15 9.9 15 15 C10.05 15 5.1 15 0 15 C0 10.05 0 5.1 0 0 Z " fill="#EEEEEE" transform="translate(45,300)"/>
<path d="M0 0 C4.95 0 9.9 0 15 0 C15 4.95 15 9.9 15 15 C10.05 15 5.1 15 0 15 C0 10.05 0 5.1 0 0 Z " fill="#FFFFFF" transform="translate(30,300)"/>
<path d="M0 0 C4.95 0 9.9 0 15 0 C15 4.95 15 9.9 15 15 C10.05 15 5.1 15 0 15 C0 10.05 0 5.1 0 0 Z " fill="#EEEEEE" transform="translate(15,300)"/>
<path d="M0 0 C4.95 0 9.9 0 15 0 C15 4.95 15 9.9 15 15 C10.05 15 5.1 15 0 15 C0 10.05 0 5.1 0 0 Z " fill="#FFFFFF" transform="translate(0,300)"/>
<path d="M0 0 C4.95 0 9.9 0 15 0 C15 4.95 15 9.9 15 15 C10.05 15 5.1 15 0 15 C0 10.05 0 5.1 0 0 Z " fill="#EEEEEE" transform="translate(330,285)"/>
<path d="M0 0 C4.95 0 9.9 0 15 0 C15 4.95 15 9.9 15 15 C10.05 15 5.1 15 0 15 C0 10.05 0 5.1 0 0 Z " fill="#FFFFFF" transform="translate(315,285)"/>
<path d="M0 0 C4.95 0 9.9 0 15 0 C15 4.95 15 9.9 15 15 C10.05 15 5.1 15 0 15 C0 10.05 0 5.1 0 0 Z " fill="#EEEEEE" transform="translate(300,285)"/>
<path d="M0 0 C4.95 0 9.9 0 15 0 C15 4.95 15 9.9 15 15 C10.05 15 5.1 15 0 15 C0 10.05 0 5.1 0 0 Z " fill="#FFFFFF" transform="translate(285,285)"/>
<path d="M0 0 C4.95 0 9.9 0 15 0 C15 4.95 15 9.9 15 15 C10.05 15 5.1 15 0 15 C0 10.05 0 5.1 0 0 Z " fill="#EEEEEE" transform="translate(270,285)"/>
<path d="M0 0 C4.95 0 9.9 0 15 0 C15 4.95 15 9.9 15 15 C10.05 15 5.1 15 0 15 C0 10.05 0 5.1 0 0 Z " fill="#FFFFFF" transform="translate(255,285)"/>
<path d="M0 0 C4.95 0 9.9 0 15 0 C15 4.95 15 9.9 15 15 C10.05 15 5.1 15 0 15 C0 10.05 0 5.1 0 0 Z " fill="#EEEEEE" transform="translate(240,285)"/>
<path d="M0 0 C4.95 0 9.9 0 15 0 C15 4.95 15 9.9 15 15 C10.05 15 5.1 15 0 15 C0 10.05 0 5.1 0 0 Z " fill="#FFFFFF" transform="translate(225,285)"/>
<path d="M0 0 C4.95 0 9.9 0 15 0 C15 4.95 15 9.9 15 15 C10.05 15 5.1 15 0 15 C0 10.05 0 5.1 0 0 Z " fill="#EEEEEE" transform="translate(210,285)"/>
<path d="M0 0 C4.95 0 9.9 0 15 0 C15 4.95 15 9.9 15 15 C10.05 15 5.1 15 0 15 C0 10.05 0 5.1 0 0 Z " fill="#FFFFFF" transform="translate(195,285)"/>
<path d="M0 0 C4.95 0 9.9 0 15 0 C15 4.95 15 9.9 15 15 C10.05 15 5.1 15 0 15 C0 10.05 0 5.1 0 0 Z " fill="#EEEEEE" transform="translate(180,285)"/>
<path d="M0 0 C4.95 0 9.9 0 15 0 C15 4.95 15 9.9 15 15 C10.05 15 5.1 15 0 15 C0 10.05 0 5.1 0 0 Z " fill="#EEEEEE" transform="translate(60,285)"/>
<path d="M0 0 C4.95 0 9.9 0 15 0 C15 4.95 15 9.9 15 15 C10.05 15 5.1 15 0 15 C0 10.05 0 5.1 0 0 Z " fill="#FFFFFF" transform="translate(45,285)"/>
<path d="M0 0 C4.95 0 9.9 0 15 0 C15 4.95 15 9.9 15 15 C10.05 15 5.1 15 0 15 C0 10.05 0 5.1 0 0 Z " fill="#EEEEEE" transform="translate(30,285)"/>
<path d="M0 0 C4.95 0 9.9 0 15 0 C15 4.95 15 9.9 15 15 C10.05 15 5.1 15 0 15 C0 10.05 0 5.1 0 0 Z " fill="#FFFFFF" transform="translate(15,285)"/>
<path d="M0 0 C4.95 0 9.9 0 15 0 C15 4.95 15 9.9 15 15 C10.05 15 5.1 15 0 15 C0 10.05 0 5.1 0 0 Z " fill="#EEEEEE" transform="translate(0,285)"/>
<path d="M0 0 C4.95 0 9.9 0 15 0 C15 4.95 15 9.9 15 15 C10.05 15 5.1 15 0 15 C0 10.05 0 5.1 0 0 Z " fill="#EEEEEE" transform="translate(315,270)"/>
<path d="M0 0 C4.95 0 9.9 0 15 0 C15 4.95 15 9.9 15 15 C10.05 15 5.1 15 0 15 C0 10.05 0 5.1 0 0 Z " fill="#FFFFFF" transform="translate(300,270)"/>
<path d="M0 0 C4.95 0 9.9 0 15 0 C15 4.95 15 9.9 15 15 C10.05 15 5.1 15 0 15 C0 10.05 0 5.1 0 0 Z " fill="#EEEEEE" transform="translate(285,270)"/>
<path d="M0 0 C4.95 0 9.9 0 15 0 C15 4.95 15 9.9 15 15 C10.05 15 5.1 15 0 15 C0 10.05 0 5.1 0 0 Z " fill="#FFFFFF" transform="translate(270,270)"/>
<path d="M0 0 C4.95 0 9.9 0 15 0 C15 4.95 15 9.9 15 15 C10.05 15 5.1 15 0 15 C0 10.05 0 5.1 0 0 Z " fill="#EEEEEE" transform="translate(255,270)"/>
<path d="M0 0 C4.95 0 9.9 0 15 0 C15 4.95 15 9.9 15 15 C10.05 15 5.1 15 0 15 C0 10.05 0 5.1 0 0 Z " fill="#FFFFFF" transform="translate(240,270)"/>
<path d="M0 0 C4.95 0 9.9 0 15 0 C15 4.95 15 9.9 15 15 C10.05 15 5.1 15 0 15 C0 10.05 0 5.1 0 0 Z " fill="#EEEEEE" transform="translate(225,270)"/>
<path d="M0 0 C4.95 0 9.9 0 15 0 C15 4.95 15 9.9 15 15 C10.05 15 5.1 15 0 15 C0 10.05 0 5.1 0 0 Z " fill="#FFFFFF" transform="translate(210,270)"/>
<path d="M0 0 C4.95 0 9.9 0 15 0 C15 4.95 15 9.9 15 15 C10.05 15 5.1 15 0 15 C0 10.05 0 5.1 0 0 Z " fill="#EEEEEE" transform="translate(195,270)"/>
<path d="M0 0 C4.95 0 9.9 0 15 0 C15 4.95 15 9.9 15 15 C10.05 15 5.1 15 0 15 C0 10.05 0 5.1 0 0 Z " fill="#EEEEEE" transform="translate(45,270)"/>
<path d="M0 0 C4.95 0 9.9 0 15 0 C15 4.95 15 9.9 15 15 C10.05 15 5.1 15 0 15 C0 10.05 0 5.1 0 0 Z " fill="#FFFFFF" transform="translate(30,270)"/>
<path d="M0 0 C4.95 0 9.9 0 15 0 C15 4.95 15 9.9 15 15 C10.05 15 5.1 15 0 15 C0 10.05 0 5.1 0 0 Z " fill="#EEEEEE" transform="translate(15,270)"/>
<path d="M0 0 C4.95 0 9.9 0 15 0 C15 4.95 15 9.9 15 15 C10.05 15 5.1 15 0 15 C0 10.05 0 5.1 0 0 Z " fill="#FFFFFF" transform="translate(0,270)"/>
<path d="M0 0 C4.95 0 9.9 0 15 0 C15 4.95 15 9.9 15 15 C10.05 15 5.1 15 0 15 C0 10.05 0 5.1 0 0 Z " fill="#EEEEEE" transform="translate(330,255)"/>
<path d="M0 0 C4.95 0 9.9 0 15 0 C15 4.95 15 9.9 15 15 C10.05 15 5.1 15 0 15 C0 10.05 0 5.1 0 0 Z " fill="#FFFFFF" transform="translate(315,255)"/>
<path d="M0 0 C4.95 0 9.9 0 15 0 C15 4.95 15 9.9 15 15 C10.05 15 5.1 15 0 15 C0 10.05 0 5.1 0 0 Z " fill="#EEEEEE" transform="translate(300,255)"/>
<path d="M0 0 C4.95 0 9.9 0 15 0 C15 4.95 15 9.9 15 15 C10.05 15 5.1 15 0 15 C0 10.05 0 5.1 0 0 Z " fill="#FFFFFF" transform="translate(285,255)"/>
<path d="M0 0 C4.95 0 9.9 0 15 0 C15 4.95 15 9.9 15 15 C10.05 15 5.1 15 0 15 C0 10.05 0 5.1 0 0 Z " fill="#EEEEEE" transform="translate(270,255)"/>
<path d="M0 0 C4.95 0 9.9 0 15 0 C15 4.95 15 9.9 15 15 C10.05 15 5.1 15 0 15 C0 10.05 0 5.1 0 0 Z " fill="#FFFFFF" transform="translate(255,255)"/>
<path d="M0 0 C4.95 0 9.9 0 15 0 C15 4.95 15 9.9 15 15 C10.05 15 5.1 15 0 15 C0 10.05 0 5.1 0 0 Z " fill="#FFFFFF" transform="translate(225,255)"/>
<path d="M0 0 C4.95 0 9.9 0 15 0 C15 4.95 15 9.9 15 15 C10.05 15 5.1 15 0 15 C0 10.05 0 5.1 0 0 Z " fill="#EEEEEE" transform="translate(60,255)"/>
<path d="M0 0 C4.95 0 9.9 0 15 0 C15 4.95 15 9.9 15 15 C10.05 15 5.1 15 0 15 C0 10.05 0 5.1 0 0 Z " fill="#FFFFFF" transform="translate(45,255)"/>
<path d="M0 0 C4.95 0 9.9 0 15 0 C15 4.95 15 9.9 15 15 C10.05 15 5.1 15 0 15 C0 10.05 0 5.1 0 0 Z " fill="#EEEEEE" transform="translate(30,255)"/>
<path d="M0 0 C4.95 0 9.9 0 15 0 C15 4.95 15 9.9 15 15 C10.05 15 5.1 15 0 15 C0 10.05 0 5.1 0 0 Z " fill="#FFFFFF" transform="translate(15,255)"/>
<path d="M0 0 C4.95 0 9.9 0 15 0 C15 4.95 15 9.9 15 15 C10.05 15 5.1 15 0 15 C0 10.05 0 5.1 0 0 Z " fill="#EEEEEE" transform="translate(0,255)"/>
<path d="M0 0 C4.95 0 9.9 0 15 0 C15 4.95 15 9.9 15 15 C10.05 15 5.1 15 0 15 C0 10.05 0 5.1 0 0 Z " fill="#EEEEEE" transform="translate(315,240)"/>
<path d="M0 0 C4.95 0 9.9 0 15 0 C15 4.95 15 9.9 15 15 C10.05 15 5.1 15 0 15 C0 10.05 0 5.1 0 0 Z " fill="#FFFFFF" transform="translate(300,240)"/>
<path d="M0 0 C4.95 0 9.9 0 15 0 C15 4.95 15 9.9 15 15 C10.05 15 5.1 15 0 15 C0 10.05 0 5.1 0 0 Z " fill="#EEEEEE" transform="translate(285,240)"/>
<path d="M0 0 C4.95 0 9.9 0 15 0 C15 4.95 15 9.9 15 15 C10.05 15 5.1 15 0 15 C0 10.05 0 5.1 0 0 Z " fill="#FFFFFF" transform="translate(270,240)"/>
<path d="M0 0 C4.95 0 9.9 0 15 0 C15 4.95 15 9.9 15 15 C10.05 15 5.1 15 0 15 C0 10.05 0 5.1 0 0 Z " fill="#EEEEEE" transform="translate(255,240)"/>
<path d="M0 0 C4.95 0 9.9 0 15 0 C15 4.95 15 9.9 15 15 C10.05 15 5.1 15 0 15 C0 10.05 0 5.1 0 0 Z " fill="#EEEEEE" transform="translate(135,240)"/>
<path d="M0 0 C4.95 0 9.9 0 15 0 C15 4.95 15 9.9 15 15 C10.05 15 5.1 15 0 15 C0 10.05 0 5.1 0 0 Z " fill="#FFFFFF" transform="translate(60,240)"/>
<path d="M0 0 C4.95 0 9.9 0 15 0 C15 4.95 15 9.9 15 15 C10.05 15 5.1 15 0 15 C0 10.05 0 5.1 0 0 Z " fill="#EEEEEE" transform="translate(45,240)"/>
<path d="M0 0 C4.95 0 9.9 0 15 0 C15 4.95 15 9.9 15 15 C10.05 15 5.1 15 0 15 C0 10.05 0 5.1 0 0 Z " fill="#FFFFFF" transform="translate(30,240)"/>
<path d="M0 0 C4.95 0 9.9 0 15 0 C15 4.95 15 9.9 15 15 C10.05 15 5.1 15 0 15 C0 10.05 0 5.1 0 0 Z " fill="#EEEEEE" transform="translate(15,240)"/>
<path d="M0 0 C4.95 0 9.9 0 15 0 C15 4.95 15 9.9 15 15 C10.05 15 5.1 15 0 15 C0 10.05 0 5.1 0 0 Z " fill="#FFFFFF" transform="translate(0,240)"/>
<path d="M0 0 C4.95 0 9.9 0 15 0 C15 4.95 15 9.9 15 15 C10.05 15 5.1 15 0 15 C0 10.05 0 5.1 0 0 Z " fill="#EEEEEE" transform="translate(330,225)"/>
<path d="M0 0 C4.95 0 9.9 0 15 0 C15 4.95 15 9.9 15 15 C10.05 15 5.1 15 0 15 C0 10.05 0 5.1 0 0 Z " fill="#FFFFFF" transform="translate(315,225)"/>
<path d="M0 0 C4.95 0 9.9 0 15 0 C15 4.95 15 9.9 15 15 C10.05 15 5.1 15 0 15 C0 10.05 0 5.1 0 0 Z " fill="#EEEEEE" transform="translate(300,225)"/>
<path d="M0 0 C4.95 0 9.9 0 15 0 C15 4.95 15 9.9 15 15 C10.05 15 5.1 15 0 15 C0 10.05 0 5.1 0 0 Z " fill="#FFFFFF" transform="translate(285,225)"/>
<path d="M0 0 C4.95 0 9.9 0 15 0 C15 4.95 15 9.9 15 15 C10.05 15 5.1 15 0 15 C0 10.05 0 5.1 0 0 Z " fill="#FFFFFF" transform="translate(135,225)"/>
<path d="M0 0 C4.95 0 9.9 0 15 0 C15 4.95 15 9.9 15 15 C10.05 15 5.1 15 0 15 C0 10.05 0 5.1 0 0 Z " fill="#EEEEEE" transform="translate(60,225)"/>
<path d="M0 0 C4.95 0 9.9 0 15 0 C15 4.95 15 9.9 15 15 C10.05 15 5.1 15 0 15 C0 10.05 0 5.1 0 0 Z " fill="#FFFFFF" transform="translate(45,225)"/>
<path d="M0 0 C4.95 0 9.9 0 15 0 C15 4.95 15 9.9 15 15 C10.05 15 5.1 15 0 15 C0 10.05 0 5.1 0 0 Z " fill="#EEEEEE" transform="translate(30,225)"/>
<path d="M0 0 C4.95 0 9.9 0 15 0 C15 4.95 15 9.9 15 15 C10.05 15 5.1 15 0 15 C0 10.05 0 5.1 0 0 Z " fill="#FFFFFF" transform="translate(15,225)"/>
<path d="M0 0 C4.95 0 9.9 0 15 0 C15 4.95 15 9.9 15 15 C10.05 15 5.1 15 0 15 C0 10.05 0 5.1 0 0 Z " fill="#EEEEEE" transform="translate(0,225)"/>
<path d="M0 0 C4.95 0 9.9 0 15 0 C15 4.95 15 9.9 15 15 C10.05 15 5.1 15 0 15 C0 10.05 0 5.1 0 0 Z " fill="#EEEEEE" transform="translate(315,210)"/>
<path d="M0 0 C4.95 0 9.9 0 15 0 C15 4.95 15 9.9 15 15 C10.05 15 5.1 15 0 15 C0 10.05 0 5.1 0 0 Z " fill="#FFFFFF" transform="translate(300,210)"/>
<path d="M0 0 C4.95 0 9.9 0 15 0 C15 4.95 15 9.9 15 15 C10.05 15 5.1 15 0 15 C0 10.05 0 5.1 0 0 Z " fill="#EEEEEE" transform="translate(285,210)"/>
<path d="M0 0 C4.95 0 9.9 0 15 0 C15 4.95 15 9.9 15 15 C10.05 15 5.1 15 0 15 C0 10.05 0 5.1 0 0 Z " fill="#EEEEEE" transform="translate(165,210)"/>
<path d="M0 0 C4.95 0 9.9 0 15 0 C15 4.95 15 9.9 15 15 C10.05 15 5.1 15 0 15 C0 10.05 0 5.1 0 0 Z " fill="#FFFFFF" transform="translate(150,210)"/>
<path d="M0 0 C4.95 0 9.9 0 15 0 C15 4.95 15 9.9 15 15 C10.05 15 5.1 15 0 15 C0 10.05 0 5.1 0 0 Z " fill="#FFFFFF" transform="translate(60,210)"/>
<path d="M0 0 C4.95 0 9.9 0 15 0 C15 4.95 15 9.9 15 15 C10.05 15 5.1 15 0 15 C0 10.05 0 5.1 0 0 Z " fill="#EEEEEE" transform="translate(45,210)"/>
<path d="M0 0 C4.95 0 9.9 0 15 0 C15 4.95 15 9.9 15 15 C10.05 15 5.1 15 0 15 C0 10.05 0 5.1 0 0 Z " fill="#FFFFFF" transform="translate(30,210)"/>
<path d="M0 0 C4.95 0 9.9 0 15 0 C15 4.95 15 9.9 15 15 C10.05 15 5.1 15 0 15 C0 10.05 0 5.1 0 0 Z " fill="#EEEEEE" transform="translate(15,210)"/>
<path d="M0 0 C4.95 0 9.9 0 15 0 C15 4.95 15 9.9 15 15 C10.05 15 5.1 15 0 15 C0 10.05 0 5.1 0 0 Z " fill="#FFFFFF" transform="translate(0,210)"/>
<path d="M0 0 C4.95 0 9.9 0 15 0 C15 4.95 15 9.9 15 15 C10.05 15 5.1 15 0 15 C0 10.05 0 5.1 0 0 Z " fill="#EEEEEE" transform="translate(330,195)"/>
<path d="M0 0 C4.95 0 9.9 0 15 0 C15 4.95 15 9.9 15 15 C10.05 15 5.1 15 0 15 C0 10.05 0 5.1 0 0 Z " fill="#FFFFFF" transform="translate(315,195)"/>
<path d="M0 0 C4.95 0 9.9 0 15 0 C15 4.95 15 9.9 15 15 C10.05 15 5.1 15 0 15 C0 10.05 0 5.1 0 0 Z " fill="#EEEEEE" transform="translate(300,195)"/>
<path d="M0 0 C4.95 0 9.9 0 15 0 C15 4.95 15 9.9 15 15 C10.05 15 5.1 15 0 15 C0 10.05 0 5.1 0 0 Z " fill="#FFFFFF" transform="translate(285,195)"/>
<path d="M0 0 C4.95 0 9.9 0 15 0 C15 4.95 15 9.9 15 15 C10.05 15 5.1 15 0 15 C0 10.05 0 5.1 0 0 Z " fill="#EEEEEE" transform="translate(180,195)"/>
<path d="M0 0 C4.95 0 9.9 0 15 0 C15 4.95 15 9.9 15 15 C10.05 15 5.1 15 0 15 C0 10.05 0 5.1 0 0 Z " fill="#FFFFFF" transform="translate(165,195)"/>
<path d="M0 0 C4.95 0 9.9 0 15 0 C15 4.95 15 9.9 15 15 C10.05 15 5.1 15 0 15 C0 10.05 0 5.1 0 0 Z " fill="#EEEEEE" transform="translate(150,195)"/>
<path d="M0 0 C4.95 0 9.9 0 15 0 C15 4.95 15 9.9 15 15 C10.05 15 5.1 15 0 15 C0 10.05 0 5.1 0 0 Z " fill="#EEEEEE" transform="translate(60,195)"/>
<path d="M0 0 C4.95 0 9.9 0 15 0 C15 4.95 15 9.9 15 15 C10.05 15 5.1 15 0 15 C0 10.05 0 5.1 0 0 Z " fill="#FFFFFF" transform="translate(45,195)"/>
<path d="M0 0 C4.95 0 9.9 0 15 0 C15 4.95 15 9.9 15 15 C10.05 15 5.1 15 0 15 C0 10.05 0 5.1 0 0 Z " fill="#EEEEEE" transform="translate(30,195)"/>
<path d="M0 0 C4.95 0 9.9 0 15 0 C15 4.95 15 9.9 15 15 C10.05 15 5.1 15 0 15 C0 10.05 0 5.1 0 0 Z " fill="#FFFFFF" transform="translate(15,195)"/>
<path d="M0 0 C4.95 0 9.9 0 15 0 C15 4.95 15 9.9 15 15 C10.05 15 5.1 15 0 15 C0 10.05 0 5.1 0 0 Z " fill="#EEEEEE" transform="translate(0,195)"/>
<path d="M0 0 C4.95 0 9.9 0 15 0 C15 4.95 15 9.9 15 15 C10.05 15 5.1 15 0 15 C0 10.05 0 5.1 0 0 Z " fill="#EEEEEE" transform="translate(315,180)"/>
<path d="M0 0 C4.95 0 9.9 0 15 0 C15 4.95 15 9.9 15 15 C10.05 15 5.1 15 0 15 C0 10.05 0 5.1 0 0 Z " fill="#FFFFFF" transform="translate(300,180)"/>
<path d="M0 0 C4.95 0 9.9 0 15 0 C15 4.95 15 9.9 15 15 C10.05 15 5.1 15 0 15 C0 10.05 0 5.1 0 0 Z " fill="#EEEEEE" transform="translate(285,180)"/>
<path d="M0 0 C4.95 0 9.9 0 15 0 C15 4.95 15 9.9 15 15 C10.05 15 5.1 15 0 15 C0 10.05 0 5.1 0 0 Z " fill="#EEEEEE" transform="translate(195,180)"/>
<path d="M0 0 C4.95 0 9.9 0 15 0 C15 4.95 15 9.9 15 15 C10.05 15 5.1 15 0 15 C0 10.05 0 5.1 0 0 Z " fill="#FFFFFF" transform="translate(180,180)"/>
<path d="M0 0 C4.95 0 9.9 0 15 0 C15 4.95 15 9.9 15 15 C10.05 15 5.1 15 0 15 C0 10.05 0 5.1 0 0 Z " fill="#EEEEEE" transform="translate(165,180)"/>
<path d="M0 0 C4.95 0 9.9 0 15 0 C15 4.95 15 9.9 15 15 C10.05 15 5.1 15 0 15 C0 10.05 0 5.1 0 0 Z " fill="#FFFFFF" transform="translate(150,180)"/>
<path d="M0 0 C4.95 0 9.9 0 15 0 C15 4.95 15 9.9 15 15 C10.05 15 5.1 15 0 15 C0 10.05 0 5.1 0 0 Z " fill="#FFFFFF" transform="translate(60,180)"/>
<path d="M0 0 C4.95 0 9.9 0 15 0 C15 4.95 15 9.9 15 15 C10.05 15 5.1 15 0 15 C0 10.05 0 5.1 0 0 Z " fill="#EEEEEE" transform="translate(45,180)"/>
<path d="M0 0 C4.95 0 9.9 0 15 0 C15 4.95 15 9.9 15 15 C10.05 15 5.1 15 0 15 C0 10.05 0 5.1 0 0 Z " fill="#FFFFFF" transform="translate(30,180)"/>
<path d="M0 0 C4.95 0 9.9 0 15 0 C15 4.95 15 9.9 15 15 C10.05 15 5.1 15 0 15 C0 10.05 0 5.1 0 0 Z " fill="#EEEEEE" transform="translate(15,180)"/>
<path d="M0 0 C4.95 0 9.9 0 15 0 C15 4.95 15 9.9 15 15 C10.05 15 5.1 15 0 15 C0 10.05 0 5.1 0 0 Z " fill="#FFFFFF" transform="translate(0,180)"/>
<path d="M0 0 C4.95 0 9.9 0 15 0 C15 4.95 15 9.9 15 15 C10.05 15 5.1 15 0 15 C0 10.05 0 5.1 0 0 Z " fill="#EEEEEE" transform="translate(330,165)"/>
<path d="M0 0 C4.95 0 9.9 0 15 0 C15 4.95 15 9.9 15 15 C10.05 15 5.1 15 0 15 C0 10.05 0 5.1 0 0 Z " fill="#FFFFFF" transform="translate(315,165)"/>
<path d="M0 0 C4.95 0 9.9 0 15 0 C15 4.95 15 9.9 15 15 C10.05 15 5.1 15 0 15 C0 10.05 0 5.1 0 0 Z " fill="#EEEEEE" transform="translate(300,165)"/>
<path d="M0 0 C4.95 0 9.9 0 15 0 C15 4.95 15 9.9 15 15 C10.05 15 5.1 15 0 15 C0 10.05 0 5.1 0 0 Z " fill="#FFFFFF" transform="translate(285,165)"/>
<path d="M0 0 C4.95 0 9.9 0 15 0 C15 4.95 15 9.9 15 15 C10.05 15 5.1 15 0 15 C0 10.05 0 5.1 0 0 Z " fill="#FFFFFF" transform="translate(165,165)"/>
<path d="M0 0 C4.95 0 9.9 0 15 0 C15 4.95 15 9.9 15 15 C10.05 15 5.1 15 0 15 C0 10.05 0 5.1 0 0 Z " fill="#EEEEEE" transform="translate(60,165)"/>
<path d="M0 0 C4.95 0 9.9 0 15 0 C15 4.95 15 9.9 15 15 C10.05 15 5.1 15 0 15 C0 10.05 0 5.1 0 0 Z " fill="#FFFFFF" transform="translate(45,165)"/>
<path d="M0 0 C4.95 0 9.9 0 15 0 C15 4.95 15 9.9 15 15 C10.05 15 5.1 15 0 15 C0 10.05 0 5.1 0 0 Z " fill="#EEEEEE" transform="translate(30,165)"/>
<path d="M0 0 C4.95 0 9.9 0 15 0 C15 4.95 15 9.9 15 15 C10.05 15 5.1 15 0 15 C0 10.05 0 5.1 0 0 Z " fill="#FFFFFF" transform="translate(15,165)"/>
<path d="M0 0 C4.95 0 9.9 0 15 0 C15 4.95 15 9.9 15 15 C10.05 15 5.1 15 0 15 C0 10.05 0 5.1 0 0 Z " fill="#EEEEEE" transform="translate(0,165)"/>
<path d="M0 0 C4.95 0 9.9 0 15 0 C15 4.95 15 9.9 15 15 C10.05 15 5.1 15 0 15 C0 10.05 0 5.1 0 0 Z " fill="#EEEEEE" transform="translate(315,150)"/>
<path d="M0 0 C4.95 0 9.9 0 15 0 C15 4.95 15 9.9 15 15 C10.05 15 5.1 15 0 15 C0 10.05 0 5.1 0 0 Z " fill="#FFFFFF" transform="translate(300,150)"/>
<path d="M0 0 C4.95 0 9.9 0 15 0 C15 4.95 15 9.9 15 15 C10.05 15 5.1 15 0 15 C0 10.05 0 5.1 0 0 Z " fill="#EEEEEE" transform="translate(285,150)"/>
<path d="M0 0 C4.95 0 9.9 0 15 0 C15 4.95 15 9.9 15 15 C10.05 15 5.1 15 0 15 C0 10.05 0 5.1 0 0 Z " fill="#FFFFFF" transform="translate(150,150)"/>
<path d="M0 0 C4.95 0 9.9 0 15 0 C15 4.95 15 9.9 15 15 C10.05 15 5.1 15 0 15 C0 10.05 0 5.1 0 0 Z " fill="#FFFFFF" transform="translate(60,150)"/>
<path d="M0 0 C4.95 0 9.9 0 15 0 C15 4.95 15 9.9 15 15 C10.05 15 5.1 15 0 15 C0 10.05 0 5.1 0 0 Z " fill="#EEEEEE" transform="translate(45,150)"/>
<path d="M0 0 C4.95 0 9.9 0 15 0 C15 4.95 15 9.9 15 15 C10.05 15 5.1 15 0 15 C0 10.05 0 5.1 0 0 Z " fill="#FFFFFF" transform="translate(30,150)"/>
<path d="M0 0 C4.95 0 9.9 0 15 0 C15 4.95 15 9.9 15 15 C10.05 15 5.1 15 0 15 C0 10.05 0 5.1 0 0 Z " fill="#EEEEEE" transform="translate(15,150)"/>
<path d="M0 0 C4.95 0 9.9 0 15 0 C15 4.95 15 9.9 15 15 C10.05 15 5.1 15 0 15 C0 10.05 0 5.1 0 0 Z " fill="#FFFFFF" transform="translate(0,150)"/>
<path d="M0 0 C4.95 0 9.9 0 15 0 C15 4.95 15 9.9 15 15 C10.05 15 5.1 15 0 15 C0 10.05 0 5.1 0 0 Z " fill="#EEEEEE" transform="translate(330,135)"/>
<path d="M0 0 C4.95 0 9.9 0 15 0 C15 4.95 15 9.9 15 15 C10.05 15 5.1 15 0 15 C0 10.05 0 5.1 0 0 Z " fill="#FFFFFF" transform="translate(315,135)"/>
<path d="M0 0 C4.95 0 9.9 0 15 0 C15 4.95 15 9.9 15 15 C10.05 15 5.1 15 0 15 C0 10.05 0 5.1 0 0 Z " fill="#EEEEEE" transform="translate(300,135)"/>
<path d="M0 0 C4.95 0 9.9 0 15 0 C15 4.95 15 9.9 15 15 C10.05 15 5.1 15 0 15 C0 10.05 0 5.1 0 0 Z " fill="#FFFFFF" transform="translate(285,135)"/>
<path d="M0 0 C4.95 0 9.9 0 15 0 C15 4.95 15 9.9 15 15 C10.05 15 5.1 15 0 15 C0 10.05 0 5.1 0 0 Z " fill="#EEEEEE" transform="translate(60,135)"/>
<path d="M0 0 C4.95 0 9.9 0 15 0 C15 4.95 15 9.9 15 15 C10.05 15 5.1 15 0 15 C0 10.05 0 5.1 0 0 Z " fill="#FFFFFF" transform="translate(45,135)"/>
<path d="M0 0 C4.95 0 9.9 0 15 0 C15 4.95 15 9.9 15 15 C10.05 15 5.1 15 0 15 C0 10.05 0 5.1 0 0 Z " fill="#EEEEEE" transform="translate(30,135)"/>
<path d="M0 0 C4.95 0 9.9 0 15 0 C15 4.95 15 9.9 15 15 C10.05 15 5.1 15 0 15 C0 10.05 0 5.1 0 0 Z " fill="#FFFFFF" transform="translate(15,135)"/>
<path d="M0 0 C4.95 0 9.9 0 15 0 C15 4.95 15 9.9 15 15 C10.05 15 5.1 15 0 15 C0 10.05 0 5.1 0 0 Z " fill="#EEEEEE" transform="translate(0,135)"/>
<path d="M0 0 C4.95 0 9.9 0 15 0 C15 4.95 15 9.9 15 15 C10.05 15 5.1 15 0 15 C0 10.05 0 5.1 0 0 Z " fill="#EEEEEE" transform="translate(315,120)"/>
<path d="M0 0 C4.95 0 9.9 0 15 0 C15 4.95 15 9.9 15 15 C10.05 15 5.1 15 0 15 C0 10.05 0 5.1 0 0 Z " fill="#FFFFFF" transform="translate(300,120)"/>
<path d="M0 0 C4.95 0 9.9 0 15 0 C15 4.95 15 9.9 15 15 C10.05 15 5.1 15 0 15 C0 10.05 0 5.1 0 0 Z " fill="#EEEEEE" transform="translate(285,120)"/>
<path d="M0 0 C4.95 0 9.9 0 15 0 C15 4.95 15 9.9 15 15 C10.05 15 5.1 15 0 15 C0 10.05 0 5.1 0 0 Z " fill="#FFFFFF" transform="translate(60,120)"/>
<path d="M0 0 C4.95 0 9.9 0 15 0 C15 4.95 15 9.9 15 15 C10.05 15 5.1 15 0 15 C0 10.05 0 5.1 0 0 Z " fill="#EEEEEE" transform="translate(45,120)"/>
<path d="M0 0 C4.95 0 9.9 0 15 0 C15 4.95 15 9.9 15 15 C10.05 15 5.1 15 0 15 C0 10.05 0 5.1 0 0 Z " fill="#FFFFFF" transform="translate(30,120)"/>
<path d="M0 0 C4.95 0 9.9 0 15 0 C15 4.95 15 9.9 15 15 C10.05 15 5.1 15 0 15 C0 10.05 0 5.1 0 0 Z " fill="#EEEEEE" transform="translate(15,120)"/>
<path d="M0 0 C4.95 0 9.9 0 15 0 C15 4.95 15 9.9 15 15 C10.05 15 5.1 15 0 15 C0 10.05 0 5.1 0 0 Z " fill="#FFFFFF" transform="translate(0,120)"/>
<path d="M0 0 C4.95 0 9.9 0 15 0 C15 4.95 15 9.9 15 15 C10.05 15 5.1 15 0 15 C0 10.05 0 5.1 0 0 Z " fill="#EEEEEE" transform="translate(330,105)"/>
<path d="M0 0 C4.95 0 9.9 0 15 0 C15 4.95 15 9.9 15 15 C10.05 15 5.1 15 0 15 C0 10.05 0 5.1 0 0 Z " fill="#FFFFFF" transform="translate(315,105)"/>
<path d="M0 0 C4.95 0 9.9 0 15 0 C15 4.95 15 9.9 15 15 C10.05 15 5.1 15 0 15 C0 10.05 0 5.1 0 0 Z " fill="#EEEEEE" transform="translate(300,105)"/>
<path d="M0 0 C4.95 0 9.9 0 15 0 C15 4.95 15 9.9 15 15 C10.05 15 5.1 15 0 15 C0 10.05 0 5.1 0 0 Z " fill="#FFFFFF" transform="translate(285,105)"/>
<path d="M0 0 C4.95 0 9.9 0 15 0 C15 4.95 15 9.9 15 15 C10.05 15 5.1 15 0 15 C0 10.05 0 5.1 0 0 Z " fill="#EEEEEE" transform="translate(270,105)"/>
<path d="M0 0 C4.95 0 9.9 0 15 0 C15 4.95 15 9.9 15 15 C10.05 15 5.1 15 0 15 C0 10.05 0 5.1 0 0 Z " fill="#EEEEEE" transform="translate(60,105)"/>
<path d="M0 0 C4.95 0 9.9 0 15 0 C15 4.95 15 9.9 15 15 C10.05 15 5.1 15 0 15 C0 10.05 0 5.1 0 0 Z " fill="#FFFFFF" transform="translate(45,105)"/>
<path d="M0 0 C4.95 0 9.9 0 15 0 C15 4.95 15 9.9 15 15 C10.05 15 5.1 15 0 15 C0 10.05 0 5.1 0 0 Z " fill="#EEEEEE" transform="translate(30,105)"/>
<path d="M0 0 C4.95 0 9.9 0 15 0 C15 4.95 15 9.9 15 15 C10.05 15 5.1 15 0 15 C0 10.05 0 5.1 0 0 Z " fill="#FFFFFF" transform="translate(15,105)"/>
<path d="M0 0 C4.95 0 9.9 0 15 0 C15 4.95 15 9.9 15 15 C10.05 15 5.1 15 0 15 C0 10.05 0 5.1 0 0 Z " fill="#EEEEEE" transform="translate(0,105)"/>
<path d="M0 0 C4.95 0 9.9 0 15 0 C15 4.95 15 9.9 15 15 C10.05 15 5.1 15 0 15 C0 10.05 0 5.1 0 0 Z " fill="#FFFFFF" transform="translate(330,90)"/>
<path d="M0 0 C4.95 0 9.9 0 15 0 C15 4.95 15 9.9 15 15 C10.05 15 5.1 15 0 15 C0 10.05 0 5.1 0 0 Z " fill="#EEEEEE" transform="translate(315,90)"/>
<path d="M0 0 C4.95 0 9.9 0 15 0 C15 4.95 15 9.9 15 15 C10.05 15 5.1 15 0 15 C0 10.05 0 5.1 0 0 Z " fill="#FFFFFF" transform="translate(300,90)"/>
<path d="M0 0 C4.95 0 9.9 0 15 0 C15 4.95 15 9.9 15 15 C10.05 15 5.1 15 0 15 C0 10.05 0 5.1 0 0 Z " fill="#EEEEEE" transform="translate(285,90)"/>
<path d="M0 0 C4.95 0 9.9 0 15 0 C15 4.95 15 9.9 15 15 C10.05 15 5.1 15 0 15 C0 10.05 0 5.1 0 0 Z " fill="#FFFFFF" transform="translate(270,90)"/>
<path d="M0 0 C4.95 0 9.9 0 15 0 C15 4.95 15 9.9 15 15 C10.05 15 5.1 15 0 15 C0 10.05 0 5.1 0 0 Z " fill="#FFFFFF" transform="translate(240,90)"/>
<path d="M0 0 C4.95 0 9.9 0 15 0 C15 4.95 15 9.9 15 15 C10.05 15 5.1 15 0 15 C0 10.05 0 5.1 0 0 Z " fill="#FFFFFF" transform="translate(60,90)"/>
<path d="M0 0 C4.95 0 9.9 0 15 0 C15 4.95 15 9.9 15 15 C10.05 15 5.1 15 0 15 C0 10.05 0 5.1 0 0 Z " fill="#EEEEEE" transform="translate(45,90)"/>
<path d="M0 0 C4.95 0 9.9 0 15 0 C15 4.95 15 9.9 15 15 C10.05 15 5.1 15 0 15 C0 10.05 0 5.1 0 0 Z " fill="#FFFFFF" transform="translate(30,90)"/>
<path d="M0 0 C4.95 0 9.9 0 15 0 C15 4.95 15 9.9 15 15 C10.05 15 5.1 15 0 15 C0 10.05 0 5.1 0 0 Z " fill="#EEEEEE" transform="translate(15,90)"/>
<path d="M0 0 C4.95 0 9.9 0 15 0 C15 4.95 15 9.9 15 15 C10.05 15 5.1 15 0 15 C0 10.05 0 5.1 0 0 Z " fill="#FFFFFF" transform="translate(0,90)"/>
<path d="M0 0 C4.95 0 9.9 0 15 0 C15 4.95 15 9.9 15 15 C10.05 15 5.1 15 0 15 C0 10.05 0 5.1 0 0 Z " fill="#EEEEEE" transform="translate(330,75)"/>
<path d="M0 0 C4.95 0 9.9 0 15 0 C15 4.95 15 9.9 15 15 C10.05 15 5.1 15 0 15 C0 10.05 0 5.1 0 0 Z " fill="#FFFFFF" transform="translate(315,75)"/>
<path d="M0 0 C4.95 0 9.9 0 15 0 C15 4.95 15 9.9 15 15 C10.05 15 5.1 15 0 15 C0 10.05 0 5.1 0 0 Z " fill="#EEEEEE" transform="translate(300,75)"/>
<path d="M0 0 C4.95 0 9.9 0 15 0 C15 4.95 15 9.9 15 15 C10.05 15 5.1 15 0 15 C0 10.05 0 5.1 0 0 Z " fill="#FFFFFF" transform="translate(285,75)"/>
<path d="M0 0 C4.95 0 9.9 0 15 0 C15 4.95 15 9.9 15 15 C10.05 15 5.1 15 0 15 C0 10.05 0 5.1 0 0 Z " fill="#EEEEEE" transform="translate(270,75)"/>
<path d="M0 0 C4.95 0 9.9 0 15 0 C15 4.95 15 9.9 15 15 C10.05 15 5.1 15 0 15 C0 10.05 0 5.1 0 0 Z " fill="#FFFFFF" transform="translate(255,75)"/>
<path d="M0 0 C4.95 0 9.9 0 15 0 C15 4.95 15 9.9 15 15 C10.05 15 5.1 15 0 15 C0 10.05 0 5.1 0 0 Z " fill="#EEEEEE" transform="translate(240,75)"/>
<path d="M0 0 C4.95 0 9.9 0 15 0 C15 4.95 15 9.9 15 15 C10.05 15 5.1 15 0 15 C0 10.05 0 5.1 0 0 Z " fill="#FFFFFF" transform="translate(225,75)"/>
<path d="M0 0 C4.95 0 9.9 0 15 0 C15 4.95 15 9.9 15 15 C10.05 15 5.1 15 0 15 C0 10.05 0 5.1 0 0 Z " fill="#FFFFFF" transform="translate(45,75)"/>
<path d="M0 0 C4.95 0 9.9 0 15 0 C15 4.95 15 9.9 15 15 C10.05 15 5.1 15 0 15 C0 10.05 0 5.1 0 0 Z " fill="#EEEEEE" transform="translate(30,75)"/>
<path d="M0 0 C4.95 0 9.9 0 15 0 C15 4.95 15 9.9 15 15 C10.05 15 5.1 15 0 15 C0 10.05 0 5.1 0 0 Z " fill="#FFFFFF" transform="translate(15,75)"/>
<path d="M0 0 C4.95 0 9.9 0 15 0 C15 4.95 15 9.9 15 15 C10.05 15 5.1 15 0 15 C0 10.05 0 5.1 0 0 Z " fill="#EEEEEE" transform="translate(0,75)"/>
<path d="M0 0 C4.95 0 9.9 0 15 0 C15 4.95 15 9.9 15 15 C10.05 15 5.1 15 0 15 C0 10.05 0 5.1 0 0 Z " fill="#FFFFFF" transform="translate(330,60)"/>
<path d="M0 0 C4.95 0 9.9 0 15 0 C15 4.95 15 9.9 15 15 C10.05 15 5.1 15 0 15 C0 10.05 0 5.1 0 0 Z " fill="#EEEEEE" transform="translate(315,60)"/>
<path d="M0 0 C4.95 0 9.9 0 15 0 C15 4.95 15 9.9 15 15 C10.05 15 5.1 15 0 15 C0 10.05 0 5.1 0 0 Z " fill="#FFFFFF" transform="translate(300,60)"/>
<path d="M0 0 C4.95 0 9.9 0 15 0 C15 4.95 15 9.9 15 15 C10.05 15 5.1 15 0 15 C0 10.05 0 5.1 0 0 Z " fill="#EEEEEE" transform="translate(285,60)"/>
<path d="M0 0 C4.95 0 9.9 0 15 0 C15 4.95 15 9.9 15 15 C10.05 15 5.1 15 0 15 C0 10.05 0 5.1 0 0 Z " fill="#FFFFFF" transform="translate(270,60)"/>
<path d="M0 0 C4.95 0 9.9 0 15 0 C15 4.95 15 9.9 15 15 C10.05 15 5.1 15 0 15 C0 10.05 0 5.1 0 0 Z " fill="#EEEEEE" transform="translate(255,60)"/>
<path d="M0 0 C4.95 0 9.9 0 15 0 C15 4.95 15 9.9 15 15 C10.05 15 5.1 15 0 15 C0 10.05 0 5.1 0 0 Z " fill="#FFFFFF" transform="translate(240,60)"/>
<path d="M0 0 C4.95 0 9.9 0 15 0 C15 4.95 15 9.9 15 15 C10.05 15 5.1 15 0 15 C0 10.05 0 5.1 0 0 Z " fill="#EEEEEE" transform="translate(225,60)"/>
<path d="M0 0 C4.95 0 9.9 0 15 0 C15 4.95 15 9.9 15 15 C10.05 15 5.1 15 0 15 C0 10.05 0 5.1 0 0 Z " fill="#FFFFFF" transform="translate(210,60)"/>
<path d="M0 0 C4.95 0 9.9 0 15 0 C15 4.95 15 9.9 15 15 C10.05 15 5.1 15 0 15 C0 10.05 0 5.1 0 0 Z " fill="#FFFFFF" transform="translate(60,60)"/>
<path d="M0 0 C4.95 0 9.9 0 15 0 C15 4.95 15 9.9 15 15 C10.05 15 5.1 15 0 15 C0 10.05 0 5.1 0 0 Z " fill="#EEEEEE" transform="translate(45,60)"/>
<path d="M0 0 C4.95 0 9.9 0 15 0 C15 4.95 15 9.9 15 15 C10.05 15 5.1 15 0 15 C0 10.05 0 5.1 0 0 Z " fill="#FFFFFF" transform="translate(30,60)"/>
<path d="M0 0 C4.95 0 9.9 0 15 0 C15 4.95 15 9.9 15 15 C10.05 15 5.1 15 0 15 C0 10.05 0 5.1 0 0 Z " fill="#EEEEEE" transform="translate(15,60)"/>
<path d="M0 0 C4.95 0 9.9 0 15 0 C15 4.95 15 9.9 15 15 C10.05 15 5.1 15 0 15 C0 10.05 0 5.1 0 0 Z " fill="#FFFFFF" transform="translate(0,60)"/>
<path d="M0 0 C4.95 0 9.9 0 15 0 C15 4.95 15 9.9 15 15 C10.05 15 5.1 15 0 15 C0 10.05 0 5.1 0 0 Z " fill="#EEEEEE" transform="translate(330,45)"/>
<path d="M0 0 C4.95 0 9.9 0 15 0 C15 4.95 15 9.9 15 15 C10.05 15 5.1 15 0 15 C0 10.05 0 5.1 0 0 Z " fill="#FFFFFF" transform="translate(315,45)"/>
<path d="M0 0 C4.95 0 9.9 0 15 0 C15 4.95 15 9.9 15 15 C10.05 15 5.1 15 0 15 C0 10.05 0 5.1 0 0 Z " fill="#EEEEEE" transform="translate(300,45)"/>
<path d="M0 0 C4.95 0 9.9 0 15 0 C15 4.95 15 9.9 15 15 C10.05 15 5.1 15 0 15 C0 10.05 0 5.1 0 0 Z " fill="#FFFFFF" transform="translate(285,45)"/>
<path d="M0 0 C4.95 0 9.9 0 15 0 C15 4.95 15 9.9 15 15 C10.05 15 5.1 15 0 15 C0 10.05 0 5.1 0 0 Z " fill="#EEEEEE" transform="translate(270,45)"/>
<path d="M0 0 C4.95 0 9.9 0 15 0 C15 4.95 15 9.9 15 15 C10.05 15 5.1 15 0 15 C0 10.05 0 5.1 0 0 Z " fill="#FFFFFF" transform="translate(255,45)"/>
<path d="M0 0 C4.95 0 9.9 0 15 0 C15 4.95 15 9.9 15 15 C10.05 15 5.1 15 0 15 C0 10.05 0 5.1 0 0 Z " fill="#EEEEEE" transform="translate(240,45)"/>
<path d="M0 0 C4.95 0 9.9 0 15 0 C15 4.95 15 9.9 15 15 C10.05 15 5.1 15 0 15 C0 10.05 0 5.1 0 0 Z " fill="#FFFFFF" transform="translate(225,45)"/>
<path d="M0 0 C4.95 0 9.9 0 15 0 C15 4.95 15 9.9 15 15 C10.05 15 5.1 15 0 15 C0 10.05 0 5.1 0 0 Z " fill="#EEEEEE" transform="translate(210,45)"/>
<path d="M0 0 C4.95 0 9.9 0 15 0 C15 4.95 15 9.9 15 15 C10.05 15 5.1 15 0 15 C0 10.05 0 5.1 0 0 Z " fill="#FFFFFF" transform="translate(195,45)"/>
<path d="M0 0 C4.95 0 9.9 0 15 0 C15 4.95 15 9.9 15 15 C10.05 15 5.1 15 0 15 C0 10.05 0 5.1 0 0 Z " fill="#EEEEEE" transform="translate(180,45)"/>
<path d="M0 0 C4.95 0 9.9 0 15 0 C15 4.95 15 9.9 15 15 C10.05 15 5.1 15 0 15 C0 10.05 0 5.1 0 0 Z " fill="#FFFFFF" transform="translate(165,45)"/>
<path d="M0 0 C4.95 0 9.9 0 15 0 C15 4.95 15 9.9 15 15 C10.05 15 5.1 15 0 15 C0 10.05 0 5.1 0 0 Z " fill="#EEEEEE" transform="translate(60,45)"/>
<path d="M0 0 C4.95 0 9.9 0 15 0 C15 4.95 15 9.9 15 15 C10.05 15 5.1 15 0 15 C0 10.05 0 5.1 0 0 Z " fill="#FFFFFF" transform="translate(45,45)"/>
<path d="M0 0 C4.95 0 9.9 0 15 0 C15 4.95 15 9.9 15 15 C10.05 15 5.1 15 0 15 C0 10.05 0 5.1 0 0 Z " fill="#EEEEEE" transform="translate(30,45)"/>
<path d="M0 0 C4.95 0 9.9 0 15 0 C15 4.95 15 9.9 15 15 C10.05 15 5.1 15 0 15 C0 10.05 0 5.1 0 0 Z " fill="#FFFFFF" transform="translate(15,45)"/>
<path d="M0 0 C4.95 0 9.9 0 15 0 C15 4.95 15 9.9 15 15 C10.05 15 5.1 15 0 15 C0 10.05 0 5.1 0 0 Z " fill="#EEEEEE" transform="translate(0,45)"/>
<path d="M0 0 C4.95 0 9.9 0 15 0 C15 4.95 15 9.9 15 15 C10.05 15 5.1 15 0 15 C0 10.05 0 5.1 0 0 Z " fill="#FFFFFF" transform="translate(330,30)"/>
<path d="M0 0 C4.95 0 9.9 0 15 0 C15 4.95 15 9.9 15 15 C10.05 15 5.1 15 0 15 C0 10.05 0 5.1 0 0 Z " fill="#EEEEEE" transform="translate(315,30)"/>
<path d="M0 0 C4.95 0 9.9 0 15 0 C15 4.95 15 9.9 15 15 C10.05 15 5.1 15 0 15 C0 10.05 0 5.1 0 0 Z " fill="#FFFFFF" transform="translate(300,30)"/>
<path d="M0 0 C4.95 0 9.9 0 15 0 C15 4.95 15 9.9 15 15 C10.05 15 5.1 15 0 15 C0 10.05 0 5.1 0 0 Z " fill="#EEEEEE" transform="translate(285,30)"/>
<path d="M0 0 C4.95 0 9.9 0 15 0 C15 4.95 15 9.9 15 15 C10.05 15 5.1 15 0 15 C0 10.05 0 5.1 0 0 Z " fill="#FFFFFF" transform="translate(270,30)"/>
<path d="M0 0 C4.95 0 9.9 0 15 0 C15 4.95 15 9.9 15 15 C10.05 15 5.1 15 0 15 C0 10.05 0 5.1 0 0 Z " fill="#EEEEEE" transform="translate(255,30)"/>
<path d="M0 0 C4.95 0 9.9 0 15 0 C15 4.95 15 9.9 15 15 C10.05 15 5.1 15 0 15 C0 10.05 0 5.1 0 0 Z " fill="#FFFFFF" transform="translate(240,30)"/>
<path d="M0 0 C4.95 0 9.9 0 15 0 C15 4.95 15 9.9 15 15 C10.05 15 5.1 15 0 15 C0 10.05 0 5.1 0 0 Z " fill="#EEEEEE" transform="translate(225,30)"/>
<path d="M0 0 C4.95 0 9.9 0 15 0 C15 4.95 15 9.9 15 15 C10.05 15 5.1 15 0 15 C0 10.05 0 5.1 0 0 Z " fill="#FFFFFF" transform="translate(210,30)"/>
<path d="M0 0 C4.95 0 9.9 0 15 0 C15 4.95 15 9.9 15 15 C10.05 15 5.1 15 0 15 C0 10.05 0 5.1 0 0 Z " fill="#EEEEEE" transform="translate(195,30)"/>
<path d="M0 0 C4.95 0 9.9 0 15 0 C15 4.95 15 9.9 15 15 C10.05 15 5.1 15 0 15 C0 10.05 0 5.1 0 0 Z " fill="#FFFFFF" transform="translate(180,30)"/>
<path d="M0 0 C4.95 0 9.9 0 15 0 C15 4.95 15 9.9 15 15 C10.05 15 5.1 15 0 15 C0 10.05 0 5.1 0 0 Z " fill="#EEEEEE" transform="translate(165,30)"/>
<path d="M0 0 C4.95 0 9.9 0 15 0 C15 4.95 15 9.9 15 15 C10.05 15 5.1 15 0 15 C0 10.05 0 5.1 0 0 Z " fill="#FFFFFF" transform="translate(150,30)"/>
<path d="M0 0 C4.95 0 9.9 0 15 0 C15 4.95 15 9.9 15 15 C10.05 15 5.1 15 0 15 C0 10.05 0 5.1 0 0 Z " fill="#EEEEEE" transform="translate(135,30)"/>
<path d="M0 0 C4.95 0 9.9 0 15 0 C15 4.95 15 9.9 15 15 C10.05 15 5.1 15 0 15 C0 10.05 0 5.1 0 0 Z " fill="#FFFFFF" transform="translate(60,30)"/>
<path d="M0 0 C4.95 0 9.9 0 15 0 C15 4.95 15 9.9 15 15 C10.05 15 5.1 15 0 15 C0 10.05 0 5.1 0 0 Z " fill="#EEEEEE" transform="translate(45,30)"/>
<path d="M0 0 C4.95 0 9.9 0 15 0 C15 4.95 15 9.9 15 15 C10.05 15 5.1 15 0 15 C0 10.05 0 5.1 0 0 Z " fill="#FFFFFF" transform="translate(30,30)"/>
<path d="M0 0 C4.95 0 9.9 0 15 0 C15 4.95 15 9.9 15 15 C10.05 15 5.1 15 0 15 C0 10.05 0 5.1 0 0 Z " fill="#EEEEEE" transform="translate(15,30)"/>
<path d="M0 0 C4.95 0 9.9 0 15 0 C15 4.95 15 9.9 15 15 C10.05 15 5.1 15 0 15 C0 10.05 0 5.1 0 0 Z " fill="#FFFFFF" transform="translate(0,30)"/>
<path d="M0 0 C4.95 0 9.9 0 15 0 C15 4.95 15 9.9 15 15 C10.05 15 5.1 15 0 15 C0 10.05 0 5.1 0 0 Z " fill="#EEEEEE" transform="translate(330,15)"/>
<path d="M0 0 C4.95 0 9.9 0 15 0 C15 4.95 15 9.9 15 15 C10.05 15 5.1 15 0 15 C0 10.05 0 5.1 0 0 Z " fill="#FFFFFF" transform="translate(315,15)"/>
<path d="M0 0 C4.95 0 9.9 0 15 0 C15 4.95 15 9.9 15 15 C10.05 15 5.1 15 0 15 C0 10.05 0 5.1 0 0 Z " fill="#EEEEEE" transform="translate(300,15)"/>
<path d="M0 0 C4.95 0 9.9 0 15 0 C15 4.95 15 9.9 15 15 C10.05 15 5.1 15 0 15 C0 10.05 0 5.1 0 0 Z " fill="#FFFFFF" transform="translate(285,15)"/>
<path d="M0 0 C4.95 0 9.9 0 15 0 C15 4.95 15 9.9 15 15 C10.05 15 5.1 15 0 15 C0 10.05 0 5.1 0 0 Z " fill="#EEEEEE" transform="translate(270,15)"/>
<path d="M0 0 C4.95 0 9.9 0 15 0 C15 4.95 15 9.9 15 15 C10.05 15 5.1 15 0 15 C0 10.05 0 5.1 0 0 Z " fill="#FFFFFF" transform="translate(255,15)"/>
<path d="M0 0 C4.95 0 9.9 0 15 0 C15 4.95 15 9.9 15 15 C10.05 15 5.1 15 0 15 C0 10.05 0 5.1 0 0 Z " fill="#EEEEEE" transform="translate(240,15)"/>
<path d="M0 0 C4.95 0 9.9 0 15 0 C15 4.95 15 9.9 15 15 C10.05 15 5.1 15 0 15 C0 10.05 0 5.1 0 0 Z " fill="#FFFFFF" transform="translate(225,15)"/>
<path d="M0 0 C4.95 0 9.9 0 15 0 C15 4.95 15 9.9 15 15 C10.05 15 5.1 15 0 15 C0 10.05 0 5.1 0 0 Z " fill="#EEEEEE" transform="translate(210,15)"/>
<path d="M0 0 C4.95 0 9.9 0 15 0 C15 4.95 15 9.9 15 15 C10.05 15 5.1 15 0 15 C0 10.05 0 5.1 0 0 Z " fill="#FFFFFF" transform="translate(195,15)"/>
<path d="M0 0 C4.95 0 9.9 0 15 0 C15 4.95 15 9.9 15 15 C10.05 15 5.1 15 0 15 C0 10.05 0 5.1 0 0 Z " fill="#EEEEEE" transform="translate(180,15)"/>
<path d="M0 0 C4.95 0 9.9 0 15 0 C15 4.95 15 9.9 15 15 C10.05 15 5.1 15 0 15 C0 10.05 0 5.1 0 0 Z " fill="#FFFFFF" transform="translate(165,15)"/>
<path d="M0 0 C4.95 0 9.9 0 15 0 C15 4.95 15 9.9 15 15 C10.05 15 5.1 15 0 15 C0 10.05 0 5.1 0 0 Z " fill="#EEEEEE" transform="translate(150,15)"/>
<path d="M0 0 C4.95 0 9.9 0 15 0 C15 4.95 15 9.9 15 15 C10.05 15 5.1 15 0 15 C0 10.05 0 5.1 0 0 Z " fill="#FFFFFF" transform="translate(135,15)"/>
<path d="M0 0 C4.95 0 9.9 0 15 0 C15 4.95 15 9.9 15 15 C10.05 15 5.1 15 0 15 C0 10.05 0 5.1 0 0 Z " fill="#EEEEEE" transform="translate(120,15)"/>
<path d="M0 0 C4.95 0 9.9 0 15 0 C15 4.95 15 9.9 15 15 C10.05 15 5.1 15 0 15 C0 10.05 0 5.1 0 0 Z " fill="#FFFFFF" transform="translate(105,15)"/>
<path d="M0 0 C4.95 0 9.9 0 15 0 C15 4.95 15 9.9 15 15 C10.05 15 5.1 15 0 15 C0 10.05 0 5.1 0 0 Z " fill="#EEEEEE" transform="translate(60,15)"/>
<path d="M0 0 C4.95 0 9.9 0 15 0 C15 4.95 15 9.9 15 15 C10.05 15 5.1 15 0 15 C0 10.05 0 5.1 0 0 Z " fill="#FFFFFF" transform="translate(45,15)"/>
<path d="M0 0 C4.95 0 9.9 0 15 0 C15 4.95 15 9.9 15 15 C10.05 15 5.1 15 0 15 C0 10.05 0 5.1 0 0 Z " fill="#EEEEEE" transform="translate(30,15)"/>
<path d="M0 0 C4.95 0 9.9 0 15 0 C15 4.95 15 9.9 15 15 C10.05 15 5.1 15 0 15 C0 10.05 0 5.1 0 0 Z " fill="#FFFFFF" transform="translate(15,15)"/>
<path d="M0 0 C4.95 0 9.9 0 15 0 C15 4.95 15 9.9 15 15 C10.05 15 5.1 15 0 15 C0 10.05 0 5.1 0 0 Z " fill="#EEEEEE" transform="translate(0,15)"/>
<path d="M0 0 C4.95 0 9.9 0 15 0 C15 4.95 15 9.9 15 15 C10.05 15 5.1 15 0 15 C0 10.05 0 5.1 0 0 Z " fill="#EEEEEE" transform="translate(315,0)"/>
<path d="M0 0 C4.95 0 9.9 0 15 0 C15 4.95 15 9.9 15 15 C10.05 15 5.1 15 0 15 C0 10.05 0 5.1 0 0 Z " fill="#FFFFFF" transform="translate(300,0)"/>
<path d="M0 0 C4.95 0 9.9 0 15 0 C15 4.95 15 9.9 15 15 C10.05 15 5.1 15 0 15 C0 10.05 0 5.1 0 0 Z " fill="#EEEEEE" transform="translate(285,0)"/>
<path d="M0 0 C4.95 0 9.9 0 15 0 C15 4.95 15 9.9 15 15 C10.05 15 5.1 15 0 15 C0 10.05 0 5.1 0 0 Z " fill="#FFFFFF" transform="translate(270,0)"/>
<path d="M0 0 C4.95 0 9.9 0 15 0 C15 4.95 15 9.9 15 15 C10.05 15 5.1 15 0 15 C0 10.05 0 5.1 0 0 Z " fill="#EEEEEE" transform="translate(255,0)"/>
<path d="M0 0 C4.95 0 9.9 0 15 0 C15 4.95 15 9.9 15 15 C10.05 15 5.1 15 0 15 C0 10.05 0 5.1 0 0 Z " fill="#FFFFFF" transform="translate(240,0)"/>
<path d="M0 0 C4.95 0 9.9 0 15 0 C15 4.95 15 9.9 15 15 C10.05 15 5.1 15 0 15 C0 10.05 0 5.1 0 0 Z " fill="#EEEEEE" transform="translate(225,0)"/>
<path d="M0 0 C4.95 0 9.9 0 15 0 C15 4.95 15 9.9 15 15 C10.05 15 5.1 15 0 15 C0 10.05 0 5.1 0 0 Z " fill="#FFFFFF" transform="translate(210,0)"/>
<path d="M0 0 C4.95 0 9.9 0 15 0 C15 4.95 15 9.9 15 15 C10.05 15 5.1 15 0 15 C0 10.05 0 5.1 0 0 Z " fill="#EEEEEE" transform="translate(195,0)"/>
<path d="M0 0 C4.95 0 9.9 0 15 0 C15 4.95 15 9.9 15 15 C10.05 15 5.1 15 0 15 C0 10.05 0 5.1 0 0 Z " fill="#FFFFFF" transform="translate(180,0)"/>
<path d="M0 0 C4.95 0 9.9 0 15 0 C15 4.95 15 9.9 15 15 C10.05 15 5.1 15 0 15 C0 10.05 0 5.1 0 0 Z " fill="#EEEEEE" transform="translate(165,0)"/>
<path d="M0 0 C4.95 0 9.9 0 15 0 C15 4.95 15 9.9 15 15 C10.05 15 5.1 15 0 15 C0 10.05 0 5.1 0 0 Z " fill="#FFFFFF" transform="translate(150,0)"/>
<path d="M0 0 C4.95 0 9.9 0 15 0 C15 4.95 15 9.9 15 15 C10.05 15 5.1 15 0 15 C0 10.05 0 5.1 0 0 Z " fill="#EEEEEE" transform="translate(135,0)"/>
<path d="M0 0 C4.95 0 9.9 0 15 0 C15 4.95 15 9.9 15 15 C10.05 15 5.1 15 0 15 C0 10.05 0 5.1 0 0 Z " fill="#FFFFFF" transform="translate(120,0)"/>
<path d="M0 0 C4.95 0 9.9 0 15 0 C15 4.95 15 9.9 15 15 C10.05 15 5.1 15 0 15 C0 10.05 0 5.1 0 0 Z " fill="#EEEEEE" transform="translate(105,0)"/>
<path d="M0 0 C4.95 0 9.9 0 15 0 C15 4.95 15 9.9 15 15 C10.05 15 5.1 15 0 15 C0 10.05 0 5.1 0 0 Z " fill="#FFFFFF" transform="translate(90,0)"/>
<path d="M0 0 C4.95 0 9.9 0 15 0 C15 4.95 15 9.9 15 15 C10.05 15 5.1 15 0 15 C0 10.05 0 5.1 0 0 Z " fill="#EEEEEE" transform="translate(75,0)"/>
<path d="M0 0 C4.95 0 9.9 0 15 0 C15 4.95 15 9.9 15 15 C10.05 15 5.1 15 0 15 C0 10.05 0 5.1 0 0 Z " fill="#FFFFFF" transform="translate(60,0)"/>
<path d="M0 0 C4.95 0 9.9 0 15 0 C15 4.95 15 9.9 15 15 C10.05 15 5.1 15 0 15 C0 10.05 0 5.1 0 0 Z " fill="#EEEEEE" transform="translate(45,0)"/>
<path d="M0 0 C4.95 0 9.9 0 15 0 C15 4.95 15 9.9 15 15 C10.05 15 5.1 15 0 15 C0 10.05 0 5.1 0 0 Z " fill="#FFFFFF" transform="translate(30,0)"/>
<path d="M0 0 C4.95 0 9.9 0 15 0 C15 4.95 15 9.9 15 15 C10.05 15 5.1 15 0 15 C0 10.05 0 5.1 0 0 Z " fill="#FFFFFF" transform="translate(0,0)"/>
<path d="M0 0 C4.95 0 9.9 0 15 0 C15 4.95 15 9.9 15 15 C4.16015625 15.09765625 4.16015625 15.09765625 1 15 C0 14 0 14 -0.09765625 10.83984375 C-0.04882812 5.41992188 -0.04882812 5.41992188 0 0 Z " fill="#EEEEEE" transform="translate(210,75)"/>
<path d="M0 0 C4.95 0 9.9 0 15 0 C15 4.95 15 9.9 15 15 C10.92102718 16.35965761 9.01602521 15.47254258 5 14 C2.52785504 12.46390993 0.30605183 10.78836673 -2 9 C-1.34 8.67 -0.68 8.34 0 8 C0 5.36 0 2.72 0 0 Z " fill="#FBFBFC" transform="translate(255,105)"/>
<path d="M0 0 C1.588125 -0.061875 3.17625 -0.12375 4.8125 -0.1875 C6.15248047 -0.23970703 6.15248047 -0.23970703 7.51953125 -0.29296875 C10.46433437 0.05484264 11.13954408 0.78197898 13 3 C13.66 3.33 14.32 3.66 15 4 C15 7.63 15 11.26 15 15 C12.05613377 16.47193312 9.62609964 15.84936173 6.375 15.5625 C4.27125 15.376875 2.1675 15.19125 0 15 C0 10.05 0 5.1 0 0 Z " fill="#FEFEFE" transform="translate(75,105)"/>
<path d="M0 0 C0.33 0.99 0.66 1.98 1 3 C3.97 3 6.94 3 10 3 C10 7.95 10 12.9 10 18 C-2.75 18.125 -2.75 18.125 -5 17 C-4.31063929 13.08878502 -3.21749819 9.44491404 -1.9375 5.6875 C-1.57527344 4.61886719 -1.21304688 3.55023438 -0.83984375 2.44921875 C-0.56269531 1.64097656 -0.28554687 0.83273438 0 0 Z " fill="#E8E8E9" transform="translate(125,222)"/>
<path d="M0 0 C4.95 0 9.9 0 15 0 C15 4.95 15 9.9 15 15 C14.01 15.33 13.02 15.66 12 16 C10.16796875 14.890625 10.16796875 14.890625 8.1875 13.25 C4.94638919 10.67388604 1.79521463 8.70784658 -2 7 C-1.34 6.67 -0.68 6.34 0 6 C0 4.02 0 2.04 0 0 Z " fill="#EAEAEB" transform="translate(120,135)"/>
<path d="M0 0 C0 9.9 0 19.8 0 30 C-0.33 30 -0.66 30 -1 30 C-1 25.38 -1 20.76 -1 16 C-4.3 16 -7.6 16 -11 16 C-11 11.05 -11 6.1 -11 1 C-8.5559375 0.7525 -8.5559375 0.7525 -6.0625 0.5 C-4.68771484 0.36078125 -4.68771484 0.36078125 -3.28515625 0.21875 C-1 0 -1 0 0 0 Z " fill="#FFFFFF" transform="translate(86,284)"/>
<path d="M0 0 C0.33 0 0.66 0 1 0 C1 5.94 1 11.88 1 18 C0.67 17.34 0.34 16.68 0 16 C-3.3 16 -6.6 16 -10 16 C-10 11.05 -10 6.1 -10 1 C-8.535625 1.020625 -7.07125 1.04125 -5.5625 1.0625 C-4.04167482 1.08392007 -2.51928038 1.07179964 -1 1 C-0.67 0.67 -0.34 0.34 0 0 Z " fill="#EEEEEE" transform="translate(85,89)"/>
<path d="M0 0 C2 2 2 2 2.265625 4.96875 C2.26046875 6.1340625 2.2553125 7.299375 2.25 8.5 C2.25515625 9.6653125 2.2603125 10.830625 2.265625 12.03125 C2 15 2 15 0 17 C-3.05383879 16.96692593 -5.96870896 16.43304158 -9 16 C-9 11.05 -9 6.1 -9 1 C-2.1640625 0.0234375 -2.1640625 0.0234375 0 0 Z " fill="#FEFEFE" transform="translate(84,44)"/>
<path d="M0 0 C3.63 0 7.26 0 11 0 C11 5.28 11 10.56 11 16 C10.34 15.67 9.68 15.34 9 15 C5.99525503 14.86440682 3.00931153 14.95700984 0 15 C0 10.05 0 5.1 0 0 Z " fill="#EEEEEE" transform="translate(75,30)"/>
<path d="M0 0 C7.71484375 -0.09765625 7.71484375 -0.09765625 10 0 C11.87243981 1.87243981 11.17380392 4.93659518 11.1875 7.4375 C11.20167969 8.61183594 11.21585938 9.78617188 11.23046875 10.99609375 C11 14 11 14 9 16 C5.94616121 15.96692593 3.03129104 15.43304158 0 15 C0 10.05 0 5.1 0 0 Z " fill="#FEFEFE" transform="translate(75,75)"/>
<path d="M0 0 C2.26598448 3.39897673 2.23742654 4.56319173 2.1953125 8.54296875 C2.18564453 10.15268555 2.18564453 10.15268555 2.17578125 11.79492188 C2.15902344 12.91447266 2.14226562 14.03402344 2.125 15.1875 C2.11597656 16.31865234 2.10695313 17.44980469 2.09765625 18.61523438 C2.07406862 21.41036828 2.041153 24.20507845 2 27 C-0.97 27 -3.94 27 -7 27 C-6.47650497 20.3801072 -5.15274936 14.68234447 -2.9375 8.4375 C-2.65583984 7.61958984 -2.37417969 6.80167969 -2.08398438 5.95898438 C-1.39764559 3.96976517 -0.7000155 1.9844476 0 0 Z " fill="#FBFBFC" transform="translate(118,243)"/>
<path d="M0 0 C4.29 0 8.58 0 13 0 C12.01 0.33 11.02 0.66 10 1 C10 5.62 10 10.24 10 15 C6.7 15 3.4 15 0 15 C0 10.05 0 5.1 0 0 Z " fill="#EEEEEE" transform="translate(75,120)"/>
<path d="M0 0 C3.3 0 6.6 0 10 0 C10 4.95 10 9.9 10 15 C6.7 15 3.4 15 0 15 C0 10.05 0 5.1 0 0 Z " fill="#EEEEEE" transform="translate(75,300)"/>
<path d="M0 0 C3.3 0 6.6 0 10 0 C10 4.95 10 9.9 10 15 C6.7 15 3.4 15 0 15 C0 10.05 0 5.1 0 0 Z " fill="#EEEEEE" transform="translate(75,270)"/>
<path d="M0 0 C3.3 0 6.6 0 10 0 C10 4.95 10 9.9 10 15 C6.7 15 3.4 15 0 15 C0 10.05 0 5.1 0 0 Z " fill="#EEEEEE" transform="translate(75,240)"/>
<path d="M0 0 C3.3 0 6.6 0 10 0 C10 4.95 10 9.9 10 15 C6.7 15 3.4 15 0 15 C0 10.05 0 5.1 0 0 Z " fill="#FFFFFF" transform="translate(275,210)"/>
<path d="M0 0 C3.3 0 6.6 0 10 0 C10 4.95 10 9.9 10 15 C6.7 15 3.4 15 0 15 C0 10.05 0 5.1 0 0 Z " fill="#EEEEEE" transform="translate(75,210)"/>
<path d="M0 0 C3.3 0 6.6 0 10 0 C10 4.95 10 9.9 10 15 C6.7 15 3.4 15 0 15 C0 10.05 0 5.1 0 0 Z " fill="#EEEEEE" transform="translate(75,180)"/>
<path d="M0 0 C3.3 0 6.6 0 10 0 C10 4.95 10 9.9 10 15 C6.7 15 3.4 15 0 15 C0 10.05 0 5.1 0 0 Z " fill="#EEEEEE" transform="translate(75,150)"/>
<path d="M0 0 C1.32 0.33 2.64 0.66 4 1 C3.67 4.63 3.34 8.26 3 12 C-0.12522772 12.05378021 -3.2495371 12.09356575 -6.375 12.125 C-7.26445312 12.14175781 -8.15390625 12.15851563 -9.0703125 12.17578125 C-9.92109375 12.18222656 -10.771875 12.18867188 -11.6484375 12.1953125 C-12.82672119 12.21102295 -12.82672119 12.21102295 -14.02880859 12.22705078 C-16 12 -16 12 -18 10 C-16.95199219 9.44570312 -15.90398437 8.89140625 -14.82421875 8.3203125 C-13.44526849 7.58862461 -12.06636466 6.8568492 -10.6875 6.125 C-9.99720703 5.76019531 -9.30691406 5.39539063 -8.59570312 5.01953125 C-7.92861328 4.66503906 -7.26152344 4.31054688 -6.57421875 3.9453125 C-5.65515747 3.45828857 -5.65515747 3.45828857 -4.7175293 2.96142578 C-3.09741352 2.05452942 -1.54484566 1.0298971 0 0 Z " fill="#F9F9FA" transform="translate(267,228)"/>
<path d="M0 0 C2.13586678 3.20380017 2.23132175 4.01939967 2.125 7.6875 C2.10695313 8.49574219 2.08890625 9.30398438 2.0703125 10.13671875 C2.03550781 11.05904297 2.03550781 11.05904297 2 12 C3.32 12.33 4.64 12.66 6 13 C5.62488281 13.42410156 5.24976562 13.84820312 4.86328125 14.28515625 C2.18114838 17.35913725 -0.3145665 20.40480463 -2.5625 23.8125 C-4.62974276 26.8059749 -6.38931343 28.07153774 -10 29 C-9.525625 27.948125 -9.05125 26.89625 -8.5625 25.8125 C-7.30676259 22.89824149 -6.47765619 20.15253086 -6 17 C-5.34 17 -4.68 17 -4 17 C-3.896875 16.05125 -3.79375 15.1025 -3.6875 14.125 C-3.0089081 9.26508446 -1.4914524 4.66196126 0 0 Z " fill="#EEEEF0" transform="translate(103,288)"/>
<path d="M0 0 C2.97 0 5.94 0 9 0 C9 4.95 9 9.9 9 15 C6.03 15 3.06 15 0 15 C0 10.05 0 5.1 0 0 Z " fill="#EEEEEE" transform="translate(276,195)"/>
<path d="M0 0 C2.97 0 5.94 0 9 0 C9 4.95 9 9.9 9 15 C6.03 15 3.06 15 0 15 C0 10.05 0 5.1 0 0 Z " fill="#EEEEEE" transform="translate(276,165)"/>
<path d="M0 0 C2.97 0 5.94 0 9 0 C9 4.95 9 9.9 9 15 C6.03 15 3.06 15 0 15 C0 10.05 0 5.1 0 0 Z " fill="#EEEEEE" transform="translate(276,135)"/>
<path d="M0 0 C0.66 0.33 1.32 0.66 2 1 C1.67 1.33 1.34 1.66 1 2 C0.76636119 3.84891946 0.58696365 5.70488031 0.4375 7.5625 C0.293125 9.356875 0.14875 11.15125 0 13 C-4.95 13 -9.9 13 -15 13 C-15.33 11.68 -15.66 10.36 -16 9 C-4.15114423 1.7642363 -4.15114423 1.7642363 0 0 Z " fill="#E9E9EA" transform="translate(105,317)"/>
<path d="M0 0 C4.62 0 9.24 0 14 0 C14 4.95 14 9.9 14 15 C12.35 15.33 10.7 15.66 9 16 C9.103125 14.906875 9.20625 13.81375 9.3125 12.6875 C9.209375 11.470625 9.10625 10.25375 9 9 C6.59141286 7.1375562 6.59141286 7.1375562 4 6 C4 5.34 4 4.68 4 4 C3.01 3.67 2.02 3.34 1 3 C0.67 2.01 0.34 1.02 0 0 Z " fill="#E8E9EA" transform="translate(136,150)"/>
<path d="M0 0 C4.95 0 9.9 0 15 0 C15.1953125 2.79947917 15.390625 5.59895833 15.5859375 8.3984375 C15.76363964 11.15508879 15.76363964 11.15508879 18 13 C14.33118845 12.29445932 11.29549466 10.72264494 8 9 C8 8.34 8 7.68 8 7 C7.05125 6.71125 6.1025 6.4225 5.125 6.125 C2 5 2 5 0 3 C0 2.01 0 1.02 0 0 Z " fill="#F9F9FA" transform="translate(90,120)"/>
<path d="M0 0 C4.62 0 9.24 0 14 0 C12.28034076 3.43931848 11.21668005 5.0110624 8.5625 7.5625 C7.96566406 8.14128906 7.36882812 8.72007812 6.75390625 9.31640625 C5.88572266 10.14978516 5.88572266 10.14978516 5 11 C3.99772986 11.9977247 2.99694659 12.99695588 2 14 C1.34 13.67 0.68 13.34 0 13 C0 8.71 0 4.42 0 0 Z " fill="#FCFCFC" transform="translate(225,165)"/>
<path d="M0 0 C0 4.95 0 9.9 0 15 C-4.455 15.495 -4.455 15.495 -9 16 C-9.36196676 10.20853178 -8.38210489 6.3139263 -6 1 C-4 0 -4 0 0 0 Z " fill="#F9F9FA" transform="translate(150,165)"/>
<path d="M0 0 C0.33 0.66 0.66 1.32 1 2 C0.319375 2.66 -0.36125 3.32 -1.0625 4 C-4.06010213 6.97190839 -6.74787019 10.18536092 -9.44921875 13.42578125 C-9.96097656 13.94527344 -10.47273437 14.46476563 -11 15 C-11.66 15 -12.32 15 -13 15 C-13 10.38 -13 5.76 -13 1 C-6.565 0.505 -6.565 0.505 0 0 Z " fill="#FCFCFD" transform="translate(253,149)"/>
<path d="M0 0 C0.6640625 1.78515625 0.6640625 1.78515625 1 4 C-0.0390625 5.74609375 -0.0390625 5.74609375 -1.625 7.4375 C-2.18832031 8.04722656 -2.75164062 8.65695313 -3.33203125 9.28515625 C-5.53341402 11.54840457 -7.74104613 13.79357994 -10 16 C-11.50137174 17.498627 -13.00123916 18.99876187 -14.5 20.5 C-15.28503906 21.28375 -16.07007813 22.0675 -16.87890625 22.875 C-18.40813644 24.40704646 -19.92635726 25.95011002 -21.4375 27.5 C-33.11063918 38.88842847 -33.11063918 38.88842847 -38 41 C-33.92626937 36.04546274 -29.54844743 31.49739706 -24.97949219 27.00341797 C-22.48762994 24.53817451 -20.1210724 22.05496295 -17.9375 19.3125 C-17.298125 18.549375 -16.65875 17.78625 -16 17 C-15.34 17 -14.68 17 -14 17 C-13.773125 16.443125 -13.54625 15.88625 -13.3125 15.3125 C-11.08414369 11.38634841 -7.86592624 8.66454805 -4.3125 5.9375 C-2.04518336 4.03785633 -1.06752752 2.71734277 0 0 Z " fill="#273153" transform="translate(267,136)"/>
<path d="M0 0 C0 3.63 0 7.26 0 11 C-4.62 11 -9.24 11 -14 11 C-11 6 -11 6 -8.8125 5.1875 C-8.214375 5.125625 -7.61625 5.06375 -7 5 C-7 4.34 -7 3.68 -7 3 C-2.61538462 0 -2.61538462 0 0 0 Z " fill="#F9FAFA" transform="translate(225,154)"/>
<path d="M0 0 C0.99 0 1.98 0 3 0 C3 5.61 3 11.22 3 17 C-2.94 17 -8.88 17 -15 17 C-15 16.34 -15 15.68 -15 15 C-10.05 15 -5.1 15 0 15 C0 10.05 0 5.1 0 0 Z " fill="#EFEFEF" transform="translate(345,330)"/>
<path d="M0 0 C0.66 0.33 1.32 0.66 2 1 C1.67 1.33 1.34 1.66 1 2 C0.63239269 4.32817964 0.29758419 6.6618385 0 9 C-3.96 9 -7.92 9 -12 9 C-10.68884949 5.06654848 -9.15787222 4.67625924 -5.5625 2.75 C-4.57378906 2.20859375 -3.58507812 1.6671875 -2.56640625 1.109375 C-1.71949219 0.74328125 -0.87257812 0.3771875 0 0 Z " fill="#EDEDEE" transform="translate(180,276)"/>
<path d="M0 0 C1.21816406 0.03480469 1.21816406 0.03480469 2.4609375 0.0703125 C3.68683594 0.09738281 3.68683594 0.09738281 4.9375 0.125 C5.87722656 0.15980469 5.87722656 0.15980469 6.8359375 0.1953125 C6.8359375 2.1753125 6.8359375 4.1553125 6.8359375 6.1953125 C3.63983198 6.1953125 2.41876124 5.64859708 -0.3515625 4.1953125 C-1.06699219 3.8240625 -1.78242188 3.4528125 -2.51953125 3.0703125 C-3.06222656 2.7815625 -3.60492188 2.4928125 -4.1640625 2.1953125 C-2.1640625 0.1953125 -2.1640625 0.1953125 0 0 Z " fill="#ECECED" transform="translate(188.1640625,74.8046875)"/>
<path d="M0 0 C0.99 0 1.98 0 3 0 C3 4.95 3 9.9 3 15 C2.01 15 1.02 15 0 15 C0 10.05 0 5.1 0 0 Z " fill="#FFFFFF" transform="translate(345,315)"/>
<path d="M0 0 C0.99 0 1.98 0 3 0 C3 4.95 3 9.9 3 15 C2.01 15 1.02 15 0 15 C0 10.05 0 5.1 0 0 Z " fill="#EEEEEE" transform="translate(345,300)"/>
<path d="M0 0 C0.99 0 1.98 0 3 0 C3 4.95 3 9.9 3 15 C2.01 15 1.02 15 0 15 C0 10.05 0 5.1 0 0 Z " fill="#FFFFFF" transform="translate(345,285)"/>
<path d="M0 0 C0.99 0 1.98 0 3 0 C3 4.95 3 9.9 3 15 C2.01 15 1.02 15 0 15 C0 10.05 0 5.1 0 0 Z " fill="#EEEEEE" transform="translate(345,270)"/>
<path d="M0 0 C0.99 0 1.98 0 3 0 C3 4.95 3 9.9 3 15 C2.01 15 1.02 15 0 15 C0 10.05 0 5.1 0 0 Z " fill="#FFFFFF" transform="translate(345,255)"/>
<path d="M0 0 C0.99 0 1.98 0 3 0 C3 4.95 3 9.9 3 15 C2.01 15 1.02 15 0 15 C0 10.05 0 5.1 0 0 Z " fill="#EEEEEE" transform="translate(345,240)"/>
<path d="M0 0 C0.99 0 1.98 0 3 0 C3 4.95 3 9.9 3 15 C2.01 15 1.02 15 0 15 C0 10.05 0 5.1 0 0 Z " fill="#FFFFFF" transform="translate(345,225)"/>
<path d="M0 0 C0.99 0 1.98 0 3 0 C3 4.95 3 9.9 3 15 C2.01 15 1.02 15 0 15 C0 10.05 0 5.1 0 0 Z " fill="#EEEEEE" transform="translate(345,210)"/>
<path d="M0 0 C0.99 0 1.98 0 3 0 C3 4.95 3 9.9 3 15 C2.01 15 1.02 15 0 15 C0 10.05 0 5.1 0 0 Z " fill="#FFFFFF" transform="translate(345,195)"/>
<path d="M0 0 C0.99 0 1.98 0 3 0 C3 4.95 3 9.9 3 15 C2.01 15 1.02 15 0 15 C0 10.05 0 5.1 0 0 Z " fill="#EEEEEE" transform="translate(345,180)"/>
<path d="M0 0 C0.99 0 1.98 0 3 0 C3 4.95 3 9.9 3 15 C2.01 15 1.02 15 0 15 C0 10.05 0 5.1 0 0 Z " fill="#FFFFFF" transform="translate(345,165)"/>
<path d="M0 0 C0.99 0 1.98 0 3 0 C3 4.95 3 9.9 3 15 C2.01 15 1.02 15 0 15 C0 10.05 0 5.1 0 0 Z " fill="#EEEEEE" transform="translate(345,150)"/>
<path d="M0 0 C0.99 0 1.98 0 3 0 C3 4.95 3 9.9 3 15 C2.01 15 1.02 15 0 15 C0 10.05 0 5.1 0 0 Z " fill="#FFFFFF" transform="translate(345,135)"/>
<path d="M0 0 C0.99 0 1.98 0 3 0 C3 4.95 3 9.9 3 15 C2.01 15 1.02 15 0 15 C0 10.05 0 5.1 0 0 Z " fill="#EEEEEE" transform="translate(345,120)"/>
<path d="M0 0 C0.99 0 1.98 0 3 0 C3 4.95 3 9.9 3 15 C2.01 15 1.02 15 0 15 C0 10.05 0 5.1 0 0 Z " fill="#FFFFFF" transform="translate(345,105)"/>
<path d="M0 0 C0.99 0 1.98 0 3 0 C3 4.95 3 9.9 3 15 C2.01 15 1.02 15 0 15 C0 10.05 0 5.1 0 0 Z " fill="#EEEEEE" transform="translate(345,90)"/>
<path d="M0 0 C0.99 0 1.98 0 3 0 C3 4.95 3 9.9 3 15 C2.01 15 1.02 15 0 15 C0 10.05 0 5.1 0 0 Z " fill="#FFFFFF" transform="translate(345,75)"/>
<path d="M0 0 C0.99 0 1.98 0 3 0 C3 4.95 3 9.9 3 15 C2.01 15 1.02 15 0 15 C0 10.05 0 5.1 0 0 Z " fill="#EEEEEE" transform="translate(345,60)"/>
<path d="M0 0 C0.99 0 1.98 0 3 0 C3 4.95 3 9.9 3 15 C2.01 15 1.02 15 0 15 C0 10.05 0 5.1 0 0 Z " fill="#EEEEEE" transform="translate(345,30)"/>
<path d="M0 0 C0.99 0 1.98 0 3 0 C3 4.95 3 9.9 3 15 C2.01 15 1.02 15 0 15 C0 10.05 0 5.1 0 0 Z " fill="#EEEEEE" transform="translate(345,0)"/>
<path d="M0 0 C3.63 0.33 7.26 0.66 11 1 C11 2.98 11 4.96 11 7 C7.05123902 6.43589129 4.24365824 5.34264206 1 3 C0.67 2.01 0.34 1.02 0 0 Z " fill="#F1F2F3" transform="translate(109,134)"/>
<path d="M0 0 C2.13586678 3.20380017 2.23132175 4.01939967 2.125 7.6875 C2.10695312 8.49574219 2.08890625 9.30398437 2.0703125 10.13671875 C2.03550781 11.05904297 2.03550781 11.05904297 2 12 C0.02 12.66 -1.96 13.32 -4 14 C-3.52188823 12.22888156 -3.0424722 10.45811517 -2.5625 8.6875 C-2.29566406 7.70136719 -2.02882812 6.71523437 -1.75390625 5.69921875 C-1.21920575 3.78482474 -0.62855462 1.88566385 0 0 Z " fill="#D8D9DE" transform="translate(133,198)"/>
<path d="M0 0 C0 1.98 0 3.96 0 6 C-2.97 6 -5.94 6 -9 6 C-9 5.01 -9 4.02 -9 3 C-3.375 0 -3.375 0 0 0 Z " fill="#F5F6F7" transform="translate(150,294)"/>
<path d="M0 0 C2.13586678 3.20380017 2.23132175 4.01939967 2.125 7.6875 C2.10695313 8.49574219 2.08890625 9.30398437 2.0703125 10.13671875 C2.03550781 11.05904297 2.03550781 11.05904297 2 12 C0.02 12.66 -1.96 13.32 -4 14 C-3.79503906 13.32453125 -3.59007813 12.6490625 -3.37890625 11.953125 C-3.10949219 11.06109375 -2.84007813 10.1690625 -2.5625 9.25 C-2.16224609 7.92742187 -2.16224609 7.92742187 -1.75390625 6.578125 C-1.11531506 4.39434165 -0.53224167 2.21164502 0 0 Z " fill="#DEDFE2" transform="translate(118,243)"/>
<path d="M0 0 C0.99 0.33 1.98 0.66 3 1 C2.67 2.98 2.34 4.96 2 7 C-0.64 7 -3.28 7 -6 7 C-5.34 5.68 -4.68 4.36 -4 3 C-3.34 3 -2.68 3 -2 3 C-2 2.34 -2 1.68 -2 1 C-1.34 0.67 -0.68 0.34 0 0 Z " fill="#F8F8F9" transform="translate(238,143)"/>
<path d="M0 0 C4.55315948 0.61811534 8.28459767 2.46765893 12.3125 4.5625 C13.28026367 5.0565332 13.28026367 5.0565332 14.26757812 5.56054688 C15.84785228 6.36824255 17.42432105 7.18337613 19 8 C18.67 8.66 18.34 9.32 18 10 C13.48548686 8.6510689 9.67722719 6.83381706 5.625 4.4375 C4.56539062 3.81746094 3.50578125 3.19742188 2.4140625 2.55859375 C1.61742187 2.04425781 0.82078125 1.52992187 0 1 C0 0.67 0 0.34 0 0 Z " fill="#263052" transform="translate(232,104)"/>
<path d="M0 0 C2.64 0 5.28 0 8 0 C8 1.65 8 3.3 8 5 C9.32 5.33 10.64 5.66 12 6 C11.67 6.66 11.34 7.32 11 8 C7.37 6.02 3.74 4.04 0 2 C0 1.34 0 0.68 0 0 Z " fill="#F9F9FA" transform="translate(157,60)"/>
<path d="M0 0 C2.13586678 3.20380017 2.23132175 4.01939967 2.125 7.6875 C2.10695313 8.49574219 2.08890625 9.30398438 2.0703125 10.13671875 C2.03550781 11.05904297 2.03550781 11.05904297 2 12 C0.35 12 -1.3 12 -3 12 C-2.01 8.04 -1.02 4.08 0 0 Z " fill="#E3E3E6" transform="translate(103,288)"/>
<path d="M0 0 C0.99 0.33 1.98 0.66 3 1 C3 2.32 3 3.64 3 5 C-0.3 5 -3.6 5 -7 5 C-5.60683123 2.21366246 -3.84019484 2.06507306 -1 1 C-0.67 0.67 -0.34 0.34 0 0 Z " fill="#DADBDF" transform="translate(117,310)"/>
<path d="M0 0 C3.66881155 0.70554068 6.70450534 2.27735506 10 4 C10 4.66 10 5.32 10 6 C6.51329166 4.8905928 3.22515763 3.73662334 0 2 C0 1.34 0 0.68 0 0 Z " fill="#333B5A" transform="translate(162,143)"/>
<path d="M0 0 C5.75 1.75 5.75 1.75 8 4 C5.69 4.33 3.38 4.66 1 5 C0.67 3.35 0.34 1.7 0 0 Z " fill="#D6D7DC" transform="translate(194,160)"/>
<path d="M0 0 C4.87362847 0.45336079 7.39042389 1.7089159 11 5 C6.62886504 4.49172849 3.61004338 3.54826592 0 1 C0 0.67 0 0.34 0 0 Z " fill="#212B4E" transform="translate(103,34)"/>
<path d="M0 0 C3.77545388 1.09068668 6.47043472 1.9083091 9 5 C6.36 4.67 3.72 4.34 1 4 C0.67 2.68 0.34 1.36 0 0 Z " fill="#FBFBFB" transform="translate(164,146)"/>
<path d="M0 0 C-6.75 4 -6.75 4 -9 4 C-8 1 -8 1 -6.1875 -0.25 C-3.66056586 -1.11637742 -2.47778006 -0.88492145 0 0 Z " fill="#313A59" transform="translate(184,275)"/>
<path d="M0 0 C4.21912747 0.4794463 6.79663178 1.16625119 10 4 C7 5 7 5 5.17578125 4.22265625 C3.45052083 3.1484375 1.72526042 2.07421875 0 1 C0 0.67 0 0.34 0 0 Z " fill="#2A3354" transform="translate(191,82)"/>
<path d="M0 0 C0 1.32 0 2.64 0 4 C-2.97 3.505 -2.97 3.505 -6 3 C-4.60722783 0.21445565 -3.01148006 0 0 0 Z " fill="#D8D9DD" transform="translate(255,236)"/>
</svg>
