<?xml version="1.0" encoding="utf-8"?>
<!-- Generator: Adobe Illustrator 16.0.0, SVG Export Plug-In . SVG Version: 6.00 Build 0)  -->
<!DOCTYPE svg PUBLIC "-//W3C//DTD SVG 1.1//EN" "http://www.w3.org/Graphics/SVG/1.1/DTD/svg11.dtd">
<svg version="1.1" id="Layer_1" xmlns="http://www.w3.org/2000/svg" xmlns:xlink="http://www.w3.org/1999/xlink" x="0px" y="0px"
	 width="920px" height="920px" viewBox="0 0 920 920" enable-background="new 0 0 920 920" xml:space="preserve">
<g id="Slaeforce_360_sv">
	<path fill="#FFFFFF" d="M920.441,460.451c0,254.05-205.949,460.001-460,460.001c-254.049,0-460-205.949-460-460.001
		c0-254.049,205.95-459.999,460-459.999C714.492,0.454,920.441,206.402,920.441,460.451z"/>
	<circle fill="#B7E5FA" cx="460.442" cy="460.451" r="205.952"/>
	<g>
		<path fill="none" stroke="#F15B2B" stroke-width="3" stroke-miterlimit="10" d="M482.313,159.239c0,1.104-0.896,2-2,2h-55.321
			c-1.104,0-2-0.896-2-2v-55.322c0-1.104,0.896-2,2-2h55.321c1.104,0,2,0.896,2,2V159.239z"/>
		<polyline fill="none" stroke="#F15B2B" stroke-width="3" stroke-miterlimit="10" points="471.761,114.486 461.042,125.526 
			456.542,120.488 443.465,132.921 438.107,127.455 422.993,141.603 		"/>
		<polyline fill="none" stroke="#F15B2B" stroke-width="3" stroke-miterlimit="10" points="462.008,113.915 472.512,113.915 
			472.512,123.167 		"/>
		
			<line fill="none" stroke="#F15B2B" stroke-width="3" stroke-miterlimit="10" x1="434.174" y1="160.739" x2="434.174" y2="148.095"/>
		
			<line fill="none" stroke="#F15B2B" stroke-width="3" stroke-miterlimit="10" x1="446.608" y1="160.739" x2="446.608" y2="141.909"/>
		
			<line fill="none" stroke="#F15B2B" stroke-width="3" stroke-miterlimit="10" x1="459.045" y1="160.739" x2="459.045" y2="136.66"/>
		
			<line fill="none" stroke="#F15B2B" stroke-width="3" stroke-miterlimit="10" x1="471.482" y1="160.739" x2="471.482" y2="130.537"/>
	</g>
	<g>
		<path fill="#010101" d="M428.322,193.554c-0.772-0.347-1.379-0.829-1.818-1.446c-0.44-0.616-0.667-1.329-0.681-2.137h2.062
			c0.071,0.694,0.357,1.279,0.862,1.753c0.502,0.477,1.235,0.713,2.2,0.713c0.921,0,1.647-0.229,2.18-0.691
			c0.531-0.459,0.796-1.052,0.796-1.774c0-0.566-0.156-1.027-0.468-1.382c-0.312-0.354-0.701-0.623-1.17-0.808
			c-0.468-0.186-1.099-0.384-1.893-0.597c-0.977-0.255-1.761-0.51-2.349-0.766c-0.589-0.255-1.092-0.654-1.51-1.2
			c-0.418-0.546-0.628-1.279-0.628-2.201c0-0.809,0.206-1.523,0.617-2.147c0.411-0.623,0.989-1.105,1.733-1.445
			c0.744-0.34,1.597-0.51,2.562-0.51c1.389,0,2.527,0.348,3.412,1.042c0.886,0.693,1.387,1.616,1.499,2.764h-2.123
			c-0.07-0.567-0.368-1.066-0.894-1.499c-0.525-0.433-1.219-0.649-2.083-0.649c-0.81,0-1.468,0.21-1.978,0.628
			c-0.511,0.418-0.766,1.003-0.766,1.753c0,0.539,0.152,0.979,0.458,1.319c0.304,0.34,0.68,0.598,1.126,0.775
			c0.446,0.178,1.074,0.38,1.882,0.605c0.979,0.27,1.766,0.534,2.36,0.798c0.595,0.262,1.104,0.666,1.53,1.212
			c0.425,0.546,0.638,1.285,0.638,2.223c0,0.722-0.191,1.402-0.574,2.04c-0.383,0.639-0.95,1.155-1.701,1.552
			c-0.751,0.397-1.637,0.596-2.656,0.596C429.97,194.076,429.094,193.902,428.322,193.554z"/>
		<path fill="#010101" d="M438.729,184.922c0.481-0.899,1.145-1.599,1.988-2.094c0.842-0.496,1.782-0.744,2.817-0.744
			c1.021,0,1.907,0.22,2.659,0.659c0.75,0.439,1.31,0.992,1.679,1.657v-2.125h1.956v11.649h-1.956v-2.168
			c-0.382,0.681-0.954,1.244-1.711,1.689c-0.759,0.447-1.642,0.67-2.647,0.67c-1.035,0-1.97-0.255-2.807-0.766
			c-0.837-0.51-1.496-1.226-1.978-2.146c-0.481-0.922-0.724-1.97-0.724-3.146C438.006,186.868,438.247,185.823,438.729,184.922z
			 M447.34,185.784c-0.354-0.652-0.833-1.151-1.434-1.5c-0.604-0.347-1.267-0.521-1.989-0.521c-0.722,0-1.381,0.17-1.978,0.511
			c-0.595,0.339-1.069,0.835-1.424,1.488c-0.354,0.651-0.531,1.417-0.531,2.296c0,0.893,0.178,1.669,0.531,2.328
			c0.354,0.658,0.829,1.162,1.424,1.51c0.597,0.347,1.256,0.521,1.978,0.521c0.724,0,1.386-0.173,1.989-0.521
			c0.602-0.348,1.08-0.852,1.434-1.51c0.355-0.659,0.532-1.429,0.532-2.308C447.872,187.201,447.694,186.436,447.34,185.784z"/>
		<path fill="#010101" d="M455.037,178.193v15.733h-1.936v-15.733H455.037z"/>
		<path fill="#010101" d="M468.899,188.824h-9.313c0.07,1.147,0.464,2.044,1.18,2.689c0.717,0.645,1.585,0.967,2.604,0.967
			c0.836,0,1.534-0.194,2.095-0.584c0.56-0.391,0.953-0.911,1.181-1.563h2.085c-0.313,1.12-0.937,2.031-1.872,2.731
			c-0.937,0.702-2.099,1.053-3.487,1.053c-1.104,0-2.094-0.248-2.966-0.744c-0.872-0.496-1.556-1.201-2.052-2.115
			c-0.496-0.913-0.744-1.974-0.744-3.179c0-1.204,0.241-2.261,0.724-3.168c0.481-0.906,1.159-1.604,2.031-2.094
			c0.871-0.489,1.874-0.733,3.007-0.733c1.105,0,2.084,0.241,2.935,0.723c0.852,0.482,1.506,1.145,1.968,1.987
			c0.461,0.845,0.689,1.797,0.689,2.859C468.963,188.023,468.941,188.413,468.899,188.824z M466.475,185.348
			c-0.324-0.531-0.768-0.936-1.327-1.211c-0.561-0.277-1.181-0.415-1.86-0.415c-0.979,0-1.812,0.313-2.498,0.936
			c-0.688,0.624-1.081,1.487-1.18,2.594h7.355C466.964,186.514,466.802,185.879,466.475,185.348z"/>
		<path fill="#010101" d="M473.236,193.661c-0.709-0.305-1.27-0.73-1.682-1.275c-0.411-0.545-0.638-1.173-0.68-1.882h1.999
			c0.056,0.582,0.329,1.057,0.818,1.425c0.488,0.369,1.131,0.552,1.925,0.552c0.735,0,1.316-0.162,1.743-0.488
			c0.425-0.326,0.638-0.736,0.638-1.233c0-0.51-0.229-0.889-0.68-1.138c-0.454-0.247-1.156-0.492-2.105-0.732
			c-0.865-0.228-1.57-0.457-2.116-0.691c-0.545-0.232-1.014-0.58-1.401-1.042c-0.392-0.459-0.586-1.065-0.586-1.817
			c0-0.595,0.177-1.141,0.53-1.636c0.354-0.496,0.858-0.89,1.512-1.181c0.65-0.29,1.396-0.436,2.231-0.436
			c1.289,0,2.332,0.326,3.125,0.978c0.794,0.652,1.219,1.546,1.276,2.679h-1.937c-0.043-0.608-0.287-1.099-0.732-1.466
			c-0.446-0.37-1.045-0.554-1.797-0.554c-0.694,0-1.247,0.149-1.658,0.447c-0.411,0.298-0.615,0.688-0.615,1.168
			c0,0.384,0.123,0.699,0.371,0.946c0.248,0.249,0.56,0.446,0.936,0.596c0.376,0.148,0.896,0.314,1.563,0.5
			c0.836,0.227,1.517,0.45,2.041,0.67c0.523,0.22,0.975,0.55,1.351,0.988c0.375,0.439,0.57,1.015,0.585,1.722
			c0,0.638-0.178,1.212-0.531,1.722c-0.354,0.511-0.854,0.911-1.499,1.202c-0.646,0.29-1.387,0.436-2.223,0.436
			C474.745,194.118,473.945,193.965,473.236,193.661z"/>
	</g>
	<g>
		<path fill="#010101" d="M580.559,222.03c-0.771-0.348-1.378-0.83-1.816-1.446c-0.439-0.617-0.667-1.329-0.682-2.138h2.063
			c0.07,0.695,0.356,1.28,0.861,1.755c0.503,0.475,1.235,0.712,2.199,0.712c0.922,0,1.647-0.229,2.181-0.69
			c0.531-0.461,0.797-1.053,0.797-1.776c0-0.565-0.156-1.026-0.469-1.381c-0.312-0.354-0.7-0.624-1.17-0.809
			c-0.467-0.184-1.098-0.383-1.892-0.596c-0.979-0.255-1.762-0.509-2.35-0.765c-0.589-0.255-1.092-0.655-1.51-1.201
			c-0.419-0.546-0.628-1.279-0.628-2.201c0-0.808,0.206-1.522,0.617-2.146s0.989-1.105,1.731-1.446
			c0.744-0.341,1.599-0.511,2.563-0.511c1.389,0,2.528,0.348,3.414,1.042c0.885,0.695,1.385,1.616,1.498,2.765h-2.125
			c-0.072-0.566-0.37-1.065-0.895-1.499c-0.524-0.434-1.221-0.648-2.084-0.648c-0.809,0-1.467,0.209-1.978,0.627
			c-0.51,0.418-0.766,1.003-0.766,1.754c0,0.539,0.151,0.979,0.456,1.318c0.306,0.34,0.682,0.6,1.129,0.776
			c0.444,0.178,1.072,0.379,1.88,0.606c0.979,0.269,1.767,0.535,2.36,0.797c0.596,0.262,1.105,0.667,1.53,1.211
			c0.425,0.547,0.639,1.287,0.639,2.222c0,0.725-0.19,1.403-0.574,2.042c-0.382,0.639-0.949,1.155-1.7,1.552
			c-0.751,0.397-1.637,0.596-2.658,0.596C582.208,222.55,581.331,222.377,580.559,222.03z"/>
		<path fill="#010101" d="M601.534,217.298h-9.313c0.07,1.148,0.464,2.045,1.18,2.689c0.716,0.646,1.584,0.968,2.604,0.968
			c0.836,0,1.534-0.194,2.094-0.585c0.562-0.39,0.954-0.911,1.181-1.563h2.084c-0.313,1.12-0.936,2.031-1.872,2.732
			c-0.935,0.701-2.097,1.053-3.485,1.053c-1.105,0-2.095-0.248-2.966-0.744c-0.873-0.496-1.557-1.202-2.053-2.115
			c-0.497-0.915-0.743-1.975-0.743-3.18c0-1.205,0.239-2.261,0.724-3.168c0.479-0.907,1.158-1.605,2.03-2.095
			c0.869-0.489,1.874-0.733,3.008-0.733c1.104,0,2.083,0.242,2.934,0.723c0.852,0.482,1.507,1.146,1.968,1.988
			c0.46,0.844,0.689,1.797,0.689,2.86C601.597,216.497,601.576,216.887,601.534,217.298z M599.109,213.822
			c-0.324-0.532-0.768-0.935-1.328-1.212c-0.56-0.276-1.18-0.414-1.859-0.414c-0.979,0-1.812,0.312-2.499,0.936
			c-0.687,0.623-1.081,1.487-1.181,2.594h7.356C599.599,214.988,599.436,214.354,599.109,213.822z"/>
		<path fill="#010101" d="M607.54,211.089c0.631-0.368,1.398-0.553,2.307-0.553v1.999h-0.511c-2.169,0-3.252,1.177-3.252,3.529
			v6.337h-1.937V210.75h1.937v1.893C606.424,211.976,606.909,211.458,607.54,211.089z"/>
		<path fill="#010101" d="M616.416,220.615l3.615-9.865h2.062l-4.571,11.651h-2.254l-4.571-11.651h2.083L616.416,220.615z"/>
		<path fill="#010101" d="M624.07,208.475c-0.256-0.254-0.384-0.566-0.384-0.936s0.128-0.681,0.384-0.936
			c0.254-0.256,0.565-0.383,0.935-0.383c0.354,0,0.656,0.127,0.905,0.383c0.247,0.255,0.371,0.566,0.371,0.936
			c0,0.368-0.124,0.681-0.371,0.936c-0.249,0.255-0.551,0.383-0.905,0.383C624.637,208.857,624.324,208.73,624.07,208.475z
			 M625.941,210.75v11.651h-1.936V210.75H625.941z"/>
		<path fill="#010101" d="M629.237,213.396c0.479-0.9,1.149-1.598,2.009-2.094c0.855-0.496,1.838-0.744,2.943-0.744
			c1.433,0,2.612,0.349,3.541,1.042c0.928,0.695,1.542,1.659,1.839,2.892h-2.084c-0.197-0.708-0.585-1.269-1.159-1.681
			c-0.573-0.411-1.285-0.615-2.137-0.615c-1.105,0-1.998,0.379-2.679,1.137c-0.681,0.759-1.021,1.832-1.021,3.222
			c0,1.402,0.34,2.488,1.021,3.253c0.681,0.766,1.572,1.148,2.679,1.148c0.852,0,1.561-0.198,2.128-0.596
			c0.565-0.396,0.956-0.964,1.168-1.7h2.084c-0.313,1.19-0.936,2.145-1.87,2.859c-0.937,0.715-2.105,1.074-3.509,1.074
			c-1.106,0-2.089-0.248-2.944-0.744c-0.858-0.496-1.528-1.198-2.009-2.104c-0.482-0.906-0.726-1.971-0.726-3.189
			C628.514,215.349,628.755,214.296,629.237,213.396z"/>
		<path fill="#010101" d="M652.71,217.298h-9.312c0.069,1.148,0.464,2.045,1.18,2.689c0.716,0.646,1.584,0.968,2.604,0.968
			c0.836,0,1.534-0.194,2.096-0.585c0.559-0.39,0.952-0.911,1.18-1.563h2.084c-0.313,1.12-0.935,2.031-1.871,2.732
			c-0.936,0.701-2.098,1.053-3.487,1.053c-1.104,0-2.095-0.248-2.966-0.744c-0.871-0.496-1.555-1.202-2.052-2.115
			c-0.497-0.915-0.744-1.975-0.744-3.18c0-1.205,0.24-2.261,0.723-3.168c0.482-0.907,1.159-1.605,2.031-2.095
			c0.87-0.489,1.874-0.733,3.008-0.733c1.105,0,2.083,0.242,2.935,0.723c0.851,0.482,1.507,1.146,1.968,1.988
			c0.46,0.844,0.69,1.797,0.69,2.86C652.773,216.497,652.752,216.887,652.71,217.298z M650.285,213.822
			c-0.325-0.532-0.769-0.935-1.328-1.212c-0.56-0.276-1.18-0.414-1.86-0.414c-0.979,0-1.811,0.312-2.498,0.936
			c-0.687,0.623-1.081,1.487-1.181,2.594h7.356C650.774,214.988,650.611,214.354,650.285,213.822z"/>
		<path fill="#010101" d="M657.047,222.136c-0.709-0.306-1.27-0.73-1.681-1.276c-0.411-0.546-0.639-1.173-0.68-1.882h1.998
			c0.057,0.581,0.329,1.056,0.818,1.424c0.489,0.368,1.131,0.553,1.925,0.553c0.735,0,1.317-0.163,1.742-0.489
			c0.426-0.326,0.639-0.737,0.639-1.233c0-0.511-0.228-0.89-0.68-1.138c-0.455-0.248-1.156-0.492-2.104-0.733
			c-0.866-0.227-1.57-0.458-2.116-0.691c-0.545-0.234-1.015-0.581-1.403-1.042c-0.39-0.461-0.585-1.066-0.585-1.818
			c0-0.596,0.177-1.142,0.531-1.637c0.354-0.496,0.857-0.89,1.511-1.181c0.651-0.29,1.396-0.436,2.231-0.436
			c1.289,0,2.332,0.327,3.126,0.979c0.794,0.653,1.219,1.544,1.274,2.68h-1.935c-0.042-0.609-0.287-1.099-0.733-1.468
			c-0.445-0.368-1.045-0.553-1.796-0.553c-0.695,0-1.248,0.148-1.659,0.446c-0.411,0.297-0.615,0.688-0.615,1.169
			c0,0.383,0.123,0.698,0.371,0.946c0.248,0.248,0.561,0.446,0.936,0.596c0.377,0.148,0.896,0.315,1.563,0.499
			c0.836,0.228,1.518,0.451,2.041,0.67c0.523,0.221,0.975,0.55,1.352,0.989c0.375,0.438,0.568,1.014,0.585,1.722
			c0,0.638-0.178,1.212-0.532,1.723c-0.354,0.511-0.854,0.911-1.499,1.201c-0.646,0.291-1.385,0.437-2.222,0.437
			C658.556,222.593,657.756,222.44,657.047,222.136z"/>
	</g>
	<g>
		<path fill="#010101" d="M707.822,320.323v14.712h-1.935v-10.971l-4.891,10.971h-1.359l-4.911-10.991v10.991h-1.938v-14.712h2.085
			l5.442,12.161l5.443-12.161H707.822z"/>
		<path fill="#010101" d="M711.098,326.031c0.48-0.899,1.144-1.599,1.986-2.094c0.844-0.496,1.782-0.744,2.817-0.744
			c1.021,0,1.906,0.22,2.658,0.659c0.751,0.439,1.31,0.992,1.679,1.658v-2.126h1.956v11.65h-1.956v-2.168
			c-0.382,0.681-0.953,1.244-1.711,1.69c-0.758,0.447-1.642,0.67-2.646,0.67c-1.035,0-1.97-0.256-2.808-0.767
			c-0.837-0.51-1.495-1.226-1.977-2.146c-0.482-0.922-0.725-1.971-0.725-3.147C710.374,327.977,710.615,326.931,711.098,326.031z
			 M719.708,326.892c-0.354-0.651-0.833-1.152-1.435-1.5c-0.604-0.347-1.266-0.521-1.989-0.521c-0.723,0-1.381,0.17-1.977,0.511
			c-0.597,0.34-1.069,0.836-1.425,1.488c-0.355,0.652-0.531,1.417-0.531,2.296c0,0.894,0.178,1.669,0.531,2.328
			c0.354,0.659,0.828,1.163,1.425,1.511c0.596,0.347,1.254,0.521,1.977,0.521c0.726,0,1.386-0.174,1.989-0.521
			c0.602-0.349,1.08-0.852,1.435-1.511c0.354-0.659,0.532-1.427,0.532-2.306S720.063,327.545,719.708,326.892z"/>
		<path fill="#010101" d="M728.86,323.724c0.631-0.367,1.401-0.552,2.308-0.552v1.999h-0.511c-2.168,0-3.252,1.176-3.252,3.529
			v6.335h-1.935v-11.65h1.935v1.893C727.744,324.61,728.229,324.094,728.86,323.724z"/>
		<path fill="#010101" d="M739.906,335.035l-4.57-5.145v5.145H733.4v-15.733h1.936v9.249l4.484-5.166h2.701l-5.486,5.805
			l5.508,5.846L739.906,335.035L739.906,335.035z"/>
		<path fill="#010101" d="M754.916,329.933h-9.312c0.07,1.147,0.464,2.045,1.179,2.689c0.717,0.645,1.586,0.967,2.605,0.967
			c0.836,0,1.533-0.194,2.095-0.583c0.56-0.392,0.952-0.911,1.18-1.563h2.084c-0.313,1.12-0.936,2.031-1.871,2.731
			c-0.937,0.702-2.099,1.053-3.487,1.053c-1.104,0-2.093-0.248-2.966-0.745c-0.871-0.496-1.556-1.201-2.052-2.116
			c-0.496-0.914-0.745-1.973-0.745-3.178c0-1.205,0.241-2.262,0.725-3.168c0.48-0.907,1.159-1.605,2.03-2.095
			c0.872-0.488,1.874-0.732,3.008-0.732c1.105,0,2.085,0.241,2.936,0.723c0.851,0.482,1.506,1.145,1.967,1.988
			c0.461,0.843,0.69,1.796,0.69,2.859C754.98,329.133,754.958,329.522,754.916,329.933z M752.492,326.456
			c-0.325-0.531-0.769-0.936-1.328-1.211c-0.561-0.276-1.18-0.415-1.859-0.415c-0.979,0-1.813,0.313-2.498,0.937
			c-0.688,0.624-1.081,1.488-1.181,2.594h7.355C752.981,327.623,752.818,326.988,752.492,326.456z"/>
		<path fill="#010101" d="M759.892,324.979v6.867c0,0.566,0.121,0.968,0.361,1.201c0.241,0.233,0.658,0.351,1.255,0.351h1.425v1.637
			h-1.744c-1.077,0-1.885-0.248-2.423-0.743c-0.539-0.496-0.809-1.312-0.809-2.445v-6.867h-1.51v-1.595h1.51v-2.935h1.935v2.935
			h3.041v1.595L759.892,324.979L759.892,324.979z"/>
		<path fill="#010101" d="M765.335,321.109c-0.254-0.255-0.383-0.566-0.383-0.936c0-0.368,0.129-0.681,0.383-0.936
			c0.255-0.255,0.566-0.383,0.936-0.383c0.354,0,0.656,0.127,0.903,0.383c0.249,0.254,0.373,0.566,0.373,0.936
			c0,0.369-0.124,0.681-0.373,0.936c-0.247,0.255-0.549,0.382-0.903,0.382C765.902,321.491,765.59,321.364,765.335,321.109z
			 M767.207,323.385v11.65h-1.937v-11.65H767.207z"/>
		<path fill="#010101" d="M779.622,324.458c0.879,0.858,1.317,2.095,1.317,3.71v6.867h-1.914v-6.591
			c0-1.162-0.289-2.052-0.871-2.668c-0.581-0.616-1.375-0.925-2.382-0.925c-1.021,0-1.832,0.319-2.435,0.957
			c-0.604,0.639-0.903,1.566-0.903,2.786v6.441H770.5v-11.65h1.935v1.658c0.384-0.595,0.903-1.056,1.563-1.381
			c0.659-0.326,1.386-0.489,2.18-0.489C777.595,323.172,778.743,323.6,779.622,324.458z"/>
		<path fill="#010101" d="M791.562,323.852c0.759,0.439,1.321,0.992,1.69,1.658v-2.126h1.955v11.906
			c0,1.063-0.228,2.009-0.682,2.839c-0.451,0.829-1.102,1.478-1.943,1.944c-0.844,0.468-1.825,0.702-2.945,0.702
			c-1.53,0-2.807-0.361-3.827-1.085c-1.021-0.723-1.623-1.708-1.807-2.955h1.913c0.213,0.708,0.65,1.278,1.317,1.711
			c0.666,0.433,1.468,0.649,2.402,0.649c1.063,0,1.932-0.334,2.604-1c0.674-0.666,1.011-1.603,1.011-2.807v-2.445
			c-0.384,0.681-0.95,1.248-1.701,1.7c-0.752,0.454-1.63,0.681-2.637,0.681c-1.035,0-1.975-0.255-2.817-0.766
			c-0.843-0.51-1.506-1.226-1.987-2.146c-0.48-0.922-0.724-1.971-0.724-3.147c0-1.19,0.24-2.235,0.724-3.136
			c0.481-0.899,1.146-1.599,1.987-2.094c0.843-0.496,1.782-0.744,2.817-0.744C789.921,323.193,790.803,323.413,791.562,323.852z
			 M792.72,326.892c-0.354-0.651-0.833-1.152-1.435-1.5c-0.604-0.347-1.266-0.521-1.988-0.521c-0.724,0-1.382,0.17-1.978,0.511
			c-0.597,0.34-1.07,0.836-1.426,1.488c-0.354,0.652-0.531,1.417-0.531,2.296c0,0.894,0.178,1.669,0.531,2.328
			c0.355,0.659,0.829,1.163,1.426,1.511c0.596,0.347,1.254,0.521,1.978,0.521s1.386-0.174,1.988-0.521
			c0.602-0.349,1.08-0.852,1.435-1.511c0.354-0.659,0.532-1.427,0.532-2.306S793.074,327.545,792.72,326.892z"/>
	</g>
	<g>
		<path fill="#010101" d="M710.616,470.742v4.953h5.401v1.595h-5.401v5.103h6.039v1.596h-7.974v-14.841h7.974v1.596L710.616,470.742
			L710.616,470.742z"/>
		<path fill="#010101" d="M727.669,475.376v1.639h-8.483v-1.639H727.669z"/>
		<path fill="#010101" d="M731.558,472.665c0.653-1.155,1.543-2.058,2.67-2.71c1.126-0.652,2.377-0.979,3.752-0.979
			c1.616,0,3.026,0.391,4.231,1.17c1.204,0.777,2.083,1.885,2.637,3.315h-2.317c-0.411-0.894-1.004-1.581-1.774-2.062
			c-0.773-0.481-1.698-0.724-2.775-0.724c-1.035,0-1.963,0.241-2.785,0.724c-0.822,0.48-1.467,1.166-1.936,2.052
			c-0.467,0.887-0.7,1.924-0.7,3.115c0,1.177,0.233,2.208,0.7,3.094c0.469,0.885,1.112,1.57,1.936,2.051
			c0.822,0.482,1.75,0.725,2.785,0.725c1.077,0,2.002-0.237,2.775-0.712c0.771-0.477,1.363-1.159,1.774-2.053h2.317
			c-0.554,1.417-1.433,2.513-2.637,3.284c-1.205,0.772-2.615,1.159-4.231,1.159c-1.375,0-2.626-0.322-3.752-0.968
			c-1.127-0.646-2.017-1.541-2.67-2.689c-0.651-1.147-0.978-2.445-0.978-3.891C730.58,475.121,730.906,473.821,731.558,472.665z"/>
		<path fill="#010101" d="M749.834,483.435c-0.889-0.496-1.581-1.201-2.086-2.114c-0.502-0.916-0.755-1.976-0.755-3.18
			c0-1.191,0.261-2.243,0.776-3.158c0.517-0.913,1.223-1.615,2.115-2.104c0.893-0.487,1.893-0.732,2.999-0.732
			c1.104,0,2.104,0.245,2.998,0.732c0.893,0.489,1.599,1.188,2.115,2.094c0.517,0.907,0.775,1.965,0.775,3.169
			c0,1.205-0.266,2.265-0.798,3.181c-0.531,0.913-1.25,1.618-2.158,2.114c-0.907,0.495-1.913,0.742-3.02,0.742
			C751.706,484.178,750.72,483.931,749.834,483.435z M754.756,481.99c0.607-0.327,1.102-0.816,1.478-1.468
			c0.375-0.652,0.563-1.446,0.563-2.383c0-0.936-0.186-1.729-0.555-2.381c-0.366-0.652-0.85-1.139-1.443-1.458
			c-0.598-0.317-1.241-0.478-1.937-0.478c-0.709,0-1.356,0.159-1.945,0.478c-0.588,0.319-1.06,0.806-1.413,1.458
			c-0.354,0.651-0.531,1.445-0.531,2.381c0,0.949,0.173,1.751,0.521,2.401c0.349,0.652,0.813,1.14,1.395,1.457
			c0.581,0.319,1.218,0.479,1.912,0.479S754.146,482.315,754.756,481.99z"/>
		<path fill="#010101" d="M777.76,472.687c0.709,0.376,1.269,0.938,1.681,1.69c0.411,0.751,0.616,1.665,0.616,2.741v6.868h-1.914
			v-6.59c0-1.162-0.287-2.053-0.86-2.669s-1.35-0.925-2.327-0.925c-1.008,0-1.809,0.322-2.402,0.968
			c-0.596,0.645-0.894,1.577-0.894,2.796v6.421h-1.913v-6.591c0-1.162-0.288-2.053-0.861-2.669s-1.351-0.925-2.328-0.925
			c-1.007,0-1.808,0.322-2.403,0.968c-0.595,0.645-0.893,1.577-0.893,2.796v6.421h-1.936v-11.651h1.936v1.68
			c0.384-0.608,0.896-1.076,1.542-1.401c0.645-0.327,1.355-0.489,2.137-0.489c0.979,0,1.843,0.22,2.595,0.658
			c0.751,0.438,1.311,1.084,1.68,1.936c0.325-0.821,0.864-1.461,1.615-1.914c0.752-0.453,1.589-0.68,2.51-0.68
			C776.244,472.123,777.051,472.312,777.76,472.687z"/>
		<path fill="#010101" d="M799.66,472.687c0.708,0.376,1.268,0.938,1.68,1.69c0.411,0.751,0.616,1.665,0.616,2.741v6.868h-1.914
			v-6.59c0-1.162-0.286-2.053-0.86-2.669c-0.573-0.616-1.35-0.925-2.328-0.925c-1.006,0-1.807,0.322-2.402,0.968
			c-0.596,0.645-0.894,1.577-0.894,2.796v6.421h-1.914v-6.591c0-1.162-0.286-2.053-0.858-2.669
			c-0.575-0.616-1.352-0.925-2.329-0.925c-1.007,0-1.808,0.322-2.402,0.968c-0.597,0.645-0.893,1.577-0.893,2.796v6.421h-1.937
			v-11.651h1.937v1.68c0.382-0.608,0.896-1.076,1.54-1.401c0.646-0.327,1.356-0.489,2.138-0.489c0.978,0,1.843,0.22,2.594,0.658
			s1.312,1.084,1.681,1.936c0.325-0.821,0.863-1.461,1.615-1.914c0.75-0.453,1.587-0.68,2.508-0.68
			C798.144,472.123,798.951,472.312,799.66,472.687z"/>
		<path fill="#010101" d="M815.691,478.884h-9.312c0.07,1.149,0.463,2.046,1.179,2.69c0.717,0.646,1.586,0.968,2.605,0.968
			c0.836,0,1.532-0.195,2.095-0.585c0.559-0.39,0.952-0.91,1.18-1.563h2.084c-0.313,1.119-0.936,2.03-1.871,2.731
			c-0.937,0.701-2.099,1.052-3.486,1.052c-1.105,0-2.094-0.247-2.968-0.743c-0.87-0.495-1.555-1.2-2.051-2.113
			c-0.496-0.916-0.745-1.976-0.745-3.181s0.241-2.262,0.725-3.169c0.48-0.905,1.159-1.603,2.03-2.094
			c0.872-0.489,1.873-0.732,3.009-0.732c1.104,0,2.084,0.241,2.935,0.723c0.852,0.482,1.506,1.146,1.967,1.989
			c0.46,0.844,0.69,1.797,0.69,2.857C815.755,478.084,815.733,478.475,815.691,478.884z M813.267,475.409
			c-0.326-0.532-0.769-0.937-1.327-1.213c-0.562-0.276-1.182-0.414-1.86-0.414c-0.979,0-1.813,0.312-2.498,0.935
			c-0.688,0.625-1.081,1.489-1.183,2.594h7.357C813.756,476.574,813.594,475.94,813.267,475.409z"/>
		<path fill="#010101" d="M821.697,472.676c0.631-0.368,1.399-0.553,2.307-0.553v1.999h-0.51c-2.168,0-3.252,1.177-3.252,3.529
			v6.336h-1.936v-11.651h1.936v1.894C820.581,473.562,821.066,473.045,821.697,472.676z"/>
		<path fill="#010101" d="M826.236,474.982c0.48-0.9,1.15-1.598,2.01-2.095c0.857-0.495,1.839-0.743,2.944-0.743
			c1.432,0,2.61,0.347,3.54,1.043c0.928,0.693,1.541,1.655,1.839,2.892h-2.083c-0.199-0.71-0.585-1.27-1.159-1.681
			s-1.286-0.616-2.137-0.616c-1.105,0-1.999,0.379-2.68,1.137c-0.681,0.76-1.021,1.832-1.021,3.222c0,1.403,0.34,2.487,1.021,3.254
			c0.681,0.766,1.573,1.147,2.68,1.147c0.851,0,1.56-0.199,2.127-0.595c0.564-0.396,0.954-0.965,1.169-1.701h2.083
			c-0.313,1.19-0.937,2.145-1.87,2.859c-0.936,0.714-2.105,1.071-3.509,1.071c-1.105,0-2.087-0.246-2.944-0.742
			c-0.858-0.496-1.528-1.197-2.01-2.105c-0.482-0.905-0.724-1.97-0.724-3.188C825.513,476.936,825.754,475.883,826.236,474.982z"/>
		<path fill="#010101" d="M849.71,478.884h-9.313c0.07,1.149,0.465,2.046,1.181,2.69c0.716,0.646,1.584,0.968,2.604,0.968
			c0.835,0,1.533-0.195,2.094-0.585s0.954-0.91,1.181-1.563h2.084c-0.313,1.119-0.937,2.03-1.872,2.731s-2.097,1.052-3.485,1.052
			c-1.105,0-2.095-0.247-2.967-0.743c-0.872-0.495-1.556-1.2-2.052-2.113c-0.496-0.916-0.745-1.976-0.745-3.181
			s0.242-2.262,0.725-3.169c0.48-0.905,1.158-1.603,2.03-2.094c0.871-0.489,1.873-0.732,3.009-0.732
			c1.104,0,2.083,0.241,2.935,0.723c0.85,0.482,1.507,1.146,1.967,1.989s0.69,1.797,0.69,2.857
			C849.773,478.084,849.752,478.475,849.71,478.884z M847.286,475.409c-0.327-0.532-0.769-0.937-1.329-1.213
			c-0.56-0.276-1.18-0.414-1.858-0.414c-0.98,0-1.813,0.312-2.5,0.935c-0.687,0.625-1.08,1.489-1.181,2.594h7.357
			C847.775,476.574,847.612,475.94,847.286,475.409z"/>
	</g>
	<g>
		<path fill="#010101" d="M668.103,623.37v4.954h5.398v1.596h-5.398v5.102h6.037v1.596h-7.974v-14.841h7.974v1.595L668.103,623.37
			L668.103,623.37z"/>
		<path fill="#010101" d="M686.195,626.038c0.878,0.857,1.316,2.095,1.316,3.711v6.866h-1.913v-6.591
			c0-1.162-0.289-2.053-0.871-2.669c-0.581-0.615-1.375-0.925-2.383-0.925c-1.021,0-1.832,0.319-2.434,0.957
			c-0.603,0.637-0.903,1.565-0.903,2.785v6.442h-1.936v-11.651h1.936v1.658c0.383-0.597,0.903-1.056,1.563-1.382
			c0.66-0.326,1.386-0.488,2.18-0.488C684.168,624.752,685.316,625.181,686.195,626.038z"/>
		<path fill="#010101" d="M698.134,625.434c0.758,0.439,1.321,0.991,1.689,1.657v-2.126h1.956v11.906
			c0,1.063-0.227,2.008-0.681,2.838c-0.453,0.83-1.104,1.479-1.945,1.945c-0.844,0.467-1.825,0.703-2.944,0.703
			c-1.531,0-2.807-0.363-3.827-1.086c-1.02-0.723-1.624-1.709-1.808-2.955h1.914c0.213,0.709,0.651,1.277,1.318,1.711
			c0.666,0.434,1.468,0.648,2.402,0.648c1.063,0,1.932-0.334,2.604-1c0.674-0.666,1.01-1.602,1.01-2.807v-2.445
			c-0.383,0.682-0.949,1.248-1.7,1.701c-0.753,0.455-1.631,0.682-2.638,0.682c-1.035,0-1.975-0.256-2.816-0.766
			c-0.844-0.51-1.507-1.227-1.986-2.148c-0.482-0.92-0.726-1.969-0.726-3.145c0-1.191,0.242-2.236,0.726-3.136
			c0.479-0.9,1.144-1.599,1.986-2.095c0.842-0.496,1.781-0.744,2.816-0.744C696.492,624.773,697.375,624.993,698.134,625.434z
			 M699.291,628.473c-0.354-0.65-0.832-1.15-1.435-1.499c-0.604-0.347-1.266-0.521-1.988-0.521s-1.382,0.17-1.977,0.511
			c-0.597,0.339-1.07,0.835-1.426,1.488c-0.354,0.65-0.53,1.417-0.53,2.296c0,0.893,0.177,1.668,0.53,2.328
			c0.354,0.658,0.829,1.162,1.426,1.51c0.595,0.346,1.254,0.52,1.977,0.52c0.724,0,1.386-0.174,1.988-0.52
			c0.603-0.348,1.08-0.852,1.435-1.51c0.355-0.66,0.532-1.43,0.532-2.307C699.823,629.89,699.646,629.126,699.291,628.473z"/>
		<path fill="#010101" d="M705.054,627.612c0.48-0.9,1.145-1.599,1.987-2.095c0.842-0.496,1.781-0.745,2.816-0.745
			c1.021,0,1.907,0.221,2.658,0.66c0.751,0.438,1.311,0.991,1.68,1.657v-2.126h1.955v11.651h-1.955v-2.17
			c-0.383,0.682-0.953,1.244-1.712,1.689c-0.758,0.447-1.642,0.67-2.646,0.67c-1.034,0-1.971-0.254-2.808-0.766
			c-0.836-0.51-1.495-1.225-1.977-2.146s-0.725-1.971-0.725-3.146C704.33,629.557,704.571,628.512,705.054,627.612z
			 M713.664,628.473c-0.354-0.65-0.832-1.15-1.435-1.499c-0.604-0.347-1.266-0.521-1.988-0.521s-1.382,0.17-1.977,0.511
			c-0.597,0.339-1.07,0.835-1.426,1.488c-0.355,0.65-0.531,1.417-0.531,2.296c0,0.893,0.178,1.668,0.531,2.328
			c0.354,0.658,0.829,1.162,1.426,1.51c0.595,0.346,1.254,0.52,1.977,0.52c0.725,0,1.386-0.174,1.988-0.52
			c0.603-0.348,1.08-0.852,1.435-1.51c0.355-0.66,0.532-1.43,0.532-2.307C714.196,629.89,714.019,629.126,713.664,628.473z"/>
		<path fill="#010101" d="M726.88,625.434c0.758,0.439,1.32,0.991,1.689,1.657v-2.126h1.955v11.906c0,1.063-0.227,2.008-0.681,2.838
			c-0.453,0.83-1.103,1.479-1.944,1.945c-0.844,0.467-1.825,0.703-2.945,0.703c-1.53,0-2.807-0.363-3.827-1.086
			c-1.02-0.723-1.623-1.709-1.807-2.955h1.914c0.212,0.709,0.65,1.277,1.317,1.711c0.666,0.434,1.468,0.648,2.401,0.648
			c1.063,0,1.933-0.334,2.604-1c0.674-0.666,1.012-1.602,1.012-2.807v-2.445c-0.384,0.682-0.95,1.248-1.701,1.701
			c-0.752,0.455-1.63,0.682-2.638,0.682c-1.034,0-1.973-0.256-2.815-0.766c-0.844-0.51-1.507-1.227-1.988-2.148
			c-0.481-0.92-0.724-1.969-0.724-3.145c0-1.191,0.241-2.236,0.724-3.136c0.481-0.9,1.146-1.599,1.988-2.095
			c0.842-0.496,1.781-0.744,2.815-0.744C725.239,624.773,726.121,624.993,726.88,625.434z M728.038,628.473
			c-0.354-0.65-0.833-1.15-1.435-1.499c-0.604-0.347-1.265-0.521-1.988-0.521c-0.723,0-1.382,0.17-1.978,0.511
			c-0.596,0.339-1.07,0.835-1.425,1.488c-0.355,0.65-0.531,1.417-0.531,2.296c0,0.893,0.177,1.668,0.531,2.328
			c0.354,0.658,0.829,1.162,1.425,1.51c0.596,0.346,1.255,0.52,1.978,0.52c0.724,0,1.385-0.174,1.988-0.52
			c0.602-0.348,1.08-0.852,1.435-1.51c0.355-0.66,0.532-1.43,0.532-2.307C728.57,629.89,728.393,629.126,728.038,628.473z"/>
		<path fill="#010101" d="M744.368,631.514h-9.313c0.07,1.148,0.464,2.045,1.179,2.689c0.717,0.645,1.586,0.967,2.605,0.967
			c0.836,0,1.533-0.195,2.095-0.584c0.56-0.391,0.952-0.912,1.181-1.563h2.083c-0.313,1.119-0.936,2.029-1.872,2.73
			c-0.936,0.703-2.098,1.053-3.484,1.053c-1.105,0-2.096-0.248-2.967-0.744c-0.872-0.494-1.556-1.199-2.052-2.115
			c-0.497-0.912-0.746-1.975-0.746-3.178c0-1.204,0.242-2.262,0.725-3.168c0.48-0.906,1.158-1.604,2.03-2.095
			c0.871-0.489,1.873-0.733,3.01-0.733c1.104,0,2.083,0.241,2.934,0.724c0.852,0.481,1.506,1.145,1.968,1.986
			c0.459,0.845,0.689,1.798,0.689,2.86C744.431,630.713,744.41,631.103,744.368,631.514z M741.943,628.037
			c-0.327-0.531-0.77-0.937-1.329-1.212c-0.559-0.276-1.18-0.415-1.858-0.415c-0.979,0-1.813,0.313-2.499,0.937
			c-0.688,0.623-1.081,1.487-1.181,2.594h7.355C742.432,629.204,742.27,628.568,741.943,628.037z"/>
		<path fill="#010101" d="M763.417,625.316c0.708,0.375,1.268,0.938,1.68,1.689c0.411,0.752,0.616,1.666,0.616,2.743v6.866H763.8
			v-6.591c0-1.162-0.287-2.053-0.861-2.669c-0.574-0.615-1.35-0.925-2.328-0.925c-1.006,0-1.807,0.323-2.401,0.968
			c-0.596,0.646-0.895,1.576-0.895,2.797v6.42H755.4v-6.591c0-1.162-0.286-2.053-0.858-2.669c-0.575-0.615-1.352-0.925-2.329-0.925
			c-1.006,0-1.808,0.323-2.402,0.968c-0.596,0.646-0.893,1.576-0.893,2.797v6.42h-1.936v-11.65h1.936v1.68
			c0.383-0.608,0.896-1.076,1.541-1.402c0.645-0.326,1.355-0.488,2.137-0.488c0.979,0,1.843,0.219,2.594,0.658
			c0.751,0.438,1.313,1.084,1.68,1.935c0.326-0.821,0.864-1.46,1.616-1.912c0.751-0.454,1.587-0.681,2.51-0.681
			C761.9,624.752,762.708,624.94,763.417,625.316z"/>
		<path fill="#010101" d="M779.449,631.514h-9.313c0.07,1.148,0.464,2.045,1.18,2.689c0.715,0.645,1.585,0.967,2.605,0.967
			c0.835,0,1.533-0.195,2.094-0.584c0.56-0.391,0.952-0.912,1.18-1.563h2.084c-0.313,1.119-0.936,2.029-1.872,2.73
			c-0.936,0.703-2.098,1.053-3.485,1.053c-1.104,0-2.095-0.248-2.967-0.744c-0.871-0.494-1.555-1.199-2.051-2.115
			c-0.497-0.912-0.746-1.975-0.746-3.178c0-1.204,0.242-2.262,0.725-3.168c0.48-0.906,1.159-1.604,2.031-2.095
			c0.87-0.489,1.873-0.733,3.008-0.733c1.104,0,2.084,0.241,2.935,0.724c0.852,0.481,1.506,1.145,1.968,1.986
			c0.46,0.845,0.689,1.798,0.689,2.86C779.512,630.713,779.49,631.103,779.449,631.514z M777.024,628.037
			c-0.327-0.531-0.769-0.937-1.329-1.212c-0.559-0.276-1.18-0.415-1.858-0.415c-0.979,0-1.813,0.313-2.499,0.937
			c-0.688,0.623-1.081,1.487-1.181,2.594h7.356C777.514,629.204,777.351,628.568,777.024,628.037z"/>
		<path fill="#010101" d="M791.185,626.038c0.879,0.857,1.318,2.095,1.318,3.711v6.866h-1.913v-6.591
			c0-1.162-0.29-2.053-0.873-2.669c-0.58-0.615-1.373-0.925-2.381-0.925c-1.021,0-1.832,0.319-2.435,0.957
			c-0.603,0.637-0.902,1.565-0.902,2.785v6.442h-1.936v-11.651h1.936v1.658c0.383-0.597,0.902-1.056,1.563-1.382
			c0.659-0.326,1.386-0.488,2.18-0.488C789.157,624.752,790.306,625.181,791.185,626.038z"/>
		<path fill="#010101" d="M798.03,626.56v6.868c0,0.566,0.121,0.967,0.361,1.199c0.241,0.234,0.659,0.352,1.254,0.352h1.425v1.639
			h-1.743c-1.076,0-1.885-0.248-2.424-0.744s-0.809-1.313-0.809-2.445v-6.867h-1.509v-1.595h1.509v-2.935h1.936v2.935h3.04v1.595
			L798.03,626.56L798.03,626.56z"/>
	</g>
	<g>
		<path fill="#010101" d="M573.808,766.682c-0.844,0.814-2.13,1.222-3.858,1.222h-2.85v6.188h-1.935v-14.819h4.783
			c1.674,0,2.944,0.404,3.816,1.212c0.871,0.809,1.308,1.852,1.308,3.126C575.073,764.842,574.65,765.866,573.808,766.682z
			 M572.331,765.607c0.509-0.467,0.765-1.134,0.765-1.998c0-1.829-1.049-2.742-3.146-2.742h-2.85v5.442h2.85
			C571.026,766.31,571.82,766.075,572.331,765.607z"/>
		<path fill="#010101" d="M579.41,758.357v15.733h-1.935v-15.733H579.41z"/>
		<path fill="#010101" d="M582.706,765.088c0.479-0.9,1.145-1.6,1.987-2.097c0.844-0.495,1.781-0.744,2.816-0.744
			c1.02,0,1.906,0.222,2.658,0.66c0.751,0.439,1.311,0.991,1.68,1.657v-2.126h1.956v11.651h-1.956v-2.168
			c-0.383,0.681-0.954,1.242-1.712,1.688c-0.759,0.447-1.641,0.67-2.646,0.67c-1.034,0-1.971-0.255-2.807-0.766
			c-0.837-0.509-1.497-1.226-1.978-2.148c-0.482-0.92-0.724-1.968-0.724-3.145C581.982,767.032,582.224,765.987,582.706,765.088z
			 M591.316,765.948c-0.353-0.651-0.833-1.151-1.434-1.5c-0.605-0.347-1.268-0.52-1.989-0.52c-0.723,0-1.382,0.171-1.978,0.511
			c-0.596,0.341-1.07,0.836-1.426,1.488c-0.354,0.652-0.529,1.418-0.529,2.296c0,0.894,0.177,1.67,0.529,2.328
			c0.354,0.659,0.83,1.162,1.426,1.51c0.596,0.349,1.255,0.521,1.978,0.521c0.724,0,1.386-0.175,1.989-0.521
			c0.601-0.348,1.08-0.851,1.434-1.51c0.355-0.658,0.532-1.428,0.532-2.306C591.849,767.365,591.671,766.601,591.316,765.948z"/>
		<path fill="#010101" d="M599.438,764.034v6.868c0,0.566,0.12,0.968,0.361,1.201c0.241,0.234,0.659,0.352,1.255,0.352h1.425v1.637
			h-1.744c-1.077,0-1.886-0.247-2.424-0.743c-0.539-0.496-0.809-1.313-0.809-2.445v-6.867h-1.51v-1.596h1.51v-2.935h1.936v2.935
			h3.041v1.596h-3.041V764.034z"/>
		<path fill="#010101" d="M609.559,764.034h-2.445v10.058h-1.935v-10.058h-1.509v-1.595h1.509v-0.829
			c0-1.304,0.337-2.257,1.009-2.858c0.674-0.604,1.756-0.905,3.243-0.905v1.617c-0.851,0-1.448,0.166-1.796,0.501
			c-0.349,0.331-0.521,0.881-0.521,1.646v0.829h2.443v1.595H609.559z"/>
		<path fill="#010101" d="M613.929,773.539c-0.887-0.496-1.58-1.201-2.085-2.116c-0.503-0.915-0.754-1.974-0.754-3.178
			c0-1.192,0.258-2.244,0.776-3.157c0.517-0.916,1.222-1.617,2.114-2.105c0.895-0.49,1.893-0.733,2.999-0.733
			c1.104,0,2.104,0.243,2.997,0.733c0.894,0.488,1.599,1.188,2.116,2.093c0.518,0.908,0.775,1.966,0.775,3.17
			c0,1.205-0.267,2.264-0.798,3.179s-1.251,1.62-2.158,2.116c-0.906,0.495-1.912,0.742-3.021,0.742
			C615.803,774.282,614.814,774.034,613.929,773.539z M618.85,772.093c0.61-0.327,1.104-0.816,1.479-1.468
			c0.377-0.651,0.564-1.444,0.564-2.38c0-0.938-0.185-1.73-0.555-2.384c-0.368-0.651-0.85-1.136-1.445-1.457
			c-0.595-0.317-1.24-0.478-1.935-0.478c-0.708,0-1.356,0.159-1.945,0.478c-0.588,0.321-1.061,0.806-1.413,1.457
			c-0.354,0.652-0.532,1.446-0.532,2.384c0,0.947,0.175,1.749,0.521,2.4c0.348,0.652,0.813,1.138,1.393,1.457
			c0.581,0.318,1.22,0.479,1.913,0.479C617.589,772.581,618.241,772.419,618.85,772.093z"/>
		<path fill="#010101" d="M628.811,762.779c0.632-0.366,1.4-0.553,2.309-0.553v1.999h-0.511c-2.169,0-3.253,1.177-3.253,3.529v6.336
			h-1.935v-11.651h1.935v1.894C627.694,763.666,628.18,763.147,628.811,762.779z"/>
		<path fill="#010101" d="M649.785,762.79c0.709,0.376,1.268,0.938,1.68,1.689s0.616,1.666,0.616,2.743v6.867h-1.913v-6.592
			c0-1.161-0.288-2.051-0.862-2.668c-0.572-0.617-1.349-0.926-2.325-0.926c-1.009,0-1.81,0.323-2.403,0.969
			c-0.595,0.645-0.895,1.577-0.895,2.797v6.42h-1.912v-6.592c0-1.161-0.288-2.051-0.86-2.668c-0.574-0.617-1.352-0.926-2.328-0.926
			c-1.008,0-1.809,0.323-2.403,0.969c-0.595,0.645-0.893,1.577-0.893,2.797v6.42h-1.937v-11.651h1.937v1.68
			c0.383-0.609,0.896-1.075,1.541-1.401s1.356-0.49,2.137-0.49c0.979,0,1.843,0.221,2.595,0.66c0.751,0.438,1.311,1.084,1.68,1.936
			c0.327-0.822,0.863-1.461,1.616-1.914c0.751-0.453,1.588-0.682,2.509-0.682C648.269,762.227,649.076,762.415,649.785,762.79z"/>
		<path fill="#010101" d="M672.301,774.091l-1.934-1.957c-0.724,0.752-1.496,1.31-2.317,1.671c-0.822,0.36-1.751,0.542-2.786,0.542
			c-1.021,0-1.924-0.185-2.71-0.554c-0.786-0.368-1.396-0.894-1.828-1.573c-0.434-0.68-0.648-1.474-0.648-2.382
			c0-1.034,0.295-1.944,0.882-2.731c0.589-0.787,1.457-1.406,2.605-1.859c-0.454-0.539-0.779-1.035-0.979-1.488
			c-0.198-0.453-0.297-0.949-0.297-1.488c0-0.623,0.159-1.188,0.479-1.689c0.317-0.503,0.773-0.896,1.369-1.181
			c0.598-0.283,1.283-0.427,2.063-0.427c0.766,0,1.433,0.15,2.001,0.447c0.565,0.298,0.991,0.713,1.274,1.244
			c0.283,0.53,0.41,1.123,0.383,1.774h-1.936c0.015-0.581-0.148-1.037-0.487-1.371c-0.343-0.333-0.78-0.5-1.319-0.5
			c-0.566,0-1.024,0.16-1.371,0.479c-0.348,0.317-0.52,0.727-0.52,1.223c0,0.426,0.115,0.836,0.351,1.232
			c0.233,0.396,0.627,0.886,1.179,1.468l4.424,4.443l0.383-0.595l1.446-2.425h2.083l-1.743,3.02c-0.24,0.425-0.523,0.872-0.852,1.34
			l3.339,3.338L672.301,774.091L672.301,774.091z M667.338,772.242c0.615-0.3,1.201-0.759,1.753-1.383l-4.356-4.38
			c-1.816,0.695-2.724,1.793-2.724,3.296c0,0.836,0.303,1.53,0.903,2.083c0.604,0.555,1.386,0.829,2.35,0.829
			C666.029,772.688,666.721,772.538,667.338,772.242z"/>
		<path fill="#010101" d="M567.1,786.359v4.954h5.401v1.596H567.1v5.102h6.038v1.595h-7.973v-14.84h7.973v1.595L567.1,786.359
			L567.1,786.359z"/>
		<path fill="#010101" d="M576.072,790.602c0.481-0.899,1.151-1.598,2.01-2.095c0.856-0.496,1.839-0.744,2.943-0.744
			c1.433,0,2.611,0.347,3.54,1.042s1.542,1.657,1.839,2.893h-2.083c-0.198-0.709-0.585-1.27-1.158-1.681
			c-0.574-0.412-1.286-0.616-2.138-0.616c-1.104,0-1.998,0.378-2.679,1.137c-0.68,0.76-1.021,1.833-1.021,3.223
			c0,1.402,0.342,2.487,1.021,3.253c0.681,0.766,1.573,1.148,2.679,1.148c0.852,0,1.561-0.199,2.127-0.597
			c0.566-0.396,0.956-0.964,1.169-1.699h2.083c-0.312,1.189-0.936,2.144-1.869,2.857c-0.936,0.715-2.105,1.073-3.51,1.073
			c-1.104,0-2.087-0.247-2.943-0.743c-0.857-0.496-1.527-1.197-2.01-2.104c-0.482-0.905-0.724-1.972-0.724-3.188
			C575.349,792.554,575.589,791.502,576.072,790.602z"/>
		<path fill="#010101" d="M591.094,799.053c-0.886-0.496-1.581-1.201-2.084-2.115c-0.503-0.915-0.755-1.974-0.755-3.179
			c0-1.191,0.259-2.244,0.774-3.157c0.518-0.915,1.225-1.616,2.117-2.104c0.893-0.489,1.893-0.732,2.997-0.732
			c1.105,0,2.105,0.243,2.998,0.732c0.895,0.489,1.6,1.187,2.115,2.094c0.517,0.908,0.776,1.964,0.776,3.169
			s-0.266,2.264-0.799,3.179c-0.529,0.914-1.25,1.619-2.156,2.115s-1.914,0.743-3.021,0.743
			C592.967,799.796,591.979,799.549,591.094,799.053z M596.016,797.606c0.609-0.324,1.104-0.813,1.479-1.467
			c0.375-0.65,0.563-1.445,0.563-2.381s-0.185-1.729-0.554-2.382c-0.367-0.652-0.851-1.138-1.444-1.456
			c-0.596-0.32-1.241-0.479-1.936-0.479c-0.709,0-1.356,0.158-1.945,0.479c-0.588,0.318-1.06,0.804-1.414,1.456
			c-0.354,0.651-0.531,1.446-0.531,2.382c0,0.948,0.174,1.751,0.521,2.401c0.349,0.651,0.812,1.139,1.394,1.457
			c0.581,0.318,1.219,0.478,1.913,0.478C594.754,798.095,595.408,797.934,596.016,797.606z"/>
		<path fill="#010101" d="M604.308,799.339c-0.709-0.305-1.27-0.729-1.681-1.274c-0.41-0.546-0.637-1.174-0.68-1.883h2
			c0.055,0.582,0.327,1.058,0.816,1.425c0.489,0.369,1.131,0.555,1.925,0.555c0.735,0,1.317-0.164,1.743-0.489
			c0.425-0.326,0.638-0.737,0.638-1.233c0-0.511-0.228-0.889-0.681-1.139c-0.454-0.246-1.155-0.492-2.104-0.73
			c-0.866-0.228-1.57-0.459-2.115-0.691c-0.547-0.235-1.016-0.582-1.404-1.043c-0.39-0.46-0.585-1.065-0.585-1.817
			c0-0.595,0.177-1.142,0.531-1.638c0.354-0.496,0.857-0.889,1.511-1.18c0.651-0.29,1.396-0.436,2.232-0.436
			c1.289,0,2.33,0.325,3.125,0.978c0.794,0.651,1.22,1.546,1.274,2.679h-1.935c-0.042-0.609-0.287-1.098-0.733-1.467
			c-0.446-0.368-1.045-0.552-1.796-0.552c-0.695,0-1.248,0.147-1.659,0.445s-0.616,0.688-0.616,1.169
			c0,0.382,0.124,0.698,0.372,0.946c0.248,0.249,0.561,0.446,0.937,0.596c0.376,0.147,0.895,0.314,1.562,0.499
			c0.836,0.228,1.518,0.449,2.041,0.67s0.975,0.551,1.352,0.988c0.376,0.439,0.569,1.014,0.585,1.725
			c0,0.637-0.178,1.211-0.532,1.722c-0.354,0.509-0.854,0.909-1.499,1.201c-0.645,0.29-1.385,0.435-2.222,0.435
			C605.816,799.796,605.016,799.645,604.308,799.339z"/>
		<path fill="#010101" d="M623.72,787.954l-7.017,17.137h-1.999l2.296-5.613l-4.698-11.522h2.146l3.656,9.439l3.614-9.439
			L623.72,787.954L623.72,787.954z"/>
		<path fill="#010101" d="M627.376,799.339c-0.709-0.305-1.271-0.729-1.681-1.274c-0.41-0.546-0.638-1.174-0.68-1.883h1.998
			c0.056,0.582,0.328,1.058,0.817,1.425c0.489,0.369,1.132,0.555,1.925,0.555c0.736,0,1.318-0.164,1.743-0.489
			c0.425-0.326,0.638-0.737,0.638-1.233c0-0.511-0.227-0.889-0.68-1.139c-0.454-0.246-1.156-0.492-2.105-0.73
			c-0.863-0.228-1.569-0.459-2.115-0.691c-0.546-0.235-1.014-0.582-1.402-1.043c-0.392-0.46-0.585-1.065-0.585-1.817
			c0-0.595,0.178-1.142,0.531-1.638c0.354-0.496,0.857-0.889,1.511-1.18c0.65-0.29,1.395-0.436,2.23-0.436
			c1.29,0,2.332,0.325,3.125,0.978c0.794,0.651,1.222,1.546,1.276,2.679h-1.936c-0.041-0.609-0.286-1.098-0.733-1.467
			c-0.445-0.368-1.045-0.552-1.795-0.552c-0.696,0-1.248,0.147-1.659,0.445s-0.616,0.688-0.616,1.169
			c0,0.382,0.124,0.698,0.372,0.946c0.248,0.249,0.561,0.446,0.936,0.596c0.376,0.147,0.896,0.314,1.563,0.499
			c0.836,0.228,1.518,0.449,2.041,0.67c0.524,0.221,0.975,0.551,1.351,0.988c0.377,0.439,0.569,1.014,0.585,1.725
			c0,0.637-0.179,1.211-0.532,1.722c-0.354,0.509-0.854,0.909-1.498,1.201c-0.646,0.29-1.386,0.435-2.221,0.435
			C628.886,799.796,628.085,799.645,627.376,799.339z"/>
		<path fill="#010101" d="M639.113,789.549v6.867c0,0.566,0.118,0.968,0.359,1.201s0.659,0.352,1.254,0.352h1.426v1.636h-1.744
			c-1.076,0-1.886-0.248-2.423-0.744c-0.539-0.494-0.81-1.31-0.81-2.443v-6.867h-1.509v-1.595h1.509v-2.936h1.938v2.936h3.039v1.595
			L639.113,789.549L639.113,789.549z"/>
		<path fill="#010101" d="M655.059,794.503h-9.312c0.07,1.146,0.464,2.044,1.179,2.688c0.716,0.646,1.585,0.969,2.604,0.969
			c0.837,0,1.534-0.196,2.095-0.585c0.561-0.391,0.953-0.912,1.181-1.563h2.084c-0.313,1.12-0.936,2.031-1.872,2.732
			c-0.936,0.702-2.098,1.052-3.486,1.052c-1.104,0-2.095-0.247-2.966-0.743s-1.556-1.201-2.052-2.115
			c-0.497-0.915-0.745-1.974-0.745-3.179s0.241-2.262,0.725-3.169c0.48-0.906,1.159-1.604,2.029-2.094
			c0.871-0.489,1.875-0.733,3.009-0.733c1.105,0,2.084,0.241,2.935,0.723c0.852,0.482,1.507,1.146,1.968,1.989
			c0.46,0.843,0.69,1.796,0.69,2.857C655.122,793.702,655.1,794.091,655.059,794.503z M652.635,791.026
			c-0.327-0.531-0.77-0.936-1.329-1.212c-0.56-0.275-1.18-0.414-1.86-0.414c-0.979,0-1.812,0.313-2.498,0.937
			s-1.08,1.486-1.181,2.594h7.356C653.123,792.192,652.96,791.558,652.635,791.026z"/>
		<path fill="#010101" d="M674.109,788.304c0.708,0.377,1.268,0.939,1.68,1.691c0.411,0.752,0.616,1.666,0.616,2.742v6.866h-1.914
			v-6.59c0-1.161-0.287-2.052-0.861-2.669c-0.573-0.617-1.349-0.925-2.327-0.925c-1.007,0-1.808,0.323-2.401,0.968
			c-0.598,0.646-0.895,1.577-0.895,2.796v6.42h-1.914v-6.59c0-1.161-0.287-2.052-0.859-2.669c-0.574-0.617-1.351-0.925-2.328-0.925
			c-1.007,0-1.808,0.323-2.402,0.968c-0.597,0.646-0.893,1.577-0.893,2.796v6.42h-1.937v-11.649h1.937v1.68
			c0.382-0.609,0.896-1.077,1.54-1.403c0.645-0.325,1.355-0.488,2.138-0.488c0.979,0,1.842,0.22,2.594,0.658
			c0.751,0.438,1.312,1.084,1.681,1.937c0.324-0.823,0.862-1.461,1.614-1.914c0.751-0.453,1.589-0.681,2.511-0.681
			C672.593,787.741,673.399,787.93,674.109,788.304z"/>
	</g>
	<g>
		<path fill="#010101" d="M397.487,807.254v14.819h-1.935v-14.819H397.487z"/>
		<path fill="#010101" d="M409.903,811.496c0.88,0.857,1.318,2.094,1.318,3.709v6.868h-1.914v-6.592c0-1.161-0.29-2.052-0.872-2.669
			c-0.581-0.615-1.375-0.925-2.382-0.925c-1.02,0-1.831,0.32-2.434,0.958c-0.604,0.637-0.903,1.565-0.903,2.785v6.441h-1.936v-11.65
			h1.936v1.658c0.383-0.597,0.903-1.057,1.563-1.382c0.66-0.326,1.386-0.489,2.18-0.489
			C407.876,810.21,409.024,810.639,409.903,811.496z"/>
		<path fill="#010101" d="M416.749,812.017v6.868c0,0.567,0.12,0.968,0.36,1.201c0.241,0.234,0.659,0.351,1.256,0.351h1.424v1.638
			h-1.744c-1.077,0-1.885-0.247-2.423-0.743c-0.539-0.496-0.81-1.313-0.81-2.445v-6.868h-1.509v-1.594h1.509v-2.935h1.937v2.935
			h3.041v1.594L416.749,812.017L416.749,812.017z"/>
		<path fill="#010101" d="M432.696,816.972h-9.313c0.07,1.147,0.464,2.044,1.18,2.689c0.716,0.645,1.584,0.967,2.605,0.967
			c0.835,0,1.534-0.194,2.094-0.584c0.561-0.391,0.953-0.911,1.18-1.563h2.084c-0.313,1.119-0.935,2.029-1.871,2.73
			c-0.937,0.703-2.099,1.053-3.486,1.053c-1.106,0-2.095-0.248-2.966-0.744c-0.872-0.494-1.557-1.2-2.053-2.114
			c-0.497-0.913-0.745-1.975-0.745-3.179c0-1.205,0.241-2.262,0.724-3.168c0.481-0.907,1.159-1.604,2.031-2.095
			c0.871-0.489,1.874-0.733,3.008-0.733c1.104,0,2.083,0.241,2.934,0.724c0.851,0.48,1.507,1.144,1.968,1.986
			c0.46,0.845,0.689,1.798,0.689,2.86C432.759,816.171,432.736,816.56,432.696,816.972z M430.271,813.494
			c-0.325-0.531-0.768-0.937-1.329-1.212c-0.56-0.276-1.18-0.414-1.859-0.414c-0.979,0-1.812,0.313-2.498,0.936
			c-0.688,0.625-1.081,1.488-1.181,2.595h7.356C430.761,814.661,430.597,814.026,430.271,813.494z"/>
		<path fill="#010101" d="M442.763,810.891c0.758,0.439,1.321,0.991,1.69,1.657v-2.125h1.956v11.906
			c0,1.063-0.227,2.009-0.681,2.838c-0.452,0.83-1.102,1.479-1.944,1.945c-0.844,0.468-1.825,0.702-2.944,0.702
			c-1.531,0-2.807-0.361-3.827-1.085c-1.021-0.723-1.624-1.708-1.808-2.955h1.914c0.213,0.709,0.65,1.277,1.317,1.711
			c0.666,0.434,1.469,0.649,2.403,0.649c1.063,0,1.931-0.335,2.604-1.001c0.673-0.666,1.01-1.602,1.01-2.806v-2.446
			c-0.384,0.682-0.95,1.248-1.701,1.701c-0.751,0.454-1.63,0.682-2.637,0.682c-1.035,0-1.974-0.255-2.816-0.767
			c-0.844-0.51-1.506-1.226-1.988-2.146c-0.481-0.922-0.723-1.97-0.723-3.146c0-1.191,0.241-2.236,0.723-3.136
			c0.482-0.9,1.146-1.601,1.988-2.096c0.842-0.495,1.782-0.743,2.816-0.743C441.122,810.231,442.004,810.45,442.763,810.891z
			 M443.92,813.931c-0.354-0.65-0.833-1.151-1.434-1.499c-0.604-0.347-1.267-0.521-1.989-0.521c-0.723,0-1.381,0.17-1.978,0.51
			c-0.596,0.341-1.069,0.836-1.424,1.488c-0.354,0.651-0.531,1.418-0.531,2.297c0,0.893,0.178,1.669,0.531,2.327
			c0.354,0.659,0.829,1.162,1.424,1.511c0.597,0.347,1.255,0.521,1.978,0.521c0.724,0,1.386-0.174,1.989-0.521
			c0.601-0.349,1.08-0.852,1.434-1.511c0.354-0.658,0.532-1.428,0.532-2.307C444.453,815.347,444.275,814.583,443.92,813.931z"/>
		<path fill="#010101" d="M453.074,810.762c0.631-0.367,1.399-0.552,2.308-0.552v1.999h-0.511c-2.169,0-3.252,1.176-3.252,3.529
			v6.335h-1.936v-11.65h1.936v1.892C451.958,811.649,452.443,811.132,453.074,810.762z"/>
		<path fill="#010101" d="M457.614,813.07c0.481-0.9,1.145-1.601,1.987-2.096c0.843-0.496,1.782-0.745,2.817-0.745
			c1.021,0,1.906,0.221,2.658,0.66c0.751,0.439,1.31,0.991,1.68,1.657v-2.125h1.955v11.65h-1.955v-2.168
			c-0.383,0.68-0.955,1.244-1.713,1.688c-0.757,0.447-1.641,0.67-2.645,0.67c-1.035,0-1.972-0.255-2.809-0.766
			c-0.836-0.51-1.495-1.225-1.977-2.146s-0.724-1.97-0.724-3.146C456.891,815.015,457.132,813.97,457.614,813.07z M466.225,813.931
			c-0.354-0.65-0.833-1.151-1.435-1.499c-0.604-0.347-1.265-0.521-1.988-0.521s-1.382,0.17-1.978,0.51
			c-0.595,0.341-1.07,0.836-1.424,1.488c-0.355,0.651-0.531,1.418-0.531,2.297c0,0.893,0.177,1.669,0.531,2.327
			c0.353,0.659,0.829,1.162,1.424,1.511c0.596,0.347,1.254,0.521,1.978,0.521c0.725,0,1.385-0.174,1.988-0.521
			c0.602-0.349,1.08-0.852,1.435-1.511c0.355-0.658,0.532-1.428,0.532-2.307C466.757,815.347,466.579,814.583,466.225,813.931z"/>
		<path fill="#010101" d="M474.346,812.017v6.868c0,0.567,0.121,0.968,0.362,1.201c0.241,0.234,0.658,0.351,1.255,0.351h1.424v1.638
			h-1.744c-1.076,0-1.885-0.247-2.422-0.743c-0.539-0.496-0.809-1.313-0.809-2.445v-6.868h-1.51v-1.594h1.51v-2.935h1.934v2.935
			h3.041v1.594L474.346,812.017L474.346,812.017z"/>
		<path fill="#010101" d="M479.79,808.146c-0.255-0.255-0.384-0.564-0.384-0.936c0-0.367,0.129-0.68,0.384-0.935
			c0.254-0.255,0.566-0.384,0.937-0.384c0.353,0,0.654,0.128,0.902,0.384c0.248,0.255,0.372,0.566,0.372,0.935
			c0,0.37-0.124,0.681-0.372,0.936c-0.248,0.257-0.55,0.385-0.902,0.385C480.356,808.53,480.044,808.403,479.79,808.146z
			 M481.661,810.423v11.65h-1.936v-11.65H481.661z"/>
		<path fill="#010101" d="M487.071,821.521c-0.887-0.495-1.58-1.201-2.085-2.115c-0.503-0.913-0.754-1.975-0.754-3.179
			c0-1.19,0.258-2.243,0.774-3.156c0.519-0.916,1.224-1.616,2.116-2.105c0.894-0.489,1.893-0.732,2.999-0.732
			c1.104,0,2.104,0.243,2.997,0.732s1.598,1.188,2.115,2.095c0.517,0.906,0.775,1.963,0.775,3.167c0,1.205-0.266,2.266-0.798,3.18
			c-0.53,0.914-1.251,1.62-2.157,2.114c-0.906,0.496-1.912,0.745-3.021,0.745C488.945,822.265,487.957,822.017,487.071,821.521z
			 M491.992,820.075c0.61-0.326,1.104-0.814,1.479-1.467c0.376-0.651,0.564-1.446,0.564-2.382c0-0.937-0.185-1.729-0.555-2.382
			c-0.368-0.65-0.852-1.137-1.444-1.456c-0.596-0.319-1.241-0.479-1.936-0.479c-0.708,0-1.356,0.159-1.945,0.479
			c-0.588,0.319-1.06,0.806-1.413,1.456c-0.355,0.652-0.531,1.445-0.531,2.382c0,0.948,0.172,1.75,0.521,2.401
			c0.348,0.652,0.811,1.138,1.393,1.457c0.581,0.319,1.219,0.479,1.913,0.479C490.731,820.565,491.384,820.401,491.992,820.075z"/>
		<path fill="#010101" d="M507.686,811.496c0.878,0.857,1.316,2.094,1.316,3.709v6.868h-1.912v-6.592
			c0-1.161-0.291-2.052-0.872-2.669c-0.581-0.615-1.376-0.925-2.382-0.925c-1.021,0-1.832,0.32-2.434,0.958
			c-0.604,0.637-0.903,1.565-0.903,2.785v6.441h-1.935v-11.65h1.935v1.658c0.382-0.597,0.903-1.057,1.563-1.382
			c0.658-0.326,1.385-0.489,2.179-0.489C505.658,810.21,506.806,810.639,507.686,811.496z"/>
	</g>
	<g>
		<path fill="#010101" d="M248.363,775.798H241.9l-1.19,3.295h-2.041l5.357-14.734h2.232l5.337,14.734h-2.042L248.363,775.798z
			 M247.812,774.224l-2.679-7.484l-2.68,7.484H247.812z"/>
		<path fill="#010101" d="M263.056,768.516c0.879,0.857,1.318,2.093,1.318,3.71v6.867h-1.914v-6.591c0-1.162-0.29-2.053-0.872-2.669
			c-0.58-0.615-1.375-0.924-2.381-0.924c-1.021,0-1.832,0.318-2.435,0.955c-0.603,0.639-0.902,1.566-0.902,2.786v6.441h-1.936
			v-11.65h1.936v1.657c0.383-0.595,0.902-1.056,1.563-1.381c0.66-0.326,1.385-0.489,2.179-0.489
			C261.029,767.229,262.177,767.659,263.056,768.516z"/>
		<path fill="#010101" d="M267.542,770.089c0.481-0.9,1.144-1.6,1.987-2.095c0.843-0.496,1.781-0.743,2.816-0.743
			c1.021,0,1.907,0.22,2.659,0.657c0.75,0.439,1.311,0.993,1.68,1.658v-2.125h1.956v11.65h-1.956v-2.168
			c-0.383,0.68-0.954,1.244-1.712,1.689c-0.758,0.446-1.641,0.67-2.645,0.67c-1.036,0-1.972-0.256-2.808-0.766
			c-0.837-0.511-1.496-1.227-1.977-2.146c-0.483-0.922-0.724-1.972-0.724-3.146C266.818,772.032,267.06,770.989,267.542,770.089z
			 M276.152,770.951c-0.354-0.652-0.833-1.151-1.435-1.5c-0.604-0.348-1.265-0.521-1.989-0.521c-0.723,0-1.381,0.17-1.978,0.511
			c-0.595,0.34-1.07,0.836-1.424,1.488c-0.355,0.652-0.531,1.417-0.531,2.297c0,0.894,0.177,1.668,0.531,2.327
			c0.354,0.658,0.829,1.163,1.424,1.51c0.596,0.349,1.255,0.522,1.978,0.522c0.725,0,1.386-0.174,1.989-0.522
			c0.603-0.347,1.08-0.852,1.435-1.51c0.355-0.659,0.532-1.428,0.532-2.307S276.507,771.603,276.152,770.951z"/>
		<path fill="#010101" d="M283.85,763.359v15.733h-1.935v-15.733H283.85z"/>
		<path fill="#010101" d="M297.181,767.442l-7.017,17.137h-1.999l2.296-5.612l-4.699-11.523h2.148l3.656,9.438l3.614-9.438
			L297.181,767.442L297.181,767.442z"/>
		<path fill="#010101" d="M301.475,769.036v6.866c0,0.568,0.12,0.97,0.36,1.201c0.241,0.234,0.66,0.352,1.255,0.352h1.426v1.638
			h-1.744c-1.077,0-1.886-0.248-2.423-0.744c-0.539-0.495-0.809-1.311-0.809-2.445v-6.865h-1.51v-1.596h1.51v-2.935h1.936v2.935
			h3.041v1.596h-3.041V769.036z"/>
		<path fill="#010101" d="M306.917,765.166c-0.255-0.254-0.383-0.565-0.383-0.937c0-0.368,0.127-0.681,0.383-0.935
			c0.254-0.255,0.567-0.383,0.936-0.383c0.354,0,0.655,0.128,0.903,0.383c0.248,0.254,0.372,0.565,0.372,0.935
			c0,0.37-0.124,0.683-0.372,0.937c-0.248,0.256-0.55,0.383-0.903,0.383C307.484,765.549,307.172,765.422,306.917,765.166z
			 M308.789,767.442v11.65h-1.935v-11.65H308.789z"/>
		<path fill="#010101" d="M312.084,770.089c0.481-0.9,1.151-1.6,2.009-2.095c0.857-0.496,1.839-0.743,2.944-0.743
			c1.432,0,2.612,0.346,3.541,1.042c0.927,0.692,1.542,1.656,1.838,2.891h-2.083c-0.198-0.708-0.585-1.269-1.159-1.68
			c-0.573-0.41-1.285-0.617-2.136-0.617c-1.105,0-1.999,0.381-2.679,1.138c-0.681,0.759-1.021,1.832-1.021,3.223
			c0,1.402,0.34,2.487,1.021,3.253c0.68,0.766,1.573,1.146,2.679,1.146c0.852,0,1.561-0.196,2.127-0.594
			c0.566-0.396,0.956-0.964,1.168-1.701h2.083c-0.312,1.19-0.936,2.146-1.871,2.86c-0.934,0.714-2.104,1.072-3.508,1.072
			c-1.105,0-2.087-0.248-2.944-0.744c-0.857-0.496-1.527-1.198-2.009-2.105c-0.481-0.906-0.724-1.97-0.724-3.188
			C311.36,772.041,311.602,770.989,312.084,770.089z"/>
		<path fill="#010101" d="M326.712,778.827c-0.709-0.305-1.269-0.73-1.68-1.276c-0.411-0.544-0.637-1.172-0.68-1.881h1.999
			c0.055,0.582,0.329,1.057,0.817,1.425c0.489,0.368,1.131,0.552,1.925,0.552c0.735,0,1.317-0.161,1.742-0.488
			c0.427-0.324,0.639-0.735,0.639-1.232c0-0.511-0.229-0.889-0.681-1.138c-0.454-0.247-1.155-0.491-2.104-0.733
			c-0.865-0.227-1.57-0.457-2.116-0.69c-0.545-0.232-1.013-0.581-1.403-1.042c-0.391-0.461-0.585-1.065-0.585-1.817
			c0-0.595,0.178-1.142,0.531-1.637c0.354-0.495,0.858-0.89,1.51-1.182c0.651-0.289,1.396-0.435,2.232-0.435
			c1.29,0,2.331,0.325,3.125,0.978c0.793,0.651,1.219,1.545,1.276,2.679h-1.937c-0.042-0.608-0.287-1.099-0.733-1.466
			c-0.445-0.37-1.046-0.555-1.796-0.555c-0.694,0-1.248,0.15-1.658,0.447c-0.411,0.298-0.616,0.688-0.616,1.169
			c0,0.383,0.124,0.699,0.372,0.945c0.248,0.25,0.56,0.447,0.936,0.597c0.375,0.148,0.896,0.314,1.563,0.5
			c0.836,0.227,1.516,0.45,2.041,0.67c0.523,0.219,0.975,0.55,1.35,0.989c0.376,0.438,0.571,1.013,0.585,1.721
			c0,0.639-0.178,1.213-0.532,1.722c-0.354,0.513-0.854,0.912-1.499,1.202s-1.385,0.437-2.221,0.437
			C328.222,779.284,327.421,779.132,326.712,778.827z"/>
	</g>
	<g>
		<path fill="#010101" d="M135.233,621.296v14.817h-1.936v-14.817H135.233z"/>
		<path fill="#010101" d="M147.649,625.536c0.878,0.857,1.317,2.095,1.317,3.711v6.866h-1.914v-6.591
			c0-1.161-0.29-2.052-0.872-2.669c-0.581-0.615-1.375-0.925-2.381-0.925c-1.021,0-1.832,0.319-2.435,0.957
			s-0.902,1.566-0.902,2.785v6.442h-1.936v-11.65h1.936v1.658c0.383-0.596,0.902-1.057,1.563-1.382s1.385-0.489,2.179-0.489
			C145.622,624.25,146.771,624.68,147.649,625.536z"/>
		<path fill="#010101" d="M152.135,627.109c0.481-0.899,1.145-1.598,1.988-2.095c0.842-0.496,1.79-0.743,2.838-0.743
			c0.907,0,1.75,0.209,2.53,0.627c0.779,0.418,1.375,0.968,1.786,1.648v-6.168h1.956v15.734h-1.956v-2.189
			c-0.383,0.693-0.95,1.264-1.701,1.711c-0.752,0.447-1.631,0.67-2.637,0.67c-1.035,0-1.974-0.256-2.816-0.766
			c-0.844-0.51-1.507-1.227-1.988-2.146c-0.482-0.924-0.724-1.971-0.724-3.146C151.412,629.055,151.653,628.011,152.135,627.109z
			 M160.746,627.971c-0.354-0.65-0.833-1.15-1.435-1.499c-0.604-0.347-1.266-0.521-1.989-0.521c-0.722,0-1.381,0.17-1.978,0.511
			c-0.595,0.34-1.069,0.836-1.424,1.488c-0.355,0.65-0.531,1.417-0.531,2.296c0,0.893,0.177,1.668,0.531,2.328
			c0.354,0.656,0.829,1.162,1.424,1.51c0.597,0.346,1.255,0.52,1.978,0.52c0.725,0,1.386-0.174,1.989-0.52
			c0.602-0.348,1.08-0.854,1.435-1.51c0.355-0.66,0.532-1.429,0.532-2.308C161.278,629.389,161.101,628.624,160.746,627.971z"/>
		<path fill="#010101" d="M176.84,624.463v11.65h-1.935v-1.723c-0.369,0.596-0.883,1.061-1.542,1.395
			c-0.659,0.332-1.386,0.498-2.18,0.498c-0.908,0-1.723-0.188-2.445-0.563c-0.723-0.375-1.294-0.938-1.712-1.689
			c-0.417-0.752-0.627-1.666-0.627-2.742v-6.826h1.914v6.57c0,1.146,0.29,2.029,0.872,2.645c0.581,0.617,1.375,0.926,2.381,0.926
			c1.034,0,1.85-0.318,2.444-0.957s0.894-1.564,0.894-2.785v-6.398H176.84L176.84,624.463z"/>
		<path fill="#010101" d="M181.837,635.848c-0.709-0.305-1.27-0.729-1.681-1.275c-0.41-0.545-0.637-1.172-0.679-1.881h1.999
			c0.056,0.58,0.329,1.057,0.817,1.424c0.489,0.369,1.13,0.553,1.925,0.553c0.736,0,1.317-0.162,1.742-0.486
			c0.426-0.328,0.64-0.738,0.64-1.234c0-0.51-0.228-0.889-0.682-1.139c-0.454-0.246-1.155-0.492-2.104-0.731
			c-0.865-0.228-1.57-0.457-2.116-0.691c-0.546-0.232-1.014-0.581-1.403-1.041c-0.391-0.46-0.585-1.065-0.585-1.818
			c0-0.595,0.177-1.141,0.532-1.637c0.354-0.496,0.857-0.89,1.51-1.18c0.65-0.291,1.396-0.437,2.231-0.437
			c1.29,0,2.332,0.325,3.126,0.979c0.793,0.651,1.22,1.545,1.275,2.678h-1.936c-0.042-0.607-0.287-1.098-0.733-1.466
			c-0.445-0.368-1.045-0.554-1.796-0.554c-0.695,0-1.248,0.149-1.658,0.447c-0.412,0.298-0.617,0.688-0.617,1.169
			c0,0.383,0.125,0.698,0.373,0.944c0.248,0.25,0.56,0.447,0.936,0.598c0.376,0.147,0.896,0.314,1.563,0.5
			c0.836,0.226,1.517,0.448,2.041,0.67c0.523,0.219,0.975,0.549,1.351,0.987s0.569,1.013,0.584,1.722
			c0,0.639-0.178,1.213-0.532,1.723c-0.354,0.51-0.854,0.91-1.498,1.201c-0.646,0.291-1.386,0.436-2.221,0.436
			C183.347,636.305,182.546,636.152,181.837,635.848z"/>
		<path fill="#010101" d="M193.575,626.058v6.868c0,0.566,0.12,0.967,0.361,1.199c0.241,0.236,0.659,0.352,1.254,0.352h1.425v1.639
			h-1.744c-1.077,0-1.886-0.248-2.423-0.744c-0.539-0.496-0.809-1.313-0.809-2.445v-6.866h-1.51v-1.597h1.51v-2.935h1.936v2.935
			h3.041v1.595H193.575z"/>
		<path fill="#010101" d="M202.344,624.804c0.631-0.368,1.399-0.554,2.308-0.554v1.999h-0.511c-2.169,0-3.252,1.177-3.252,3.53
			v6.334h-1.936v-11.65h1.936v1.893C201.228,625.688,201.713,625.172,202.344,624.804z"/>
		<path fill="#010101" d="M206.948,622.188c-0.255-0.255-0.383-0.565-0.383-0.935c0-0.368,0.128-0.681,0.383-0.937
			s0.567-0.384,0.936-0.384c0.354,0,0.656,0.128,0.904,0.384c0.248,0.256,0.372,0.566,0.372,0.937c0,0.368-0.124,0.68-0.372,0.935
			c-0.248,0.257-0.55,0.384-0.904,0.384C207.515,622.57,207.203,622.442,206.948,622.188z M208.819,624.463v11.65h-1.936v-11.65
			H208.819z"/>
		<path fill="#010101" d="M222.681,631.012h-9.312c0.07,1.148,0.464,2.043,1.18,2.689c0.716,0.645,1.585,0.967,2.604,0.967
			c0.836,0,1.533-0.195,2.094-0.584c0.56-0.391,0.953-0.912,1.181-1.563h2.083c-0.313,1.119-0.936,2.029-1.872,2.73
			c-0.935,0.703-2.097,1.053-3.486,1.053c-1.104,0-2.095-0.248-2.966-0.744c-0.872-0.496-1.555-1.199-2.051-2.115
			c-0.497-0.912-0.745-1.973-0.745-3.178s0.241-2.261,0.724-3.168c0.48-0.907,1.158-1.604,2.03-2.095
			c0.871-0.489,1.874-0.732,3.009-0.732c1.105,0,2.083,0.24,2.935,0.723s1.506,1.146,1.967,1.987c0.46,0.845,0.69,1.797,0.69,2.859
			C222.744,630.211,222.723,630.601,222.681,631.012z M220.257,627.535c-0.326-0.531-0.769-0.937-1.329-1.213
			c-0.56-0.275-1.179-0.414-1.859-0.414c-0.979,0-1.812,0.313-2.499,0.937c-0.687,0.624-1.081,1.487-1.18,2.594h7.356
			C220.746,628.701,220.583,628.065,220.257,627.535z"/>
		<path fill="#010101" d="M227.018,635.848c-0.709-0.305-1.27-0.729-1.68-1.275c-0.411-0.545-0.638-1.172-0.68-1.881h1.999
			c0.056,0.58,0.329,1.057,0.818,1.424c0.489,0.369,1.131,0.553,1.924,0.553c0.736,0,1.318-0.162,1.743-0.486
			c0.426-0.328,0.639-0.738,0.639-1.234c0-0.51-0.228-0.889-0.681-1.139c-0.454-0.246-1.155-0.492-2.104-0.731
			c-0.864-0.228-1.57-0.457-2.115-0.691c-0.546-0.232-1.014-0.581-1.403-1.041c-0.391-0.46-0.585-1.065-0.585-1.818
			c0-0.595,0.177-1.141,0.531-1.637c0.354-0.496,0.858-0.89,1.511-1.18c0.651-0.291,1.396-0.437,2.231-0.437
			c1.29,0,2.332,0.325,3.125,0.979c0.794,0.651,1.22,1.545,1.276,2.678h-1.936c-0.042-0.607-0.287-1.098-0.733-1.466
			c-0.446-0.368-1.046-0.554-1.797-0.554c-0.695,0-1.248,0.149-1.659,0.447s-0.616,0.688-0.616,1.169
			c0,0.383,0.124,0.698,0.372,0.944c0.248,0.25,0.56,0.447,0.936,0.598c0.376,0.147,0.896,0.314,1.563,0.5
			c0.835,0.226,1.517,0.448,2.04,0.67c0.524,0.219,0.975,0.549,1.351,0.987s0.57,1.013,0.585,1.722c0,0.639-0.178,1.213-0.532,1.723
			s-0.854,0.91-1.499,1.201c-0.646,0.291-1.385,0.436-2.222,0.436C228.528,636.305,227.727,636.152,227.018,635.848z"/>
	</g>
	<g>
		<path fill="#010101" d="M71.066,471.831c0.652-1.155,1.542-2.06,2.668-2.711c1.127-0.652,2.377-0.979,3.753-0.979
			c1.616,0,3.025,0.392,4.23,1.17c1.205,0.78,2.083,1.886,2.638,3.316h-2.318c-0.411-0.893-1.002-1.579-1.775-2.062
			c-0.773-0.483-1.697-0.725-2.774-0.725c-1.034,0-1.963,0.24-2.785,0.725c-0.822,0.482-1.468,1.165-1.936,2.051
			c-0.468,0.886-0.702,1.925-0.702,3.115c0,1.177,0.233,2.208,0.702,3.094c0.468,0.887,1.112,1.569,1.936,2.053
			c0.821,0.48,1.75,0.723,2.785,0.723c1.077,0,2.001-0.237,2.774-0.713c0.772-0.476,1.364-1.158,1.775-2.052h2.318
			c-0.555,1.418-1.433,2.513-2.638,3.285c-1.205,0.772-2.614,1.158-4.23,1.158c-1.375,0-2.626-0.322-3.753-0.967
			c-1.126-0.646-2.017-1.542-2.668-2.689c-0.651-1.147-0.979-2.445-0.979-3.892C70.088,474.287,70.415,472.986,71.066,471.831z"/>
		<path fill="#010101" d="M89.341,482.601c-0.887-0.496-1.581-1.202-2.084-2.116c-0.503-0.914-0.755-1.975-0.755-3.18
			c0-1.188,0.259-2.242,0.776-3.156c0.518-0.914,1.223-1.616,2.116-2.105s1.893-0.732,2.998-0.732c1.105,0,2.104,0.243,2.998,0.732
			c0.894,0.489,1.598,1.189,2.115,2.095c0.518,0.908,0.776,1.963,0.776,3.168s-0.266,2.266-0.798,3.18
			c-0.531,0.914-1.251,1.62-2.157,2.115c-0.907,0.496-1.914,0.744-3.02,0.744C91.214,483.345,90.227,483.097,89.341,482.601z
			 M94.263,481.154c0.609-0.325,1.103-0.814,1.477-1.468c0.376-0.65,0.564-1.445,0.564-2.382c0-0.936-0.186-1.728-0.554-2.381
			c-0.368-0.651-0.851-1.138-1.444-1.457c-0.596-0.317-1.241-0.479-1.936-0.479c-0.708,0-1.356,0.161-1.945,0.479
			c-0.588,0.319-1.06,0.806-1.414,1.457c-0.354,0.652-0.531,1.445-0.531,2.381c0,0.95,0.173,1.751,0.521,2.403
			c0.348,0.651,0.812,1.137,1.394,1.456c0.581,0.318,1.219,0.479,1.913,0.479C93.001,481.644,93.653,481.48,94.263,481.154z"/>
		<path fill="#010101" d="M117.268,471.852c0.709,0.376,1.269,0.938,1.681,1.69c0.411,0.751,0.615,1.665,0.615,2.743v6.866h-1.913
			v-6.59c0-1.162-0.287-2.054-0.861-2.67c-0.574-0.616-1.35-0.924-2.328-0.924c-1.006,0-1.807,0.321-2.402,0.966
			c-0.596,0.646-0.894,1.577-0.894,2.797v6.421h-1.914v-6.591c0-1.161-0.287-2.053-0.86-2.669c-0.574-0.616-1.351-0.924-2.329-0.924
			c-1.007,0-1.808,0.321-2.402,0.966c-0.596,0.646-0.893,1.577-0.893,2.797v6.421h-1.936v-11.65h1.936v1.679
			c0.383-0.608,0.896-1.077,1.541-1.402c0.646-0.325,1.356-0.489,2.138-0.489c0.979,0,1.842,0.221,2.594,0.659
			c0.75,0.44,1.311,1.085,1.68,1.936c0.325-0.822,0.863-1.459,1.615-1.914c0.751-0.453,1.588-0.681,2.51-0.681
			C115.751,471.288,116.559,471.476,117.268,471.852z"/>
		<path fill="#010101" d="M139.168,471.852c0.709,0.376,1.269,0.938,1.68,1.69c0.411,0.751,0.616,1.665,0.616,2.743v6.866h-1.914
			v-6.59c0-1.162-0.287-2.054-0.86-2.67c-0.575-0.616-1.35-0.924-2.328-0.924c-1.006,0-1.807,0.321-2.402,0.966
			c-0.596,0.646-0.894,1.577-0.894,2.797v6.421h-1.914v-6.591c0-1.161-0.288-2.053-0.86-2.669c-0.574-0.616-1.35-0.924-2.328-0.924
			c-1.007,0-1.808,0.321-2.403,0.966c-0.595,0.646-0.893,1.577-0.893,2.797v6.421h-1.935v-11.65h1.935v1.679
			c0.384-0.608,0.896-1.077,1.541-1.402c0.646-0.325,1.357-0.489,2.138-0.489c0.979,0,1.843,0.221,2.595,0.659
			c0.75,0.44,1.311,1.085,1.68,1.936c0.326-0.822,0.864-1.459,1.615-1.914c0.751-0.453,1.587-0.681,2.509-0.681
			C137.651,471.288,138.459,471.476,139.168,471.852z"/>
		<path fill="#010101" d="M154.964,471.502v11.65h-1.935v-1.723c-0.369,0.597-0.883,1.061-1.542,1.394
			c-0.659,0.332-1.386,0.5-2.179,0.5c-0.908,0-1.723-0.188-2.446-0.563c-0.724-0.376-1.294-0.938-1.712-1.689
			c-0.417-0.752-0.627-1.665-0.627-2.743v-6.825h1.914v6.57c0,1.147,0.29,2.031,0.872,2.646c0.58,0.617,1.375,0.927,2.381,0.927
			c1.034,0,1.85-0.318,2.444-0.957c0.596-0.64,0.894-1.565,0.894-2.785v-6.4H154.964L154.964,471.502z"/>
		<path fill="#010101" d="M167.36,472.575c0.878,0.856,1.318,2.095,1.318,3.71v6.867h-1.913v-6.59c0-1.162-0.29-2.054-0.872-2.669
			c-0.581-0.616-1.375-0.926-2.382-0.926c-1.021,0-1.832,0.318-2.435,0.957c-0.602,0.639-0.903,1.566-0.903,2.784v6.442h-1.936
			v-11.65h1.936v1.658c0.383-0.595,0.903-1.058,1.563-1.383c0.66-0.325,1.386-0.489,2.18-0.489
			C165.334,471.288,166.481,471.719,167.36,472.575z"/>
		<path fill="#010101" d="M171.911,469.227c-0.255-0.255-0.383-0.566-0.383-0.935c0-0.37,0.127-0.682,0.383-0.936
			c0.255-0.257,0.567-0.385,0.936-0.385c0.354,0,0.656,0.128,0.904,0.385c0.248,0.254,0.372,0.564,0.372,0.936
			c0,0.367-0.124,0.68-0.372,0.935c-0.248,0.256-0.551,0.384-0.904,0.384C172.478,469.609,172.166,469.481,171.911,469.227z
			 M173.782,471.502v11.65h-1.935v-11.65H173.782z"/>
		<path fill="#010101" d="M179.437,473.096v6.867c0,0.567,0.12,0.968,0.36,1.202c0.242,0.233,0.659,0.352,1.255,0.352h1.424v1.637
			h-1.744c-1.077,0-1.885-0.247-2.423-0.743c-0.539-0.496-0.809-1.311-0.809-2.446v-6.866h-1.51v-1.596h1.51v-2.934h1.936v2.934
			h3.04v1.596h-3.04V473.096z"/>
		<path fill="#010101" d="M184.879,469.227c-0.255-0.255-0.383-0.566-0.383-0.935c0-0.37,0.128-0.682,0.383-0.936
			c0.255-0.257,0.566-0.385,0.936-0.385c0.354,0,0.656,0.128,0.904,0.385c0.248,0.254,0.372,0.564,0.372,0.936
			c0,0.367-0.124,0.68-0.372,0.935c-0.248,0.256-0.55,0.384-0.904,0.384C185.447,469.609,185.135,469.481,184.879,469.227z
			 M186.751,471.502v11.65h-1.936v-11.65H186.751z"/>
		<path fill="#010101" d="M200.614,478.05h-9.312c0.07,1.147,0.464,2.045,1.18,2.69c0.716,0.645,1.584,0.967,2.604,0.967
			c0.835,0,1.534-0.194,2.095-0.585c0.56-0.39,0.953-0.91,1.18-1.563h2.084c-0.313,1.119-0.936,2.031-1.872,2.732
			s-2.098,1.053-3.486,1.053c-1.105,0-2.095-0.248-2.966-0.744c-0.872-0.495-1.556-1.201-2.052-2.115
			c-0.497-0.914-0.745-1.975-0.745-3.18s0.241-2.26,0.723-3.168c0.481-0.905,1.159-1.604,2.031-2.095
			c0.871-0.489,1.874-0.732,3.008-0.732c1.104,0,2.083,0.24,2.934,0.724c0.851,0.481,1.507,1.145,1.968,1.988
			c0.46,0.844,0.69,1.796,0.69,2.858C200.677,477.249,200.656,477.64,200.614,478.05z M198.189,474.573
			c-0.326-0.532-0.769-0.935-1.329-1.212c-0.56-0.276-1.18-0.414-1.859-0.414c-0.979,0-1.812,0.312-2.499,0.936
			c-0.687,0.624-1.081,1.488-1.181,2.595h7.356C198.679,475.739,198.516,475.104,198.189,474.573z"/>
		<path fill="#010101" d="M204.951,482.887c-0.709-0.304-1.27-0.729-1.681-1.274c-0.411-0.546-0.638-1.172-0.68-1.882h1.999
			c0.056,0.581,0.329,1.057,0.818,1.425c0.489,0.368,1.131,0.553,1.924,0.553c0.736,0,1.318-0.162,1.743-0.489
			c0.425-0.325,0.639-0.736,0.639-1.231c0-0.511-0.228-0.891-0.681-1.14c-0.455-0.246-1.156-0.49-2.105-0.731
			c-0.865-0.228-1.57-0.458-2.116-0.691c-0.546-0.232-1.013-0.581-1.403-1.041c-0.391-0.462-0.584-1.065-0.584-1.817
			c0-0.597,0.177-1.143,0.531-1.639c0.354-0.494,0.858-0.89,1.511-1.181c0.651-0.289,1.396-0.435,2.231-0.435
			c1.29,0,2.332,0.324,3.125,0.979c0.793,0.652,1.22,1.544,1.275,2.679h-1.936c-0.042-0.608-0.287-1.099-0.732-1.468
			c-0.446-0.368-1.046-0.553-1.797-0.553c-0.694,0-1.248,0.148-1.659,0.446c-0.411,0.298-0.616,0.687-0.616,1.17
			c0,0.383,0.124,0.697,0.372,0.944c0.248,0.249,0.56,0.446,0.936,0.598c0.376,0.147,0.896,0.314,1.563,0.499
			c0.835,0.228,1.516,0.45,2.041,0.669c0.523,0.221,0.974,0.55,1.35,0.988c0.376,0.439,0.57,1.015,0.585,1.724
			c0,0.637-0.178,1.211-0.531,1.722c-0.354,0.511-0.854,0.91-1.499,1.201c-0.646,0.29-1.386,0.437-2.222,0.437
			C206.459,483.345,205.66,483.192,204.951,482.887z"/>
	</g>
	<g>
		<path fill="#010101" d="M107.891,323.791v4.954h5.4v1.595h-5.4v5.103h6.038v1.594h-7.973v-14.84h7.973v1.595L107.891,323.791
			L107.891,323.791z"/>
		<path fill="#010101" d="M125.983,326.458c0.879,0.858,1.318,2.096,1.318,3.71v6.867h-1.914v-6.59c0-1.162-0.29-2.053-0.872-2.669
			c-0.581-0.616-1.375-0.924-2.381-0.924c-1.021,0-1.832,0.318-2.435,0.957c-0.603,0.638-0.903,1.566-0.903,2.785v6.441h-1.936
			v-11.65h1.936v1.659c0.383-0.595,0.903-1.057,1.563-1.382c0.659-0.326,1.385-0.489,2.179-0.489
			C123.956,325.173,125.104,325.601,125.983,326.458z"/>
		<path fill="#010101" d="M130.47,328.032c0.481-0.899,1.145-1.597,1.987-2.094c0.844-0.496,1.782-0.744,2.817-0.744
			c1.021,0,1.906,0.22,2.658,0.659c0.75,0.439,1.311,0.992,1.68,1.658v-2.126h1.956v11.65h-1.956v-2.167
			c-0.383,0.68-0.954,1.243-1.711,1.688c-0.759,0.447-1.642,0.67-2.646,0.67c-1.035,0-1.971-0.256-2.808-0.766
			s-1.496-1.226-1.978-2.146c-0.482-0.921-0.724-1.97-0.724-3.146C129.746,329.977,129.987,328.932,130.47,328.032z M139.08,328.894
			c-0.354-0.652-0.833-1.153-1.434-1.5c-0.604-0.347-1.266-0.521-1.989-0.521c-0.724,0-1.382,0.171-1.978,0.511
			c-0.596,0.34-1.07,0.836-1.425,1.488s-0.531,1.417-0.531,2.296c0,0.893,0.177,1.669,0.531,2.327
			c0.354,0.66,0.829,1.163,1.425,1.511c0.596,0.347,1.254,0.521,1.978,0.521s1.386-0.174,1.989-0.521
			c0.601-0.349,1.079-0.851,1.434-1.511c0.354-0.658,0.532-1.427,0.532-2.306C139.612,330.31,139.434,329.546,139.08,328.894z"/>
		<path fill="#010101" d="M148.52,325.853c0.766-0.439,1.638-0.659,2.616-0.659c1.049,0,1.99,0.248,2.828,0.744
			c0.836,0.497,1.495,1.194,1.978,2.094c0.481,0.9,0.724,1.945,0.724,3.137c0,1.177-0.241,2.227-0.724,3.146
			c-0.481,0.921-1.145,1.637-1.988,2.146c-0.843,0.51-1.782,0.766-2.816,0.766c-1.007,0-1.89-0.219-2.646-0.659
			c-0.759-0.438-1.329-1-1.711-1.681v2.146h-1.936v-15.732h1.936v6.25C147.174,326.859,147.755,326.292,148.52,325.853z
			 M154.154,328.872c-0.354-0.652-0.833-1.148-1.436-1.488c-0.603-0.339-1.266-0.511-1.987-0.511c-0.709,0-1.364,0.174-1.967,0.521
			c-0.604,0.347-1.084,0.852-1.445,1.51c-0.36,0.659-0.542,1.42-0.542,2.286c0,0.879,0.181,1.647,0.542,2.306
			c0.361,0.66,0.842,1.163,1.445,1.511c0.603,0.347,1.258,0.521,1.967,0.521c0.722,0,1.386-0.174,1.987-0.521
			c0.603-0.349,1.081-0.851,1.436-1.511c0.354-0.658,0.532-1.435,0.532-2.327C154.687,330.29,154.508,329.524,154.154,328.872z"/>
		<path fill="#010101" d="M161.151,321.303v15.732h-1.936v-15.732H161.151z"/>
		<path fill="#010101" d="M175.012,331.933H165.7c0.07,1.147,0.464,2.045,1.18,2.689c0.715,0.645,1.584,0.968,2.604,0.968
			c0.836,0,1.534-0.195,2.095-0.584c0.56-0.391,0.952-0.911,1.181-1.563h2.083c-0.313,1.12-0.936,2.031-1.871,2.731
			c-0.936,0.702-2.098,1.053-3.487,1.053c-1.104,0-2.094-0.248-2.966-0.745c-0.872-0.496-1.556-1.201-2.052-2.115
			c-0.497-0.915-0.744-1.974-0.744-3.179c0-1.205,0.241-2.262,0.723-3.168c0.481-0.907,1.159-1.605,2.031-2.095
			c0.871-0.488,1.873-0.732,3.008-0.732c1.105,0,2.084,0.241,2.934,0.723c0.851,0.482,1.507,1.146,1.968,1.989
			c0.46,0.843,0.69,1.796,0.69,2.858C175.076,331.133,175.054,331.522,175.012,331.933z M172.587,328.458
			c-0.326-0.531-0.769-0.935-1.329-1.212c-0.56-0.276-1.18-0.414-1.86-0.414c-0.979,0-1.812,0.313-2.498,0.936
			c-0.687,0.624-1.081,1.488-1.181,2.594h7.357C173.078,329.624,172.914,328.989,172.587,328.458z"/>
		<path fill="#010101" d="M194.063,325.736c0.709,0.376,1.269,0.938,1.681,1.69c0.411,0.751,0.616,1.666,0.616,2.741v6.867h-1.914
			v-6.59c0-1.162-0.287-2.053-0.861-2.669c-0.574-0.616-1.35-0.924-2.327-0.924c-1.007,0-1.808,0.322-2.403,0.967
			c-0.595,0.646-0.894,1.578-0.894,2.796v6.42h-1.914v-6.59c0-1.162-0.287-2.053-0.859-2.669c-0.574-0.616-1.351-0.924-2.329-0.924
			c-1.007,0-1.807,0.322-2.402,0.967c-0.596,0.646-0.893,1.578-0.893,2.796v6.42h-1.936v-11.65h1.936v1.68
			c0.383-0.609,0.896-1.077,1.541-1.403c0.646-0.326,1.357-0.489,2.138-0.489c0.979,0,1.842,0.22,2.594,0.658
			c0.75,0.439,1.311,1.084,1.68,1.936c0.326-0.821,0.863-1.46,1.616-1.914c0.751-0.452,1.587-0.68,2.509-0.68
			C192.546,325.173,193.354,325.36,194.063,325.736z"/>
		<path fill="#010101" d="M210.094,331.933h-9.312c0.069,1.147,0.464,2.045,1.18,2.689c0.716,0.645,1.584,0.968,2.604,0.968
			c0.836,0,1.534-0.195,2.095-0.584c0.56-0.391,0.953-0.911,1.181-1.563h2.083c-0.313,1.12-0.936,2.031-1.871,2.731
			c-0.936,0.702-2.098,1.053-3.487,1.053c-1.104,0-2.094-0.248-2.966-0.745c-0.872-0.496-1.556-1.201-2.052-2.115
			c-0.497-0.915-0.745-1.974-0.745-3.179c0-1.205,0.241-2.262,0.724-3.168c0.481-0.907,1.159-1.605,2.031-2.095
			c0.871-0.488,1.873-0.732,3.008-0.732c1.105,0,2.084,0.241,2.934,0.723c0.851,0.482,1.508,1.146,1.968,1.989
			c0.459,0.843,0.69,1.796,0.69,2.858C210.158,331.133,210.136,331.522,210.094,331.933z M207.669,328.458
			c-0.326-0.531-0.769-0.935-1.328-1.212c-0.56-0.276-1.18-0.414-1.86-0.414c-0.979,0-1.812,0.313-2.498,0.936
			c-0.687,0.624-1.081,1.488-1.181,2.594h7.356C208.16,329.624,207.995,328.989,207.669,328.458z"/>
		<path fill="#010101" d="M221.83,326.458c0.879,0.858,1.318,2.096,1.318,3.71v6.867h-1.914v-6.59c0-1.162-0.29-2.053-0.872-2.669
			c-0.581-0.616-1.375-0.924-2.382-0.924c-1.02,0-1.832,0.318-2.434,0.957c-0.603,0.638-0.904,1.566-0.904,2.785v6.441h-1.936
			v-11.65h1.936v1.659c0.384-0.595,0.904-1.057,1.563-1.382c0.66-0.326,1.386-0.489,2.18-0.489
			C219.804,325.173,220.951,325.601,221.83,326.458z"/>
		<path fill="#010101" d="M228.677,326.979v6.867c0,0.566,0.121,0.968,0.361,1.201c0.241,0.233,0.659,0.352,1.255,0.352h1.425v1.636
			h-1.744c-1.077,0-1.886-0.248-2.423-0.743c-0.539-0.496-0.809-1.311-0.809-2.445v-6.867h-1.509v-1.595h1.509v-2.934h1.936v2.934
			h3.041v1.595L228.677,326.979L228.677,326.979z"/>
	</g>
	<g>
		<path fill="#010101" d="M218.23,214.992c-0.843,0.815-2.129,1.223-3.858,1.223h-2.85v6.187h-1.935v-14.82h4.784
			c1.673,0,2.944,0.404,3.816,1.213c0.871,0.808,1.308,1.85,1.308,3.126C219.495,213.153,219.074,214.177,218.23,214.992z
			 M216.752,213.917c0.51-0.468,0.766-1.135,0.766-1.998c0-1.829-1.049-2.743-3.146-2.743h-2.85v5.442h2.85
			C215.449,214.619,216.243,214.385,216.752,213.917z"/>
		<path fill="#010101" d="M225.288,211.089c0.631-0.368,1.4-0.553,2.308-0.553v1.999h-0.511c-2.168,0-3.251,1.177-3.251,3.529v6.337
			h-1.936V210.75h1.936v1.893C224.173,211.976,224.658,211.458,225.288,211.089z"/>
		<path fill="#010101" d="M231.944,221.849c-0.887-0.496-1.581-1.202-2.084-2.115c-0.503-0.915-0.755-1.975-0.755-3.18
			c0-1.19,0.259-2.243,0.776-3.158c0.518-0.914,1.222-1.616,2.115-2.104c0.893-0.489,1.892-0.733,2.998-0.733
			c1.105,0,2.104,0.244,2.998,0.733c0.894,0.489,1.599,1.188,2.116,2.095c0.518,0.908,0.776,1.963,0.776,3.168
			c0,1.205-0.266,2.265-0.798,3.18c-0.531,0.913-1.251,1.619-2.158,2.115c-0.906,0.496-1.914,0.744-3.02,0.744
			C233.818,222.593,232.829,222.345,231.944,221.849z M236.865,220.403c0.608-0.326,1.103-0.814,1.478-1.467
			c0.375-0.651,0.564-1.445,0.564-2.381s-0.186-1.729-0.554-2.381s-0.851-1.138-1.445-1.457c-0.596-0.318-1.241-0.479-1.936-0.479
			c-0.709,0-1.357,0.16-1.946,0.479c-0.587,0.319-1.06,0.805-1.414,1.457c-0.354,0.651-0.531,1.445-0.531,2.381
			c0,0.95,0.173,1.75,0.521,2.402c0.349,0.652,0.813,1.138,1.395,1.457c0.58,0.318,1.219,0.479,1.913,0.479
			C235.604,220.892,236.256,220.729,236.865,220.403z"/>
		<path fill="#010101" d="M243.436,213.396c0.481-0.9,1.145-1.598,1.988-2.094c0.843-0.496,1.789-0.744,2.838-0.744
			c0.907,0,1.75,0.209,2.531,0.627c0.778,0.419,1.375,0.968,1.786,1.647v-6.166h1.955v15.734h-1.955v-2.189
			c-0.383,0.694-0.95,1.264-1.701,1.711c-0.752,0.446-1.63,0.67-2.638,0.67c-1.034,0-1.974-0.256-2.816-0.766
			c-0.844-0.511-1.507-1.227-1.988-2.147c-0.481-0.92-0.724-1.969-0.724-3.146C242.712,215.342,242.953,214.296,243.436,213.396z
			 M252.046,214.258c-0.354-0.651-0.833-1.151-1.435-1.499c-0.604-0.348-1.266-0.521-1.988-0.521c-0.723,0-1.382,0.17-1.978,0.51
			c-0.596,0.34-1.07,0.837-1.425,1.488c-0.354,0.652-0.531,1.417-0.531,2.296c0,0.894,0.177,1.669,0.531,2.329
			c0.354,0.658,0.829,1.161,1.425,1.509c0.596,0.348,1.254,0.521,1.978,0.521s1.385-0.174,1.988-0.521
			c0.602-0.348,1.08-0.851,1.435-1.509c0.354-0.659,0.532-1.429,0.532-2.308C252.578,215.675,252.4,214.91,252.046,214.258z"/>
		<path fill="#010101" d="M268.141,210.75v11.651h-1.934v-1.723c-0.369,0.595-0.883,1.06-1.542,1.393
			c-0.659,0.332-1.386,0.5-2.18,0.5c-0.908,0-1.723-0.188-2.445-0.563c-0.723-0.376-1.294-0.938-1.712-1.689
			c-0.417-0.752-0.627-1.666-0.627-2.744v-6.824h1.914v6.569c0,1.148,0.29,2.03,0.872,2.646c0.581,0.617,1.375,0.926,2.382,0.926
			c1.034,0,1.85-0.319,2.444-0.957c0.597-0.639,0.895-1.565,0.895-2.786v-6.399L268.141,210.75L268.141,210.75z"/>
		<path fill="#010101" d="M271.416,213.396c0.481-0.9,1.151-1.598,2.01-2.094c0.857-0.496,1.838-0.744,2.945-0.744
			c1.431,0,2.611,0.349,3.54,1.042c0.928,0.695,1.542,1.659,1.839,2.892h-2.084c-0.198-0.708-0.584-1.269-1.158-1.681
			c-0.575-0.411-1.286-0.615-2.136-0.615c-1.107,0-1.999,0.379-2.68,1.137c-0.681,0.759-1.021,1.832-1.021,3.222
			c0,1.402,0.34,2.488,1.021,3.253c0.681,0.766,1.572,1.148,2.68,1.148c0.85,0,1.559-0.198,2.126-0.596
			c0.566-0.396,0.956-0.964,1.168-1.7h2.084c-0.313,1.19-0.936,2.145-1.871,2.859c-0.935,0.715-2.104,1.074-3.508,1.074
			c-1.107,0-2.087-0.248-2.945-0.744c-0.857-0.496-1.527-1.198-2.01-2.104c-0.482-0.906-0.723-1.971-0.723-3.189
			C270.693,215.349,270.934,214.296,271.416,213.396z"/>
		<path fill="#010101" d="M286.682,212.344v6.867c0,0.567,0.12,0.968,0.361,1.202c0.241,0.233,0.659,0.351,1.254,0.351h1.424v1.638
			h-1.742c-1.077,0-1.887-0.248-2.425-0.744c-0.539-0.496-0.808-1.312-0.808-2.445v-6.867h-1.51v-1.595h1.51v-2.935h1.935v2.935
			h3.04v1.595L286.682,212.344L286.682,212.344z"/>
		<path fill="#010101" d="M292.125,208.475c-0.255-0.254-0.383-0.566-0.383-0.936s0.128-0.681,0.383-0.936
			c0.255-0.256,0.567-0.383,0.937-0.383c0.353,0,0.655,0.127,0.903,0.383c0.248,0.255,0.373,0.566,0.373,0.936
			c0,0.368-0.125,0.681-0.373,0.936c-0.248,0.255-0.55,0.383-0.903,0.383C292.692,208.857,292.379,208.73,292.125,208.475z
			 M293.996,210.75v11.651h-1.935V210.75H293.996z"/>
		<path fill="#010101" d="M301.628,220.615l3.614-9.865h2.063l-4.571,11.651h-2.254l-4.571-11.651h2.083L301.628,220.615z"/>
		<path fill="#010101" d="M309.282,208.475c-0.254-0.254-0.383-0.566-0.383-0.936s0.128-0.681,0.383-0.936
			c0.255-0.256,0.566-0.383,0.936-0.383c0.354,0,0.656,0.127,0.904,0.383c0.248,0.255,0.372,0.566,0.372,0.936
			c0,0.368-0.124,0.681-0.372,0.936c-0.248,0.255-0.55,0.383-0.904,0.383C309.849,208.857,309.537,208.73,309.282,208.475z
			 M311.153,210.75v11.651h-1.936V210.75H311.153z"/>
		<path fill="#010101" d="M316.809,212.344v6.867c0,0.567,0.12,0.968,0.36,1.202c0.242,0.233,0.659,0.351,1.255,0.351h1.425v1.638
			h-1.744c-1.077,0-1.885-0.248-2.423-0.744c-0.539-0.496-0.809-1.312-0.809-2.445v-6.867h-1.509v-1.595h1.509v-2.935h1.936v2.935
			h3.04v1.595L316.809,212.344L316.809,212.344z"/>
		<path fill="#010101" d="M332.224,210.75l-7.018,17.137h-1.999l2.296-5.613l-4.698-11.523h2.147l3.656,9.439l3.614-9.439
			L332.224,210.75L332.224,210.75z"/>
	</g>
	<g>
		
			<polyline fill="none" stroke="#60BC60" stroke-width="3" stroke-linecap="round" stroke-linejoin="round" stroke-miterlimit="10" points="
			596.175,136.533 599.424,133.409 605.798,138.408 609.547,137.033 610.796,128.726 621.544,128.726 623.168,136.533 
			626.543,138.408 632.916,133.567 640.79,141.294 636.291,148.156 637.665,151.405 645.663,152.905 645.663,163.527 
			637.916,165.527 636.415,169.276 640.915,175.524 633.417,183.148 626.668,178.774 622.919,180.274 621.794,188.047 
			610.796,187.546 609.422,180.398 605.923,178.898 599.174,183.398 591.426,175.149 595.925,169.026 594.301,165.027 
			586.177,163.652 586.177,153.03 594.426,151.905 596.175,147.905 591.176,141.294 593.676,138.658 		"/>
		<g>
			
				<circle fill="none" stroke="#60BC60" stroke-width="3" stroke-linecap="round" stroke-miterlimit="10" stroke-dasharray="0.9557,0,86.014,7.6457" cx="615.92" cy="158.84" r="15.06"/>
		</g>
		<path fill="none" stroke="#60BC60" stroke-width="3" stroke-linejoin="round" stroke-miterlimit="10" d="M624.23,157.863
			c0,4.588-3.72,8.318-8.309,8.318s-8.307-3.729-8.307-8.318c0-3.52,2.188-6.519,5.277-7.736l-0.028,6.838l3.339,3.128l3.34-3.069
			v-6.627C622.321,151.745,624.23,154.574,624.23,157.863z"/>
		
			<line fill="none" stroke="#60BC60" stroke-width="2" stroke-miterlimit="10" x1="619.811" y1="173.296" x2="619.811" y2="165.216"/>
		
			<line fill="none" stroke="#60BC60" stroke-width="2" stroke-linecap="round" stroke-miterlimit="10" x1="615.924" y1="173.671" x2="615.924" y2="169.256"/>
		
			<line fill="none" stroke="#60BC60" stroke-width="2" stroke-linecap="round" stroke-miterlimit="10" x1="612.78" y1="173.296" x2="612.78" y2="171.067"/>
		
			<line fill="none" stroke="#60BC60" stroke-width="2" stroke-linecap="round" stroke-miterlimit="10" x1="612.78" y1="167.526" x2="612.78" y2="165.82"/>
	</g>
	<g>
		<circle fill="none" stroke="#EBB120" stroke-width="3" stroke-miterlimit="10" cx="735.199" cy="266.922" r="27.994"/>
		<circle fill="none" stroke="#EBB120" stroke-width="3" stroke-miterlimit="10" cx="735.362" cy="264.082" r="10.609"/>
		<path fill="none" stroke="#EBB120" stroke-width="3" stroke-miterlimit="10" d="M719.389,290.045c0,0,1.8-15.404,17.019-15.404
			c15.225,0,15.225,15.404,15.225,15.404"/>
		<polyline fill="none" stroke="#EBB120" stroke-width="3" stroke-linejoin="round" stroke-miterlimit="10" points="
			750.232,290.542 764.007,303.281 771.505,294.916 759.132,282.344 		"/>
	</g>
	<g>
		<polyline fill="none" stroke="#265228" stroke-width="3" stroke-miterlimit="10" points="748.117,400.329 758.615,400.329 
			759.983,407.612 766.281,441.151 807.938,441.151 		"/>
		<polygon fill="none" stroke="#265228" stroke-width="3" stroke-miterlimit="10" points="809.604,408.159 760.086,408.159 
			764.736,432.921 803.939,432.921 		"/>
		<circle fill="none" stroke="#265228" stroke-width="3" stroke-miterlimit="10" cx="766.438" cy="447.504" r="6.353"/>
		<circle fill="none" stroke="#265228" stroke-width="3" stroke-miterlimit="10" cx="798.745" cy="447.504" r="6.353"/>
	</g>
	<g>
		
			<rect x="703.325" y="546.123" fill="none" stroke="#11153C" stroke-width="3" stroke-miterlimit="10" width="59.652" height="59.653"/>
		<path fill="none" stroke="#11153C" stroke-width="3" stroke-linecap="round" stroke-linejoin="round" stroke-miterlimit="10" d="
			M720.489,554.83v24.62c0,0,3.622-8.833,13.497-8.833c8.414,0,10.704,6.333,10.704,6.333v19.121"/>
		<path fill="none" stroke="#11153C" stroke-width="3" stroke-linecap="round" stroke-miterlimit="10" d="M738.834,563.377
			c0,0,3.112-3.112,6.291-8.236"/>
		
			<polygon fill="none" stroke="#11153C" stroke-width="3" stroke-linecap="round" stroke-linejoin="round" stroke-miterlimit="10" points="
			720.489,584.783 720.489,596.071 726.56,590 		"/>
	</g>
	<g>
		<polygon fill="none" stroke="#19A0DA" stroke-width="3" stroke-miterlimit="10" points="603.057,706.676 612.305,673.684 
			640.298,673.684 629.8,696.929 642.547,696.929 608.555,739.17 615.303,706.427 		"/>
		
			<line fill="none" stroke="#11153C" stroke-width="3" stroke-linecap="round" stroke-miterlimit="10" x1="620.219" y1="682.264" x2="614.887" y2="698.429"/>
	</g>
	<g>
		<circle fill="none" stroke="#F79021" stroke-width="3" stroke-miterlimit="10" cx="453.251" cy="758.409" r="33.326"/>
		<path fill="none" stroke="#F79021" stroke-width="3" stroke-linecap="round" stroke-linejoin="round" stroke-miterlimit="10" d="
			M443.802,777.695c0,0-23.992-17.761-2.96-39.575l12.449,26.488l13.416-26.488c0,0,21.188,19.012-2.181,39.575"/>
	</g>
	<g>
		<circle fill="none" stroke="#AC4D9D" stroke-width="3" stroke-miterlimit="10" cx="286.813" cy="710.766" r="34.158"/>
		<circle fill="none" stroke="#AC4D9D" stroke-width="3" stroke-miterlimit="10" cx="286.813" cy="710.766" r="23.411"/>
		
			<line fill="none" stroke="#AC4D9D" stroke-width="3" stroke-miterlimit="10" x1="286.813" y1="677.355" x2="286.813" y2="687.353"/>
		
			<line fill="none" stroke="#AC4D9D" stroke-width="3" stroke-miterlimit="10" x1="286.813" y1="744.174" x2="286.813" y2="734.177"/>
		
			<line fill="none" stroke="#AC4D9D" stroke-width="3" stroke-miterlimit="10" x1="310.223" y1="709.182" x2="320.932" y2="709.182"/>
		
			<line fill="none" stroke="#AC4D9D" stroke-width="3" stroke-miterlimit="10" x1="305.044" y1="695.659" x2="314.201" y2="690.104"/>
	</g>
	<g>
		<polyline fill="none" stroke="#471D41" stroke-width="3" stroke-miterlimit="10" points="198.659,586.568 198.659,604.823 
			183.162,604.823 158.048,604.823 158.048,578.069 166.546,578.069 183.162,578.069 		"/>
		<polyline fill="none" stroke="#471D41" stroke-width="3" stroke-miterlimit="10" points="198.659,586.568 198.659,578.069 
			183.162,578.069 183.162,559.454 198.659,559.454 212.406,559.454 212.406,604.823 198.659,604.823 183.162,604.823 		"/>
		<line fill="none" stroke="#471D41" stroke-miterlimit="10" x1="198.659" y1="578.069" x2="183.162" y2="578.069"/>
		<polyline fill="none" stroke="#471D41" stroke-width="3" stroke-miterlimit="10" points="166.546,578.069 166.546,541.209 
			198.659,541.209 198.659,559.454 		"/>
		
			<line fill="none" stroke="#471D41" stroke-width="2" stroke-linecap="round" stroke-miterlimit="10" x1="193.285" y1="569.702" x2="204.032" y2="569.702"/>
		
			<line fill="none" stroke="#471D41" stroke-width="2" stroke-linecap="round" stroke-miterlimit="10" x1="189.161" y1="588.99" x2="189.161" y2="604.823"/>
		
			<line fill="none" stroke="#471D41" stroke-width="2" stroke-linecap="round" stroke-miterlimit="10" x1="178.353" y1="588.99" x2="178.353" y2="604.823"/>
		
			<line fill="none" stroke="#471D41" stroke-width="2" stroke-linecap="round" stroke-miterlimit="10" x1="166.546" y1="588.99" x2="166.546" y2="604.823"/>
	</g>
	<g>
		<g>
			<circle fill="none" stroke="#B4952F" stroke-width="3" stroke-miterlimit="10" cx="140.607" cy="419.495" r="12.707"/>
			<path fill="none" stroke="#B4952F" stroke-width="3" stroke-miterlimit="10" d="M159.917,450.98c0,0,0-18.446-18.232-18.446
				c-18.23,0-20.384,18.446-20.384,18.446H159.917z"/>
		</g>
		<g>
			<circle fill="none" stroke="#B4952F" stroke-width="3" stroke-miterlimit="10" cx="156.281" cy="398.73" r="12.706"/>
			<path fill="none" stroke="#B4952F" stroke-width="3" stroke-miterlimit="10" d="M151.251,412.561
				c1.8-0.5,3.829-0.791,6.109-0.791c18.226,0,18.226,18.445,18.226,18.445h-28.154"/>
		</g>
		<g>
			<circle fill="none" stroke="#B4952F" stroke-width="3" stroke-miterlimit="10" cx="119.794" cy="398.73" r="12.706"/>
			<path fill="none" stroke="#B4952F" stroke-width="3" stroke-miterlimit="10" d="M133.776,430.215h-33.294
				c0,0,2.16-18.445,20.386-18.445c3.458,0,6.259,0.66,8.528,1.73"/>
		</g>
	</g>
	<g>
		<path fill="none" stroke="#4D55A4" stroke-width="3" stroke-linecap="round" stroke-linejoin="round" stroke-miterlimit="10" d="
			M291.208,147.931v0.006l3.063,6.277l-3.538,1.982c0,0,2.974,4.948,0.284,13.795l3.254,2.621l-4.528,7.711l-3.539-1.913
			c0,0-4.319,5.169-11.253,6.301l-0.425,4.603h-9.2l-0.141-4.247c0,0-4.183-1.464-7.665-3.747"/>
		<path fill="none" stroke="#4D55A4" stroke-width="3" stroke-linecap="round" stroke-linejoin="round" stroke-miterlimit="10" d="
			M248.11,160.889l0.939-4.153l-3.628-2.311l4.812-7.831l3.583,1.932c0,0,3.821-4.954,11.419-6.793v-4.104h9.526v4.06
			c0,0,1.625,0.361,3.884,1.291"/>
		<path fill="none" stroke="#4D55A4" stroke-width="3" stroke-linecap="round" stroke-linejoin="round" stroke-miterlimit="10" d="
			M244.712,176.916l41.984-41.985l-3.396-3.208c0,0-1.649-3.161,1.792-3.302c2.923-0.121,14.342,0,14.342,0s2.642-0.096,2.546,2.453
			c-0.095,2.549,0.003,4.718,0.003,4.718v9.906c0,0-0.318,2.973-3.87,1.605l-3.021-3.02l-41.701,41.325"/>
	</g>
	<g>
		<path fill="none" stroke="#2177BC" stroke-width="3" stroke-linecap="round" stroke-linejoin="round" stroke-miterlimit="10" d="
			M197.452,274.809c0,0,17.913,16.164-3.999,25.328h-54.154c0,0-19.024-8.727-3.499-25.328c0,0,5.331-0.832,6.331-4.999
			c1-4.165,3.665-5.999,8.332-5.499c4.665,0.5,5.833,0.333,7.332-3.166c1.5-3.499,14.497-14.331,28.994,0"/>
		
			<polyline fill="none" stroke="#2177BC" stroke-width="3" stroke-linecap="round" stroke-linejoin="round" stroke-miterlimit="10" points="
			165.75,273.103 178.497,292.848 206.116,257.106 		"/>
	</g>
	<g>
		<defs>
			<filter id="Adobe_OpacityMaskFilter" filterUnits="userSpaceOnUse" x="313.662" y="359.172" width="292.319" height="204.649">
				<feColorMatrix  type="matrix" values="1 0 0 0 0  0 1 0 0 0  0 0 1 0 0  0 0 0 1 0"/>
			</filter>
		</defs>
		<mask maskUnits="userSpaceOnUse" x="313.662" y="359.172" width="292.319" height="204.649" id="b_2_">
			<g filter="url(#Adobe_OpacityMaskFilter)">
				<path id="a_2_" fill="#FFFFFF" d="M313.984,359.114h292.168v204.085H313.984V359.114z"/>
			</g>
		</mask>
		<path mask="url(#b_2_)" fill="#1DA0DB" d="M435.299,381.455c9.429-9.816,22.555-15.896,37.058-15.896
			c19.334,0,36.092,10.739,45.115,26.746c8.01-3.582,16.684-5.43,25.457-5.425c34.801,0,63.052,28.465,63.052,63.59
			c0,35.123-28.252,63.588-63.052,63.588c-4.255,0-8.4-0.428-12.46-1.235c-7.895,14.071-22.987,23.632-40.176,23.632
			c-6.996,0.014-13.905-1.573-20.192-4.642c-8.004,18.798-26.64,32.008-48.337,32.008c-22.665,0-41.89-14.284-49.303-34.371
			c-3.301,0.698-6.663,1.045-10.033,1.045c-26.961,0-48.767-22.128-48.767-49.302c0-18.262,9.818-34.156,24.384-42.751
			c-3.09-7.117-4.681-14.797-4.673-22.555c0-31.367,25.457-56.715,56.823-56.715c18.367,0,34.802,8.753,45.115,22.342"/>
		<path fill="#FFFFFF" d="M356.242,465.237c-0.186,0.479,0.064,0.579,0.123,0.663c0.549,0.396,1.108,0.687,1.666,1.011
			c2.986,1.577,5.8,2.038,8.745,2.038c5.993,0,9.72-3.188,9.72-8.322v-0.102c0-4.746-4.21-6.477-8.143-7.71l-0.514-0.169
			c-2.977-0.964-5.543-1.802-5.543-3.759v-0.099c0-1.676,1.503-2.912,3.825-2.912c2.577,0,5.649,0.859,7.615,1.945
			c0,0,0.582,0.375,0.792-0.187c0.115-0.305,1.117-2.988,1.225-3.289c0.115-0.313-0.083-0.551-0.289-0.673
			c-2.258-1.375-5.372-2.31-8.595-2.31l-0.6,0.002c-5.489,0-9.322,3.318-9.322,8.065v0.104c0,5.005,4.232,6.637,8.185,7.766
			l0.636,0.197c2.878,0.883,5.37,1.653,5.37,3.672v0.103c0,1.858-1.621,3.242-4.223,3.242c-1.01,0-4.23-0.018-7.723-2.222
			c-0.422-0.247-0.662-0.424-0.988-0.623c-0.172-0.104-0.602-0.291-0.789,0.271l-1.182,3.284 M443.994,465.228
			c-0.185,0.48,0.063,0.58,0.126,0.664c0.547,0.398,1.106,0.686,1.666,1.011c2.985,1.579,5.8,2.04,8.743,2.04
			c5.995,0,9.722-3.188,9.722-8.323v-0.102c0-4.745-4.2-6.476-8.143-7.712l-0.517-0.167c-2.974-0.964-5.542-1.804-5.542-3.759v-0.1
			c0-1.678,1.504-2.911,3.824-2.911c2.579,0,5.639,0.856,7.616,1.942c0,0,0.58,0.377,0.796-0.186
			c0.113-0.303,1.114-2.986,1.212-3.286c0.116-0.313-0.086-0.553-0.288-0.674c-2.258-1.377-5.373-2.311-8.594-2.311l-0.601,0.003
			c-5.488,0-9.324,3.319-9.324,8.065v0.102c0,5.007,4.231,6.64,8.187,7.766l0.635,0.199c2.891,0.883,5.37,1.652,5.37,3.672v0.102
			c0,1.856-1.621,3.243-4.222,3.243c-1.015,0-4.241-0.018-7.724-2.224c-0.422-0.247-0.668-0.414-0.989-0.621
			c-0.107-0.069-0.613-0.266-0.787,0.271l-1.182,3.284 M503.92,455.168c0,2.897-0.541,5.187-1.602,6.81
			c-1.056,1.599-2.653,2.383-4.877,2.383s-3.813-0.776-4.854-2.373c-1.049-1.61-1.579-3.91-1.579-6.811
			c0-2.899,0.532-5.176,1.579-6.777c1.041-1.59,2.62-2.352,4.854-2.352c2.232,0,3.825,0.77,4.877,2.352
			c1.065,1.602,1.602,3.878,1.602,6.777 M508.925,449.796c-0.491-1.664-1.256-3.125-2.275-4.349
			c-1.021-1.226-2.312-2.215-3.847-2.924c-1.525-0.713-3.33-1.071-5.371-1.071c-2.04,0-3.836,0.36-5.371,1.071
			c-1.523,0.716-2.824,1.699-3.847,2.924c-1.019,1.224-1.781,2.685-2.274,4.349c-0.49,1.656-0.737,3.46-0.737,5.381
			c0,1.924,0.247,3.727,0.737,5.381c0.49,1.665,1.254,3.126,2.274,4.352c1.021,1.224,2.322,2.2,3.847,2.899
			c1.535,0.696,3.343,1.051,5.371,1.051c2.03,0,3.836-0.354,5.36-1.051c1.524-0.695,2.825-1.677,3.845-2.899
			c1.02-1.225,1.784-2.687,2.278-4.352c0.488-1.654,0.733-3.457,0.733-5.381c0-1.912-0.245-3.726-0.733-5.381 M550.055,463.544
			c-0.165-0.486-0.64-0.303-0.64-0.303c-0.729,0.276-1.504,0.535-2.331,0.664c-0.834,0.131-1.762,0.196-2.737,0.196
			c-2.418,0-4.354-0.719-5.729-2.146c-1.384-1.429-2.157-3.728-2.147-6.843c0.009-2.835,0.693-4.962,1.924-6.595
			c1.213-1.61,3.084-2.448,5.554-2.448c2.063,0,3.641,0.237,5.296,0.755c0,0,0.394,0.172,0.58-0.347
			c0.439-1.212,0.765-2.083,1.233-3.415c0.135-0.381-0.193-0.543-0.311-0.587c-0.649-0.254-2.182-0.67-3.344-0.846
			c-1.083-0.164-2.339-0.25-3.759-0.25c-2.104,0-3.974,0.359-5.573,1.072c-1.601,0.712-2.954,1.695-4.026,2.921
			c-1.074,1.226-1.895,2.687-2.439,4.35c-0.543,1.656-0.816,3.471-0.816,5.395c0,4.144,1.117,7.506,3.329,9.965
			c2.212,2.47,5.544,3.716,9.884,3.716c2.566,0,5.199-0.52,7.09-1.267c0,0,0.36-0.174,0.203-0.598l-1.235-3.394 M558.813,452.375
			c0.239-1.61,0.681-2.954,1.375-3.997c1.038-1.589,2.62-2.46,4.844-2.46c2.226,0,3.697,0.875,4.749,2.46
			c0.696,1.049,1.001,2.439,1.117,3.997l-12.138-0.004L558.813,452.375z M575.677,448.83c-0.427-1.601-1.481-3.223-2.171-3.962
			c-1.096-1.171-2.157-2-3.223-2.451c-1.534-0.652-3.188-0.988-4.854-0.984c-2.117,0-4.038,0.357-5.596,1.083
			c-1.56,0.732-2.869,1.73-3.9,2.977c-1.03,1.247-1.804,2.718-2.298,4.402c-0.494,1.666-0.744,3.491-0.744,5.403
			c0,1.957,0.26,3.77,0.77,5.414c0.515,1.654,1.341,3.104,2.458,4.306c1.117,1.216,2.547,2.16,4.266,2.826
			c1.709,0.659,3.779,1.003,6.154,0.995c4.897-0.018,7.476-1.104,8.529-1.696c0.188-0.106,0.365-0.286,0.146-0.811l-1.107-3.103
			c-0.171-0.464-0.639-0.297-0.639-0.297c-1.215,0.453-2.934,1.267-6.959,1.255c-2.632-0.005-4.578-0.778-5.803-1.995
			c-1.245-1.246-1.868-3.063-1.965-5.64l16.972,0.015c0,0,0.447-0.007,0.491-0.441c0.021-0.18,0.582-3.482-0.503-7.293
			L575.677,448.83z M423.147,452.375c0.24-1.61,0.682-2.954,1.375-3.997c1.039-1.589,2.623-2.46,4.845-2.46
			c2.225,0,3.694,0.875,4.747,2.46c0.696,1.049,1.004,2.439,1.118,3.997l-12.138-0.004L423.147,452.375z M440.01,448.83
			c-0.423-1.601-1.481-3.223-2.169-3.962c-1.094-1.171-2.158-2-3.222-2.451c-1.535-0.652-3.188-0.988-4.854-0.984
			c-2.117,0-4.038,0.357-5.596,1.083c-1.559,0.732-2.869,1.73-3.9,2.977c-1.028,1.246-1.804,2.718-2.298,4.402
			c-0.494,1.666-0.742,3.491-0.742,5.403c0,1.957,0.258,3.77,0.77,5.414c0.514,1.654,1.344,3.104,2.448,4.306
			c1.117,1.216,2.547,2.16,4.266,2.826c1.707,0.659,3.77,1.003,6.155,0.995c4.898-0.018,7.477-1.104,8.529-1.696
			c0.188-0.106,0.365-0.286,0.143-0.811l-1.107-3.103c-0.17-0.464-0.638-0.297-0.638-0.297c-1.215,0.453-2.934,1.267-6.959,1.255
			c-2.623-0.005-4.577-0.778-5.802-1.995c-1.246-1.246-1.869-3.063-1.965-5.64l16.972,0.015c0,0,0.446-0.007,0.492-0.441
			c0.019-0.18,0.581-3.482-0.507-7.293L440.01,448.83z M386.519,463.438c-0.664-0.53-0.758-0.661-0.977-1.007
			c-0.336-0.519-0.508-1.257-0.508-2.201c0-1.483,0.494-2.558,1.514-3.276c-0.01,0.002,1.46-1.268,4.92-1.225
			c1.539,0.027,3.076,0.158,4.597,0.394v7.698h0.002c0,0-2.147,0.463-4.576,0.609c-3.447,0.208-4.973-0.992-4.963-0.987
			L386.519,463.438z M393.265,451.517c-0.687-0.051-1.58-0.075-2.642-0.075c-1.451,0-2.859,0.18-4.169,0.534
			c-1.32,0.357-2.514,0.908-3.534,1.645c-1.023,0.728-1.863,1.684-2.458,2.792c-0.601,1.117-0.906,2.425-0.906,3.908
			c0,1.504,0.26,2.805,0.774,3.866c0.507,1.055,1.267,1.967,2.215,2.65c0.94,0.687,2.104,1.194,3.445,1.494
			c1.332,0.305,2.837,0.457,4.491,0.457c1.74,0,3.468-0.145,5.145-0.428c1.428-0.245,2.849-0.521,4.263-0.827
			c0.566-0.131,1.193-0.303,1.193-0.303c0.42-0.105,0.387-0.554,0.387-0.554l-0.01-15.466c0-3.395-0.906-5.919-2.697-7.477
			c-1.782-1.558-4.395-2.343-7.775-2.343c-1.268,0-3.319,0.172-4.544,0.418c0,0-3.693,0.719-5.219,1.912
			c0,0-0.336,0.207-0.152,0.673l1.203,3.225c0.148,0.416,0.555,0.274,0.555,0.274s0.129-0.051,0.279-0.141
			c3.255-1.773,7.379-1.719,7.379-1.719c1.826,0,3.244,0.372,4.188,1.096c0.926,0.711,1.397,1.783,1.397,4.039v0.716
			c-1.45-0.211-2.794-0.332-2.794-0.332L393.265,451.517z M529.682,442.782c0.1-0.232-0.008-0.504-0.24-0.604
			c-0.004-0.002-0.01-0.004-0.014-0.006c-0.289-0.109-1.73-0.414-2.837-0.482c-2.127-0.133-3.309,0.228-4.372,0.701
			c-1.052,0.476-2.213,1.236-2.856,2.117l-0.002-2.062c0-0.283-0.201-0.513-0.486-0.513h-4.341c-0.279,0-0.485,0.23-0.485,0.513
			v25.241c0,0.282,0.231,0.514,0.516,0.514h4.448c0.281,0,0.513-0.23,0.513-0.514v-12.674c0-1.696,0.188-3.384,0.56-4.445
			c0.368-1.054,0.866-1.891,1.483-2.492c0.586-0.582,1.305-1.015,2.093-1.258c0.741-0.214,1.508-0.32,2.279-0.32
			c0.885,0,1.855,0.228,1.855,0.228c0.327,0.035,0.512-0.164,0.619-0.459c0.292-0.774,1.117-3.093,1.278-3.556"/>
		<path fill="#FFFFFF" d="M488.146,431.133c-0.551-0.167-1.107-0.299-1.674-0.398c-0.762-0.127-1.533-0.186-2.304-0.178
			c-3.064,0-5.479,0.867-7.178,2.576c-1.686,1.697-2.83,4.284-3.403,7.687l-0.209,1.147h-3.847c0,0-0.469-0.02-0.566,0.494
			l-0.632,3.522c-0.044,0.337,0.102,0.547,0.552,0.545h3.743l-3.798,21.205c-0.299,1.707-0.638,3.111-1.016,4.177
			c-0.37,1.052-0.733,1.838-1.182,2.41c-0.435,0.553-0.844,0.96-1.553,1.195c-0.584,0.198-1.256,0.288-1.992,0.288
			c-0.409,0-0.956-0.068-1.358-0.148c-0.401-0.079-0.612-0.169-0.913-0.296c0,0-0.439-0.169-0.613,0.271
			c-0.142,0.361-1.139,3.104-1.258,3.443c-0.119,0.337,0.049,0.601,0.262,0.677c0.5,0.18,0.869,0.29,1.548,0.453
			c0.943,0.223,1.738,0.236,2.481,0.236c1.561,0,2.981-0.222,4.162-0.646c1.183-0.43,2.216-1.176,3.13-2.188
			c0.985-1.09,1.605-2.232,2.203-3.789c0.585-1.544,1.087-3.46,1.486-5.693l3.817-21.598h5.581c0,0,0.47,0.018,0.568-0.492
			l0.633-3.525c0.043-0.338-0.104-0.546-0.557-0.544h-5.418c0.028-0.124,0.275-2.029,0.898-3.821
			c0.263-0.766,0.764-1.385,1.185-1.809c0.396-0.404,0.884-0.707,1.42-0.883c0.591-0.182,1.202-0.271,1.819-0.265
			c0.511,0,1.011,0.064,1.394,0.144c0.522,0.11,0.729,0.169,0.867,0.21c0.551,0.168,0.623,0.006,0.733-0.262l1.295-3.559
			C488.592,431.341,488.268,431.18,488.146,431.133 M412.448,467.777c0,0.282-0.202,0.515-0.485,0.515h-4.493
			c-0.285,0-0.486-0.231-0.486-0.515v-36.163c0-0.283,0.201-0.513,0.486-0.513h4.493c0.283,0,0.485,0.23,0.485,0.513V467.777"/>
	</g>
</g>
</svg>
